<svg width="75" height="75" viewBox="0 0 75 75" fill="none" xmlns="http://www.w3.org/2000/svg">
<path d="M0 20C0 8.9543 8.95431 0 20 0H75V55C75 66.0457 66.0457 75 55 75H0V20Z" fill="#5569CD"/>
<path d="M16 25.0853L16.3555 49.2559L20.2654 51.2109V27.0403L36.9716 17.7986L53.8555 27.0403V46.7678L36.9716 56.3649L28.4408 51.2109V32.0166L36.9716 27.0403L45.8578 32.0166V42.3246L36.9716 47.3009L36.2607 46.7678V36.8152L41.0592 33.6161L36.9716 31.4834L32.173 34.327V49.2559L36.9716 52.2772L50.1232 44.4573V29.7062L36.9716 22.064L24.1754 29.7062V53.8768L36.9716 61.3412L58.1209 49.2559V25.0853L36.9716 13L16 25.0853Z" fill="white"/>
</svg>
