<svg width="208" height="188" viewBox="0 0 208 188" fill="none" xmlns="http://www.w3.org/2000/svg">
<g filter="url(#filter0_d_531_58)">
<path d="M104 0C69.4997 0 61.6575 34.6484 61.338 77.8405C61.3247 79.6373 62.3806 81.2561 63.9993 82.0123C70.0958 84.8612 80.9294 87.0631 89.3454 88.3717H118.655C127.071 87.0631 137.905 84.8608 144.002 82.0123C145.62 81.2565 146.676 79.6377 146.663 77.8405C146.343 34.648 138.501 0 104 0Z" fill="#694B4B"/>
<path d="M61.338 77.8405C61.3247 79.6374 62.3806 81.2561 63.9993 82.0124C70.0958 84.8612 80.9294 87.0631 89.3454 88.3717H104V37.9312C104 37.9312 86.8622 38.7675 90.2075 37.9312C104 34.4827 131.587 17.2414 115.543 1.52734C112.073 0.529687 108.24 0 104.001 0C69.4997 0.000390624 61.6575 34.6484 61.338 77.8405Z" fill="#5A4146"/>
<path d="M155.804 168.965V115.851C155.804 110.283 152.455 105.26 147.316 103.119L122.987 92.982C120.715 92.0359 119.236 89.8164 119.236 87.3562V79.9922H88.7628V87.3562C88.7628 89.8164 87.2835 92.0355 85.0124 92.982L60.6832 103.119C55.543 105.261 52.1953 110.283 52.1953 115.851V168.965H155.804Z" fill="#D99F71"/>
<path d="M147.316 103.118L130.213 95.9922C123.916 103.591 117.674 109.324 112.239 113.527H95.7605C90.3257 109.324 84.0827 103.591 77.7863 95.9922L60.6832 103.118C55.543 105.26 52.1953 110.282 52.1953 115.85V168.964H155.804V115.85C155.804 110.282 152.455 105.26 147.316 103.118Z" fill="#787878"/>
<path d="M54.1766 108.793C52.9254 110.887 52.1973 113.302 52.1973 115.848V168.962H72.9672V127.583L54.1766 108.793Z" fill="#434343"/>
<path d="M153.828 108.793C155.079 110.887 155.807 113.302 155.807 115.848V168.962H135.037V127.583L153.828 108.793Z" fill="#434343"/>
<path d="M134.246 42.1165L132.009 66.7168C131.644 70.7336 129.315 74.3098 125.789 76.2684L109.919 85.0852C106.237 87.1305 101.761 87.1305 98.08 85.0852L82.2097 76.2684C78.6839 74.3098 76.3554 70.7336 75.9902 66.7168L73.8308 42.9614C73.6633 41.1192 74.9738 39.4794 76.8113 39.2649C84.9499 38.3149 106.326 35.3356 119.264 29.0524C120.9 28.2575 122.819 28.8985 123.726 30.4751C125.21 33.0528 127.947 36.6583 132.437 38.7966C133.679 39.3884 134.37 40.7462 134.246 42.1165Z" fill="#EABF9D"/>
<path d="M200.551 179.309H7.44843C5.54414 179.309 4 177.765 4 175.861V168.964C4 167.06 5.54414 165.516 7.44843 165.516H200.552C202.456 165.516 204 167.06 204 168.964V175.861C204 177.765 202.455 179.309 200.551 179.309Z" fill="#F5DCB4"/>
<path d="M73.8308 42.9618L75.9902 66.7172C76.3554 70.734 78.6836 74.3098 82.2097 76.2688L98.08 85.0855C99.5327 85.8926 101.118 86.2879 102.72 86.4574L98.2538 75.2934C97.4909 73.3856 97.0163 71.3754 96.8456 69.3278L94.9472 46.5501C94.8019 44.8048 95.9839 43.2442 97.6984 42.8884C105.045 41.3649 112.904 39.2934 119.444 36.536C121.6 39.5177 124.83 42.8126 129.471 45.0231C130.402 45.4661 130.844 45.668 133.899 45.9188L134.245 42.1157C134.37 40.7391 133.667 39.3837 132.419 38.788C127.939 36.6489 125.207 33.0493 123.726 30.4751C122.819 28.8985 120.9 28.2575 119.264 29.0524C106.326 35.336 84.9503 38.3149 76.8109 39.2649C74.9742 39.4798 73.6633 41.1192 73.8308 42.9618Z" fill="#D99F71"/>
<path d="M72.4769 100.392C78.3648 107.498 84.7797 113.752 91.5425 118.982L93.4058 120.423H95.7613H112.239H114.595L116.458 118.982C123.221 113.753 129.636 107.498 135.524 100.392L136.871 98.7664L130.213 95.9922C123.917 103.591 117.674 109.324 112.239 113.527H95.7609C90.3261 109.324 84.0832 103.591 77.7867 95.9922L71.1289 98.7664L72.4769 100.392Z" fill="#434343"/>
<path d="M134.965 165.172H72.8965C69.0875 165.172 66 162.085 66 158.276V116.896C66 113.087 69.0875 110 72.8965 110H134.965C138.774 110 141.862 113.087 141.862 116.896V158.276C141.862 162.085 138.774 165.172 134.965 165.172Z" fill="#1A1A1A"/>
<path d="M96 135C96 132.239 98.2386 130 101 130H111V140C111 142.761 108.761 145 106 145H96V135Z" fill="#5569CD"/>
<path d="M99.1992 135.12L99.2703 139.954L100.052 140.345V135.511L103.394 133.663L106.77 135.511V139.457L103.394 141.376L101.687 140.345V136.506L103.394 135.511L105.171 136.506V138.568L103.394 139.563L103.251 139.457V137.466L104.211 136.826L103.394 136.4L102.434 136.969V139.954L103.394 140.559L106.024 138.995V136.044L103.394 134.516L100.834 136.044V140.878L103.394 142.371L107.623 139.954V135.12L103.394 132.703L99.1992 135.12Z" fill="white"/>
</g>
<defs>
<filter id="filter0_d_531_58" x="0" y="0" width="208" height="187.309" filterUnits="userSpaceOnUse" color-interpolation-filters="sRGB">
<feFlood flood-opacity="0" result="BackgroundImageFix"/>
<feColorMatrix in="SourceAlpha" type="matrix" values="0 0 0 0 0 0 0 0 0 0 0 0 0 0 0 0 0 0 127 0" result="hardAlpha"/>
<feOffset dy="4"/>
<feGaussianBlur stdDeviation="2"/>
<feComposite in2="hardAlpha" operator="out"/>
<feColorMatrix type="matrix" values="0 0 0 0 0 0 0 0 0 0 0 0 0 0 0 0 0 0 0.25 0"/>
<feBlend mode="normal" in2="BackgroundImageFix" result="effect1_dropShadow_531_58"/>
<feBlend mode="normal" in="SourceGraphic" in2="effect1_dropShadow_531_58" result="shape"/>
</filter>
</defs>
</svg>
