<svg width="196" height="117" viewBox="0 0 196 117" fill="none" xmlns="http://www.w3.org/2000/svg">
<path d="M61 20C61 8.9543 69.9543 0 81 0H136V55C136 66.0457 127.046 75 116 75H61V20Z" fill="#5569CD"/>
<path d="M77 25.5921L77.3555 49.7628L81.2654 51.7177V27.5471L97.9716 18.3054L114.855 27.5471V47.2746L97.9716 56.8718L89.4408 51.7177V32.5234L97.9716 27.5471L106.858 32.5234V42.8315L97.9716 47.8078L97.2607 47.2746V37.322L102.059 34.1229L97.9716 31.9902L93.173 34.8338V49.7628L97.9716 52.7841L111.123 44.9642V30.213L97.9716 22.5708L85.1754 30.213V54.3836L97.9716 61.8481L119.121 49.7628V25.5921L97.9716 13.5068L77 25.5921Z" fill="white"/>
<path d="M23.2617 89.0781V109H17.7832V99.332L13.7695 103.873H12.1289L8.11523 99.332V109H2.63672V89.0781H4.57031L12.9492 97.5742L21.3281 89.0781H23.2617ZM36.6504 89.3711C37.6465 89.3711 38.6133 89.5371 39.5508 89.8691C40.5078 90.2012 41.3672 90.6895 42.1289 91.334C42.8906 91.9785 43.4961 92.7598 43.9453 93.6777C44.4141 94.5957 44.6484 95.6309 44.6484 96.7832C44.6484 98.2871 44.2969 99.5859 43.5938 100.68C42.8906 101.754 41.9727 102.574 40.8398 103.141C39.707 103.707 38.5059 103.99 37.2363 103.99C36.4941 103.99 35.8301 103.922 35.2441 103.785C34.6582 103.629 34.1504 103.434 33.7207 103.199V109H28.2422V89.3711H36.6504ZM33.7207 94.498V99.0391C34.0527 99.1562 34.4043 99.2539 34.7754 99.332C35.166 99.4102 35.5762 99.4492 36.0059 99.4492C36.8652 99.4492 37.5781 99.1855 38.1445 98.6582C38.7305 98.1113 39.0234 97.4863 39.0234 96.7832C39.0234 95.9824 38.7305 95.4062 38.1445 95.0547C37.5781 94.6836 36.8652 94.498 36.0059 94.498H33.7207ZM56.1035 99.0977V103.492H47.2852V99.0977H56.1035ZM66.4453 88.9316C67.5977 88.9316 68.7305 89.0781 69.8438 89.3711C70.9766 89.6445 71.8848 90.0156 72.5684 90.4844V95.7871C71.7285 95.2988 70.8984 94.8789 70.0781 94.5273C69.2578 94.1562 68.291 93.9707 67.1777 93.9707C66.5332 93.9707 65.9766 94.0684 65.5078 94.2637C65.0391 94.459 64.8047 94.7812 64.8047 95.2305C64.8047 95.7188 65.0879 96.0898 65.6543 96.3438C66.2207 96.5781 66.9141 96.8516 67.7344 97.1641L69.8438 97.9551C71.2695 98.502 72.2754 99.2441 72.8613 100.182C73.4668 101.119 73.7695 102.057 73.7695 102.994C73.7695 104.244 73.4082 105.357 72.6855 106.334C71.9629 107.291 70.9863 108.053 69.7559 108.619C68.5254 109.166 67.1484 109.439 65.625 109.439C64.4531 109.439 63.291 109.234 62.1387 108.824C60.9863 108.414 59.9805 107.906 59.1211 107.301V101.998C60.0586 102.701 61.0645 103.277 62.1387 103.727C63.2324 104.176 64.3262 104.4 65.4199 104.4C66.1035 104.4 66.6504 104.322 67.0605 104.166C67.4902 103.99 67.7051 103.697 67.7051 103.287C67.7051 102.994 67.5488 102.74 67.2363 102.525C66.9238 102.311 66.5039 102.125 65.9766 101.969L63.1934 101.09C62.0996 100.738 61.25 100.26 60.6445 99.6543C60.0391 99.0488 59.6191 98.375 59.3848 97.6328C59.1504 96.8711 59.0332 96.0996 59.0332 95.3184C59.0332 93.9316 59.3848 92.7695 60.0879 91.832C60.791 90.875 61.709 90.1523 62.8418 89.6641C63.9746 89.1758 65.1758 88.9316 66.4453 88.9316ZM83.877 93.6191C84.9121 93.6191 85.918 93.8145 86.8945 94.2051C87.8711 94.5957 88.75 95.1426 89.5312 95.8457C90.3125 96.5488 90.9277 97.3887 91.377 98.3652C91.8457 99.3223 92.0801 100.377 92.0801 101.529C92.0801 102.682 91.8457 103.746 91.377 104.723C90.9277 105.68 90.3125 106.51 89.5312 107.213C88.75 107.916 87.8711 108.463 86.8945 108.854C85.918 109.244 84.9121 109.439 83.877 109.439C82.8418 109.439 81.8359 109.244 80.8594 108.854C79.8828 108.463 79.0039 107.916 78.2227 107.213C77.4414 106.51 76.8164 105.68 76.3477 104.723C75.8984 103.746 75.6738 102.682 75.6738 101.529C75.6738 100.377 75.8984 99.3223 76.3477 98.3652C76.8164 97.3887 77.4414 96.5488 78.2227 95.8457C79.0039 95.1426 79.8828 94.5957 80.8594 94.2051C81.8359 93.8145 82.8418 93.6191 83.877 93.6191ZM83.877 98.4531C83.5254 98.4531 83.125 98.5312 82.6758 98.6875C82.2461 98.8438 81.875 99.1465 81.5625 99.5957C81.25 100.025 81.0938 100.67 81.0938 101.529C81.0938 102.369 81.25 103.014 81.5625 103.463C81.875 103.912 82.2461 104.215 82.6758 104.371C83.125 104.527 83.5254 104.605 83.877 104.605C84.248 104.605 84.6484 104.527 85.0781 104.371C85.5078 104.215 85.8789 103.912 86.1914 103.463C86.5039 103.014 86.6602 102.369 86.6602 101.529C86.6602 100.67 86.5039 100.025 86.1914 99.5957C85.8789 99.1465 85.5078 98.8438 85.0781 98.6875C84.6484 98.5312 84.248 98.4531 83.877 98.4531ZM100.195 87.9062V109H95.1562V87.9062H100.195ZM118.447 94.0586V103.023C118.447 104.371 118.135 105.523 117.51 106.48C116.904 107.438 116.064 108.17 114.99 108.678C113.916 109.186 112.686 109.439 111.299 109.439C109.912 109.439 108.682 109.186 107.607 108.678C106.533 108.17 105.684 107.438 105.059 106.48C104.453 105.523 104.15 104.371 104.15 103.023V94.0586H109.189L109.219 101.676C109.219 102.691 109.375 103.434 109.688 103.902C110.02 104.371 110.557 104.605 111.299 104.605C112.041 104.605 112.568 104.371 112.881 103.902C113.213 103.434 113.379 102.691 113.379 101.676L113.408 94.0586H118.447ZM129.082 89.6641V94.0586H133.008V98.0137H129.082V102.203C129.082 102.926 129.229 103.502 129.521 103.932C129.834 104.342 130.264 104.547 130.811 104.547C131.67 104.547 132.461 104.332 133.184 103.902V107.828C132.871 108.258 132.373 108.639 131.689 108.971C131.025 109.283 130.205 109.439 129.229 109.439C128.291 109.439 127.432 109.225 126.65 108.795C125.869 108.365 125.234 107.75 124.746 106.949C124.277 106.148 124.043 105.182 124.043 104.049V98.0137H121.523V94.9375C122.48 94.6836 123.418 94.1367 124.336 93.2969C125.273 92.4375 125.957 91.2266 126.387 89.6641H129.082ZM140.449 85.6797C141.016 85.6797 141.533 85.8164 142.002 86.0898C142.49 86.3633 142.881 86.7344 143.174 87.2031C143.467 87.6523 143.613 88.1602 143.613 88.7266C143.613 89.2734 143.467 89.7812 143.174 90.25C142.881 90.7188 142.49 91.0898 142.002 91.3633C141.533 91.6367 141.016 91.7734 140.449 91.7734C139.609 91.7734 138.877 91.4805 138.252 90.8945C137.627 90.2891 137.314 89.5664 137.314 88.7266C137.314 87.8672 137.627 87.1445 138.252 86.5586C138.877 85.9727 139.609 85.6797 140.449 85.6797ZM143.291 94.0586V109H138.252V98.1602H135.82V94.0586H143.291ZM154.6 93.6191C155.635 93.6191 156.641 93.8145 157.617 94.2051C158.594 94.5957 159.473 95.1426 160.254 95.8457C161.035 96.5488 161.65 97.3887 162.1 98.3652C162.568 99.3223 162.803 100.377 162.803 101.529C162.803 102.682 162.568 103.746 162.1 104.723C161.65 105.68 161.035 106.51 160.254 107.213C159.473 107.916 158.594 108.463 157.617 108.854C156.641 109.244 155.635 109.439 154.6 109.439C153.564 109.439 152.559 109.244 151.582 108.854C150.605 108.463 149.727 107.916 148.945 107.213C148.164 106.51 147.539 105.68 147.07 104.723C146.621 103.746 146.396 102.682 146.396 101.529C146.396 100.377 146.621 99.3223 147.07 98.3652C147.539 97.3887 148.164 96.5488 148.945 95.8457C149.727 95.1426 150.605 94.5957 151.582 94.2051C152.559 93.8145 153.564 93.6191 154.6 93.6191ZM154.6 98.4531C154.248 98.4531 153.848 98.5312 153.398 98.6875C152.969 98.8438 152.598 99.1465 152.285 99.5957C151.973 100.025 151.816 100.67 151.816 101.529C151.816 102.369 151.973 103.014 152.285 103.463C152.598 103.912 152.969 104.215 153.398 104.371C153.848 104.527 154.248 104.605 154.6 104.605C154.971 104.605 155.371 104.527 155.801 104.371C156.23 104.215 156.602 103.912 156.914 103.463C157.227 103.014 157.383 102.369 157.383 101.529C157.383 100.67 157.227 100.025 156.914 99.5957C156.602 99.1465 156.23 98.8438 155.801 98.6875C155.371 98.5312 154.971 98.4531 154.6 98.4531ZM170.918 94.0586V95.9922C171.387 95.3477 171.953 94.791 172.617 94.3223C173.301 93.8535 174.141 93.6191 175.137 93.6191C176.66 93.6191 177.9 94.1367 178.857 95.1719C179.834 96.207 180.322 97.7402 180.322 99.7715V109H175.283L175.254 100.562C175.254 99.8203 175.049 99.3027 174.639 99.0098C174.229 98.6973 173.77 98.541 173.262 98.541C172.715 98.541 172.256 98.6875 171.885 98.9805C171.514 99.2539 171.191 99.5859 170.918 99.9766V109H165.879V94.0586H170.918ZM189.492 93.6191C190.469 93.6191 191.367 93.7656 192.188 94.0586C193.027 94.332 193.701 94.7129 194.209 95.2012V99.1562C193.701 98.8438 193.125 98.5508 192.48 98.2773C191.836 97.9844 191.143 97.8379 190.4 97.8379C189.932 97.8379 189.512 97.9355 189.141 98.1309C188.789 98.3066 188.613 98.5898 188.613 98.9805C188.613 99.2539 188.721 99.459 188.936 99.5957C189.15 99.7324 189.57 99.8789 190.195 100.035L191.104 100.27C193.701 100.934 195 102.33 195 104.459C195 105.436 194.707 106.305 194.121 107.066C193.555 107.809 192.803 108.395 191.865 108.824C190.947 109.234 189.951 109.439 188.877 109.439C187.764 109.439 186.729 109.283 185.771 108.971C184.814 108.639 183.994 108.238 183.311 107.77V103.844C184.014 104.273 184.805 104.635 185.684 104.928C186.582 105.221 187.383 105.367 188.086 105.367C188.652 105.367 189.062 105.299 189.316 105.162C189.59 105.025 189.727 104.781 189.727 104.43C189.727 104.156 189.57 103.951 189.258 103.814C188.945 103.658 188.496 103.482 187.91 103.287L186.416 102.818C185.322 102.486 184.521 101.969 184.014 101.266C183.506 100.543 183.252 99.6641 183.252 98.6289C183.252 97.5938 183.525 96.7051 184.072 95.9629C184.619 95.2207 185.361 94.6445 186.299 94.2344C187.256 93.8242 188.32 93.6191 189.492 93.6191Z" fill="white"/>
</svg>
