<svg width="347" height="75" viewBox="0 0 347 75" fill="none" xmlns="http://www.w3.org/2000/svg">
<path d="M0 20C0 8.9543 8.95431 0 20 0H75V55C75 66.0457 66.0457 75 55 75H0V20Z" fill="#5569CD"/>
<path d="M16 25.0853L16.3555 49.2559L20.2654 51.2109V27.0403L36.9716 17.7986L53.8555 27.0403V46.7678L36.9716 56.3649L28.4408 51.2109V32.0166L36.9716 27.0403L45.8578 32.0166V42.3246L36.9716 47.3009L36.2607 46.7678V36.8152L41.0592 33.6161L36.9716 31.4834L32.173 34.327V49.2559L36.9716 52.2772L50.1232 44.4573V29.7062L36.9716 22.064L24.1754 29.7062V53.8768L36.9716 61.3412L58.1209 49.2559V25.0853L36.9716 13L16 25.0853Z" fill="white"/>
<path d="M116.016 24.4375V51H108.711V38.1094L103.359 44.1641H101.172L95.8203 38.1094V51H88.5156V24.4375H91.0938L102.266 35.7656L113.438 24.4375H116.016ZM133.867 24.8281C135.195 24.8281 136.484 25.0495 137.734 25.4922C139.01 25.9349 140.156 26.5859 141.172 27.4453C142.188 28.3047 142.995 29.3464 143.594 30.5703C144.219 31.7943 144.531 33.1745 144.531 34.7109C144.531 36.7161 144.062 38.4479 143.125 39.9062C142.188 41.3385 140.964 42.4323 139.453 43.1875C137.943 43.9427 136.341 44.3203 134.648 44.3203C133.659 44.3203 132.773 44.2292 131.992 44.0469C131.211 43.8385 130.534 43.5781 129.961 43.2656V51H122.656V24.8281H133.867ZM129.961 31.6641V37.7188C130.404 37.875 130.872 38.0052 131.367 38.1094C131.888 38.2135 132.435 38.2656 133.008 38.2656C134.154 38.2656 135.104 37.9141 135.859 37.2109C136.641 36.4818 137.031 35.6484 137.031 34.7109C137.031 33.6432 136.641 32.875 135.859 32.4062C135.104 31.9115 134.154 31.6641 133.008 31.6641H129.961ZM159.805 37.7969V43.6562H148.047V37.7969H159.805ZM173.594 24.2422C175.13 24.2422 176.641 24.4375 178.125 24.8281C179.635 25.1927 180.846 25.6875 181.758 26.3125V33.3828C180.638 32.7318 179.531 32.1719 178.438 31.7031C177.344 31.2083 176.055 30.9609 174.57 30.9609C173.711 30.9609 172.969 31.0911 172.344 31.3516C171.719 31.612 171.406 32.0417 171.406 32.6406C171.406 33.2917 171.784 33.7865 172.539 34.125C173.294 34.4375 174.219 34.8021 175.312 35.2188L178.125 36.2734C180.026 37.0026 181.367 37.9922 182.148 39.2422C182.956 40.4922 183.359 41.7422 183.359 42.9922C183.359 44.6589 182.878 46.1432 181.914 47.4453C180.951 48.7214 179.648 49.737 178.008 50.4922C176.367 51.2214 174.531 51.5859 172.5 51.5859C170.938 51.5859 169.388 51.3125 167.852 50.7656C166.315 50.2188 164.974 49.5417 163.828 48.7344V41.6641C165.078 42.6016 166.419 43.3698 167.852 43.9688C169.31 44.5677 170.768 44.8672 172.227 44.8672C173.138 44.8672 173.867 44.763 174.414 44.5547C174.987 44.3203 175.273 43.9297 175.273 43.3828C175.273 42.9922 175.065 42.6536 174.648 42.3672C174.232 42.0807 173.672 41.8333 172.969 41.625L169.258 40.4531C167.799 39.9844 166.667 39.3464 165.859 38.5391C165.052 37.7318 164.492 36.8333 164.18 35.8438C163.867 34.8281 163.711 33.7995 163.711 32.7578C163.711 30.9089 164.18 29.3594 165.117 28.1094C166.055 26.8333 167.279 25.8698 168.789 25.2188C170.299 24.5677 171.901 24.2422 173.594 24.2422ZM196.836 30.4922C198.216 30.4922 199.557 30.7526 200.859 31.2734C202.161 31.7943 203.333 32.5234 204.375 33.4609C205.417 34.3984 206.237 35.5182 206.836 36.8203C207.461 38.0964 207.773 39.5026 207.773 41.0391C207.773 42.5755 207.461 43.9948 206.836 45.2969C206.237 46.5729 205.417 47.6797 204.375 48.6172C203.333 49.5547 202.161 50.2839 200.859 50.8047C199.557 51.3255 198.216 51.5859 196.836 51.5859C195.456 51.5859 194.115 51.3255 192.812 50.8047C191.51 50.2839 190.339 49.5547 189.297 48.6172C188.255 47.6797 187.422 46.5729 186.797 45.2969C186.198 43.9948 185.898 42.5755 185.898 41.0391C185.898 39.5026 186.198 38.0964 186.797 36.8203C187.422 35.5182 188.255 34.3984 189.297 33.4609C190.339 32.5234 191.51 31.7943 192.812 31.2734C194.115 30.7526 195.456 30.4922 196.836 30.4922ZM196.836 36.9375C196.367 36.9375 195.833 37.0417 195.234 37.25C194.661 37.4583 194.167 37.862 193.75 38.4609C193.333 39.0339 193.125 39.8932 193.125 41.0391C193.125 42.1589 193.333 43.0182 193.75 43.6172C194.167 44.2161 194.661 44.6198 195.234 44.8281C195.833 45.0365 196.367 45.1406 196.836 45.1406C197.331 45.1406 197.865 45.0365 198.438 44.8281C199.01 44.6198 199.505 44.2161 199.922 43.6172C200.339 43.0182 200.547 42.1589 200.547 41.0391C200.547 39.8932 200.339 39.0339 199.922 38.4609C199.505 37.862 199.01 37.4583 198.438 37.25C197.865 37.0417 197.331 36.9375 196.836 36.9375ZM218.594 22.875V51H211.875V22.875H218.594ZM242.93 31.0781V43.0312C242.93 44.8281 242.513 46.3646 241.68 47.6406C240.872 48.9167 239.753 49.8932 238.32 50.5703C236.888 51.2474 235.247 51.5859 233.398 51.5859C231.549 51.5859 229.909 51.2474 228.477 50.5703C227.044 49.8932 225.911 48.9167 225.078 47.6406C224.271 46.3646 223.867 44.8281 223.867 43.0312V31.0781H230.586L230.625 41.2344C230.625 42.5885 230.833 43.5781 231.25 44.2031C231.693 44.8281 232.409 45.1406 233.398 45.1406C234.388 45.1406 235.091 44.8281 235.508 44.2031C235.951 43.5781 236.172 42.5885 236.172 41.2344L236.211 31.0781H242.93ZM257.109 25.2188V31.0781H262.344V36.3516H257.109V41.9375C257.109 42.901 257.305 43.6693 257.695 44.2422C258.112 44.7891 258.685 45.0625 259.414 45.0625C260.56 45.0625 261.615 44.776 262.578 44.2031V49.4375C262.161 50.0104 261.497 50.5182 260.586 50.9609C259.701 51.3776 258.607 51.5859 257.305 51.5859C256.055 51.5859 254.909 51.2995 253.867 50.7266C252.826 50.1536 251.979 49.3333 251.328 48.2656C250.703 47.1979 250.391 45.9089 250.391 44.3984V36.3516H247.031V32.25C248.307 31.9115 249.557 31.1823 250.781 30.0625C252.031 28.9167 252.943 27.3021 253.516 25.2188H257.109ZM272.266 19.9062C273.021 19.9062 273.711 20.0885 274.336 20.4531C274.987 20.8177 275.508 21.3125 275.898 21.9375C276.289 22.5365 276.484 23.2135 276.484 23.9688C276.484 24.6979 276.289 25.375 275.898 26C275.508 26.625 274.987 27.1198 274.336 27.4844C273.711 27.849 273.021 28.0312 272.266 28.0312C271.146 28.0312 270.169 27.6406 269.336 26.8594C268.503 26.0521 268.086 25.0885 268.086 23.9688C268.086 22.8229 268.503 21.8594 269.336 21.0781C270.169 20.2969 271.146 19.9062 272.266 19.9062ZM276.055 31.0781V51H269.336V36.5469H266.094V31.0781H276.055ZM291.133 30.4922C292.513 30.4922 293.854 30.7526 295.156 31.2734C296.458 31.7943 297.63 32.5234 298.672 33.4609C299.714 34.3984 300.534 35.5182 301.133 36.8203C301.758 38.0964 302.07 39.5026 302.07 41.0391C302.07 42.5755 301.758 43.9948 301.133 45.2969C300.534 46.5729 299.714 47.6797 298.672 48.6172C297.63 49.5547 296.458 50.2839 295.156 50.8047C293.854 51.3255 292.513 51.5859 291.133 51.5859C289.753 51.5859 288.411 51.3255 287.109 50.8047C285.807 50.2839 284.635 49.5547 283.594 48.6172C282.552 47.6797 281.719 46.5729 281.094 45.2969C280.495 43.9948 280.195 42.5755 280.195 41.0391C280.195 39.5026 280.495 38.0964 281.094 36.8203C281.719 35.5182 282.552 34.3984 283.594 33.4609C284.635 32.5234 285.807 31.7943 287.109 31.2734C288.411 30.7526 289.753 30.4922 291.133 30.4922ZM291.133 36.9375C290.664 36.9375 290.13 37.0417 289.531 37.25C288.958 37.4583 288.464 37.862 288.047 38.4609C287.63 39.0339 287.422 39.8932 287.422 41.0391C287.422 42.1589 287.63 43.0182 288.047 43.6172C288.464 44.2161 288.958 44.6198 289.531 44.8281C290.13 45.0365 290.664 45.1406 291.133 45.1406C291.628 45.1406 292.161 45.0365 292.734 44.8281C293.307 44.6198 293.802 44.2161 294.219 43.6172C294.635 43.0182 294.844 42.1589 294.844 41.0391C294.844 39.8932 294.635 39.0339 294.219 38.4609C293.802 37.862 293.307 37.4583 292.734 37.25C292.161 37.0417 291.628 36.9375 291.133 36.9375ZM312.891 31.0781V33.6562C313.516 32.7969 314.271 32.0547 315.156 31.4297C316.068 30.8047 317.188 30.4922 318.516 30.4922C320.547 30.4922 322.201 31.1823 323.477 32.5625C324.779 33.9427 325.43 35.987 325.43 38.6953V51H318.711L318.672 39.75C318.672 38.7604 318.398 38.0703 317.852 37.6797C317.305 37.263 316.693 37.0547 316.016 37.0547C315.286 37.0547 314.674 37.25 314.18 37.6406C313.685 38.0052 313.255 38.4479 312.891 38.9688V51H306.172V31.0781H312.891ZM337.656 30.4922C338.958 30.4922 340.156 30.6875 341.25 31.0781C342.37 31.4427 343.268 31.9505 343.945 32.6016V37.875C343.268 37.4583 342.5 37.0677 341.641 36.7031C340.781 36.3125 339.857 36.1172 338.867 36.1172C338.242 36.1172 337.682 36.2474 337.188 36.5078C336.719 36.7422 336.484 37.1198 336.484 37.6406C336.484 38.0052 336.628 38.2786 336.914 38.4609C337.201 38.6432 337.76 38.8385 338.594 39.0469L339.805 39.3594C343.268 40.2448 345 42.1068 345 44.9453C345 46.2474 344.609 47.4062 343.828 48.4219C343.073 49.4115 342.07 50.1927 340.82 50.7656C339.596 51.3125 338.268 51.5859 336.836 51.5859C335.352 51.5859 333.971 51.3776 332.695 50.9609C331.419 50.5182 330.326 49.9844 329.414 49.3594V44.125C330.352 44.6979 331.406 45.1797 332.578 45.5703C333.776 45.9609 334.844 46.1562 335.781 46.1562C336.536 46.1562 337.083 46.0651 337.422 45.8828C337.786 45.7005 337.969 45.375 337.969 44.9062C337.969 44.5417 337.76 44.2682 337.344 44.0859C336.927 43.8776 336.328 43.6432 335.547 43.3828L333.555 42.7578C332.096 42.3151 331.029 41.625 330.352 40.6875C329.674 39.724 329.336 38.5521 329.336 37.1719C329.336 35.7917 329.701 34.6068 330.43 33.6172C331.159 32.6276 332.148 31.8594 333.398 31.3125C334.674 30.7656 336.094 30.4922 337.656 30.4922Z" fill="black"/>
</svg>
