<svg width="500" height="348" viewBox="0 0 500 348" fill="none" xmlns="http://www.w3.org/2000/svg">
<path opacity="0.1" d="M127.194 139.178H74.2366C72.3612 139.178 70.8408 140.698 70.8408 142.574V153.844C70.8408 155.72 72.3612 157.24 74.2366 157.24H127.194C129.069 157.24 130.589 155.72 130.589 153.844V142.574C130.589 140.698 129.069 139.178 127.194 139.178Z" fill="#073E58"/>
<path opacity="0.1" d="M189.721 157.244H136.764C134.889 157.244 133.368 158.765 133.368 160.64V171.911C133.368 173.786 134.889 175.306 136.764 175.306H189.721C191.596 175.306 193.117 173.786 193.117 171.911V160.64C193.117 158.765 191.596 157.244 189.721 157.244Z" fill="#073E58"/>
<path opacity="0.1" d="M252.253 175.307H199.296C197.421 175.307 195.9 176.827 195.9 178.702V189.973C195.9 191.848 197.421 193.369 199.296 193.369H252.253C254.129 193.369 255.649 191.848 255.649 189.973V178.702C255.649 176.827 254.129 175.307 252.253 175.307Z" fill="#073E58"/>
<path opacity="0.1" d="M127.194 112.084H74.2366C72.3612 112.084 70.8408 113.604 70.8408 115.48V126.75C70.8408 128.626 72.3612 130.146 74.2366 130.146H127.194C129.069 130.146 130.589 128.626 130.589 126.75V115.48C130.589 113.604 129.069 112.084 127.194 112.084Z" fill="#073E58"/>
<path opacity="0.1" d="M189.721 130.146H136.764C134.889 130.146 133.368 131.667 133.368 133.542V144.813C133.368 146.688 134.889 148.209 136.764 148.209H189.721C191.596 148.209 193.117 146.688 193.117 144.813V133.542C193.117 131.667 191.596 130.146 189.721 130.146Z" fill="#073E58"/>
<path opacity="0.1" d="M252.253 148.213H199.296C197.421 148.213 195.9 149.733 195.9 151.609V162.879C195.9 164.755 197.421 166.275 199.296 166.275H252.253C254.129 166.275 255.649 164.755 255.649 162.879V151.609C255.649 149.733 254.129 148.213 252.253 148.213Z" fill="#073E58"/>
<path opacity="0.1" d="M321.728 139.178H268.771C266.895 139.178 265.375 140.698 265.375 142.574V153.844C265.375 155.72 266.895 157.24 268.771 157.24H321.728C323.603 157.24 325.124 155.72 325.124 153.844V142.574C325.124 140.698 323.603 139.178 321.728 139.178Z" fill="#073E58"/>
<path opacity="0.1" d="M384.255 157.244H331.298C329.423 157.244 327.902 158.765 327.902 160.64V171.911C327.902 173.786 329.423 175.306 331.298 175.306H384.255C386.131 175.306 387.651 173.786 387.651 171.911V160.64C387.651 158.765 386.131 157.244 384.255 157.244Z" fill="#073E58"/>
<path opacity="0.1" d="M446.787 175.307H393.83C391.955 175.307 390.435 176.827 390.435 178.702V189.973C390.435 191.848 391.955 193.369 393.83 193.369H446.787C448.663 193.369 450.183 191.848 450.183 189.973V178.702C450.183 176.827 448.663 175.307 446.787 175.307Z" fill="#073E58"/>
<path opacity="0.1" d="M321.728 112.084H268.771C266.895 112.084 265.375 113.604 265.375 115.48V126.75C265.375 128.626 266.895 130.146 268.771 130.146H321.728C323.603 130.146 325.124 128.626 325.124 126.75V115.48C325.124 113.604 323.603 112.084 321.728 112.084Z" fill="#073E58"/>
<path opacity="0.1" d="M384.255 130.146H331.298C329.423 130.146 327.902 131.667 327.902 133.542V144.813C327.902 146.688 329.423 148.209 331.298 148.209H384.255C386.131 148.209 387.651 146.688 387.651 144.813V133.542C387.651 131.667 386.131 130.146 384.255 130.146Z" fill="#073E58"/>
<path opacity="0.1" d="M446.787 148.213H393.83C391.955 148.213 390.435 149.733 390.435 151.609V162.879C390.435 164.755 391.955 166.275 393.83 166.275H446.787C448.663 166.275 450.183 164.755 450.183 162.879V151.609C450.183 149.733 448.663 148.213 446.787 148.213Z" fill="#073E58"/>
<path opacity="0.1" d="M127.194 75.9551H74.2366C72.3612 75.9551 70.8408 77.4754 70.8408 79.3509V90.6214C70.8408 92.4969 72.3612 94.0172 74.2366 94.0172H127.194C129.069 94.0172 130.589 92.4969 130.589 90.6214V79.3509C130.589 77.4754 129.069 75.9551 127.194 75.9551Z" fill="#073E58"/>
<path opacity="0.1" d="M189.721 94.0176H136.764C134.889 94.0176 133.368 95.5379 133.368 97.4134V108.684C133.368 110.559 134.889 112.08 136.764 112.08H189.721C191.596 112.08 193.117 110.559 193.117 108.684V97.4134C193.117 95.5379 191.596 94.0176 189.721 94.0176Z" fill="#073E58"/>
<path opacity="0.1" d="M252.253 112.084H199.296C197.421 112.084 195.9 113.604 195.9 115.48V126.75C195.9 128.626 197.421 130.146 199.296 130.146H252.253C254.129 130.146 255.649 128.626 255.649 126.75V115.48C255.649 113.604 254.129 112.084 252.253 112.084Z" fill="#073E58"/>
<path opacity="0.1" d="M127.194 48.8574H74.2366C72.3612 48.8574 70.8408 50.3778 70.8408 52.2532V63.5238C70.8408 65.3992 72.3612 66.9196 74.2366 66.9196H127.194C129.069 66.9196 130.589 65.3992 130.589 63.5238V52.2532C130.589 50.3778 129.069 48.8574 127.194 48.8574Z" fill="#073E58"/>
<path opacity="0.1" d="M189.721 66.9238H136.764C134.889 66.9238 133.368 68.4442 133.368 70.3196V81.5902C133.368 83.4656 134.889 84.986 136.764 84.986H189.721C191.596 84.986 193.117 83.4656 193.117 81.5902V70.3196C193.117 68.4442 191.596 66.9238 189.721 66.9238Z" fill="#073E58"/>
<path opacity="0.1" d="M252.253 84.9863H199.296C197.421 84.9863 195.9 86.5067 195.9 88.3821V99.6527C195.9 101.528 197.421 103.048 199.296 103.048H252.253C254.129 103.048 255.649 101.528 255.649 99.6527V88.3821C255.649 86.5067 254.129 84.9863 252.253 84.9863Z" fill="#073E58"/>
<path opacity="0.1" d="M321.728 75.9551H268.771C266.895 75.9551 265.375 77.4754 265.375 79.3509V90.6214C265.375 92.4969 266.895 94.0172 268.771 94.0172H321.728C323.603 94.0172 325.124 92.4969 325.124 90.6214V79.3509C325.124 77.4754 323.603 75.9551 321.728 75.9551Z" fill="#073E58"/>
<path opacity="0.1" d="M384.255 94.0176H331.298C329.423 94.0176 327.902 95.5379 327.902 97.4134V108.684C327.902 110.559 329.423 112.08 331.298 112.08H384.255C386.131 112.08 387.651 110.559 387.651 108.684V97.4134C387.651 95.5379 386.131 94.0176 384.255 94.0176Z" fill="#073E58"/>
<path opacity="0.1" d="M446.787 112.084H393.83C391.955 112.084 390.435 113.604 390.435 115.48V126.75C390.435 128.626 391.955 130.146 393.83 130.146H446.787C448.663 130.146 450.183 128.626 450.183 126.75V115.48C450.183 113.604 448.663 112.084 446.787 112.084Z" fill="#073E58"/>
<path opacity="0.1" d="M321.728 48.8574H268.771C266.895 48.8574 265.375 50.3778 265.375 52.2532V63.5238C265.375 65.3992 266.895 66.9196 268.771 66.9196H321.728C323.603 66.9196 325.124 65.3992 325.124 63.5238V52.2532C325.124 50.3778 323.603 48.8574 321.728 48.8574Z" fill="#073E58"/>
<path opacity="0.1" d="M384.255 66.9238H331.298C329.423 66.9238 327.902 68.4442 327.902 70.3196V81.5902C327.902 83.4656 329.423 84.986 331.298 84.986H384.255C386.131 84.986 387.651 83.4656 387.651 81.5902V70.3196C387.651 68.4442 386.131 66.9238 384.255 66.9238Z" fill="#073E58"/>
<path opacity="0.1" d="M446.787 84.9863H393.83C391.955 84.9863 390.435 86.5067 390.435 88.3821V99.6527C390.435 101.528 391.955 103.048 393.83 103.048H446.787C448.663 103.048 450.183 101.528 450.183 99.6527V88.3821C450.183 86.5067 448.663 84.9863 446.787 84.9863Z" fill="#073E58"/>
<path opacity="0.1" d="M250 347.349C388.071 347.349 500 326.989 500 301.874C500 276.758 388.071 256.398 250 256.398C111.929 256.398 0 276.758 0 301.874C0 326.989 111.929 347.349 250 347.349Z" fill="#073E58"/>
<path d="M109.689 146.709L88.665 275.594L183.729 265.539L179.616 254.57L105.347 260.74L122.714 146.48L109.689 146.709Z" fill="#3F3D56"/>
<path d="M85.0088 0.457038L212.98 0L250 280.165L121.572 297.532L85.0088 0.457038Z" fill="#3F3D56"/>
<path d="M98.9492 11.1973H202.24L238.346 271.709L131.856 286.334L98.9492 11.1973Z" fill="white"/>
<path d="M196.362 259.991C197.011 261.234 197.495 262.578 198.341 263.698C200.809 266.998 205.493 267.514 209.008 269.667C209.184 269.756 209.329 269.896 209.424 270.069C209.584 270.448 209.227 270.846 208.885 271.084C206.22 272.953 202.724 272.994 199.465 272.971C198.37 273.01 197.274 272.906 196.206 272.66C194.483 272.203 193.007 271.001 191.307 270.512C190.425 270.292 189.523 270.165 188.615 270.133L185.046 269.891C184.095 269.877 183.154 269.702 182.262 269.374C181.818 269.204 181.424 268.924 181.117 268.561C180.81 268.197 180.6 267.761 180.507 267.295C180.407 266.536 180.731 265.8 180.923 265.06C181.38 263.305 181.238 261.184 182.605 259.987C183.168 259.555 183.814 259.244 184.502 259.073C186.986 258.235 189.522 257.561 192.093 257.052C194.209 256.637 195.425 258.19 196.362 259.991Z" fill="#3F3D56"/>
<path d="M155.987 269.877C156.079 270.851 156.106 271.966 155.402 272.647C154.964 273.011 154.434 273.248 153.871 273.332C150.494 274.119 146.728 274.173 143.789 272.336C143.483 272.161 143.213 271.93 142.994 271.655C142.749 271.28 142.61 270.846 142.591 270.398C142.486 269.105 142.884 267.83 143.245 266.582C144.099 263.621 144.748 260.605 145.187 257.555C145.224 257.304 153.812 258.927 154.383 259.777C155.101 260.828 155.105 263.351 155.297 264.603C155.587 266.352 155.817 268.11 155.987 269.877Z" fill="#3F3D56"/>
<path d="M187.953 150.947L190.238 172.195C190.695 176.537 191.175 180.901 190.859 185.257C190.494 190.284 189.086 195.312 189.68 200.293C189.913 202.231 190.444 204.132 190.521 206.084C190.536 207.382 190.47 208.679 190.325 209.969C189.292 222.862 192.56 235.654 194.388 248.456C194.682 250.035 194.746 251.648 194.58 253.246C194.342 254.868 193.867 256.998 195.311 257.766L181.746 262.684C180.014 260.513 181.161 257.135 180.832 254.379C180.53 251.898 179.168 249.686 178.442 247.295C177.784 245.147 177.646 242.885 177.432 240.654C176.248 228.511 172.615 216.683 171.764 204.512C171.737 203.336 171.584 202.167 171.307 201.025C170.85 199.512 169.936 198.191 169.269 196.77C168.245 194.635 167.742 192.295 167.249 189.983L164.347 176.386C161.412 180.755 161.531 186.441 160.951 191.678C160.137 198.991 158.318 206.18 156.838 213.401C156.494 214.955 156.236 216.527 156.065 218.109C155.681 222.345 156.444 226.623 156.038 230.856C155.581 235.76 153.519 240.545 154.018 245.449C154.292 248.164 155.334 250.732 156.038 253.365C156.742 255.997 157.089 258.886 156.015 261.395C152.261 260.017 148.229 259.571 144.264 260.097C139.909 255.641 139.136 249.425 138.839 243.186C138.542 236.948 139.26 230.7 138.483 224.521C138.254 222.693 137.898 220.91 137.838 219.087C137.646 213.241 140.457 207.771 141.856 202.09C143.114 196.975 143.235 191.647 142.208 186.482C141.522 183.068 140.343 179.754 139.923 176.294C139.351 171.445 140.32 166.559 141.294 161.77C141.947 158.538 142.596 155.307 143.337 152.094C144.132 148.643 145.078 145.12 147.203 142.295C150.604 137.775 156.641 135.769 162.285 136.207C167.93 136.646 173.2 139.215 177.861 142.414C181.535 144.87 184.921 147.732 187.953 150.947Z" fill="#192534"/>
<path d="M172.788 69.5847C172.532 69.9965 172.354 70.452 172.263 70.9284C172.148 71.8653 172.72 72.7246 173.177 73.5427C173.762 74.5937 174.212 75.7148 174.516 76.879C174.733 77.5996 174.8 78.3573 174.712 79.1048C174.601 79.6663 174.4 80.2063 174.118 80.7044C173.236 82.4046 171.929 83.9768 170.151 84.6852C168.774 85.1922 167.273 85.253 165.86 84.8589C164.456 84.4615 163.129 83.8312 161.934 82.9942C160.926 82.3559 160.021 81.5702 159.246 80.6633C158.507 79.6717 157.884 78.5982 157.391 77.464C156.44 75.4759 155.476 73.3507 155.649 71.1706C155.658 70.9729 155.695 70.7775 155.759 70.5902C155.907 70.2516 156.115 69.9421 156.371 69.6761C158.321 67.3654 159.321 64.4005 159.169 61.3809L165.828 62.8937C167.295 63.2273 168.762 63.5609 170.211 63.9768C171.399 64.3196 173.227 64.7949 173.999 65.8553C174.772 66.9156 173.314 68.6158 172.788 69.5847Z" fill="#FBBEBE"/>
<path d="M169.223 68.4508C175.907 68.4508 181.326 63.0324 181.326 56.3485C181.326 49.6645 175.907 44.2461 169.223 44.2461C162.54 44.2461 157.121 49.6645 157.121 56.3485C157.121 63.0324 162.54 68.4508 169.223 68.4508Z" fill="#FBBEBE"/>
<path d="M167.276 80.763C167.788 79.6433 168.894 78.9348 169.904 78.231C170.914 77.5272 171.938 76.6268 172.135 75.4065C172.147 75.1305 172.215 74.8598 172.336 74.6113C172.724 74.0263 173.648 74.3188 174.201 74.7484C175.544 75.795 176.458 77.2804 177.35 78.7292C178.503 80.491 179.489 82.3561 180.297 84.3005C181.582 87.6871 181.737 91.3846 181.879 94.9997C182.007 98.2904 182.13 101.631 181.33 104.822C180.828 106.842 179.959 108.802 179.909 110.882C179.758 118.437 177.135 125.658 176.952 133.213C176.938 135.397 177.048 137.581 177.281 139.753L177.711 144.657C171.065 144.276 164.438 143.693 157.829 142.907C157.638 140.649 156.993 138.46 156.404 136.275C153.989 127.343 152.442 118.2 151.783 108.971C151.431 104.072 151.07 99.1908 150.526 94.3096C150.037 89.8718 149.077 85.4065 149.653 80.9778C149.954 78.9648 150.588 77.0157 151.527 75.21C151.824 74.4906 152.334 73.8796 152.989 73.4595C153.317 73.3013 153.664 73.1891 154.022 73.1259C155.058 72.916 156.11 72.7922 157.167 72.7557C157.425 72.7339 157.685 72.7587 157.935 72.8288C158.38 73.0508 158.746 73.4052 158.981 73.8434C161.018 76.9049 163.899 79.3088 167.276 80.763Z" fill="#F2F2F2"/>
<path d="M161.664 79.7936C162.514 81.0093 164.315 81.2972 165.101 82.5358C165.366 83.0535 165.567 83.6013 165.7 84.1674C166.18 85.6985 167.149 87.0285 167.738 88.523C168.588 90.6711 168.611 93.0477 168.62 95.3557C168.704 97.1942 168.563 99.036 168.2 100.84C167.925 101.969 167.478 103.043 167.149 104.158C166.59 106.055 166.382 108.037 166.536 110.008C166.536 110.434 166.65 110.852 166.865 111.22C167.175 111.587 167.58 111.862 168.035 112.015C169.374 112.604 170.777 113.208 172.24 113.071C172.54 113.061 172.831 112.964 173.076 112.792C173.246 112.637 173.385 112.453 173.488 112.248L174.402 110.703C175.229 109.291 176.093 107.709 175.773 106.096C175.54 105.263 175.191 104.468 174.735 103.733C174.151 102.541 173.653 101.308 173.245 100.045C171.787 95.8539 170.311 91.6034 169.982 87.1793C169.789 85.4956 169.976 83.7899 170.531 82.1885C170.96 81.2028 171.5 80.2691 172.139 79.4051C171.995 79.2109 171.794 79.0654 171.565 78.9878C171.336 78.9103 171.088 78.9044 170.855 78.9709C170.395 79.113 169.95 79.2981 169.525 79.5239C168.181 80.0906 166.691 79.885 165.334 79.4965C164.804 79.3411 163.963 78.8109 163.415 78.8475C163.227 78.8704 161.696 79.8484 161.664 79.7936Z" fill="#073E58"/>
<path d="M172.363 79.7441C172.089 79.5247 171.664 79.3236 171.422 79.5795C171.34 79.6905 171.281 79.8162 171.248 79.9497C171.01 80.5896 170.311 80.9049 169.676 81.1517C169.041 81.3985 168.355 81.5356 167.971 81.0649C167.85 80.8816 167.79 80.6645 167.801 80.445C167.812 80.2256 167.892 80.0152 168.03 79.8446C168.312 79.5059 168.65 79.2196 169.031 78.9991C171.134 77.5152 172.566 75.2619 173.017 72.7285C173.606 73.1971 173.997 73.8715 174.109 74.6161C174.26 75.3428 174.278 76.0923 174.429 76.819C174.653 77.8611 175.151 78.8345 175.265 79.8903C175.325 80.4525 175.265 81.0192 175.265 81.5813C175.286 82.131 175.35 82.6781 175.457 83.2175C174.388 82.0841 173.634 80.7541 172.363 79.7441Z" fill="#F2F2F2"/>
<path d="M163.112 76.6403C162.655 76.2061 162.198 75.7948 161.741 75.3515C159.735 73.394 158.221 70.9901 157.321 68.3359C156.736 68.793 156.092 69.3963 156.078 70.1641C156.13 70.7074 156.34 71.2237 156.681 71.6495C158.41 74.3713 159.551 77.4239 160.032 80.612C160.278 80.2263 160.62 79.9106 161.025 79.6952C161.429 79.4799 161.882 79.3722 162.34 79.3826C163.062 79.3826 166.302 81.3021 166.535 80.8177C166.878 80.059 163.66 77.1568 163.112 76.6403Z" fill="#F2F2F2"/>
<path d="M173.318 73.0028C177.617 77.2826 182.88 80.4689 188.665 82.2944C189.24 82.4198 189.774 82.6905 190.215 83.0805C190.544 83.4918 190.765 83.9788 190.859 84.4973C191.974 88.8575 192.349 93.3685 192.719 97.852C192.816 98.5935 192.801 99.3454 192.674 100.082C192.404 101.28 191.554 102.249 190.717 103.149C188.094 105.96 185.1 108.899 184.657 112.719C184.623 113.456 184.536 114.189 184.397 114.913C184.168 115.763 183.661 116.513 183.35 117.34C181.823 121.412 185.274 126.344 183.172 130.137C184.31 132.324 185.091 134.678 185.484 137.112C185.555 138.034 185.766 138.94 186.11 139.799C186.737 141.106 188.025 141.938 189.04 142.998C192.134 146.17 192.514 151.024 192.696 155.453C192.811 157.948 192.774 160.814 190.868 162.45C189.767 163.405 188.263 163.716 186.823 163.953C184.908 164.273 182.824 164.502 181.129 163.556C179.913 162.879 179.086 161.696 178.295 160.553C176.796 158.373 175.292 156.198 173.871 153.963C171.622 150.439 169.502 146.412 170.151 142.281C169.968 146.508 169.077 150.768 167.002 154.452C164.927 158.135 161.586 161.211 157.532 162.427C153.478 163.643 148.738 162.783 145.717 159.822C144.731 158.807 143.884 157.665 143.199 156.426C141.479 153.481 140.225 150.288 139.479 146.961C139.282 146.097 139.136 145.133 139.57 144.36C139.776 143.995 140.091 143.707 140.306 143.346C141.028 142.116 140.334 140.567 139.634 139.315C138.569 139.415 137.806 138.163 137.902 137.093C137.998 136.024 138.638 135.096 139.09 134.123C140.416 131.252 140.123 127.911 139.483 124.817C138.844 121.723 137.888 118.647 137.961 115.489C138.039 112.148 135.635 109.141 133.802 106.348C132.779 104.776 131.586 103.314 130.695 101.664C128.836 98.1917 128.407 94.1315 129.497 90.3474C130.137 88.4044 130.976 86.5327 132.002 84.7624L133.51 81.9334C133.791 81.2574 134.227 80.6569 134.782 80.1806C135.338 79.7042 135.998 79.3653 136.709 79.1911L147.143 75.0778C148.478 74.6221 149.744 73.9887 150.909 73.1948C152.185 72.235 153.135 70.9096 154.351 69.8858C154.528 69.6997 154.741 69.5509 154.976 69.4481C155.211 69.3453 155.465 69.2906 155.722 69.2871C156.7 69.3739 157.047 70.608 157.148 71.5723C157.376 73.7295 158.976 75.5577 159.52 77.6555C162.463 89.2414 168.693 99.927 170.402 111.755C172.322 107.144 174.241 102.523 176.7 98.1811C177.088 97.5577 177.414 96.898 177.674 96.2112C177.969 95.2206 178.079 94.1841 177.998 93.1537C177.875 90.1783 177.084 87.2716 176.302 84.3968C175.288 80.4845 174.374 76.8785 173.318 73.0028Z" fill="#3F3D56"/>
<path d="M193.204 108.405C193.405 110.352 193.601 112.303 193.962 114.227C194.383 116.453 195.023 118.628 195.658 120.804C195.968 122.027 196.413 123.212 196.983 124.337C197.19 124.664 197.354 125.015 197.472 125.384C197.696 126.298 197.184 127.212 196.965 128.126C196.307 130.868 198.281 133.916 197.038 136.444C196.663 137.212 196.01 137.847 195.763 138.67C195.475 139.616 195.763 140.626 195.914 141.604C196.302 144.346 195.365 147.134 194.442 149.771L192.87 154.223C191.435 151.554 189.986 148.857 188.002 146.567C187.294 145.745 186.522 144.981 185.868 144.113C184.894 142.748 184.124 141.249 183.583 139.661C182.188 135.89 181.39 131.924 181.22 127.906C181.107 126.764 181.239 125.611 181.608 124.524C181.911 123.896 182.25 123.285 182.623 122.696C183.848 120.489 184.099 117.874 184.077 115.352C184.054 112.829 183.784 110.297 184.077 107.788C184.315 105.693 184.935 103.659 185.905 101.787C186.477 100.574 187.327 99.5141 188.386 98.6925C189.177 98.1006 190.141 97.7872 191.129 97.8012C192.623 97.8881 192.28 99.1724 192.408 100.411L193.204 108.405Z" fill="#3F3D56"/>
<path d="M125.978 102.185C125.046 104.927 124.205 107.694 123.455 110.485C122.724 113.227 122.07 115.984 121.495 118.757C121.199 119.976 121.033 121.223 121.001 122.477C121.059 123.937 121.31 125.383 121.746 126.778C124.689 137.386 130.055 147.171 136.097 156.371C137.823 154.218 139.874 152.346 142.176 150.823C142.364 150.711 142.521 150.554 142.633 150.366C142.691 150.188 142.707 149.999 142.682 149.814C142.657 149.629 142.59 149.452 142.486 149.296C140.818 145.878 138.176 142.866 137.345 139.15C136.997 137.605 136.984 135.996 136.591 134.461C136.083 132.473 134.95 130.654 134.689 128.615C134.41 126.394 135.146 123.972 134.104 122.002C136.23 121.175 137.459 118.985 138.359 116.888C139.321 114.741 140.009 112.483 140.407 110.165C141.033 105.721 140.163 101.195 137.934 97.299C136.846 95.3558 135.449 93.6023 133.798 92.107C133.254 91.618 131.97 90.2149 131.179 90.2286C130.123 90.2515 129.785 91.9608 129.484 92.7286C128.263 95.8639 127.057 99.0037 125.978 102.185Z" fill="#3F3D56"/>
<path d="M144.909 153.341C145.046 153.442 145.201 153.579 145.165 153.744C145.128 153.908 144.995 153.949 144.877 154.018C144.259 154.456 143.797 155.081 143.56 155.8C142.801 157.512 142.139 159.265 141.577 161.052C140.554 159.519 139.351 158.115 137.994 156.87C136.952 155.91 135.786 155 135.229 153.703C135.229 153.666 137.623 151.897 137.843 151.705C138.515 151.107 139.36 149.447 140.055 149.082C140.841 148.671 141.59 150.284 142.189 150.933C143.013 151.825 143.924 152.632 144.909 153.341Z" fill="#FBBEBE"/>
<path d="M182.075 54.4558C182.043 53.8571 181.965 53.1944 181.508 52.8059C181.107 52.5284 180.624 52.3947 180.137 52.4266C177.472 52.3397 174.716 52.7876 172.203 51.8918C170.548 51.3022 169.136 50.1688 167.523 49.4649C165.909 48.7611 163.844 48.5737 162.541 49.7574C161.554 50.6715 161.284 52.0746 160.941 53.3681C160.187 56.2227 158.843 58.888 156.997 61.1925C155.759 60.8086 154.872 59.7026 154.301 58.5417C152.358 54.5838 153.313 49.858 154.694 45.6624C155.151 44.2547 155.658 42.8607 156.165 41.4713L157.28 38.4C158.744 38.2563 160.104 37.5796 161.101 36.4988L161.581 37.6642C162.821 37.6196 164.017 37.197 165.009 36.4531C165.393 37.1752 166.38 37.3671 167.18 37.134C167.98 36.901 168.67 36.4531 169.465 36.22C171.59 35.5344 173.857 36.5902 176.088 36.709C177.031 36.686 177.976 36.7135 178.917 36.7913C181.549 37.2163 183.409 39.6935 184.214 42.2346C184.748 43.9256 185.192 46.0052 186.86 46.6039C186.897 47.2437 185.763 47.3671 185.667 47.975C185.656 48.1777 185.703 48.3793 185.804 48.5554L187.335 51.8415C186.603 52.0253 185.833 51.9871 185.123 51.7319C184.433 53.3543 182.143 55.6944 182.075 54.4558Z" fill="#192534"/>
<path d="M259.662 61.6092C260.438 64.1152 261.048 66.6695 261.49 69.2554C261.819 71.1933 262.011 73.3459 260.901 74.9638C265.133 68.5973 269.552 62.0388 275.983 57.93C274.673 56.5102 273.677 54.8308 273.059 53.0009C272.441 51.171 272.215 49.2315 272.395 47.3084C272.432 46.9245 267.116 48.9309 266.71 49.1594C264.845 50.1969 263.135 51.4858 261.316 52.5964C260.375 53.1677 256.454 54.5205 256.417 55.3386C256.417 55.8642 257.976 57.473 258.268 58.026C258.842 59.175 259.309 60.3744 259.662 61.6092Z" fill="#FBBEBE"/>
<path d="M279.328 301.728C278.283 300.992 277.059 300.552 275.784 300.456C274.51 300.359 273.233 300.609 272.089 301.179C270.018 302.249 268.624 304.274 266.741 305.645C263.506 307.994 259.232 308.181 255.443 309.452C254.438 309.79 253.369 310.293 252.943 311.28C252.801 311.695 252.744 312.134 252.776 312.572C252.809 313.01 252.929 313.436 253.131 313.826C253.764 315.237 254.874 316.381 256.266 317.057C257.966 317.87 259.922 317.907 261.805 317.93L278.167 318.122C283.195 318.181 288.254 318.241 293.25 318.867C294.415 319.013 295.677 319.173 296.705 318.602C298.378 317.688 298.57 315.375 298.442 313.469C298.105 308.64 297.026 303.892 295.242 299.392C295.046 298.894 294.785 298.327 294.232 298.236C293.84 298.218 293.454 298.341 293.145 298.583C288.528 301.326 282.683 302.875 277.774 300.681" fill="white"/>
<path d="M287.518 197.34C285.69 207.957 286.883 218.866 288.939 229.437C289.318 231.542 289.817 233.624 290.434 235.671C291.17 238.002 292.161 240.242 292.852 242.586C294.607 248.528 294.36 254.881 294.099 261.083L292.902 289.305C292.801 291.672 292.71 294.095 293.423 296.352C293.711 297.266 294.063 298.409 293.336 299.026C293.052 299.23 292.72 299.358 292.372 299.396C289.101 299.999 285.723 299.492 282.774 297.957L282.449 269.446C282.349 260.658 282.244 251.832 280.891 243.153C279.817 236.252 277.952 229.442 277.829 222.458C277.701 215.146 279.492 207.929 281.321 200.84C281.714 199.323 283.149 198.212 284.328 197.184C284.739 196.778 285.24 196.475 285.79 196.297C286.339 196.147 287.18 196.878 287.518 197.34Z" fill="#3F3D56"/>
<path opacity="0.1" d="M287.518 197.34C285.69 207.957 286.883 218.866 288.939 229.437C289.318 231.542 289.817 233.624 290.434 235.671C291.17 238.002 292.161 240.242 292.852 242.586C294.607 248.528 294.36 254.881 294.099 261.083L292.902 289.305C292.801 291.672 292.71 294.095 293.423 296.352C293.711 297.266 294.063 298.409 293.336 299.026C293.052 299.23 292.72 299.358 292.372 299.396C289.101 299.999 285.723 299.492 282.774 297.957L282.449 269.446C282.349 260.658 282.244 251.832 280.891 243.153C279.817 236.252 277.952 229.442 277.829 222.458C277.701 215.146 279.492 207.929 281.321 200.84C281.714 199.323 283.149 198.212 284.328 197.184C284.739 196.778 285.24 196.475 285.79 196.297C286.339 196.147 287.18 196.878 287.518 197.34Z" fill="black"/>
<path d="M253.199 164.159C252.523 166.943 253.958 169.827 253.798 172.688C253.706 174.42 253.025 176.147 253.341 177.848C253.656 179.548 254.872 180.827 255.521 182.386C255.994 183.688 256.244 185.06 256.261 186.444C256.448 189.863 256.298 193.3 256.17 196.705C255.955 202.418 255.795 208.163 256.549 213.826C257.206 218.731 258.539 223.523 260.512 228.062C261.109 229.297 261.603 230.58 261.988 231.897C262.24 233.124 262.408 234.367 262.491 235.617C262.925 239.683 264.016 243.651 265.722 247.368C266.887 249.913 268.921 251.938 269.565 254.639C270.178 257.226 269.767 259.955 270.21 262.573C270.534 264.516 271.325 266.353 271.764 268.273C272.335 270.754 272.321 273.327 272.609 275.859C273.432 283.172 276.755 290.485 274.771 297.578C274.374 299.004 273.757 300.453 274.035 301.906C274.172 302.619 274.52 303.323 274.364 304.031C274.236 304.635 273.77 305.101 273.533 305.672C273.076 306.742 273.56 308.012 274.374 308.839C275.241 309.61 276.25 310.206 277.344 310.594C280.713 312.034 284.2 313.497 287.856 313.465C288.3 313.488 288.743 313.407 289.15 313.227C289.808 312.884 290.132 312.139 290.411 311.454L292.285 306.819C292.513 306.257 292.742 305.599 292.427 305.078C292.207 304.792 291.941 304.545 291.64 304.347C290.128 303.071 290.47 300.69 290.873 298.775C291.9 293.857 292.469 288.854 292.573 283.83C292.774 273.812 291.124 263.853 289.479 253.967C288.907 250.535 288.331 247.08 287.193 243.789C286.055 240.498 284.378 237.331 284.652 233.912C284.945 230.22 283.985 226.348 284.652 222.706C285.32 219.063 286.375 215.498 287.056 211.86C287.938 207.139 288.158 202.327 288.427 197.537C288.542 195.581 288.688 193.561 289.602 191.824C290.137 190.809 290.914 189.941 291.512 188.958C293.057 186.403 293.304 183.236 294.78 180.64C295.48 179.411 296.444 178.327 296.956 177.011C297.315 175.973 297.504 174.883 297.513 173.784C297.658 171.026 297.505 168.26 297.056 165.535C289.276 161.576 280.648 159.574 271.919 159.703C268.578 159.758 265.201 160.096 262.065 161.252C259.076 162.363 256.353 163.922 253.199 164.159Z" fill="#3F3D56"/>
<path d="M271.938 308.957C270.594 310.63 270.686 313.02 269.827 314.99C268.785 317.38 266.463 318.912 264.26 320.306L250.549 328.989C249.799 329.446 248.995 330.008 248.721 330.859C248.59 331.401 248.614 331.969 248.789 332.499C249.116 333.646 249.726 334.692 250.563 335.542C251.4 336.392 252.437 337.018 253.579 337.362C254.792 337.651 256.039 337.779 257.285 337.742L263.451 337.824C265.329 337.897 267.21 337.824 269.077 337.604C270.786 337.358 272.45 336.869 274.15 336.558C277.244 335.996 280.425 336.046 283.524 335.502C285.421 335.129 287.296 334.645 289.136 334.053C291.376 333.381 293.657 332.682 295.576 331.352C296.105 331.031 296.533 330.569 296.815 330.018C297.139 329.263 296.961 328.4 296.778 327.6L293.835 314.666C293.669 313.589 293.276 312.559 292.683 311.645C292.03 310.776 290.855 310.2 289.836 310.571C289.415 310.762 289.018 311.001 288.652 311.284C287.144 312.275 285.211 312.44 283.428 312.129C282.276 311.923 280.754 311.608 279.827 310.845C279.123 310.264 278.913 309.364 278.314 308.706C277.894 308.275 277.388 307.937 276.83 307.714C276.271 307.491 275.671 307.388 275.07 307.412C274.469 307.435 273.879 307.585 273.34 307.851C272.8 308.118 272.323 308.494 271.938 308.957Z" fill="white"/>
<path d="M263.048 59.8264C272.168 59.8264 279.561 52.4333 279.561 43.3136C279.561 34.1938 272.168 26.8008 263.048 26.8008C253.928 26.8008 246.535 34.1938 246.535 43.3136C246.535 52.4333 253.928 59.8264 263.048 59.8264Z" fill="#FBBEBE"/>
<path d="M250.311 44.2827C251.892 43.3961 251.892 40.8412 253.51 39.9911C255.128 39.141 256.965 40.6173 258.002 42.1072C259.515 44.2893 260.565 46.7576 261.087 49.3604C261.234 50.1008 261.371 50.9098 261.928 51.4262C262.486 51.9427 263.217 52.0067 263.93 52.0798C266.017 52.287 268.108 52.4759 270.201 52.6465C272.532 52.8339 274.991 52.9847 277.107 51.9838C277.942 51.6104 278.659 51.0163 279.182 50.2654C279.6 49.5443 279.9 48.7603 280.068 47.9436C281.161 43.7891 282.262 39.5844 282.353 35.2882C282.39 33.5149 282.235 31.6776 281.38 30.1237C280.882 29.2096 280.151 28.4144 279.945 27.4089C279.739 26.4034 280.402 25.1237 281.444 25.2334C280.502 25.2721 279.564 25.0938 278.702 24.7123C277.874 24.2553 277.262 23.2727 277.555 22.3769C275.233 22.6739 273.542 20.3796 271.732 18.8942C271.438 18.6025 271.04 18.4383 270.626 18.4372C270.308 18.5165 270.001 18.6347 269.712 18.7891C268.798 19.109 267.842 18.5012 266.906 18.2361C264.392 17.5323 261.197 19.2325 259.332 17.4043C259.511 18.5697 258.08 19.3513 256.901 19.3284C255.722 19.3056 254.506 18.8714 253.391 19.2644C253.552 19.5598 253.647 19.8873 253.667 20.2234C253.687 20.5594 253.633 20.8958 253.508 21.2085C253.383 21.5212 253.191 21.8024 252.945 22.032C252.698 22.2616 252.404 22.434 252.084 22.5368L252.637 23.7434C252.067 23.8573 251.54 24.1282 251.116 24.5256C250.692 24.9229 250.388 25.4308 250.237 25.992C249.63 28.3915 249.78 31.801 249.927 34.269C250 35.3522 251.055 43.876 250.311 44.2827Z" fill="#192534"/>
<path d="M264.401 64.5978C256.106 73.9259 253.994 87.0566 252.225 99.4195L249.62 117.674C248.944 122.409 248.249 127.143 247.659 131.892C247.248 135.142 246.864 138.441 247.312 141.686C247.664 144.246 248.519 146.714 249.232 149.177C251.087 155.639 252.01 162.332 251.974 169.054C252.527 167.427 254.442 166.769 256.124 166.403C270.236 163.341 284.96 164.914 298.107 170.887C300.415 164.42 299.981 157.345 300.626 150.507C301.54 140.759 304.689 131.312 305.621 121.581C305.964 117.957 306.005 114.314 306.042 110.672C306.069 107.998 306.096 105.297 305.539 102.678C304.917 99.7806 303.606 97.0795 302.248 94.4515C298.496 87.1463 294.327 80.0627 289.762 73.2358C287.464 69.7989 285.068 66.4305 282.573 63.1307C281.308 61.4579 280.018 59.8034 278.702 58.1672C277.426 56.5813 276.873 55.2056 274.849 56.1563C271.023 57.9479 267.184 61.4671 264.401 64.5978Z" fill="#073E58"/>
<path d="M269.154 142.24C267.131 142.313 265.104 142.249 263.089 142.048C261.595 141.902 260.068 141.683 258.61 142.048C257.977 142.208 257.383 142.499 256.869 142.903C256.679 143.073 256.542 143.294 256.475 143.54C256.409 143.786 256.415 144.047 256.494 144.289C256.573 144.532 256.721 144.746 256.92 144.906C257.119 145.065 257.36 145.163 257.614 145.188L259.177 145.325C260.169 145.412 261.202 145.513 261.974 146.239C262.291 146.525 262.493 146.917 262.541 147.341C262.637 148.406 261.714 148.986 260.886 149.43C259.71 149.982 258.623 150.706 257.66 151.578C256.906 152.306 256.432 153.277 256.321 154.32C256.317 154.413 256.338 154.505 256.382 154.587C256.425 154.67 256.489 154.739 256.568 154.789C256.647 154.838 256.737 154.866 256.83 154.87C256.923 154.873 257.015 154.852 257.098 154.809C258.926 153.895 260.119 151.185 262.125 151.637C260.3 152.215 258.737 153.417 257.71 155.033C257.457 155.419 257.341 155.879 257.382 156.338C257.423 156.798 257.618 157.23 257.936 157.565C258.253 157.9 258.674 158.118 259.131 158.184C259.588 158.249 260.054 158.158 260.452 157.926C260.749 157.752 261.036 157.561 261.312 157.355C262.671 156.254 263.888 154.989 264.936 153.589C263.473 156.674 261.993 160.284 263.674 163.351C263.758 163.52 263.889 163.66 264.052 163.756C264.214 163.852 264.4 163.898 264.589 163.89C265.119 163.835 265.274 163.337 265.361 162.898C265.635 161.486 265.704 159.996 266.398 158.739C268.007 155.823 271.974 155.54 274.995 154.119C278.62 152.437 281.101 148.817 282.102 144.951C282.452 143.823 282.514 142.625 282.28 141.468C281.609 138.867 278.4 138.269 276.339 139.525C273.812 141.13 272.344 142.14 269.154 142.24Z" fill="#FBBEBE"/>
<path opacity="0.1" d="M265.946 91.0826C269.145 96.0232 274.698 98.8066 279.461 102.276C280.623 103.032 281.636 103.996 282.45 105.118C283.652 106.974 283.821 109.332 283.574 111.517C283.263 114.401 282.335 117.175 281.417 119.926L279.42 125.891C278.154 129.675 276.846 133.537 274.438 136.718C273.821 137.527 273.103 138.391 273.131 139.405C273.184 139.991 273.385 140.554 273.716 141.042C274.487 142.299 275.502 143.389 276.703 144.247C277.903 145.104 279.264 145.711 280.704 146.032C281.566 146.252 282.47 146.252 283.332 146.032C284.566 145.667 285.494 144.661 286.353 143.711C290.466 139.172 294.579 134.57 297.55 129.245C300.452 124.049 302.189 118.276 303.789 112.559C304.448 110.454 304.907 108.292 305.16 106.101C305.498 101.988 304.42 97.8742 302.655 94.1585C300.891 90.4428 298.464 87.079 295.964 83.8112C293.605 80.6014 290.983 77.5929 288.126 74.8166C283.154 70.1686 277.07 67.4355 270.416 70.0726C265.718 71.9373 263.958 75.8267 263.537 80.8084C263.181 84.4053 264.029 88.0187 265.946 91.0826Z" fill="black"/>
<path d="M267.61 89.8313C270.809 94.7719 276.367 97.5553 281.124 101.024C282.282 101.788 283.291 102.758 284.1 103.885C285.302 105.741 285.471 108.095 285.224 110.284C284.909 113.168 283.985 115.942 283.062 118.693L281.065 124.635C279.799 128.419 278.492 132.276 276.083 135.462C275.471 136.271 274.753 137.13 274.781 138.149C274.831 138.735 275.033 139.297 275.366 139.781C276.135 141.039 277.15 142.13 278.35 142.988C279.55 143.846 280.91 144.455 282.349 144.776C283.213 144.996 284.118 144.996 284.982 144.776C286.216 144.415 287.139 143.405 288.003 142.459C292.116 137.916 296.23 133.319 299.2 127.994C302.102 122.797 303.839 117.025 305.439 111.303C306.099 109.2 306.558 107.039 306.81 104.85C307.148 100.736 306.07 96.6229 304.31 92.9026C302.55 89.1823 300.119 85.8231 297.619 82.5553C295.251 79.3622 292.623 76.3706 289.762 73.611C284.794 68.9675 278.711 66.2298 272.057 68.8715C267.354 70.7362 265.599 74.6211 265.174 79.6074C264.838 83.1906 265.695 86.7844 267.61 89.8313Z" fill="#073E58"/>
<path d="M368.67 253.765C368.674 254.957 368.551 256.146 368.305 257.312C368.259 257.531 368.209 257.769 368.158 257.956C366.86 263.162 363.2 266.969 358.83 267.211C358.684 267.211 358.538 267.211 358.373 267.211C353.753 267.211 349.845 263.226 348.556 257.737C348.52 257.591 348.488 257.444 348.456 257.28C348.209 256.114 348.086 254.925 348.09 253.733C348.09 246.297 352.692 240.273 358.373 240.273C364.054 240.273 368.67 246.343 368.67 253.765Z" fill="#3F3D56"/>
<path opacity="0.1" d="M368.67 253.766C368.673 254.958 368.551 256.146 368.304 257.312C368.258 257.532 368.208 257.769 368.158 257.957C368.002 257.957 367.852 257.957 367.701 257.957C366.569 257.896 365.444 257.743 364.337 257.5C363.356 257.803 362.354 258.032 361.339 258.185C360.56 258.303 359.776 258.376 358.99 258.405H358.194C357.253 258.405 356.312 258.342 355.379 258.217C353.87 258.016 352.388 257.648 350.959 257.12C350.178 257.381 349.381 257.594 348.574 257.76C348.537 257.614 348.505 257.468 348.473 257.303C348.227 256.137 348.104 254.948 348.107 253.757C348.107 246.321 352.71 240.297 358.391 240.297C364.072 240.297 368.67 246.343 368.67 253.766Z" fill="black"/>
<path d="M390.608 228.693C390.612 225.421 389.845 222.193 388.369 219.273L376.275 223.035L386.892 216.792C385.111 214.22 382.776 212.081 380.058 210.532C377.34 208.983 374.309 208.064 371.188 207.843C370.692 207.089 370.147 206.368 369.557 205.685L352.189 211.092L366.435 202.715C363.71 200.623 360.512 199.236 357.122 198.675C353.733 198.114 350.258 198.397 347.005 199.499C343.751 200.602 340.819 202.489 338.469 204.994C336.118 207.499 334.421 210.545 333.529 213.862L348.405 230.987L332.267 219.314C328.179 222.214 325.269 226.485 324.066 231.351C322.864 236.217 323.45 241.352 325.717 245.822C327.984 250.292 331.781 253.798 336.417 255.703C341.053 257.607 346.219 257.783 350.974 256.197C355.274 257.778 359.974 257.908 364.356 256.568C367.41 257.24 370.577 257.219 373.622 256.506C376.667 255.793 379.514 254.406 381.953 252.448C384.392 250.49 386.36 248.01 387.714 245.19C389.068 242.371 389.773 239.284 389.776 236.156C389.776 235.699 389.776 235.242 389.731 234.785C390.323 232.809 390.618 230.756 390.608 228.693Z" fill="#073E58"/>
<path opacity="0.1" d="M390.246 232.569C383.86 231.358 377.311 231.275 370.895 232.322C363.633 233.524 356.211 236.166 349.108 234.237C344.94 233.103 341.339 230.48 337.267 229.022C333.338 227.651 329.105 227.398 325.041 228.291C323.492 231.996 323.043 236.069 323.747 240.022C324.451 243.976 326.278 247.644 329.01 250.587C331.743 253.53 335.264 255.624 339.155 256.619C343.046 257.614 347.141 257.467 350.95 256.198C355.251 257.779 359.951 257.909 364.332 256.568C367.387 257.24 370.553 257.219 373.599 256.506C376.644 255.793 379.491 254.407 381.93 252.448C384.368 250.49 386.337 248.01 387.691 245.191C389.045 242.371 389.749 239.284 389.753 236.156C389.753 235.699 389.753 235.242 389.707 234.785C389.928 234.057 390.108 233.317 390.246 232.569Z" fill="black"/>
</svg>
