<svg width="650" height="368" viewBox="0 0 650 368" fill="none" xmlns="http://www.w3.org/2000/svg">
<path d="M563.762 180.374H143.819C137.726 180.367 131.884 177.943 127.576 173.635C123.267 169.326 120.844 163.485 120.837 157.392V22.982C120.844 16.8889 123.267 11.0473 127.576 6.73887C131.884 2.4304 137.726 0.00688275 143.819 0H563.762C569.856 0.00688275 575.697 2.4304 580.006 6.73887C584.314 11.0473 586.738 16.8889 586.744 22.982V157.392C586.738 163.485 584.314 169.326 580.006 173.635C575.697 177.943 569.856 180.367 563.762 180.374Z" fill="#E6E6E6"/>
<path d="M144.515 9.05371C140.823 9.05792 137.282 10.5267 134.671 13.1379C132.06 15.7491 130.591 19.2894 130.587 22.9822V157.392C130.591 161.085 132.06 164.625 134.671 167.236C137.282 169.847 140.823 171.316 144.515 171.32H564.459C568.152 171.316 571.692 169.847 574.303 167.236C576.914 164.625 578.383 161.085 578.387 157.392V22.9822C578.383 19.2894 576.914 15.7491 574.303 13.1379C571.692 10.5267 568.152 9.05791 564.459 9.05371H144.515Z" fill="white"/>
<path d="M197.196 65.2823C194.178 65.2823 191.229 64.3875 188.72 62.7111C186.211 61.0347 184.256 58.652 183.101 55.8643C181.946 53.0765 181.644 50.009 182.233 47.0495C182.821 44.0901 184.274 41.3717 186.408 39.238C188.542 37.1044 191.26 35.6514 194.219 35.0627C197.179 34.474 200.246 34.7761 203.034 35.9309C205.822 37.0856 208.205 39.041 209.881 41.5499C211.557 44.0588 212.452 47.0085 212.452 50.0259C212.448 54.0707 210.839 57.9486 207.979 60.8088C205.119 63.6689 201.241 65.2778 197.196 65.2823ZM197.196 36.8037C194.581 36.8037 192.024 37.5792 189.85 39.0321C187.676 40.4849 185.981 42.5499 184.98 44.966C183.979 47.382 183.718 50.0405 184.228 52.6054C184.738 55.1703 185.997 57.5262 187.846 59.3754C189.695 61.2245 192.051 62.4838 194.616 62.994C197.181 63.5042 199.84 63.2424 202.256 62.2416C204.672 61.2409 206.737 59.5461 208.19 57.3718C209.643 55.1974 210.418 52.641 210.418 50.0259C210.414 46.5204 209.02 43.1596 206.541 40.6808C204.062 38.202 200.701 36.8077 197.196 36.8037Z" fill="#CCCCCC"/>
<path d="M196.858 46.5636H196.829L195.219 47.4327L194.978 46.4782L197 45.3955H198.069V54.6565H196.858V46.5636Z" fill="#CCCCCC"/>
<path d="M176.368 89.9115C176.728 89.924 177.082 89.828 177.386 89.6361C177.69 89.4443 177.929 89.1653 178.073 88.8357C178.216 88.506 178.257 88.1408 178.19 87.7877C178.123 87.4345 177.951 87.1097 177.697 86.8556C177.443 86.6014 177.118 86.4296 176.765 86.3625C176.411 86.2954 176.046 86.3362 175.717 86.4795C175.387 86.6228 175.108 86.8619 174.916 87.1659C174.724 87.4699 174.628 87.8246 174.641 88.1838C174.656 88.637 174.843 89.0674 175.164 89.3881C175.485 89.7087 175.915 89.8958 176.368 89.9115Z" fill="#E6E6E6"/>
<path d="M176.368 101.1C176.728 101.112 177.082 101.016 177.386 100.825C177.69 100.633 177.929 100.354 178.073 100.024C178.216 99.6945 178.257 99.3293 178.19 98.9762C178.123 98.623 177.951 98.2982 177.697 98.044C177.443 97.7899 177.118 97.6181 176.765 97.551C176.411 97.4839 176.046 97.5247 175.717 97.668C175.387 97.8113 175.108 98.0504 174.916 98.3544C174.724 98.6584 174.628 99.013 174.641 99.3723C174.656 99.8255 174.843 100.256 175.164 100.577C175.485 100.897 175.915 101.084 176.368 101.1Z" fill="#E6E6E6"/>
<path d="M176.368 112.287C176.728 112.3 177.082 112.204 177.386 112.012C177.69 111.82 177.929 111.541 178.073 111.212C178.216 110.882 178.257 110.517 178.19 110.164C178.123 109.811 177.951 109.486 177.697 109.232C177.443 108.977 177.118 108.806 176.765 108.738C176.411 108.671 176.046 108.712 175.717 108.855C175.387 108.999 175.108 109.238 174.916 109.542C174.724 109.846 174.628 110.201 174.641 110.56C174.656 111.013 174.843 111.443 175.164 111.764C175.485 112.085 175.915 112.272 176.368 112.287Z" fill="#E6E6E6"/>
<path d="M218.734 89.1387H186.187C185.917 89.1387 185.659 89.0315 185.468 88.8408C185.277 88.65 185.17 88.3913 185.17 88.1216C185.17 87.8518 185.277 87.5931 185.468 87.4024C185.659 87.2117 185.917 87.1045 186.187 87.1045H218.734C219.004 87.1045 219.262 87.2117 219.453 87.4024C219.644 87.5931 219.751 87.8518 219.751 88.1216C219.751 88.3913 219.644 88.65 219.453 88.8408C219.262 89.0315 219.004 89.1387 218.734 89.1387Z" fill="#E6E6E6"/>
<path d="M218.733 100.327H186.186C185.916 100.327 185.658 100.221 185.467 100.03C185.276 99.8395 185.168 99.5809 185.168 99.3111C185.168 99.0414 185.275 98.7826 185.465 98.5916C185.656 98.4007 185.914 98.2933 186.184 98.293H218.733C219.003 98.2927 219.262 98.3996 219.453 98.5901C219.643 98.7806 219.751 99.0392 219.751 99.309C219.751 99.5787 219.645 99.8375 219.454 100.028C219.264 100.219 219.005 100.327 218.735 100.327H218.733Z" fill="#E6E6E6"/>
<path d="M218.734 111.515H186.187C185.917 111.515 185.659 111.407 185.468 111.217C185.277 111.026 185.17 110.767 185.17 110.498C185.17 110.228 185.277 109.969 185.468 109.778C185.659 109.588 185.917 109.48 186.187 109.48H218.734C218.867 109.48 219 109.506 219.123 109.557C219.247 109.608 219.359 109.683 219.453 109.778C219.548 109.872 219.623 109.984 219.674 110.107C219.725 110.231 219.752 110.363 219.752 110.496C219.752 110.63 219.726 110.762 219.675 110.886C219.624 111.009 219.549 111.121 219.455 111.216C219.361 111.311 219.249 111.386 219.125 111.437C219.002 111.488 218.87 111.515 218.736 111.515H218.734Z" fill="#E6E6E6"/>
<path d="M291.695 63.1924C288.677 63.1924 285.728 62.2976 283.219 60.6212C280.71 58.9448 278.755 56.5621 277.6 53.7744C276.445 50.9867 276.143 47.9191 276.732 44.9597C277.32 42.0002 278.773 39.2818 280.907 37.1482C283.041 35.0145 285.759 33.5615 288.718 32.9728C291.678 32.3842 294.745 32.6863 297.533 33.841C300.321 34.9957 302.704 36.9512 304.38 39.4601C306.056 41.969 306.951 44.9186 306.951 47.9361C306.951 49.9395 306.557 51.9234 305.79 53.7744C305.023 55.6254 303.899 57.3073 302.483 58.7239C301.066 60.1406 299.384 61.2644 297.533 62.0311C295.682 62.7978 293.698 63.1924 291.695 63.1924ZM291.695 34.7139C289.08 34.7139 286.523 35.4893 284.349 36.9422C282.175 38.3951 280.48 40.4601 279.479 42.8761C278.478 45.2922 278.216 47.9507 278.727 50.5156C279.237 53.0804 280.496 55.4364 282.345 57.2855C284.194 59.1347 286.55 60.394 289.115 60.9042C291.68 61.4144 294.339 61.1525 296.755 60.1518C299.171 59.151 301.236 57.4563 302.689 55.2819C304.141 53.1076 304.917 50.5512 304.917 47.9361C304.913 44.4306 303.519 41.0698 301.04 38.591C298.561 36.1123 295.2 34.7179 291.695 34.7139Z" fill="#CCCCCC"/>
<path d="M288.996 52.6451V51.8753L289.978 50.9208C292.344 48.67 293.413 47.4722 293.427 46.0767C293.452 45.8304 293.422 45.5816 293.338 45.3487C293.254 45.1157 293.119 44.9046 292.943 44.7309C292.766 44.5573 292.553 44.4255 292.319 44.3454C292.085 44.2652 291.835 44.2388 291.589 44.268C290.863 44.2947 290.169 44.5711 289.623 45.0506L289.224 44.1677C289.96 43.5552 290.888 43.2221 291.846 43.227C292.214 43.1943 292.585 43.2403 292.934 43.3621C293.284 43.4839 293.603 43.6786 293.871 43.9333C294.139 44.188 294.35 44.4969 294.49 44.8394C294.629 45.1819 294.694 45.5502 294.681 45.9197C294.681 47.6291 293.441 49.0117 291.489 50.892L290.748 51.5763V51.6041H294.909V52.6451H288.996Z" fill="#CCCCCC"/>
<path d="M332.087 144.832H251.302C249.64 144.83 248.047 144.169 246.872 142.994C245.697 141.819 245.036 140.226 245.034 138.564V90.511C245.036 88.8492 245.697 87.2561 246.872 86.0811C248.047 84.906 249.64 84.2451 251.302 84.2432H332.087C333.749 84.2451 335.342 84.906 336.517 86.0811C337.692 87.2561 338.353 88.8492 338.355 90.511V138.564C338.353 140.226 337.692 141.819 336.517 142.994C335.342 144.169 333.749 144.83 332.087 144.832Z" fill="white"/>
<path d="M319.156 97.2471H264.233C263.963 97.2474 263.704 97.1405 263.514 96.9499C263.323 96.7594 263.215 96.5008 263.215 96.2311C263.215 95.9613 263.321 95.7025 263.512 95.5116C263.703 95.3206 263.961 95.2132 264.231 95.2129H319.156C319.426 95.2126 319.684 95.3195 319.875 95.51C320.066 95.7005 320.174 95.9591 320.174 96.2289C320.174 96.4986 320.067 96.7575 319.877 96.9484C319.686 97.1393 319.428 97.2468 319.158 97.2471H319.156Z" fill="#E6E6E6"/>
<path d="M319.156 106.4H264.233C263.963 106.401 263.704 106.294 263.514 106.103C263.323 105.913 263.215 105.654 263.215 105.384C263.215 105.115 263.321 104.856 263.512 104.665C263.703 104.474 263.961 104.366 264.231 104.366H319.156C319.426 104.366 319.684 104.473 319.875 104.664C320.066 104.855 320.173 105.114 320.173 105.383C320.173 105.653 320.066 105.912 319.875 106.102C319.684 106.293 319.426 106.4 319.156 106.4Z" fill="#E6E6E6"/>
<path d="M319.156 115.555H264.233C263.963 115.555 263.704 115.448 263.514 115.258C263.323 115.067 263.215 114.808 263.215 114.539C263.215 114.269 263.321 114.01 263.512 113.819C263.703 113.628 263.961 113.521 264.231 113.521H319.156C319.426 113.52 319.684 113.627 319.875 113.818C320.066 114.008 320.174 114.267 320.174 114.537C320.174 114.806 320.067 115.065 319.877 115.256C319.686 115.447 319.428 115.554 319.158 115.555H319.156Z" fill="#E6E6E6"/>
<path d="M319.155 124.708H264.233C263.963 124.708 263.705 124.6 263.515 124.41C263.324 124.22 263.217 123.961 263.217 123.692C263.217 123.423 263.323 123.164 263.513 122.973C263.703 122.782 263.961 122.675 264.23 122.674H319.155C319.425 122.675 319.683 122.782 319.873 122.973C320.063 123.163 320.17 123.422 320.17 123.691C320.17 123.96 320.063 124.219 319.873 124.409C319.683 124.6 319.425 124.707 319.155 124.708Z" fill="#E6E6E6"/>
<path d="M319.156 133.862H264.233C263.963 133.862 263.704 133.755 263.514 133.564C263.323 133.374 263.216 133.115 263.216 132.845C263.216 132.575 263.323 132.317 263.514 132.126C263.704 131.935 263.963 131.828 264.233 131.828H319.156C319.426 131.828 319.684 131.935 319.875 132.125C320.066 132.316 320.174 132.574 320.174 132.844C320.174 133.114 320.067 133.373 319.877 133.564C319.686 133.755 319.428 133.862 319.158 133.862H319.156Z" fill="#E6E6E6"/>
<path d="M332.087 144.832H251.302C249.64 144.83 248.047 144.169 246.872 142.994C245.697 141.819 245.036 140.226 245.034 138.564V90.511C245.036 88.8492 245.697 87.2561 246.872 86.0811C248.047 84.906 249.64 84.2451 251.302 84.2432H332.087C333.749 84.2451 335.342 84.906 336.517 86.0811C337.692 87.2561 338.353 88.8492 338.355 90.511V138.564C338.353 140.226 337.692 141.819 336.517 142.994C335.342 144.169 333.749 144.83 332.087 144.832ZM251.302 85.636C250.01 85.6375 248.77 86.1515 247.856 87.0655C246.943 87.9794 246.428 89.2185 246.427 90.511V138.564C246.428 139.857 246.943 141.096 247.856 142.01C248.77 142.924 250.01 143.438 251.302 143.439H332.087C333.38 143.438 334.619 142.924 335.533 142.01C336.447 141.096 336.961 139.857 336.962 138.564V90.511C336.961 89.2185 336.447 87.9794 335.533 87.0655C334.619 86.1515 333.38 85.6375 332.087 85.636H251.302Z" fill="#E6E6E6"/>
<path d="M393.91 63.1924C390.892 63.1924 387.943 62.2976 385.434 60.6212C382.925 58.9448 380.969 56.5621 379.815 53.7744C378.66 50.9867 378.358 47.9191 378.946 44.9597C379.535 42.0002 380.988 39.2818 383.122 37.1482C385.255 35.0145 387.974 33.5615 390.933 32.9728C393.893 32.3842 396.96 32.6863 399.748 33.841C402.536 34.9957 404.918 36.9512 406.595 39.4601C408.271 41.969 409.166 44.9186 409.166 47.9361C409.166 51.9823 407.559 55.8628 404.698 58.7239C401.836 61.5851 397.956 63.1924 393.91 63.1924ZM393.91 34.7139C391.295 34.7139 388.738 35.4893 386.564 36.9422C384.389 38.3951 382.695 40.4601 381.694 42.8761C380.693 45.2922 380.431 47.9507 380.942 50.5156C381.452 53.0804 382.711 55.4364 384.56 57.2855C386.409 59.1347 388.765 60.394 391.33 60.9042C393.895 61.4144 396.553 61.1525 398.97 60.1518C401.386 59.151 403.451 57.4563 404.903 55.2819C406.356 53.1076 407.132 50.5512 407.132 47.9361C407.128 44.4306 405.733 41.0698 403.255 38.5911C400.776 36.1123 397.415 34.7179 393.91 34.7139Z" fill="#CCCCCC"/>
<path d="M391.359 51.1273C391.981 51.4952 392.688 51.6964 393.41 51.7113C395.021 51.7113 395.52 50.6853 395.505 49.9165C395.491 48.6193 394.322 48.0641 393.112 48.0641H392.413V47.1235H393.112C394.024 47.1235 395.178 46.6537 395.178 45.5561C395.178 44.8151 394.707 44.1596 393.553 44.1596C392.889 44.1783 392.246 44.3918 391.702 44.7734L391.374 43.8616C392.094 43.3922 392.936 43.1443 393.796 43.1485C395.619 43.1485 396.446 44.2311 396.446 45.3575C396.436 45.8572 396.264 46.3403 395.955 46.7335C395.647 47.1267 395.218 47.4086 394.735 47.5367V47.5655C395.308 47.6483 395.831 47.9342 396.211 48.3708C396.59 48.8075 396.799 49.366 396.801 49.9443C396.801 51.4263 395.647 52.7234 393.425 52.7234C392.581 52.7343 391.749 52.5175 391.018 52.0957L391.359 51.1273Z" fill="#CCCCCC"/>
<path d="M371.366 131.41C371.726 131.422 372.08 131.326 372.384 131.134C372.688 130.942 372.928 130.663 373.071 130.334C373.214 130.004 373.255 129.639 373.188 129.286C373.121 128.933 372.949 128.608 372.695 128.354C372.441 128.099 372.116 127.928 371.763 127.861C371.409 127.793 371.044 127.834 370.715 127.978C370.385 128.121 370.106 128.36 369.914 128.664C369.722 128.968 369.626 129.323 369.639 129.682C369.654 130.135 369.842 130.565 370.162 130.886C370.483 131.207 370.913 131.394 371.366 131.41Z" fill="#E6E6E6"/>
<path d="M413.732 130.638H381.185C380.915 130.638 380.657 130.531 380.466 130.34C380.275 130.149 380.168 129.89 380.168 129.621C380.168 129.351 380.275 129.092 380.466 128.901C380.657 128.711 380.915 128.604 381.185 128.604H413.732C413.866 128.603 413.998 128.63 414.121 128.681C414.245 128.731 414.357 128.806 414.451 128.901C414.546 128.995 414.621 129.107 414.672 129.23C414.724 129.354 414.75 129.486 414.75 129.62C414.75 129.753 414.724 129.885 414.673 130.009C414.622 130.132 414.547 130.244 414.453 130.339C414.359 130.434 414.247 130.509 414.123 130.56C414 130.611 413.868 130.638 413.734 130.638H413.732Z" fill="#E6E6E6"/>
<path d="M422.463 116.975H365.356C364.064 116.974 362.825 116.46 361.911 115.546C360.997 114.632 360.483 113.393 360.481 112.1V89.1181C360.483 87.8257 360.997 86.5865 361.911 85.6726C362.825 84.7587 364.064 84.2446 365.356 84.2432H422.463C423.756 84.2446 424.995 84.7587 425.909 85.6726C426.823 86.5865 427.337 87.8257 427.338 89.1181V112.1C427.337 113.393 426.823 114.632 425.909 115.546C424.995 116.46 423.756 116.974 422.463 116.975ZM365.356 85.636C364.433 85.6371 363.548 86.0043 362.895 86.6571C362.243 87.3099 361.875 88.1949 361.874 89.1181V112.1C361.875 113.023 362.243 113.908 362.895 114.561C363.548 115.214 364.433 115.581 365.356 115.582H422.463C423.386 115.581 424.271 115.214 424.924 114.561C425.577 113.908 425.944 113.023 425.945 112.1V89.1181C425.944 88.1949 425.577 87.3099 424.924 86.6571C424.271 86.0043 423.386 85.6371 422.463 85.636H365.356Z" fill="#E6E6E6"/>
<path d="M425.338 85.7515L362.001 114.299L362.573 115.569L425.91 87.0212L425.338 85.7515Z" fill="#E6E6E6"/>
<path d="M362.838 85.3984L362.257 86.6641L425.243 115.566L425.824 114.3L362.838 85.3984Z" fill="#E6E6E6"/>
<path d="M469.383 101.549C469.344 101.468 469.294 101.393 469.234 101.325L461.606 93.6973C461.512 93.6026 461.4 93.5275 461.276 93.4762C461.153 93.425 461.02 93.3985 460.887 93.3984C460.753 93.3983 460.621 93.4246 460.497 93.4757C460.374 93.5268 460.261 93.6018 460.167 93.6963C460.072 93.7908 459.997 93.903 459.946 94.0265C459.895 94.15 459.869 94.2824 459.869 94.4161C459.869 94.5498 459.895 94.6821 459.947 94.8055C459.998 94.929 460.073 95.0411 460.168 95.1355L466.06 101.027H440.037C439.767 101.027 439.508 101.135 439.317 101.325C439.127 101.516 439.02 101.775 439.02 102.045C439.02 102.314 439.127 102.573 439.317 102.764C439.508 102.954 439.767 103.062 440.037 103.062H466.06L460.676 108.445C460.582 108.539 460.506 108.652 460.455 108.775C460.404 108.899 460.377 109.031 460.377 109.165C460.377 109.298 460.403 109.431 460.454 109.554C460.505 109.678 460.58 109.79 460.675 109.885C460.769 109.979 460.882 110.055 461.005 110.106C461.129 110.157 461.261 110.183 461.395 110.183C461.529 110.183 461.661 110.156 461.785 110.105C461.908 110.053 462.02 109.978 462.115 109.883L469.234 102.764L469.234 102.764C469.39 102.606 469.488 102.401 469.515 102.182C469.542 101.962 469.495 101.739 469.383 101.549Z" fill="#CCCCCC"/>
<path d="M534.336 81.5578H533.859V68.4999C533.859 67.5075 533.663 66.5247 533.284 65.6078C532.904 64.6909 532.347 63.8577 531.645 63.1559C530.944 62.4542 530.11 61.8975 529.194 61.5177C528.277 61.1379 527.294 60.9424 526.301 60.9424H498.637C497.644 60.9424 496.661 61.1379 495.745 61.5177C494.828 61.8975 493.994 62.4541 493.293 63.1559C492.591 63.8577 492.034 64.6908 491.654 65.6078C491.275 66.5247 491.079 67.5074 491.079 68.4999V140.136C491.079 142.141 491.875 144.063 493.293 145.48C494.71 146.898 496.632 147.694 498.637 147.694H526.301C527.294 147.694 528.277 147.498 529.194 147.118C530.11 146.739 530.944 146.182 531.645 145.48C532.347 144.778 532.904 143.945 533.284 143.028C533.663 142.111 533.859 141.129 533.859 140.136V90.8525H534.336V81.5578Z" fill="#3F3D56"/>
<path d="M532.251 68.5523V140.083C532.251 141.58 531.656 143.016 530.598 144.074C529.539 145.133 528.104 145.727 526.607 145.727H498.809C497.312 145.727 495.877 145.133 494.818 144.074C493.76 143.016 493.165 141.58 493.165 140.083V68.5523C493.165 67.0554 493.76 65.6198 494.818 64.5614C495.877 63.5029 497.312 62.9082 498.809 62.9082H502.181C502.016 63.3154 501.953 63.7571 501.998 64.1944C502.043 64.6317 502.194 65.0512 502.44 65.416C502.685 65.7809 503.016 66.0799 503.404 66.2867C503.792 66.4936 504.225 66.6019 504.664 66.6022H520.513C520.953 66.6019 521.386 66.4936 521.773 66.2867C522.161 66.0799 522.493 65.7809 522.738 65.416C522.983 65.0512 523.135 64.6316 523.18 64.1943C523.225 63.757 523.162 63.3154 522.996 62.9082H526.607C528.104 62.9082 529.539 63.5029 530.598 64.5614C531.656 65.6198 532.251 67.0554 532.251 68.5523Z" fill="white"/>
<path d="M167.92 151.194C167.631 150.829 167.43 150.403 167.331 149.949C167.232 149.494 167.238 149.023 167.348 148.571C169.989 137.513 169.989 125.988 167.348 114.93C167.238 114.478 167.232 114.007 167.331 113.552C167.43 113.098 167.631 112.672 167.92 112.307C168.202 111.947 168.563 111.657 168.974 111.457C169.386 111.258 169.838 111.155 170.295 111.156H198.519C199.24 111.158 199.938 111.415 200.487 111.882C201.036 112.35 201.402 112.997 201.518 113.709C203.359 125.666 203.359 137.835 201.518 149.792C201.402 150.504 201.036 151.151 200.487 151.619C199.938 152.086 199.24 152.343 198.519 152.345H170.295C169.838 152.346 169.386 152.243 168.974 152.044C168.563 151.844 168.202 151.554 167.92 151.194Z" fill="#073E58"/>
<path d="M193.073 126.353H178.205C177.651 126.352 177.12 126.132 176.728 125.74C176.336 125.349 176.116 124.817 176.115 124.264V123.376C176.116 122.822 176.336 122.291 176.728 121.9C177.12 121.508 177.651 121.288 178.205 121.287H193.073C193.627 121.288 194.158 121.508 194.549 121.9C194.941 122.291 195.161 122.822 195.162 123.376V124.264C195.161 124.817 194.941 125.349 194.549 125.74C194.158 126.132 193.627 126.352 193.073 126.353Z" fill="white"/>
<path d="M193.073 135.091H178.205C177.651 135.091 177.12 134.87 176.728 134.479C176.336 134.087 176.116 133.556 176.115 133.002V132.115C176.116 131.561 176.336 131.03 176.728 130.638C177.12 130.246 177.651 130.026 178.205 130.025H193.073C193.627 130.026 194.158 130.246 194.549 130.638C194.941 131.03 195.161 131.561 195.162 132.115V133.002C195.161 133.556 194.941 134.087 194.549 134.479C194.158 134.87 193.627 135.091 193.073 135.091Z" fill="white"/>
<path d="M428.958 176.913C427.147 165.149 427.147 153.177 428.958 141.412C429.073 140.712 429.432 140.076 429.973 139.616C430.513 139.156 431.199 138.903 431.909 138.901H459.677C460.127 138.9 460.571 139.001 460.976 139.197C461.381 139.394 461.736 139.68 462.014 140.034C462.297 140.393 462.495 140.812 462.593 141.259C462.69 141.706 462.685 142.169 462.576 142.614C459.978 153.494 459.978 164.832 462.576 175.712C462.684 176.156 462.69 176.619 462.593 177.066C462.496 177.514 462.297 177.933 462.014 178.291C461.736 178.646 461.381 178.932 460.976 179.128C460.571 179.324 460.127 179.425 459.677 179.424H431.909C431.199 179.423 430.513 179.17 429.973 178.71C429.432 178.25 429.073 177.613 428.958 176.913Z" fill="#073E58"/>
<path d="M451.638 156.947H437.067C436.513 156.947 435.982 156.726 435.59 156.335C435.198 155.943 434.978 155.412 434.978 154.858V154.041C434.978 153.487 435.198 152.956 435.59 152.565C435.982 152.173 436.513 151.953 437.067 151.952H451.638C452.192 151.953 452.723 152.173 453.115 152.565C453.507 152.956 453.727 153.487 453.728 154.041V154.858C453.727 155.412 453.507 155.943 453.115 156.335C452.723 156.726 452.192 156.947 451.638 156.947Z" fill="white"/>
<path d="M25.7419 254.22C31.5737 243.844 38.9592 234.421 47.6418 226.28C48.1642 225.799 48.84 225.52 49.549 225.492C50.2579 225.463 50.954 225.687 51.5133 226.124L73.3682 243.254C73.7233 243.53 74.0105 243.884 74.2082 244.288C74.4058 244.692 74.5086 245.136 74.5086 245.586C74.5106 246.044 74.4081 246.496 74.209 246.908C74.0099 247.32 73.7194 247.681 73.3597 247.964C64.6037 254.924 57.6092 263.848 52.9419 274.013C52.7533 274.43 52.4721 274.798 52.1196 275.09C51.7672 275.382 51.3528 275.59 50.908 275.697C50.471 275.804 50.0153 275.811 49.5755 275.715C49.1357 275.62 48.7235 275.426 48.3702 275.147L26.5153 258.017C25.9577 257.578 25.574 256.956 25.4324 256.26C25.2907 255.565 25.4004 254.842 25.7419 254.22Z" fill="#CCCCCC"/>
<path d="M56.0416 251.508L44.5729 242.519C44.1374 242.176 43.8553 241.675 43.7886 241.125C43.722 240.576 43.8762 240.022 44.2174 239.585L44.7209 238.943C45.0631 238.507 45.5641 238.225 46.114 238.159C46.6639 238.092 47.2178 238.246 47.6541 238.588L59.1227 247.577C59.5583 247.919 59.8404 248.42 59.907 248.97C59.9737 249.52 59.8195 250.074 59.4782 250.51L58.9748 251.152C58.6326 251.588 58.1316 251.87 57.5817 251.937C57.0318 252.003 56.4779 251.849 56.0416 251.508Z" fill="white"/>
<path d="M50.7379 258.274L39.2692 249.284C38.8336 248.942 38.5516 248.441 38.4849 247.891C38.4183 247.341 38.5725 246.788 38.9137 246.351L39.4174 245.709C39.7596 245.273 40.2606 244.991 40.8105 244.924C41.3604 244.858 41.9143 245.012 42.3506 245.353L53.8193 254.342C54.2549 254.684 54.5369 255.186 54.6036 255.735C54.6702 256.285 54.516 256.839 54.1748 257.275L53.6711 257.918C53.3289 258.354 52.8279 258.636 52.278 258.702C51.7281 258.769 51.1742 258.615 50.7379 258.274Z" fill="white"/>
<path d="M616.296 263.269C614.485 251.505 614.485 239.533 616.296 227.769C616.411 227.069 616.77 226.432 617.311 225.972C617.851 225.512 618.537 225.259 619.247 225.258H647.015C647.465 225.256 647.909 225.358 648.314 225.554C648.719 225.75 649.074 226.036 649.351 226.39C649.635 226.749 649.833 227.168 649.931 227.615C650.028 228.062 650.022 228.526 649.914 228.97C647.316 239.85 647.316 251.188 649.914 262.068C650.022 262.512 650.028 262.976 649.931 263.423C649.833 263.87 649.635 264.289 649.351 264.648C649.074 265.002 648.719 265.288 648.314 265.484C647.909 265.681 647.465 265.782 647.015 265.78H619.247C618.537 265.779 617.851 265.526 617.311 265.066C616.77 264.606 616.411 263.97 616.296 263.269Z" fill="#CCCCCC"/>
<path d="M638.977 243.304H624.406C623.852 243.303 623.321 243.083 622.929 242.691C622.537 242.299 622.317 241.768 622.316 241.214V240.398C622.317 239.844 622.537 239.313 622.929 238.921C623.321 238.53 623.852 238.309 624.406 238.309H638.977C639.531 238.309 640.062 238.53 640.454 238.921C640.846 239.313 641.066 239.844 641.067 240.398V241.214C641.066 241.768 640.846 242.299 640.454 242.691C640.062 243.083 639.531 243.303 638.977 243.304Z" fill="white"/>
<path d="M624.452 230.795C625.28 229.12 625.447 227.194 624.92 225.402C624.393 223.609 623.21 222.081 621.607 221.12C621.283 220.941 620.945 220.789 620.595 220.667L620.024 195.38L609.923 202.817L612.014 225.69C611.64 227.225 611.769 228.839 612.381 230.296C612.993 231.752 614.057 232.974 615.415 233.781C616.196 234.215 617.06 234.484 617.95 234.568C618.841 234.652 619.739 234.551 620.588 234.27C621.437 233.989 622.219 233.536 622.884 232.937C623.549 232.339 624.083 231.61 624.452 230.795Z" fill="#A0616A"/>
<path d="M620.196 219.567L612.956 220.003C612.184 220.023 611.432 219.751 610.851 219.241C610.27 218.732 609.903 218.022 609.821 217.254L603.809 172.023L594.094 144.434C593.274 142.135 593.364 139.61 594.346 137.375C594.801 136.299 595.472 135.327 596.318 134.519C597.163 133.711 598.164 133.085 599.26 132.678C603.685 131.07 608.529 133.616 610.058 138.354L619.938 169.986L622.985 216.182C623.046 217.019 622.785 217.848 622.254 218.499C621.922 218.908 621.485 219.22 620.991 219.403C620.735 219.496 620.467 219.551 620.196 219.567Z" fill="#3F3D56"/>
<path d="M577.987 358.589L569.449 358.589L565.388 325.656L577.989 325.657L577.987 358.589Z" fill="#A0616A"/>
<path d="M580.165 366.865L552.635 366.864V366.516C552.635 365.109 552.912 363.716 553.45 362.415C553.989 361.115 554.778 359.934 555.773 358.939C556.768 357.944 557.95 357.155 559.25 356.616C560.55 356.078 561.943 355.801 563.35 355.801L580.165 355.801L580.165 366.865Z" fill="#2F2E41"/>
<path d="M603.059 358.589L594.521 358.589L590.459 325.656L603.06 325.657L603.059 358.589Z" fill="#A0616A"/>
<path d="M605.236 366.865L577.706 366.864V366.516C577.706 365.109 577.983 363.716 578.522 362.415C579.06 361.115 579.849 359.934 580.845 358.939C581.84 357.944 583.021 357.155 584.321 356.616C585.621 356.078 587.014 355.801 588.422 355.801L605.237 355.801L605.236 366.865Z" fill="#2F2E41"/>
<path d="M608.788 225.496L606.75 346.461C606.743 346.844 606.658 347.222 606.499 347.57C606.34 347.919 606.11 348.231 605.825 348.487C605.54 348.743 605.205 348.937 604.842 349.058C604.478 349.179 604.094 349.223 603.712 349.188L593.721 348.28C593.066 348.22 592.453 347.931 591.99 347.462C591.528 346.994 591.247 346.377 591.196 345.721L585.347 270.267C585.333 270.09 585.252 269.924 585.12 269.805C584.989 269.685 584.816 269.621 584.639 269.624C584.461 269.628 584.291 269.699 584.164 269.824C584.037 269.948 583.963 270.117 583.956 270.294L581.033 347.476C581.006 348.196 580.7 348.878 580.181 349.377C579.662 349.877 578.97 350.156 578.249 350.156H567.534C566.825 350.156 566.142 349.886 565.625 349.4C565.109 348.913 564.797 348.249 564.754 347.541L557.253 224.8L601.824 213.657L608.788 225.496Z" fill="#2F2E41"/>
<path d="M576.459 111.912C585.906 111.912 593.564 104.254 593.564 94.807C593.564 85.3603 585.906 77.7021 576.459 77.7021C567.013 77.7021 559.354 85.3603 559.354 94.807C559.354 104.254 567.013 111.912 576.459 111.912Z" fill="#A0616A"/>
<path d="M555.727 229.095C555.43 228.809 555.194 228.467 555.031 228.088C554.868 227.71 554.781 227.303 554.777 226.891L553.623 144.405C553.553 140.209 554.816 136.099 557.228 132.665C559.641 129.231 563.08 126.651 567.051 125.294C568.654 118.024 577.183 117.113 582.155 117.222C583.396 117.249 584.612 117.574 585.7 118.171C586.789 118.768 587.717 119.618 588.407 120.65L591.971 125.997L599.827 130.602C603.463 132.724 606.33 135.946 608.016 139.803C609.702 143.66 610.12 147.953 609.208 152.063L607.999 157.564C603.74 177.036 604.145 197.238 609.181 216.524L611.615 225.803C611.742 226.286 611.751 226.793 611.642 227.28C611.533 227.768 611.31 228.223 610.989 228.606C610.669 228.99 610.262 229.291 609.802 229.485C609.341 229.679 608.841 229.761 608.343 229.722L605.516 229.505C604.783 229.449 604.092 229.137 603.566 228.622C603.039 228.108 602.711 227.425 602.638 226.692L602.171 222.015C602.162 221.929 602.122 221.849 602.058 221.791C601.994 221.733 601.911 221.701 601.824 221.701C601.738 221.701 601.655 221.733 601.591 221.791C601.526 221.849 601.486 221.929 601.478 222.015L601.025 226.543C600.948 227.309 600.593 228.019 600.027 228.539C599.461 229.059 598.723 229.353 597.955 229.365L557.958 229.981C557.942 229.981 557.925 229.981 557.909 229.981C557.093 229.983 556.31 229.665 555.727 229.095Z" fill="#3F3D56"/>
<path d="M577.798 104.667C577.868 107.085 579.547 108.483 581.608 109.75C583.669 111.016 586.078 111.566 588.438 112.095C588.755 112.264 589.11 112.347 589.469 112.339C589.828 112.33 590.178 112.229 590.487 112.045C590.795 111.861 591.051 111.601 591.229 111.29C591.408 110.979 591.503 110.626 591.506 110.267L593.671 102.034C594.437 99.4032 594.994 96.7167 595.337 93.9989C595.859 88.7693 594.619 83.1437 590.969 79.3626C587.319 75.5815 580.989 74.2383 576.615 77.1516C571.424 70.5218 547.697 85.1695 553.55 89.7797C554.591 90.5999 556.183 89.5621 557.504 89.4615C558.826 89.3609 560.307 89.5934 561.147 90.6191C562.244 91.9591 561.766 93.9553 562.218 95.627C562.405 96.2152 562.706 96.7605 563.105 97.2316C563.504 97.7027 563.992 98.0901 564.541 98.3717C565.09 98.6532 565.69 98.8232 566.305 98.8719C566.921 98.9205 567.539 98.8469 568.126 98.6553C569.219 98.1168 570.247 97.456 571.19 96.6854C572.204 96.0101 573.485 95.5112 574.626 95.9371C576.13 96.4984 576.665 98.34 576.801 99.9398C577.03 101.535 577.363 103.114 577.798 104.667Z" fill="#2F2E41"/>
<path opacity="0.2" d="M573.803 150.51L571.017 184.635L556.393 220.152L577.982 185.331L573.803 150.51Z" fill="black"/>
<path d="M552.972 233.379C553.77 232.738 554.418 231.93 554.871 231.011C555.323 230.093 555.568 229.086 555.589 228.063C555.61 227.039 555.407 226.023 554.993 225.087C554.579 224.151 553.965 223.316 553.193 222.643L562.51 199.566L549.834 202.126L542.93 223.648C541.884 225.018 541.378 226.725 541.507 228.444C541.636 230.163 542.391 231.775 543.629 232.974C544.866 234.174 546.501 234.877 548.223 234.952C549.945 235.027 551.635 234.467 552.972 233.379Z" fill="#A0616A"/>
<path d="M552.701 223.201L545.525 220.615C544.786 220.345 544.175 219.807 543.812 219.109C543.449 218.41 543.361 217.601 543.564 216.841L555.402 173.51L557.206 134.348C557.261 133.166 557.55 132.007 558.056 130.937C558.563 129.868 559.277 128.91 560.157 128.119C561.037 127.328 562.066 126.72 563.183 126.33C564.3 125.94 565.484 125.776 566.665 125.847C567.846 125.919 569.001 126.225 570.063 126.747C571.125 127.269 572.072 127.997 572.85 128.888C573.628 129.78 574.222 130.817 574.595 131.94C574.969 133.063 575.115 134.248 575.027 135.428L571.803 178.31L556.72 221.292C556.492 221.941 556.056 222.497 555.48 222.875C554.904 223.252 554.22 223.43 553.534 223.38C553.249 223.359 552.969 223.298 552.701 223.201Z" fill="#3F3D56"/>
<path d="M35.8281 348.7L43.4951 352.458L61.6383 324.675L50.3235 319.129L35.8281 348.7Z" fill="#FFB8B8"/>
<path d="M35.0992 345.238L50.1972 352.639C51.4607 353.258 52.5905 354.121 53.5208 355.177C54.4511 356.233 55.1644 357.461 55.6198 358.793C56.0753 360.124 56.264 361.532 56.1753 362.937C56.0865 364.341 55.722 365.714 55.1026 366.978L54.9493 367.29L30.2295 355.173L35.0992 345.238Z" fill="#2F2E41"/>
<path d="M111.803 361.798L120.341 361.798L124.403 328.865L111.802 328.866L111.803 361.798Z" fill="#FFB8B8"/>
<path d="M109.626 356.225L126.44 356.225H126.441C127.848 356.225 129.242 356.502 130.542 357.04C131.842 357.579 133.023 358.368 134.018 359.363C135.013 360.358 135.802 361.539 136.341 362.839C136.879 364.139 137.156 365.533 137.156 366.94V367.288L109.626 367.289L109.626 356.225Z" fill="#2F2E41"/>
<path d="M93.4633 134.518C102.91 134.518 110.568 126.86 110.568 117.413C110.568 107.967 102.91 100.309 93.4633 100.309C84.0165 100.309 76.3584 107.967 76.3584 117.413C76.3584 126.86 84.0165 134.518 93.4633 134.518Z" fill="#FFB8B8"/>
<path d="M110.497 350.937C109.69 350.936 108.914 350.624 108.332 350.065C107.749 349.507 107.405 348.746 107.369 347.939L100.758 259.938C100.75 259.708 100.666 259.486 100.52 259.308C100.373 259.13 100.171 259.006 99.9464 258.954C99.7215 258.903 99.486 258.927 99.2764 259.024C99.0669 259.12 98.8952 259.284 98.788 259.488L56.4932 340.233C56.1093 340.957 55.4581 341.503 54.678 341.755C53.898 342.007 53.0504 341.945 52.3155 341.582L40.5251 335.686C39.7854 335.315 39.2225 334.666 38.9586 333.881C38.6948 333.097 38.7515 332.24 39.1164 331.497L64.3539 280.357L81.07 242.05C87.5221 229.341 94.3736 222.792 102.016 222.027C109.856 221.245 118.229 226.636 127.618 238.51L127.694 238.607L127.693 238.73L126.3 346.228C126.302 347.009 126.011 347.762 125.485 348.339C124.959 348.916 124.236 349.275 123.458 349.344L110.803 350.922C110.7 350.932 110.598 350.937 110.497 350.937Z" fill="#2F2E41"/>
<path d="M75.4107 248.237C76.3415 247.663 77.1351 246.891 77.7355 245.977C78.3359 245.063 78.7286 244.028 78.8859 242.946C79.0431 241.863 78.9612 240.76 78.6458 239.712C78.3303 238.665 77.7891 237.7 77.0603 236.884L79.6395 168.735L67.1039 170.298L66.0468 236.597C64.758 237.912 63.9965 239.654 63.9065 241.493C63.8164 243.333 64.4042 245.141 65.5585 246.576C66.7127 248.011 68.3531 248.972 70.169 249.278C71.9848 249.585 73.8498 249.214 75.4107 248.237Z" fill="#FFB8B8"/>
<path d="M83.3401 180.784L66.5061 178.871C66.0271 178.816 65.5655 178.659 65.1526 178.41C64.7398 178.161 64.3855 177.826 64.1138 177.428C63.8421 177.03 63.6594 176.578 63.5782 176.103C63.497 175.628 63.5192 175.14 63.6432 174.675L67.9892 158.352C68.2815 155.903 69.533 153.67 71.4694 152.142C73.4058 150.614 75.869 149.917 78.319 150.202C80.7689 150.488 83.0055 151.734 84.5385 153.666C86.0714 155.598 86.7755 158.06 86.4964 160.51L87.0716 177.337C87.0879 177.819 87.0002 178.298 86.8144 178.743C86.6286 179.188 86.3492 179.588 85.9951 179.915C85.641 180.242 85.2205 180.489 84.7624 180.639C84.3042 180.789 83.8191 180.838 83.3401 180.784Z" fill="#2F2E41"/>
<path d="M155.857 137.884C155.771 138.26 155.716 138.642 155.69 139.027L125.774 156.285L118.502 152.099L110.75 162.248L122.903 170.909C123.885 171.609 125.067 171.972 126.272 171.942C127.477 171.913 128.641 171.493 129.587 170.747L160.436 146.409C161.829 146.925 163.345 147.004 164.783 146.637C166.221 146.269 167.514 145.473 168.489 144.353C169.463 143.233 170.074 141.843 170.239 140.368C170.404 138.893 170.117 137.402 169.414 136.094C168.712 134.786 167.628 133.723 166.306 133.047C164.985 132.37 163.489 132.112 162.017 132.306C160.545 132.5 159.168 133.138 158.067 134.135C156.967 135.131 156.196 136.439 155.857 137.884Z" fill="#FFB8B8"/>
<path d="M124.773 157.103L115.104 169.634C114.829 169.991 114.48 170.284 114.082 170.493C113.683 170.703 113.244 170.824 112.794 170.849C112.345 170.873 111.895 170.801 111.476 170.636C111.057 170.471 110.678 170.218 110.366 169.894L99.4197 158.527C97.6025 157.109 96.4217 155.029 96.1363 152.742C95.851 150.455 96.4844 148.148 97.8977 146.328C99.311 144.507 101.389 143.321 103.675 143.03C105.961 142.74 108.27 143.368 110.094 144.777L123.822 152.453C124.215 152.673 124.556 152.975 124.822 153.339C125.088 153.702 125.272 154.119 125.362 154.56C125.452 155.001 125.446 155.457 125.345 155.896C125.243 156.334 125.048 156.746 124.773 157.103Z" fill="#2F2E41"/>
<path d="M132.661 243.839L114.098 153.423C113.216 149.126 110.702 145.337 107.085 142.855C103.469 140.372 99.0302 139.387 94.7028 140.109L88.5122 141.14C86.3616 141.499 84.3027 142.277 82.453 143.431C80.6033 144.586 78.9991 146.093 77.7319 147.867C75.7184 150.686 74.3621 153.92 73.7627 157.332C73.1634 160.743 73.3362 164.246 74.2685 167.582L84.5145 204.253L76.9107 243.539C76.8257 243.975 76.8463 244.425 76.9705 244.851C77.0948 245.277 77.3192 245.667 77.6251 245.989C77.9309 246.311 78.3093 246.555 78.7286 246.701C79.1479 246.846 79.596 246.89 80.0354 246.827C83.8423 246.282 90.1172 245.505 97.3243 245.081L101.229 230.02L102.817 244.842C111.67 244.594 121.28 245.028 129.209 247.088C129.667 247.21 130.15 247.214 130.61 247.098C131.07 246.982 131.494 246.75 131.839 246.424C132.185 246.099 132.442 245.691 132.586 245.238C132.729 244.786 132.755 244.304 132.661 243.839Z" fill="#073E58"/>
<path d="M113.162 102.972C112.142 97.0345 107.375 92.1121 101.696 90.098C96.0177 88.0839 89.6146 88.739 84.0537 91.0583C78.1183 93.4716 73.205 97.8707 70.1528 103.504C69.4293 103.18 68.7338 102.798 68.0734 102.359C64.7803 100.168 62.1082 97.0469 58.5455 95.3285C52.2641 92.2991 44.6701 94.313 38.557 97.6686C32.4439 101.024 27.0248 105.66 20.5673 108.293C14.11 110.927 5.87029 111.057 0.980703 106.085C-0.222611 109.571 -0.321012 113.343 0.698918 116.887C1.71885 120.432 3.80743 123.575 6.67971 125.888C9.55198 128.201 13.068 129.572 16.7482 129.813C20.4283 130.055 24.0932 129.155 27.2428 127.236C34.3179 122.926 38.2261 113.89 46.1619 111.511C50.553 110.195 55.2684 111.255 59.7068 112.403C62.3212 113.155 64.9892 113.707 67.6874 114.054C67.7191 118.924 69.5533 123.609 72.8362 127.207C78.3127 132.972 86.9078 134.508 94.8589 134.415L95.0251 134.246C92.5907 130.602 90.6694 125.55 93.3497 122.082C95.9956 118.66 101.214 119.164 105.266 117.65C110.91 115.541 114.183 108.91 113.162 102.972Z" fill="#2F2E41"/>
<path d="M143.465 367.711H25.0734C24.8887 367.711 24.7115 367.638 24.5809 367.507C24.4503 367.377 24.377 367.199 24.377 367.015C24.377 366.83 24.4503 366.653 24.5809 366.522C24.7115 366.392 24.8887 366.318 25.0734 366.318H143.465C143.65 366.318 143.827 366.392 143.958 366.522C144.088 366.653 144.162 366.83 144.162 367.015C144.162 367.199 144.088 367.377 143.958 367.507C143.827 367.638 143.65 367.711 143.465 367.711Z" fill="#CCCCCC"/>
<path d="M633.051 367.711H514.659C514.475 367.711 514.297 367.638 514.167 367.507C514.036 367.377 513.963 367.199 513.963 367.015C513.963 366.83 514.036 366.653 514.167 366.522C514.297 366.392 514.475 366.318 514.659 366.318H633.051C633.236 366.318 633.413 366.392 633.544 366.522C633.674 366.653 633.748 366.83 633.748 367.015C633.748 367.199 633.674 367.377 633.544 367.507C633.413 367.638 633.236 367.711 633.051 367.711Z" fill="#CCCCCC"/>
</svg>
