<svg width="200" height="378" viewBox="0 0 200 378" fill="none" xmlns="http://www.w3.org/2000/svg">
<path d="M85.5713 365.172L95.1013 365.171L99.6348 328.412L85.5693 328.413L85.5713 365.172Z" fill="#FFB6B6"/>
<path d="M85.2358 375.113L114.542 375.112V374.741C114.541 371.716 113.34 368.815 111.2 366.676C109.061 364.537 106.16 363.335 103.135 363.335H103.134L97.7812 359.273L87.7936 363.335L85.2354 363.335L85.2358 375.113Z" fill="#2F2E41"/>
<path d="M44 365.172L53.53 365.171L58.0635 328.412L43.998 328.413L44 365.172Z" fill="#FFB6B6"/>
<path d="M43.6645 375.113L72.9703 375.112V374.741C72.9701 371.716 71.7683 368.815 69.6292 366.676C67.49 364.537 64.5888 363.335 61.5637 363.335H61.563L56.2099 359.273L46.2223 363.335L43.6641 363.335L43.6645 375.113Z" fill="#2F2E41"/>
<path d="M109.3 164.884C109.3 164.884 118.469 193.045 116.777 196.752C115.084 200.458 112.197 197.571 115.084 200.458C117.972 203.346 120.493 200.276 117.789 205.18C115.084 210.083 110.988 250.451 109.186 252.405C107.384 254.359 104.907 254.412 107.108 256.31C109.309 258.209 112.197 254.359 109.309 258.209C106.422 262.059 98.7596 350.876 98.7596 350.876H83.7913C83.7913 350.876 80.0633 346.579 82.1736 343.782C84.2839 340.986 81.9884 339.908 82.1736 338.04C82.3589 336.173 81.657 332.147 81.5267 330.31C81.3964 328.473 78.8667 284.708 84.9441 259.427L73.8621 211.29L60.438 269.47C60.438 269.47 66.613 318.272 60.438 333.96C60.438 333.96 65.4164 338.106 63.2085 340.508C61.0005 342.911 59.0755 340.986 61.0005 342.911C62.9256 344.836 58.113 351.573 58.113 351.573L41.7502 350.611L32.4888 259.427C32.4888 259.427 30.9276 249.918 32.4888 248.288C34.0501 246.659 34.0501 252.434 34.0501 246.659V238.959C34.0501 238.959 34.9544 191.599 35.0749 188.809C35.1955 186.02 46.7457 165.808 46.7457 165.808L109.3 164.884Z" fill="#2F2E41"/>
<path d="M109.163 67.6171V123.147C107.371 128.524 106.446 134.152 106.424 139.82C106.483 149.26 108.559 160.138 108.552 164.894C108.58 165.525 108.511 166.157 108.348 166.767C99.1581 193.405 50.526 169.197 46.1049 166.931C45.8947 166.826 45.783 166.767 45.783 166.767L46.7421 136.929L46.5779 128.35L45.4414 69.4959L46.4596 68.6813L55.3807 61.5668L56.2544 60.8705L58.9346 64.7792L82.827 63.1368L91.9451 60.6143L94.7896 61.7704L107.613 66.9864L109.163 67.6171Z" fill="#37AAE0"/>
<path d="M192.431 111.253L175.688 105.718L171.191 114.841L189.102 120.064C189.687 120.993 190.52 121.741 191.507 122.222C192.494 122.704 193.596 122.901 194.688 122.791C195.781 122.681 196.821 122.268 197.692 121.599C198.563 120.93 199.23 120.031 199.618 119.004C200.007 117.977 200.101 116.862 199.89 115.784C199.679 114.706 199.172 113.709 198.425 112.903C197.678 112.098 196.722 111.517 195.663 111.226C194.604 110.934 193.485 110.944 192.431 111.253Z" fill="#FFB6B6"/>
<path d="M92.9453 62.2158L92.876 62.493C91.5676 67.7271 89.8972 82.6773 93.4766 86.714C98.0731 91.9044 135.202 107.749 142.578 106.459C148.299 105.457 147.122 105.793 149.859 108.641C152.596 111.489 148.053 112.154 154.158 112.652C160.264 113.15 160.385 110.812 161.693 113.405C163.001 115.998 161.837 117.56 165.993 117.416C170.148 117.272 171.19 118.047 172.619 118.302C174.048 118.557 183.024 122.812 183.024 122.812C183.024 122.812 186.625 112.539 191.157 108.628C191.157 108.628 180.763 107.365 179.976 105.16C179.189 102.955 179.832 101.005 177.106 101.404C174.38 101.803 172.962 104.795 173.338 101.027C173.715 97.2598 154.079 89.9255 154.079 89.9255C142.229 78.2584 117.883 70.1529 92.9453 62.2158Z" fill="#37AAE0"/>
<path d="M39.823 178.191L39.0636 160.573L28.9385 159.603L30.4042 178.201C29.7429 179.078 29.3394 180.122 29.2388 181.215C29.1383 182.309 29.3448 183.409 29.8351 184.391C30.3255 185.374 31.0802 186.201 32.0144 186.778C32.9487 187.355 34.0254 187.66 35.1236 187.659C36.2218 187.658 37.2979 187.35 38.2309 186.771C39.164 186.192 39.9169 185.364 40.4052 184.38C40.8935 183.397 41.0976 182.296 40.9948 181.203C40.892 180.11 40.4862 179.067 39.823 178.191Z" fill="#FFB6B6"/>
<path d="M50.4074 67.7812L50.1236 67.8146C47.4844 68.126 44.9609 69.076 42.7715 70.5823C40.5822 72.0885 38.7929 74.1058 37.5587 76.4593C34.335 82.5973 24.1363 124.17 26.6335 129.875C28.9623 135.196 28.866 133.887 27.1736 137.456C25.4813 141.025 23.2488 137.013 24.9474 142.899C26.6459 148.784 28.8752 148.069 26.9144 150.211C24.9536 152.353 23.0802 151.819 24.6881 155.653C26.2961 159.488 25.9402 160.737 26.2087 162.163C26.4772 163.59 25.6809 173.491 25.6809 173.491C25.6809 173.491 36.5623 173.217 41.8266 176.067C41.8266 176.067 39.3225 165.901 41.1054 164.384C42.8882 162.866 44.9396 162.776 43.6001 160.368C42.2607 157.961 38.9603 157.695 42.6166 156.712C46.2729 155.728 46.1699 134.768 46.1699 134.768L50.4074 67.7812Z" fill="#37AAE0"/>
<path d="M76.4951 45.3274C76.0681 45.426 75.6411 45.5114 75.2141 45.5771C73.9097 45.7913 72.5855 45.8596 71.266 45.7807C67.8288 45.5962 64.51 44.4632 61.6775 42.5075C58.845 40.5517 56.6095 37.8497 55.219 34.7009C53.8285 31.5522 53.3373 28.0798 53.7999 24.669C54.2625 21.2581 55.6608 18.042 57.8397 15.3774C60.0187 12.7128 62.8931 10.7037 66.1442 9.57305C69.3953 8.4424 72.896 8.23433 76.2581 8.97191C79.6203 9.7095 82.7124 11.3639 85.1916 13.7517C87.6708 16.1395 89.4403 19.1673 90.3036 22.4993C90.3431 22.6504 90.3825 22.7949 90.4153 22.946C91.5362 27.7599 90.6995 32.8218 88.0891 37.0188C85.4787 41.2159 81.3084 44.2044 76.4951 45.3274Z" fill="#FFB6B6"/>
<path d="M59.2948 43.1287C56.7028 41.1002 56.4513 37.2337 54.2394 34.7964C50.5413 30.7214 48.8039 26.3372 50.7411 21.5086C52.4545 17.2379 52.0903 11.9881 55.7805 9.23909C53.9681 8.583 53.5416 7.22049 55.1408 7.19533C56.2192 7.17836 60.2395 9.23947 58.305 6.67188C56.3705 4.10429 60.0323 5.11777 59.7901 4.06677C59.5479 3.01577 57.9948 2.43366 57.3098 3.26677C59.4968 0.704363 64.2725 1.25066 65.8242 4.24073C68.0039 0.974027 70.3176 -1.27377 73.653 0.799272C76.9288 2.83531 76.886 5.35215 80.4087 4.74728C82.0648 4.46295 82.2213 7.59176 83.3526 8.83414C84.484 10.0765 86.1378 11.038 87.7888 10.726C89.4399 10.414 90.7025 8.35637 89.7773 6.95369L93.6688 15.8315L95.2371 13.9078C97.7292 15.5319 96.9107 19.7698 94.4022 21.3684C91.8937 22.9669 87.1062 19.2721 85.7449 21.9168C83.599 26.0858 78.5649 23.9806 75.1077 21.0344C70.9154 17.4614 65.855 28.3252 67.8746 33.4495C65.7791 31.3919 61.9028 33.0995 60.8173 35.8283C59.7318 38.557 60.5277 41.6314 61.3324 44.4558L59.2948 43.1287Z" fill="#2F2E41"/>
<path d="M161.807 366.022C161.502 366.036 161.199 365.956 160.941 365.792C160.683 365.629 160.481 365.39 160.363 365.108C160.245 364.826 160.217 364.514 160.282 364.216C160.347 363.917 160.502 363.646 160.726 363.438L160.829 363.032C160.815 362.999 160.802 362.967 160.788 362.935C160.48 362.208 159.965 361.588 159.306 361.154C158.648 360.719 157.876 360.489 157.086 360.492C156.297 360.495 155.527 360.731 154.872 361.17C154.216 361.61 153.705 362.233 153.403 362.962C152.195 365.871 150.658 368.785 150.279 371.861C150.112 373.22 150.183 374.598 150.487 375.934C147.65 369.746 146.177 363.02 146.168 356.212C146.167 354.504 146.262 352.797 146.452 351.1C146.609 349.708 146.827 348.326 147.105 346.954C148.626 339.51 151.89 332.534 156.631 326.596C158.925 325.345 160.781 323.419 161.947 321.081C162.37 320.24 162.669 319.342 162.834 318.416C162.575 318.45 161.858 314.508 162.053 314.266C161.693 313.719 161.047 313.447 160.653 312.913C158.694 310.257 155.995 310.72 154.586 314.33C151.575 315.849 151.546 318.369 153.393 320.792C154.568 322.334 154.73 324.42 155.761 326.07C155.655 326.206 155.545 326.338 155.438 326.473C153.499 328.967 151.809 331.644 150.393 334.467C150.737 331.305 150.326 328.105 149.193 325.133C148.044 322.362 145.892 320.029 143.996 317.634C143.495 316.99 142.814 316.51 142.04 316.254C141.266 315.997 140.433 315.976 139.646 316.193C138.86 316.409 138.156 316.854 137.622 317.472C137.089 318.089 136.75 318.85 136.649 319.659C136.645 319.695 136.642 319.73 136.638 319.765C136.919 319.924 137.195 320.093 137.465 320.271C137.803 320.497 138.066 320.821 138.218 321.199C138.37 321.577 138.404 321.992 138.316 322.39C138.227 322.788 138.021 323.149 137.724 323.428C137.427 323.707 137.052 323.889 136.649 323.951L136.608 323.957C136.708 324.972 136.886 325.978 137.139 326.966C134.707 336.37 139.957 339.795 147.453 339.949C147.619 340.034 147.78 340.119 147.945 340.199C146.522 344.233 145.629 348.435 145.289 352.699C145.097 355.215 145.108 357.742 145.323 360.256L145.311 360.167C144.767 357.372 143.276 354.849 141.089 353.026C137.84 350.357 133.25 349.374 129.745 347.229C129.372 346.99 128.939 346.862 128.497 346.861C128.054 346.86 127.62 346.986 127.246 347.223C126.873 347.46 126.575 347.8 126.388 348.201C126.2 348.602 126.132 349.048 126.19 349.487L126.204 349.581C126.727 349.793 127.236 350.039 127.728 350.315C128.009 350.474 128.285 350.642 128.554 350.82C128.893 351.047 129.156 351.37 129.308 351.748C129.459 352.126 129.493 352.542 129.405 352.939C129.317 353.337 129.111 353.699 128.814 353.978C128.516 354.256 128.142 354.438 127.739 354.5L127.698 354.507C127.668 354.511 127.643 354.515 127.613 354.52C128.506 356.651 129.759 358.613 131.317 360.32C132.838 368.529 139.368 369.308 146.354 366.918H146.359C147.125 370.248 148.236 373.49 149.672 376.592H161.51C161.553 376.46 161.591 376.324 161.629 376.193C160.533 376.262 159.433 376.196 158.353 375.998C159.232 374.92 160.11 373.834 160.988 372.756C161.008 372.736 161.026 372.715 161.044 372.692C161.489 372.141 161.939 371.593 162.384 371.042L162.385 371.041C162.408 369.35 162.214 367.663 161.807 366.022Z" fill="#F2F2F2"/>
<path d="M3.46189e-06 376.627C-0.000302715 376.73 0.0197031 376.832 0.0588837 376.927C0.0980642 377.022 0.15564 377.108 0.228297 377.181C0.300954 377.254 0.387263 377.311 0.482252 377.35C0.577241 377.39 0.679036 377.41 0.781785 377.409H167.174C167.382 377.409 167.58 377.327 167.727 377.18C167.874 377.034 167.956 376.835 167.956 376.627C167.956 376.42 167.874 376.221 167.727 376.075C167.58 375.928 167.382 375.846 167.174 375.846H0.781785C0.679037 375.845 0.577239 375.865 0.482252 375.905C0.387265 375.944 0.300964 376.001 0.228307 376.074C0.155651 376.147 0.0980755 376.233 0.0588937 376.328C0.0197119 376.423 -0.000299227 376.525 3.46189e-06 376.627Z" fill="#CCCCCC"/>
<path d="M71.2656 45.7808L75.2137 45.5771C73.9093 45.7914 72.5851 45.8597 71.2656 45.7808Z" fill="#F2F2F2"/>
<path d="M94.7907 61.7708L94.1404 62.5985L92.393 64.8189L77.3034 84.0077L55.3818 61.5672L56.2555 60.8708L60.9066 50.9841L84.7989 49.3418L91.9463 60.6146L94.7907 61.7708Z" fill="#3F3D56"/>
</svg>
