<svg width="50" height="50" viewBox="0 0 50 50" fill="none" xmlns="http://www.w3.org/2000/svg">
<circle cx="25" cy="25" r="24" stroke="white" stroke-width="2"/>
<path d="M30.7463 12H20.2661C15.7139 12 13 14.7139 13 19.2661V29.7338C13 34.2986 15.7139 37.0125 20.2661 37.0125H30.7338C35.2861 37.0125 38 34.2986 38 29.7463V19.2661C38.0125 14.7139 35.2986 12 30.7463 12ZM32.0845 21.955L29.1956 25.6818C28.8329 26.1445 28.3201 26.4447 27.7323 26.5072C27.1445 26.5823 26.5693 26.4197 26.1065 26.057L23.8179 24.2561C23.7303 24.1811 23.6303 24.1811 23.5803 24.1936C23.5302 24.1936 23.4427 24.2186 23.3677 24.3186L20.3912 28.1831C20.2036 28.4207 19.9285 28.5457 19.6533 28.5457C19.4532 28.5457 19.2531 28.4832 19.078 28.3456C18.6653 28.033 18.5903 27.4452 18.9029 27.0325L21.8794 23.1681C22.2421 22.7053 22.7549 22.4052 23.3427 22.3301C23.9179 22.2551 24.5057 22.4177 24.9685 22.7804L27.2571 24.5813C27.3446 24.6563 27.4322 24.6563 27.4947 24.6438C27.5447 24.6438 27.6323 24.6188 27.7073 24.5187L30.5963 20.7919C30.9089 20.3792 31.5092 20.3041 31.9094 20.6293C32.3221 20.967 32.3972 21.5548 32.0845 21.955Z" fill="white"/>
</svg>
