<svg width="50" height="50" viewBox="0 0 50 50" fill="none" xmlns="http://www.w3.org/2000/svg">
<circle cx="25" cy="25" r="24" stroke="white" stroke-width="2"/>
<path d="M37.0963 33.5916L35.0334 34.0791C34.5708 34.1917 34.2083 34.5417 34.1082 35.0043L33.6707 36.8422C33.4331 37.8423 32.1579 38.1549 31.4953 37.3672L27.7571 33.0665C27.457 32.7164 27.6195 32.1663 28.0696 32.0538C30.2825 31.5162 32.2704 30.2784 33.7332 28.5156C33.9707 28.2281 34.3958 28.1906 34.6583 28.4531L37.4339 31.2286C38.384 32.1788 38.0465 33.3665 37.0963 33.5916Z" fill="white"/>
<path d="M13.9034 33.5916L15.9663 34.0791C16.4289 34.1917 16.7915 34.5417 16.8915 35.0043L17.3291 36.8422C17.5666 37.8423 18.8419 38.1549 19.5045 37.3672L23.2427 33.0665C23.5427 32.7164 23.3802 32.1663 22.9301 32.0538C20.7172 31.5162 18.7293 30.2784 17.2666 28.5156C17.029 28.2281 16.6039 28.1906 16.3414 28.4531L13.5659 31.2286C12.6157 32.1788 12.9533 33.3665 13.9034 33.5916Z" fill="white"/>
<path d="M25.5319 13C20.6935 13 16.7803 16.9132 16.7803 21.7516C16.7803 23.5645 17.3179 25.2273 18.243 26.615C19.5933 28.6154 21.7312 30.0282 24.2191 30.3907C24.6442 30.4657 25.0818 30.5032 25.5319 30.5032C25.982 30.5032 26.4196 30.4657 26.8446 30.3907C29.3326 30.0282 31.4705 28.6154 32.8207 26.615C33.7459 25.2273 34.2835 23.5645 34.2835 21.7516C34.2835 16.9132 30.3703 13 25.5319 13ZM29.3576 21.4766L28.3199 22.5143C28.1449 22.6893 28.0449 23.0269 28.1074 23.2769L28.4074 24.5646C28.645 25.5773 28.1074 25.9774 27.2072 25.4398L25.957 24.7022C25.7319 24.5646 25.3569 24.5646 25.1318 24.7022L23.8816 25.4398C22.9814 25.9649 22.4438 25.5773 22.6814 24.5646L22.9814 23.2769C23.0314 23.0394 22.9439 22.6893 22.7689 22.5143L21.7062 21.4766C21.0936 20.864 21.2936 20.2513 22.1438 20.1138L23.4815 19.8888C23.7066 19.8513 23.9691 19.6512 24.0691 19.4512L24.8068 17.9759C25.2068 17.1758 25.857 17.1758 26.257 17.9759L26.9947 19.4512C27.0947 19.6512 27.3572 19.8513 27.5948 19.8888L28.9325 20.1138C29.7702 20.2513 29.9702 20.864 29.3576 21.4766Z" fill="white"/>
</svg>
