<svg width="40" height="40" viewBox="0 0 40 40" fill="none" xmlns="http://www.w3.org/2000/svg">
<mask id="mask0_120_278" style="mask-type:alpha" maskUnits="userSpaceOnUse" x="0" y="0" width="40" height="40">
<rect width="40" height="40" fill="#D9D9D9"/>
</mask>
<g mask="url(#mask0_120_278)">
<path d="M8.33333 36.6666C7.41667 36.6666 6.63194 36.3402 5.97917 35.6875C5.32639 35.0347 5 34.25 5 33.3333V13.3333C5 12.4166 5.32639 11.6319 5.97917 10.9791C6.63194 10.3263 7.41667 9.99996 8.33333 9.99996H11.6667C11.6667 7.6944 12.4792 5.72913 14.1042 4.10413C15.7292 2.47913 17.6944 1.66663 20 1.66663C22.3056 1.66663 24.2708 2.47913 25.8958 4.10413C27.5208 5.72913 28.3333 7.6944 28.3333 9.99996H31.6667C32.5833 9.99996 33.3681 10.3263 34.0208 10.9791C34.6736 11.6319 35 12.4166 35 13.3333V33.3333C35 34.25 34.6736 35.0347 34.0208 35.6875C33.3681 36.3402 32.5833 36.6666 31.6667 36.6666H8.33333ZM20 23.3333C22.3056 23.3333 24.2708 22.5208 25.8958 20.8958C27.5208 19.2708 28.3333 17.3055 28.3333 15H25C25 16.3888 24.5139 17.5694 23.5417 18.5416C22.5694 19.5138 21.3889 20 20 20C18.6111 20 17.4306 19.5138 16.4583 18.5416C15.4861 17.5694 15 16.3888 15 15H11.6667C11.6667 17.3055 12.4792 19.2708 14.1042 20.8958C15.7292 22.5208 17.6944 23.3333 20 23.3333ZM15 9.99996H25C25 8.61107 24.5139 7.43051 23.5417 6.45829C22.5694 5.48607 21.3889 4.99996 20 4.99996C18.6111 4.99996 17.4306 5.48607 16.4583 6.45829C15.4861 7.43051 15 8.61107 15 9.99996Z" fill="white"/>
</g>
</svg>
