<svg width="50" height="50" viewBox="0 0 50 50" fill="none" xmlns="http://www.w3.org/2000/svg">
<circle cx="25" cy="25" r="24" stroke="white" stroke-width="2"/>
<path d="M31.3317 35.9871C30.9709 35.9871 30.6101 35.894 30.2842 35.6961L25.6172 32.926C25.1284 32.9144 24.6395 32.8796 24.174 32.8098C23.8598 32.7632 23.5921 32.5536 23.4757 32.251C23.3593 31.9484 23.4175 31.6225 23.627 31.3781C24.3951 30.4819 24.7908 29.4112 24.7908 28.2706C24.7908 25.4541 22.3118 23.1613 19.2625 23.1613C18.1219 23.1613 17.0279 23.4756 16.1084 24.0809C15.8524 24.2438 15.5382 24.2671 15.2588 24.139C14.9911 24.011 14.7933 23.7549 14.7584 23.4523C14.7235 23.1264 14.7002 22.8006 14.7002 22.4631C14.7002 16.6903 19.7048 12 25.85 12C31.9951 12 36.9997 16.6903 36.9997 22.4631C36.9997 25.6288 35.5332 28.5383 32.9495 30.5285L33.3452 33.6943C33.4383 34.4857 33.0891 35.2306 32.4257 35.6612C32.0999 35.8707 31.7158 35.9871 31.3317 35.9871ZM25.8383 31.1686C26.0013 31.157 26.1642 31.2037 26.3039 31.2968L31.1804 34.1948C31.3084 34.2762 31.4132 34.2413 31.483 34.1948C31.5412 34.1598 31.6343 34.0667 31.611 33.9038L31.1571 30.2259C31.1222 29.9 31.2619 29.5859 31.5179 29.3997C33.8922 27.7354 35.2539 25.198 35.2539 22.4397C35.2539 17.633 31.0407 13.7225 25.85 13.7225C20.857 13.7225 16.7602 17.3538 16.4576 21.9161C17.3305 21.5786 18.2732 21.3923 19.2509 21.3923C23.2662 21.3923 26.525 24.4648 26.525 28.2473C26.5366 29.2715 26.2922 30.2608 25.8383 31.1686Z" fill="white"/>
<path d="M15.864 37.0116C15.5614 37.0116 15.2704 36.9301 15.0027 36.7555C14.479 36.418 14.1997 35.8361 14.2695 35.2192L14.5023 33.4269C12.9311 32.1466 12 30.2496 12 28.2594C12 25.9898 13.1871 23.8716 15.1773 22.603C16.3761 21.8232 17.796 21.4043 19.2741 21.4043C23.2894 21.4043 26.5482 24.4768 26.5482 28.2594C26.5482 29.7956 25.9896 31.3087 24.9654 32.5074C23.6502 34.1019 21.6833 35.033 19.5185 35.1028L16.6787 36.7904C16.4227 36.9417 16.1433 37.0116 15.864 37.0116ZM19.2625 23.15C18.1219 23.15 17.0278 23.4643 16.1084 24.0695C14.6187 25.0238 13.7341 26.5834 13.7341 28.2594C13.7341 29.8771 14.5256 31.3552 15.9222 32.3096C16.1899 32.4958 16.3295 32.81 16.2946 33.1359L16.0386 35.1261L18.8202 33.4734C18.9599 33.392 19.1112 33.3454 19.2625 33.3454C20.9733 33.3454 22.5911 32.6122 23.6153 31.3669C24.3835 30.459 24.7908 29.3883 24.7908 28.2477C24.7908 25.4428 22.3118 23.15 19.2625 23.15Z" fill="white"/>
</svg>
