<svg width="50" height="50" viewBox="0 0 50 50" fill="none" xmlns="http://www.w3.org/2000/svg">
<path d="M35.4416 18.2638L27.961 13.0242C25.9221 11.594 22.7922 11.672 20.8312 13.1932L14.3247 18.2768C13.026 19.2909 12 21.3711 12 23.0093V31.9803C12 35.2957 14.6883 38 18 38H32C35.3117 38 38 35.3087 38 31.9933V23.1783C38 21.4232 36.8701 19.2649 35.4416 18.2638ZM25.974 32.7994C25.974 33.3325 25.5324 33.7745 25 33.7745C24.4675 33.7745 24.026 33.3325 24.026 32.7994V28.899C24.026 28.3659 24.4675 27.9238 25 27.9238C25.5324 27.9238 25.974 28.3659 25.974 28.899V32.7994Z" fill="white"/>
<circle cx="25" cy="25" r="24" stroke="white" stroke-width="2"/>
</svg>
