<svg width="50" height="50" viewBox="0 0 50 50" fill="none" xmlns="http://www.w3.org/2000/svg">
<circle cx="25" cy="25" r="24" stroke="white" stroke-width="2"/>
<path d="M13.5375 11H23.7C24.55 11 25.2375 11.75 25.2375 12.6741V14.5089C25.2375 15.1786 24.85 16.0089 24.4625 16.4241L21.1625 19.6116C20.7 20.0268 20.4 20.8571 20.4 21.5268V25.1161C20.4 25.6116 20.0875 26.2813 19.7125 26.5357L18.625 27.2991C17.625 27.9688 16.2375 27.2188 16.2375 25.8795V21.4464C16.2375 20.8571 15.925 20.1071 15.625 19.692L12.7 16.3437C12.3125 15.9286 12 15.1786 12 14.683V12.7545C12 11.75 12.6875 11 13.5375 11Z" fill="white"/>
<path d="M30.75 12.3394H27.75C27.4 12.3394 27.125 12.634 27.125 13.009V14.509C27.125 15.8349 26.4625 17.134 25.8125 17.8438L22.4125 21.0983C22.375 21.192 22.3125 21.326 22.275 21.4331V25.1161C22.275 26.3349 21.6 27.6608 20.675 28.2635L19.65 28.9733C19.075 29.3617 18.4375 29.5492 17.8 29.5492C17.225 29.5492 16.65 29.3885 16.125 29.0804C15.4782 28.6966 14.9898 28.1175 14.6914 27.4379C14.5389 27.0906 14.5 26.7025 14.5 26.3188V23.3349C14.5 23.1608 14.4375 22.9867 14.3125 22.8661L13.0625 21.5269C12.675 21.0983 12 21.3929 12 21.9956V32.4286C12 36.1251 14.8 39.1251 18.25 39.1251H30.75C34.2 39.1251 37 36.1251 37 32.4286V19.0358C37 15.3394 34.2 12.3394 30.75 12.3394ZM32 33.4331H23.25C22.7375 33.4331 22.3125 32.9777 22.3125 32.4286C22.3125 31.8795 22.7375 31.4242 23.25 31.4242H32C32.5125 31.4242 32.9375 31.8795 32.9375 32.4286C32.9375 32.9777 32.5125 33.4331 32 33.4331ZM32 28.076H25.75C25.2375 28.076 24.8125 27.6206 24.8125 27.0715C24.8125 26.5224 25.2375 26.067 25.75 26.067H32C32.5125 26.067 32.9375 26.5224 32.9375 27.0715C32.9375 27.6206 32.5125 28.076 32 28.076Z" fill="white"/>
</svg>
