<svg width="50" height="50" viewBox="0 0 50 50" fill="none" xmlns="http://www.w3.org/2000/svg">
<circle cx="25" cy="25" r="24" stroke="white" stroke-width="2"/>
<path d="M33.7353 12H31.258C28.4155 12 26.916 13.4995 26.916 16.3419V18.8193C26.916 21.6618 28.4155 23.1613 31.258 23.1613H33.7353C36.5778 23.1613 38.0773 21.6618 38.0773 18.8193V16.3419C38.0773 13.4995 36.5778 12 33.7353 12Z" fill="white"/>
<path d="M18.8324 26.903H16.355C13.4995 26.903 12 28.4025 12 31.245V33.7224C12 36.5779 13.4995 38.0774 16.3419 38.0774H18.8193C21.6618 38.0774 23.1613 36.5779 23.1613 33.7354V31.258C23.1743 28.4025 21.6748 26.903 18.8324 26.903Z" fill="white"/>
<path d="M17.5937 23.1874C20.683 23.1874 23.1874 20.683 23.1874 17.5937C23.1874 14.5044 20.683 12 17.5937 12C14.5044 12 12 14.5044 12 17.5937C12 20.683 14.5044 23.1874 17.5937 23.1874Z" fill="white"/>
<path d="M32.4843 38.0802C35.5736 38.0802 38.078 35.5759 38.078 32.4866C38.078 29.3973 35.5736 26.8929 32.4843 26.8929C29.395 26.8929 26.8906 29.3973 26.8906 32.4866C26.8906 35.5759 29.395 38.0802 32.4843 38.0802Z" fill="white"/>
</svg>
