<svg width="50" height="50" viewBox="0 0 50 50" fill="none" xmlns="http://www.w3.org/2000/svg">
<circle cx="25" cy="25" r="24" stroke="white" stroke-width="2"/>
<path d="M36.9755 20.4336L36.6271 17.1058C36.1225 13.4777 34.4767 12 30.9568 12H28.1214H26.3435H22.6914H20.9133H18.03C14.498 12 12.8642 13.4777 12.3476 17.1418L12.0232 20.4456C11.9031 21.731 12.2515 22.9805 13.0083 23.9536C13.9214 25.1429 15.327 25.8157 16.8888 25.8157C18.4025 25.8157 19.8561 25.0588 20.7692 23.8454C21.5861 25.0588 22.9797 25.8157 24.5295 25.8157C26.0791 25.8157 27.4368 25.0949 28.2656 23.8935C29.1908 25.0828 30.6203 25.8157 32.11 25.8157C33.7078 25.8157 35.1494 25.1069 36.0504 23.8575C36.7713 22.8964 37.0957 21.683 36.9755 20.4336Z" fill="white"/>
<path d="M23.7483 30.5132C22.2226 30.6693 21.0693 31.9668 21.0693 33.5046V36.7963C21.0693 37.1207 21.3336 37.385 21.658 37.385H27.3885C27.7128 37.385 27.9771 37.1207 27.9771 36.7963V33.925C27.9891 31.4142 26.5115 30.2248 23.7483 30.5132Z" fill="white"/>
<path d="M35.788 27.7957V31.3758C35.788 34.6916 33.097 37.3826 29.7812 37.3826C29.4568 37.3826 29.1925 37.1183 29.1925 36.7939V33.9227C29.1925 32.3849 28.724 31.1836 27.811 30.3667C27.0061 29.6338 25.9128 29.2734 24.5553 29.2734C24.2549 29.2734 23.9546 29.2854 23.6302 29.3215C21.4917 29.5377 19.8699 31.3398 19.8699 33.5022V36.7939C19.8699 37.1183 19.6056 37.3826 19.2812 37.3826C15.9655 37.3826 13.2744 34.6916 13.2744 31.3758V27.8198C13.2744 26.9788 14.1034 26.4142 14.8842 26.6905C15.2086 26.7986 15.533 26.8827 15.8694 26.9308C16.0135 26.9548 16.1697 26.9788 16.3139 26.9788C16.5061 27.0028 16.6983 27.0148 16.8905 27.0148C18.2841 27.0148 19.6537 26.4983 20.7349 25.6093C21.7681 26.4983 23.1136 27.0148 24.5312 27.0148C25.9609 27.0148 27.2824 26.5223 28.3155 25.6333C29.3968 26.5103 30.7423 27.0148 32.1118 27.0148C32.3281 27.0148 32.5443 27.0028 32.7486 26.9788C32.8927 26.9668 33.0249 26.9548 33.157 26.9308C33.5295 26.8827 33.8658 26.7746 34.2022 26.6665C34.9831 26.4022 35.788 26.9788 35.788 27.7957Z" fill="white"/>
</svg>
