<svg width="50" height="50" viewBox="0 0 50 50" fill="none" xmlns="http://www.w3.org/2000/svg">
<circle cx="25" cy="25" r="24" stroke="white" stroke-width="2"/>
<path d="M24.5 12C17.6075 12 12 17.6075 12 24.5V29.6787C12 30.9587 13.1212 32 14.5 32H15.75C16.0815 32 16.3995 31.8683 16.6339 31.6339C16.8683 31.3995 17 31.0815 17 30.75V24.3213C17 23.9897 16.8683 23.6718 16.6339 23.4374C16.3995 23.2029 16.0815 23.0713 15.75 23.0713H14.615C15.31 18.2338 19.4725 14.5 24.5 14.5C29.5275 14.5 33.69 18.2338 34.385 23.0713H33.25C32.9185 23.0713 32.6005 23.2029 32.3661 23.4374C32.1317 23.6718 32 23.9897 32 24.3213V32C32 33.3787 30.8787 34.5 29.5 34.5H27V33.25H22V37H29.5C32.2575 37 34.5 34.7575 34.5 32C35.8787 32 37 30.9587 37 29.6787V24.5C37 17.6075 31.3925 12 24.5 12Z" fill="white"/>
</svg>
