<svg width="50" height="50" viewBox="0 0 50 50" fill="none" xmlns="http://www.w3.org/2000/svg">
<circle cx="25" cy="25" r="24" stroke="white" stroke-width="2"/>
<path d="M32.282 19.534C32.1906 19.521 32.0992 19.521 32.0078 19.534C29.984 19.4687 28.3779 17.8105 28.3779 15.7735C28.3779 13.6974 30.0623 12 32.1515 12C34.2276 12 35.925 13.6844 35.925 15.7735C35.912 17.8105 34.3059 19.4687 32.282 19.534Z" fill="white"/>
<path d="M36.5413 28.5832C35.0789 29.5625 33.0289 29.9281 31.1356 29.68C31.6318 28.6093 31.8929 27.4211 31.906 26.1676C31.906 24.8619 31.6187 23.6215 31.0703 22.5377C33.0028 22.2766 35.0528 22.6422 36.5282 23.6215C38.5913 24.9794 38.5913 27.2122 36.5413 28.5832Z" fill="white"/>
<path d="M17.8028 19.534C17.8942 19.521 17.9856 19.521 18.077 19.534C20.1008 19.4687 21.7069 17.8105 21.7069 15.7735C21.7069 13.6844 20.0225 12 17.9333 12C15.8572 12 14.1729 13.6844 14.1729 15.7735C14.1729 17.8105 15.7789 19.4687 17.8028 19.534Z" fill="white"/>
<path d="M17.9476 26.1679C17.9476 27.4344 18.2218 28.6357 18.718 29.7195C16.8769 29.9153 14.9575 29.5236 13.5473 28.5965C11.4842 27.2255 11.4842 24.9927 13.5473 23.6217C14.9444 22.6816 16.9161 22.3029 18.7702 22.5119C18.2348 23.6087 17.9476 24.8491 17.9476 26.1679Z" fill="white"/>
<path d="M25.2201 30.1104C25.1156 30.0973 24.9981 30.0973 24.8806 30.1104C22.478 30.0321 20.5586 28.0604 20.5586 25.6318C20.5717 23.1509 22.5694 21.1401 25.0634 21.1401C27.5442 21.1401 29.5551 23.1509 29.5551 25.6318C29.542 28.0604 27.6356 30.0321 25.2201 30.1104Z" fill="white"/>
<path d="M20.9768 32.814C19.0051 34.1328 19.0051 36.3003 20.9768 37.606C23.2227 39.1076 26.9048 39.1076 29.1506 37.606C31.1223 36.2873 31.1223 34.1197 29.1506 32.814C26.9179 31.3124 23.2357 31.3124 20.9768 32.814Z" fill="white"/>
</svg>
