<svg width="320" height="310" viewBox="0 0 320 310" fill="none" xmlns="http://www.w3.org/2000/svg">
<g filter="url(#filter0_di_120_8239)">
<g filter="url(#filter1_d_120_8239)">
<rect x="20" y="20" width="250" height="239.082" rx="119.541" fill="#7EAC73"/>
<path d="M103.219 117.885C98.9856 125.22 96.7575 133.54 96.7588 142.009V142.009C96.7588 154.804 101.842 167.075 110.889 176.122C119.936 185.169 132.207 190.252 145.002 190.252C157.797 190.252 170.067 185.169 179.115 176.122C188.162 167.075 193.245 154.804 193.245 142.009C193.245 140.991 193.649 140.014 194.37 139.294C195.09 138.573 196.067 138.169 197.085 138.169C198.104 138.169 199.08 138.573 199.801 139.294C200.521 140.014 200.925 140.991 200.925 142.009C200.924 154.319 196.86 166.285 189.365 176.051C181.87 185.817 171.362 192.836 159.471 196.021C147.579 199.206 134.97 198.379 123.597 193.667C112.224 188.955 102.723 180.622 96.5688 169.961C90.4142 159.299 87.9496 146.905 89.557 134.7C91.1644 122.495 96.7541 111.161 105.459 102.457C114.164 93.7521 125.498 88.1632 137.703 86.5565C149.908 84.95 162.301 87.4151 172.962 93.5698C173.836 94.0827 174.472 94.9204 174.731 95.9002C174.99 96.8806 174.851 97.9238 174.344 98.802C173.837 99.6802 173.003 100.322 172.025 100.588C171.047 100.854 170.003 100.722 169.122 100.221C161.788 95.987 153.468 93.7582 145 93.7585C136.531 93.7589 128.211 95.9887 120.877 100.224C113.543 104.459 107.453 110.55 103.219 117.885Z" fill="white" stroke="white"/>
<path d="M204.462 100.078L204.924 100.27L204.462 100.078C204.269 100.545 203.986 100.969 203.628 101.326L142.865 162.09L142.864 162.09C142.507 162.448 142.084 162.732 141.617 162.925L141.79 163.342L141.617 162.925C141.151 163.119 140.65 163.218 140.145 163.218C139.64 163.218 139.14 163.119 138.673 162.925L138.482 163.387L138.673 162.925C138.207 162.732 137.783 162.448 137.426 162.09L137.426 162.09L111.384 136.048C111.027 135.691 110.744 135.267 110.551 134.8C110.357 134.334 110.258 133.834 110.258 133.329C110.258 132.824 110.357 132.324 110.551 131.857C110.744 131.39 111.027 130.966 111.384 130.609C111.741 130.252 112.165 129.969 112.632 129.776C113.098 129.582 113.599 129.483 114.104 129.483C114.609 129.483 115.109 129.582 115.575 129.776C116.042 129.969 116.466 130.252 116.823 130.609L139.792 153.587L140.145 153.94L140.499 153.587L198.19 95.8871C198.547 95.53 198.971 95.2468 199.437 95.0535C199.904 94.8602 200.404 94.7607 200.909 94.7607C201.414 94.7607 201.914 94.8602 202.381 95.0535C202.847 95.2468 203.271 95.53 203.628 95.8871C203.986 96.2443 204.269 96.6682 204.462 97.1348L204.924 96.9435L204.462 97.1348C204.655 97.6014 204.755 98.1015 204.755 98.6065C204.755 99.1115 204.655 99.6116 204.462 100.078Z" fill="white" stroke="white"/>
</g>
</g>
<defs>
<filter id="filter0_di_120_8239" x="0" y="0" width="320" height="309.082" filterUnits="userSpaceOnUse" color-interpolation-filters="sRGB">
<feFlood flood-opacity="0" result="BackgroundImageFix"/>
<feColorMatrix in="SourceAlpha" type="matrix" values="0 0 0 0 0 0 0 0 0 0 0 0 0 0 0 0 0 0 127 0" result="hardAlpha"/>
<feOffset dx="15" dy="15"/>
<feGaussianBlur stdDeviation="17.5"/>
<feComposite in2="hardAlpha" operator="out"/>
<feColorMatrix type="matrix" values="0 0 0 0 0 0 0 0 0 0 0 0 0 0 0 0 0 0 0.25 0"/>
<feBlend mode="normal" in2="BackgroundImageFix" result="effect1_dropShadow_120_8239"/>
<feBlend mode="normal" in="SourceGraphic" in2="effect1_dropShadow_120_8239" result="shape"/>
<feColorMatrix in="SourceAlpha" type="matrix" values="0 0 0 0 0 0 0 0 0 0 0 0 0 0 0 0 0 0 127 0" result="hardAlpha"/>
<feOffset dx="4" dy="4"/>
<feGaussianBlur stdDeviation="10"/>
<feComposite in2="hardAlpha" operator="arithmetic" k2="-1" k3="1"/>
<feColorMatrix type="matrix" values="0 0 0 0 0 0 0 0 0 0 0 0 0 0 0 0 0 0 0.25 0"/>
<feBlend mode="normal" in2="shape" result="effect2_innerShadow_120_8239"/>
</filter>
<filter id="filter1_d_120_8239" x="14" y="16" width="266" height="255.082" filterUnits="userSpaceOnUse" color-interpolation-filters="sRGB">
<feFlood flood-opacity="0" result="BackgroundImageFix"/>
<feColorMatrix in="SourceAlpha" type="matrix" values="0 0 0 0 0 0 0 0 0 0 0 0 0 0 0 0 0 0 127 0" result="hardAlpha"/>
<feOffset dx="2" dy="4"/>
<feGaussianBlur stdDeviation="4"/>
<feComposite in2="hardAlpha" operator="out"/>
<feColorMatrix type="matrix" values="0 0 0 0 0 0 0 0 0 0 0 0 0 0 0 0 0 0 0.25 0"/>
<feBlend mode="normal" in2="BackgroundImageFix" result="effect1_dropShadow_120_8239"/>
<feBlend mode="normal" in="SourceGraphic" in2="effect1_dropShadow_120_8239" result="shape"/>
</filter>
</defs>
</svg>
