<svg width="250" height="155" viewBox="0 0 250 155" fill="none" xmlns="http://www.w3.org/2000/svg">
<path d="M0.000167847 98.8597C-0.0133362 107.117 1.96124 115.22 5.70819 122.283C5.70819 130.921 9.23526 138.75 14.9564 144.456C16.3883 145.885 17.9301 147.163 19.5631 148.276C19.6286 148.323 19.6964 148.368 19.7641 148.413C19.8865 148.495 20.0089 148.578 20.1335 148.663L20.2493 148.74C25.6647 152.186 31.7682 153.975 37.9678 153.935L202.541 153.935C213.89 153.935 224.163 149.424 231.606 142.133C239.049 134.843 243.636 124.753 243.636 113.625C247.804 106.298 250.015 97.744 250 89.0069C250 64.2714 232.684 44.219 211.32 44.219C210.564 44.219 209.814 44.249 209.069 44.2964C195.664 18.1986 165.428 0 130.302 0C108.706 0 88.9664 6.87375 73.8463 18.231C68.1186 14.5344 61.6495 12.5959 55.07 12.6048C33.7108 12.6048 16.39 32.6572 16.39 57.3927C16.3932 58.9578 16.4661 60.5217 16.6085 62.0783C11.4598 66.2395 7.26324 71.7534 4.3727 78.1549C1.48216 84.5563 -0.0175171 91.6576 0.000167847 98.8597Z" fill="#CFDCE2"/>
<path d="M62.0078 97.729V77.9513C62.0078 75.9792 60.4036 74.375 58.4316 74.375H45.4933C43.5213 74.375 41.9171 75.9792 41.9171 77.9513V97.729C41.9171 99.701 43.5213 101.305 45.4933 101.305H58.4316C60.4036 101.305 62.0078 99.701 62.0078 97.729Z" fill="#C68E6F"/>
<path d="M55.3824 82.9219H48.543V81.212H55.3824V82.9219Z" fill="#AD795C"/>
<path d="M53.6726 79.9258H50.2529V74.3687H53.6726V79.9258Z" fill="#AD795C"/>
<path d="M39.8438 97.6978V77.92C39.8438 75.948 38.2395 74.3438 36.2675 74.3438H23.3293C21.3573 74.3438 19.753 75.948 19.753 77.92L19.753 97.6978C19.753 99.6698 21.3573 101.274 23.3293 101.274H36.2675C38.2395 101.274 39.8438 99.6698 39.8438 97.6978Z" fill="#C68E6F"/>
<path d="M33.2183 82.8945H26.3789V81.1847H33.2183V82.8945Z" fill="#AD795C"/>
<path d="M31.5086 79.9023H28.0889V74.3453H31.5086V79.9023Z" fill="#AD795C"/>
<path d="M67.3815 98.5244H87.1591C89.1311 98.5244 90.7354 96.9202 90.7354 94.9482V82.0099C90.7354 80.0378 89.1311 78.4336 87.1591 78.4336H67.3815C65.4095 78.4336 63.8052 80.0378 63.8052 82.0099V94.9482C63.8052 96.9202 65.4095 98.5244 67.3815 98.5244Z" fill="#C68E6F"/>
<path d="M73.4233 81.2109H80.2627V82.9208H73.4233V81.2109Z" fill="#AD795C"/>
<path d="M85.1787 90.1854V86.7656H90.7357V90.1854H85.1787Z" fill="#AD795C"/>
<path d="M63.8047 90.1853V86.7656H69.3617V90.1853H63.8047Z" fill="#AD795C"/>
<path d="M229.379 94.8244C233.32 95.941 238.85 99.9504 238.85 99.9504L239.582 101.171V104.637V109.958V125.092L235.628 132.903H225.474C225.474 132.903 224.56 123.726 221.177 119.722C217.1 114.895 210.877 112.594 205.019 112.594C199.16 112.594 193.009 116.793 190.373 119.234C185.574 123.677 184.71 132.903 184.71 132.903H178.608L176.557 137.834H76.3815L74.0382 132.903H68.6682C68.6682 132.903 67.9691 124.673 65.0556 120.601C60.5458 114.297 54.6315 112.123 46.8951 112.594C40.0864 113.01 35.3988 115.096 31.3708 120.601C28.4043 124.655 27.6118 132.903 27.6118 132.903H12.3803L8.42604 125.238C8.42604 125.238 7.69376 102.684 8.42604 98.3882C9.15833 94.0922 10.9158 91.993 12.2827 91.456C13.6496 90.919 18.5803 90.8213 18.5803 90.8213H91.9058V71.6356L92.5405 70.2687L94.6885 68.4136L96.6901 66.7538L98.8381 65.9727H150.732L156.786 67.1931L161.765 69.4876L183.831 86.9158L186.809 88.478L190.08 88.9662C190.08 88.9662 214.733 90.6749 229.379 94.8244Z" fill="#2F2F2F"/>
<path d="M128.38 68.1749V125.239M128.38 125.239H185.2L185.735 91.827C185.735 91.827 163.328 73.1543 158.904 70.3658C154.481 67.5773 150.204 68.1749 150.204 68.1749H102.813C102.813 68.1749 96.0451 69.0213 94.8903 71.4613C93.7354 73.9013 94.1126 79.2789 94.1126 79.2789L94.1126 125.239H128.38Z" stroke="#414141"/>
<path d="M125.199 91.2615H95.9082V74.5276C95.9082 74.5276 95.9082 73.9894 97.4216 71.9832C98.935 69.9771 101.132 70.075 101.132 70.075H125.199V91.2615Z" fill="#2E3237"/>
<path d="M131.84 91.2127V70.1719H151.416C155.663 70.1719 157.177 71.0506 157.177 71.0506C157.177 71.0506 160.008 71.9293 164.255 75.4931C168.503 79.0569 184.027 91.2127 184.027 91.2127H131.84Z" fill="#2E3237"/>
<path d="M231.967 121.185L239.583 123.333V110.641C239.583 110.641 233.578 111.226 231.332 111.617C229.087 112.008 226.785 112.232 225.767 114.448C225.083 115.938 224.498 117.671 225.767 118.647C227.036 119.623 231.967 121.185 231.967 121.185Z" fill="#D5D5D5"/>
<path d="M15.0936 108.672C15.0936 108.672 8.66869 112.39 8.49338 110.193C8.31807 107.997 8.15114 98.8369 8.73783 97.0118C9.32453 95.1867 18.2226 96.809 18.2226 96.809C18.2226 96.809 18.8093 103.13 18.2226 105.293C17.636 107.456 15.0936 108.672 15.0936 108.672Z" fill="#620202"/>
<path d="M141.018 98.6809C139.846 98.6808 140.23 99.505 139.602 99.8525C138.261 100.595 136.53 98.9568 135.696 100.243C135.57 100.438 135.306 102.489 135.696 102.977C136.371 103.821 138.211 102.352 139.602 102.977C140.215 103.252 141.018 103.953 141.018 103.953C141.018 103.953 146.632 104.1 147.12 103.953C147.608 103.807 147.755 99.3643 147.12 98.8761C146.485 98.388 142.189 98.6809 141.018 98.6809Z" fill="#504F4F"/>
<path d="M107.586 98.6731C106.414 98.673 106.798 99.4972 106.17 99.8447C104.829 100.587 103.098 98.949 102.265 100.235C102.138 100.43 101.874 102.481 102.265 102.969C102.94 103.813 104.779 102.344 106.17 102.969C106.783 103.244 107.586 103.945 107.586 103.945C107.586 103.945 113.2 104.092 113.688 103.945C114.177 103.799 114.323 99.3565 113.688 98.8683C113.054 98.3802 108.758 98.6731 107.586 98.6731Z" fill="#504F4F"/>
<path d="M12.3323 132.758L8.57324 125.289L239.436 124.605L235.287 132.758H178.706L176.46 137.64H76.3823L74.0878 132.758H12.3323Z" fill="#414141"/>
<path d="M204.823 153.75C193.365 153.75 184.075 144.461 184.075 133.002C184.075 121.543 193.365 112.254 204.823 112.254C216.282 112.254 225.571 121.543 225.571 133.002C225.571 144.461 216.282 153.75 204.823 153.75Z" fill="white"/>
<path d="M204.872 152.579C194.087 152.579 185.345 143.836 185.345 133.051C185.345 122.266 194.087 113.523 204.872 113.523C215.657 113.523 224.399 122.266 224.399 133.051C224.399 143.836 215.657 152.579 204.872 152.579Z" fill="black"/>
<path d="M218.346 133.04C218.346 125.617 212.307 119.578 204.884 119.578C197.461 119.578 191.422 125.617 191.422 133.04C191.422 140.463 197.461 146.502 204.884 146.502C212.307 146.502 218.346 140.463 218.346 133.04ZM218.05 133.04C218.05 140.3 212.144 146.207 204.884 146.207C197.624 146.207 191.717 140.3 191.717 133.04C191.717 125.78 197.624 119.874 204.884 119.874C212.144 119.874 218.05 125.78 218.05 133.04Z" fill="white"/>
<path d="M216.295 132.973C216.295 139.345 211.129 144.512 204.756 144.512C198.383 144.512 193.217 139.345 193.217 132.973C193.217 126.6 198.383 121.434 204.756 121.434C211.129 121.434 216.295 126.6 216.295 132.973ZM197.255 130.209L199.3 131.542L200.085 130.337L197.255 130.209ZM200.368 136.986L199.823 135.655L198.109 137.91L200.368 136.986ZM205.603 141.553L204.164 139.113V141.553H205.603ZM205.603 127.424L204.164 124.984V127.424H205.603ZM211.995 137.91L210.28 135.655L209.736 136.986L211.995 137.91ZM212.848 130.209L210.018 130.337L210.804 131.542L212.848 130.209Z" fill="#E6E6E6"/>
<path d="M48.1154 153.75C36.6566 153.75 27.3675 144.461 27.3675 133.002C27.3675 121.543 36.6566 112.254 48.1154 112.254C59.5741 112.254 68.8633 121.543 68.8633 133.002C68.8633 144.461 59.5741 153.75 48.1154 153.75Z" fill="white"/>
<path d="M48.164 152.579C37.3793 152.579 28.6365 143.836 28.6365 133.051C28.6365 122.266 37.3793 113.523 48.164 113.523C58.9487 113.523 67.6914 122.266 67.6914 133.051C67.6914 143.836 58.9487 152.579 48.164 152.579Z" fill="black"/>
<path d="M61.6387 133.04C61.6387 125.617 55.5996 119.578 48.1766 119.578C40.7535 119.578 34.7145 125.617 34.7145 133.04C34.7145 140.463 40.7535 146.502 48.1766 146.502C55.5996 146.502 61.6387 140.463 61.6387 133.04ZM61.3428 133.04C61.3428 140.3 55.4365 146.207 48.1766 146.207C40.9166 146.207 35.0103 140.3 35.0103 133.04C35.0103 125.78 40.9166 119.874 48.1766 119.874C55.4365 119.874 61.3428 125.78 61.3428 133.04Z" fill="white"/>
<path d="M59.5869 132.973C59.5869 139.345 54.4208 144.512 48.048 144.512C41.6752 144.512 36.509 139.345 36.509 132.973C36.509 126.6 41.6752 121.434 48.048 121.434C54.4208 121.434 59.5869 126.6 59.5869 132.973ZM40.5473 130.209L42.5917 131.542L43.3772 130.337L40.5473 130.209ZM43.6598 136.986L43.1153 135.655L41.4009 137.91L43.6598 136.986ZM48.8948 141.553L47.4562 139.113V141.553H48.8948ZM48.8948 127.424L47.4562 124.984V127.424H48.8948ZM55.2867 137.91L53.5724 135.655L53.0279 136.986L55.2867 137.91ZM56.1404 130.209L53.3105 130.337L54.0959 131.542L56.1404 130.209Z" fill="#E6E6E6"/>
<path d="M131.84 91.1639V70.1719H134.06L142.873 91.1639H131.84Z" fill="#585C5F"/>
<path d="M162.985 91.2615L150.202 70.1719H148.145L156.618 91.2615H162.985Z" fill="#585C5F"/>
<path d="M76.2359 137.64L74.1855 132.953H178.755L176.412 137.64H76.2359Z" fill="black"/>
<path d="M19.9615 142.323C20.0428 142.074 20.6593 142.184 20.7184 141.961C20.7774 141.739 20.1859 141.553 19.7323 140.928C19.6504 140.815 19.1349 140.105 19.3326 139.806C19.7074 139.24 22.3151 140.651 22.941 139.859C23.0784 139.685 23.1349 139.387 23.5441 138.832C23.7069 138.611 23.8113 138.505 23.9361 138.508C24.1132 138.512 24.1766 138.734 24.4549 139.135C24.8722 139.737 25.0229 139.661 25.2978 140.154C25.5019 140.52 25.5261 140.754 25.6733 140.768C25.8816 140.788 25.9676 140.332 26.2221 140.314C26.4819 140.296 26.7417 140.747 26.8706 141.098C27.1123 141.759 26.9626 142.263 26.9294 142.766C26.8934 143.313 26.9781 144.113 27.5719 145.139L33.1729 154.063C31.97 152.244 28.5555 147.283 27.1798 145.464C26.7827 144.938 26.3559 144.411 25.6991 144.312C25.0666 144.216 24.2972 144.529 23.2231 144.511C23.0977 144.509 22.7486 144.498 22.6637 144.313C22.5935 144.16 22.7678 144.027 22.7044 143.884C22.6193 143.691 22.2367 143.773 21.7152 143.645C21.3475 143.555 21.0977 143.406 20.8828 143.277C20.8181 143.239 19.8532 142.654 19.9615 142.323Z" fill="#3E981E"/>
<path d="M19.9615 142.323C20.0428 142.074 20.6593 142.184 20.7184 141.961C20.7774 141.739 20.1859 141.553 19.7323 140.928C19.6504 140.815 19.1349 140.105 19.3326 139.806C19.7074 139.24 22.3151 140.651 22.941 139.859C23.0784 139.685 23.1349 139.387 23.5441 138.832C23.7069 138.611 23.8113 138.505 23.9361 138.508C24.1132 138.512 24.1766 138.734 24.4549 139.135C24.8722 139.737 25.0229 139.661 25.2978 140.154C25.5019 140.52 25.5261 140.754 25.6733 140.768C25.8816 140.788 25.9676 140.332 26.2221 140.314C26.4819 140.296 26.7417 140.747 26.8706 141.098C27.1123 141.759 26.9626 142.263 26.9294 142.766C26.8934 143.313 26.9781 144.113 27.5719 145.139L33.1729 154.063C31.97 152.244 28.5555 147.283 27.1798 145.464C26.7827 144.938 26.3559 144.411 25.6991 144.312C25.0666 144.216 24.2972 144.529 23.2231 144.511C23.0977 144.509 22.7486 144.498 22.6637 144.313C22.5935 144.16 22.7678 144.027 22.7044 143.884C22.6193 143.691 22.2367 143.773 21.7152 143.645C21.3475 143.555 21.0977 143.406 20.8828 143.277C20.8181 143.239 19.8532 142.654 19.9615 142.323Z" fill="#3E981E"/>
<path d="M19.9615 142.323C20.0428 142.074 20.6593 142.184 20.7184 141.961C20.7774 141.739 20.1859 141.553 19.7323 140.928C19.6504 140.815 19.1349 140.105 19.3326 139.806C19.7074 139.24 22.3151 140.651 22.941 139.859C23.0784 139.685 23.1349 139.387 23.5441 138.832C23.7069 138.611 23.8113 138.505 23.9361 138.508C24.1132 138.512 24.1766 138.734 24.4549 139.135C24.8722 139.737 25.0229 139.661 25.2978 140.154C25.5019 140.52 25.5261 140.754 25.6733 140.768C25.8816 140.788 25.9676 140.332 26.2221 140.314C26.4819 140.296 26.7417 140.747 26.8706 141.098C27.1123 141.759 26.9626 142.263 26.9294 142.766C26.8934 143.313 26.9781 144.113 27.5719 145.139L33.1729 154.063C31.97 152.244 28.5555 147.283 27.1798 145.464C26.7827 144.938 26.3559 144.411 25.6991 144.312C25.0666 144.216 24.2972 144.529 23.2231 144.511C23.0977 144.509 22.7486 144.498 22.6637 144.313C22.5935 144.16 22.7678 144.027 22.7044 143.884C22.6193 143.691 22.2367 143.773 21.7152 143.645C21.3475 143.555 21.0977 143.406 20.8828 143.277C20.8181 143.239 19.8532 142.654 19.9615 142.323Z" fill="#3E981E"/>
<path d="M34.6322 144.41C34.7778 144.378 34.9019 144.712 35.0282 144.677C35.1541 144.642 35.0747 144.298 35.2506 143.895C35.2823 143.822 35.4822 143.364 35.6859 143.375C36.072 143.396 36.1321 145.083 36.7012 145.161C36.8261 145.179 36.9888 145.12 37.3792 145.161C37.5346 145.177 37.617 145.198 37.6515 145.26C37.7004 145.348 37.6099 145.443 37.4933 145.696C37.3184 146.074 37.3989 146.126 37.2362 146.403C37.1155 146.609 37.0077 146.689 37.0434 146.765C37.0939 146.873 37.3424 146.783 37.4245 146.903C37.5083 147.025 37.3623 147.283 37.2268 147.448C36.9725 147.757 36.6816 147.829 36.4252 147.958C36.1466 148.098 35.7783 148.37 35.4457 148.958L32.6819 154.282C33.2277 153.166 34.6773 150.059 35.1735 148.859C35.3167 148.513 35.4524 148.151 35.3116 147.8C35.176 147.462 34.8004 147.174 34.4995 146.642C34.4643 146.58 34.3687 146.406 34.435 146.31C34.4898 146.232 34.6054 146.279 34.6577 146.206C34.7278 146.109 34.5768 145.945 34.4892 145.652C34.4274 145.446 34.4286 145.28 34.4296 145.138C34.4299 145.095 34.4384 144.452 34.6322 144.41Z" fill="#3E981E"/>
<path d="M34.6322 144.41C34.7778 144.378 34.9019 144.712 35.0282 144.677C35.1541 144.642 35.0747 144.298 35.2506 143.895C35.2823 143.822 35.4822 143.364 35.6859 143.375C36.072 143.396 36.1321 145.083 36.7012 145.161C36.8261 145.179 36.9888 145.12 37.3792 145.161C37.5346 145.177 37.617 145.198 37.6515 145.26C37.7004 145.348 37.6099 145.443 37.4933 145.696C37.3184 146.074 37.3989 146.126 37.2362 146.403C37.1155 146.609 37.0077 146.689 37.0434 146.765C37.0939 146.873 37.3424 146.783 37.4245 146.903C37.5083 147.025 37.3623 147.283 37.2268 147.448C36.9725 147.757 36.6816 147.829 36.4252 147.958C36.1466 148.098 35.7783 148.37 35.4457 148.958L32.6819 154.282C33.2277 153.166 34.6773 150.059 35.1735 148.859C35.3167 148.513 35.4524 148.151 35.3116 147.8C35.176 147.462 34.8004 147.174 34.4995 146.642C34.4643 146.58 34.3687 146.406 34.435 146.31C34.4898 146.232 34.6054 146.279 34.6577 146.206C34.7278 146.109 34.5768 145.945 34.4892 145.652C34.4274 145.446 34.4286 145.28 34.4296 145.138C34.4299 145.095 34.4384 144.452 34.6322 144.41Z" fill="#3E981E"/>
<path d="M34.6322 144.41C34.7778 144.378 34.9019 144.712 35.0282 144.677C35.1541 144.642 35.0747 144.298 35.2506 143.895C35.2823 143.822 35.4822 143.364 35.6859 143.375C36.072 143.396 36.1321 145.083 36.7012 145.161C36.8261 145.179 36.9888 145.12 37.3792 145.161C37.5346 145.177 37.617 145.198 37.6515 145.26C37.7004 145.348 37.6099 145.443 37.4933 145.696C37.3184 146.074 37.3989 146.126 37.2362 146.403C37.1155 146.609 37.0077 146.689 37.0434 146.765C37.0939 146.873 37.3424 146.783 37.4245 146.903C37.5083 147.025 37.3623 147.283 37.2268 147.448C36.9725 147.757 36.6816 147.829 36.4252 147.958C36.1466 148.098 35.7783 148.37 35.4457 148.958L32.6819 154.282C33.2277 153.166 34.6773 150.059 35.1735 148.859C35.3167 148.513 35.4524 148.151 35.3116 147.8C35.176 147.462 34.8004 147.174 34.4995 146.642C34.4643 146.58 34.3687 146.406 34.435 146.31C34.4898 146.232 34.6054 146.279 34.6577 146.206C34.7278 146.109 34.5768 145.945 34.4892 145.652C34.4274 145.446 34.4286 145.28 34.4296 145.138C34.4299 145.095 34.4384 144.452 34.6322 144.41Z" fill="#3E981E"/>
<path d="M31.875 145.705L31.7881 144.903L31.7348 144.853C31.4883 144.62 31.3341 144.373 31.2763 144.119C31.2671 144.078 31.2599 144.037 31.2526 143.996C31.2238 143.831 31.188 143.626 31.0294 143.413C30.9407 143.294 30.706 143.026 30.4639 143.12C30.3986 143.144 30.3544 143.187 30.3238 143.232C30.3161 143.224 30.3082 143.216 30.2998 143.208C30.1952 143.106 30.1221 143.069 30.0516 143.033C29.9975 143.005 29.9416 142.977 29.847 142.901C29.8054 142.868 29.7722 142.838 29.7442 142.813C29.6593 142.737 29.5506 142.649 29.4018 142.684C29.244 142.727 29.1899 142.877 29.154 142.977C29.09 143.155 29.0702 143.277 29.0571 143.358C29.0524 143.388 29.047 143.421 29.0429 143.432C29.0083 143.519 28.5749 143.541 28.4118 143.551C28.0452 143.571 27.7279 143.588 27.6516 143.839C27.5969 144.018 27.711 144.214 28.0005 144.436C28.0907 144.506 28.1809 144.553 28.2594 144.589C28.2111 144.635 28.1726 144.697 28.1702 144.781C28.1649 144.982 28.3704 145.135 28.7808 145.239C28.8828 145.265 29.02 145.299 29.1995 145.291C29.284 145.287 29.3581 145.274 29.4212 145.262C29.4307 145.297 29.4479 145.335 29.479 145.37C29.5704 145.475 29.7179 145.502 29.9182 145.443C30.1392 145.381 30.3139 145.297 30.468 145.224C30.6027 145.159 30.7187 145.105 30.8161 145.09C30.9973 145.064 31.1662 145.176 31.3684 145.325L31.875 145.705Z" fill="#3E981E"/>
<path d="M31.875 145.705L31.7881 144.903L31.7348 144.853C31.4883 144.62 31.3341 144.373 31.2763 144.119C31.2671 144.078 31.2599 144.037 31.2526 143.996C31.2238 143.831 31.188 143.626 31.0294 143.413C30.9407 143.294 30.706 143.026 30.4639 143.12C30.3986 143.144 30.3544 143.187 30.3238 143.232C30.3161 143.224 30.3082 143.216 30.2998 143.208C30.1952 143.106 30.1221 143.069 30.0516 143.033C29.9975 143.005 29.9416 142.977 29.847 142.901C29.8054 142.868 29.7722 142.838 29.7442 142.813C29.6593 142.737 29.5506 142.649 29.4018 142.684C29.244 142.727 29.1899 142.877 29.154 142.977C29.09 143.155 29.0702 143.277 29.0571 143.358C29.0524 143.388 29.047 143.421 29.0429 143.432C29.0083 143.519 28.5749 143.541 28.4118 143.551C28.0452 143.571 27.7279 143.588 27.6516 143.839C27.5969 144.018 27.711 144.214 28.0005 144.436C28.0907 144.506 28.1809 144.553 28.2594 144.589C28.2111 144.635 28.1726 144.697 28.1702 144.781C28.1649 144.982 28.3704 145.135 28.7808 145.239C28.8828 145.265 29.02 145.299 29.1995 145.291C29.284 145.287 29.3581 145.274 29.4212 145.262C29.4307 145.297 29.4479 145.335 29.479 145.37C29.5704 145.475 29.7179 145.502 29.9182 145.443C30.1392 145.381 30.3139 145.297 30.468 145.224C30.6027 145.159 30.7187 145.105 30.8161 145.09C30.9973 145.064 31.1662 145.176 31.3684 145.325L31.875 145.705Z" fill="#3E981E"/>
<path d="M31.875 145.705L31.7881 144.903L31.7348 144.853C31.4883 144.62 31.3341 144.373 31.2763 144.119C31.2671 144.078 31.2599 144.037 31.2526 143.996C31.2238 143.831 31.188 143.626 31.0294 143.413C30.9407 143.294 30.706 143.026 30.4639 143.12C30.3986 143.144 30.3544 143.187 30.3238 143.232C30.3161 143.224 30.3082 143.216 30.2998 143.208C30.1952 143.106 30.1221 143.069 30.0516 143.033C29.9975 143.005 29.9416 142.977 29.847 142.901C29.8054 142.868 29.7722 142.838 29.7442 142.813C29.6593 142.737 29.5506 142.649 29.4018 142.684C29.244 142.727 29.1899 142.877 29.154 142.977C29.09 143.155 29.0702 143.277 29.0571 143.358C29.0524 143.388 29.047 143.421 29.0429 143.432C29.0083 143.519 28.5749 143.541 28.4118 143.551C28.0452 143.571 27.7279 143.588 27.6516 143.839C27.5969 144.018 27.711 144.214 28.0005 144.436C28.0907 144.506 28.1809 144.553 28.2594 144.589C28.2111 144.635 28.1726 144.697 28.1702 144.781C28.1649 144.982 28.3704 145.135 28.7808 145.239C28.8828 145.265 29.02 145.299 29.1995 145.291C29.284 145.287 29.3581 145.274 29.4212 145.262C29.4307 145.297 29.4479 145.335 29.479 145.37C29.5704 145.475 29.7179 145.502 29.9182 145.443C30.1392 145.381 30.3139 145.297 30.468 145.224C30.6027 145.159 30.7187 145.105 30.8161 145.09C30.9973 145.064 31.1662 145.176 31.3684 145.325L31.875 145.705Z" fill="#3E981E"/>
<path d="M30.4297 141.138L31.2276 141.257L31.2898 141.219C31.5777 141.039 31.8556 140.953 32.116 140.961C32.1574 140.963 32.1987 140.966 32.2408 140.969C32.4076 140.983 32.615 141.001 32.8612 140.901C32.9984 140.846 33.3173 140.687 33.2881 140.429C33.281 140.359 33.2512 140.306 33.2156 140.265C33.2251 140.259 33.2346 140.254 33.2449 140.248C33.3697 140.172 33.4243 140.111 33.4768 140.052C33.5172 140.007 33.5589 139.96 33.6561 139.887C33.6987 139.856 33.736 139.831 33.7674 139.81C33.8623 139.747 33.9758 139.665 33.9795 139.512C33.9778 139.348 33.8459 139.258 33.7587 139.198C33.603 139.091 33.4898 139.041 33.4147 139.008C33.3873 138.996 33.3564 138.982 33.347 138.975C33.2716 138.92 33.3597 138.495 33.392 138.334C33.4658 137.975 33.5296 137.664 33.3061 137.526C33.1463 137.428 32.9279 137.488 32.6395 137.712C32.5498 137.782 32.4807 137.857 32.4263 137.924C32.3944 137.865 32.3441 137.812 32.2628 137.789C32.0704 137.733 31.8697 137.892 31.6653 138.263C31.6143 138.355 31.5462 138.479 31.509 138.655C31.4916 138.738 31.4854 138.813 31.4811 138.877C31.4439 138.877 31.4033 138.884 31.3611 138.905C31.2368 138.967 31.1736 139.103 31.1799 139.312C31.1834 139.541 31.2201 139.731 31.2523 139.899C31.2801 140.046 31.3037 140.172 31.2935 140.27C31.2721 140.452 31.121 140.587 30.9258 140.744L30.4297 141.138Z" fill="#3E981E"/>
<path d="M30.4297 141.138L31.2276 141.257L31.2898 141.219C31.5777 141.039 31.8556 140.953 32.116 140.961C32.1574 140.963 32.1987 140.966 32.2408 140.969C32.4076 140.983 32.615 141.001 32.8612 140.901C32.9984 140.846 33.3173 140.687 33.2881 140.429C33.281 140.359 33.2512 140.306 33.2156 140.265C33.2251 140.259 33.2346 140.254 33.2449 140.248C33.3697 140.172 33.4243 140.111 33.4768 140.052C33.5172 140.007 33.5589 139.96 33.6561 139.887C33.6987 139.856 33.736 139.831 33.7674 139.81C33.8623 139.747 33.9758 139.665 33.9795 139.512C33.9778 139.348 33.8459 139.258 33.7587 139.198C33.603 139.091 33.4898 139.041 33.4147 139.008C33.3873 138.996 33.3564 138.982 33.347 138.975C33.2716 138.92 33.3597 138.495 33.392 138.334C33.4658 137.975 33.5296 137.664 33.3061 137.526C33.1463 137.428 32.9279 137.488 32.6395 137.712C32.5498 137.782 32.4807 137.857 32.4263 137.924C32.3944 137.865 32.3441 137.812 32.2628 137.789C32.0704 137.733 31.8697 137.892 31.6653 138.263C31.6143 138.355 31.5462 138.479 31.509 138.655C31.4916 138.738 31.4854 138.813 31.4811 138.877C31.4439 138.877 31.4033 138.884 31.3611 138.905C31.2368 138.967 31.1736 139.103 31.1799 139.312C31.1834 139.541 31.2201 139.731 31.2523 139.899C31.2801 140.046 31.3037 140.172 31.2935 140.27C31.2721 140.452 31.121 140.587 30.9258 140.744L30.4297 141.138Z" fill="#3E981E"/>
<path d="M30.4297 141.138L31.2276 141.257L31.2898 141.219C31.5777 141.039 31.8556 140.953 32.116 140.961C32.1574 140.963 32.1987 140.966 32.2408 140.969C32.4076 140.983 32.615 141.001 32.8612 140.901C32.9984 140.846 33.3173 140.687 33.2881 140.429C33.281 140.359 33.2512 140.306 33.2156 140.265C33.2251 140.259 33.2346 140.254 33.2449 140.248C33.3697 140.172 33.4243 140.111 33.4768 140.052C33.5172 140.007 33.5589 139.96 33.6561 139.887C33.6987 139.856 33.736 139.831 33.7674 139.81C33.8623 139.747 33.9758 139.665 33.9795 139.512C33.9778 139.348 33.8459 139.258 33.7587 139.198C33.603 139.091 33.4898 139.041 33.4147 139.008C33.3873 138.996 33.3564 138.982 33.347 138.975C33.2716 138.92 33.3597 138.495 33.392 138.334C33.4658 137.975 33.5296 137.664 33.3061 137.526C33.1463 137.428 32.9279 137.488 32.6395 137.712C32.5498 137.782 32.4807 137.857 32.4263 137.924C32.3944 137.865 32.3441 137.812 32.2628 137.789C32.0704 137.733 31.8697 137.892 31.6653 138.263C31.6143 138.355 31.5462 138.479 31.509 138.655C31.4916 138.738 31.4854 138.813 31.4811 138.877C31.4439 138.877 31.4033 138.884 31.3611 138.905C31.2368 138.967 31.1736 139.103 31.1799 139.312C31.1834 139.541 31.2201 139.731 31.2523 139.899C31.2801 140.046 31.3037 140.172 31.2935 140.27C31.2721 140.452 31.121 140.587 30.9258 140.744L30.4297 141.138Z" fill="#3E981E"/>
<path d="M30.3213 138.744L30.2344 137.942L30.1811 137.892C29.9346 137.659 29.7804 137.412 29.7226 137.158C29.7133 137.117 29.7062 137.077 29.6989 137.035C29.6701 136.87 29.6343 136.665 29.4757 136.452C29.387 136.333 29.1523 136.065 28.9102 136.159C28.8448 136.183 28.8007 136.226 28.7701 136.271C28.7624 136.263 28.7545 136.255 28.7461 136.247C28.6415 136.145 28.5684 136.108 28.4979 136.072C28.4438 136.044 28.3879 136.016 28.2932 135.94C28.2517 135.907 28.2185 135.877 28.1905 135.852C28.1055 135.776 27.9969 135.688 27.8481 135.723C27.6903 135.766 27.6362 135.916 27.6003 136.016C27.5362 136.194 27.5165 136.316 27.5034 136.397C27.4987 136.427 27.4933 136.46 27.4892 136.471C27.4546 136.558 27.0212 136.58 26.8581 136.59C26.4914 136.61 26.1742 136.627 26.0979 136.878C26.0432 137.057 26.1573 137.253 26.4468 137.476C26.537 137.545 26.6271 137.592 26.7057 137.628C26.6574 137.674 26.6189 137.736 26.6165 137.82C26.6112 138.021 26.8167 138.174 27.2271 138.278C27.3291 138.304 27.4663 138.338 27.6458 138.33C27.7303 138.326 27.8044 138.313 27.8675 138.301C27.8769 138.337 27.8942 138.374 27.9253 138.409C28.0167 138.514 28.1642 138.541 28.3644 138.482C28.5855 138.42 28.7602 138.336 28.9143 138.263C29.0489 138.198 29.165 138.144 29.2624 138.129C29.4436 138.103 29.6125 138.215 29.8147 138.364L30.3213 138.744Z" fill="#3E981E"/>
<path d="M30.3213 138.744L30.2344 137.942L30.1811 137.892C29.9346 137.659 29.7804 137.412 29.7226 137.158C29.7133 137.117 29.7062 137.077 29.6989 137.035C29.6701 136.87 29.6343 136.665 29.4757 136.452C29.387 136.333 29.1523 136.065 28.9102 136.159C28.8448 136.183 28.8007 136.226 28.7701 136.271C28.7624 136.263 28.7545 136.255 28.7461 136.247C28.6415 136.145 28.5684 136.108 28.4979 136.072C28.4438 136.044 28.3879 136.016 28.2932 135.94C28.2517 135.907 28.2185 135.877 28.1905 135.852C28.1055 135.776 27.9969 135.688 27.8481 135.723C27.6903 135.766 27.6362 135.916 27.6003 136.016C27.5362 136.194 27.5165 136.316 27.5034 136.397C27.4987 136.427 27.4933 136.46 27.4892 136.471C27.4546 136.558 27.0212 136.58 26.8581 136.59C26.4914 136.61 26.1742 136.627 26.0979 136.878C26.0432 137.057 26.1573 137.253 26.4468 137.476C26.537 137.545 26.6271 137.592 26.7057 137.628C26.6574 137.674 26.6189 137.736 26.6165 137.82C26.6112 138.021 26.8167 138.174 27.2271 138.278C27.3291 138.304 27.4663 138.338 27.6458 138.33C27.7303 138.326 27.8044 138.313 27.8675 138.301C27.8769 138.337 27.8942 138.374 27.9253 138.409C28.0167 138.514 28.1642 138.541 28.3644 138.482C28.5855 138.42 28.7602 138.336 28.9143 138.263C29.0489 138.198 29.165 138.144 29.2624 138.129C29.4436 138.103 29.6125 138.215 29.8147 138.364L30.3213 138.744Z" fill="#3E981E"/>
<path d="M30.3213 138.744L30.2344 137.942L30.1811 137.892C29.9346 137.659 29.7804 137.412 29.7226 137.158C29.7133 137.117 29.7062 137.077 29.6989 137.035C29.6701 136.87 29.6343 136.665 29.4757 136.452C29.387 136.333 29.1523 136.065 28.9102 136.159C28.8448 136.183 28.8007 136.226 28.7701 136.271C28.7624 136.263 28.7545 136.255 28.7461 136.247C28.6415 136.145 28.5684 136.108 28.4979 136.072C28.4438 136.044 28.3879 136.016 28.2932 135.94C28.2517 135.907 28.2185 135.877 28.1905 135.852C28.1055 135.776 27.9969 135.688 27.8481 135.723C27.6903 135.766 27.6362 135.916 27.6003 136.016C27.5362 136.194 27.5165 136.316 27.5034 136.397C27.4987 136.427 27.4933 136.46 27.4892 136.471C27.4546 136.558 27.0212 136.58 26.8581 136.59C26.4914 136.61 26.1742 136.627 26.0979 136.878C26.0432 137.057 26.1573 137.253 26.4468 137.476C26.537 137.545 26.6271 137.592 26.7057 137.628C26.6574 137.674 26.6189 137.736 26.6165 137.82C26.6112 138.021 26.8167 138.174 27.2271 138.278C27.3291 138.304 27.4663 138.338 27.6458 138.33C27.7303 138.326 27.8044 138.313 27.8675 138.301C27.8769 138.337 27.8942 138.374 27.9253 138.409C28.0167 138.514 28.1642 138.541 28.3644 138.482C28.5855 138.42 28.7602 138.336 28.9143 138.263C29.0489 138.198 29.165 138.144 29.2624 138.129C29.4436 138.103 29.6125 138.215 29.8147 138.364L30.3213 138.744Z" fill="#3E981E"/>
<path d="M32.9092 154.11L33.0502 153.971L33.2463 153.95C33.2454 153.931 33.2467 153.888 33.2481 153.821C33.2557 153.452 33.2791 152.329 33.1227 150.604C33.0135 149.399 32.8311 148.177 32.5804 146.969C32.3293 145.76 32.0688 144.86 31.8595 144.137C31.7015 143.592 31.5421 143.074 31.3865 142.57C30.9712 141.224 30.579 139.952 30.3362 138.501C30.2818 138.178 30.1689 137.503 30.4 136.708C30.5341 136.246 30.7636 135.812 31.0825 135.417L30.7739 135.168C30.422 135.604 30.1681 136.085 30.0192 136.598C29.763 137.48 29.886 138.214 29.9451 138.567C30.1922 140.043 30.5883 141.328 31.0077 142.687C31.1625 143.189 31.3214 143.704 31.4787 144.247C31.6861 144.964 31.9443 145.856 32.1921 147.049C32.44 148.242 32.6201 149.45 32.7281 150.639C32.8824 152.343 32.8592 153.449 32.8516 153.813C32.8477 154.007 32.8468 154.047 32.9092 154.11Z" fill="#3E981E"/>
<path d="M32.9092 154.11L33.0502 153.971L33.2463 153.95C33.2454 153.931 33.2467 153.888 33.2481 153.821C33.2557 153.452 33.2791 152.329 33.1227 150.604C33.0135 149.399 32.8311 148.177 32.5804 146.969C32.3293 145.76 32.0688 144.86 31.8595 144.137C31.7015 143.592 31.5421 143.074 31.3865 142.57C30.9712 141.224 30.579 139.952 30.3362 138.501C30.2818 138.178 30.1689 137.503 30.4 136.708C30.5341 136.246 30.7636 135.812 31.0825 135.417L30.7739 135.168C30.422 135.604 30.1681 136.085 30.0192 136.598C29.763 137.48 29.886 138.214 29.9451 138.567C30.1922 140.043 30.5883 141.328 31.0077 142.687C31.1625 143.189 31.3214 143.704 31.4787 144.247C31.6861 144.964 31.9443 145.856 32.1921 147.049C32.44 148.242 32.6201 149.45 32.7281 150.639C32.8824 152.343 32.8592 153.449 32.8516 153.813C32.8477 154.007 32.8468 154.047 32.9092 154.11Z" fill="#3E981E"/>
<path d="M32.9092 154.11L33.0502 153.971L33.2463 153.95C33.2454 153.931 33.2467 153.888 33.2481 153.821C33.2557 153.452 33.2791 152.329 33.1227 150.604C33.0135 149.399 32.8311 148.177 32.5804 146.969C32.3293 145.76 32.0688 144.86 31.8595 144.137C31.7015 143.592 31.5421 143.074 31.3865 142.57C30.9712 141.224 30.579 139.952 30.3362 138.501C30.2818 138.178 30.1689 137.503 30.4 136.708C30.5341 136.246 30.7636 135.812 31.0825 135.417L30.7739 135.168C30.422 135.604 30.1681 136.085 30.0192 136.598C29.763 137.48 29.886 138.214 29.9451 138.567C30.1922 140.043 30.5883 141.328 31.0077 142.687C31.1625 143.189 31.3214 143.704 31.4787 144.247C31.6861 144.964 31.9443 145.856 32.1921 147.049C32.44 148.242 32.6201 149.45 32.7281 150.639C32.8824 152.343 32.8592 153.449 32.8516 153.813C32.8477 154.007 32.8468 154.047 32.9092 154.11Z" fill="#3E981E"/>
<path d="M31.9279 135.874C31.9438 135.87 31.9598 135.866 31.9758 135.862C32.3013 135.77 32.5624 135.505 32.752 135.073C32.8408 134.87 32.8618 134.657 32.9036 134.23C32.9101 134.165 32.9391 133.832 32.9035 133.392C32.8803 133.104 32.8494 132.988 32.771 132.897C32.684 132.796 32.5667 132.738 32.4429 132.709C32.4395 132.671 32.427 132.634 32.4023 132.598C32.3004 132.452 32.1298 132.512 32.0372 132.543C31.9906 132.56 31.9325 132.581 31.8671 132.592C31.7643 132.61 31.703 132.592 31.6101 132.565C31.5213 132.539 31.4108 132.507 31.2581 132.51C30.9568 132.514 30.7338 132.649 30.6602 132.694C30.2728 132.927 30.1391 133.298 29.9843 133.728C29.9536 133.814 29.8515 134.126 29.8277 134.527C29.8106 134.816 29.8485 134.935 29.892 135.019C29.9808 135.194 30.1168 135.274 30.4544 135.444C30.807 135.622 30.9839 135.711 31.129 135.757C31.4666 135.863 31.6785 135.93 31.9279 135.874Z" fill="#3E981E"/>
<path d="M31.9279 135.874C31.9438 135.87 31.9598 135.866 31.9758 135.862C32.3013 135.77 32.5624 135.505 32.752 135.073C32.8408 134.87 32.8618 134.657 32.9036 134.23C32.9101 134.165 32.9391 133.832 32.9035 133.392C32.8803 133.104 32.8494 132.988 32.771 132.897C32.684 132.796 32.5667 132.738 32.4429 132.709C32.4395 132.671 32.427 132.634 32.4023 132.598C32.3004 132.452 32.1298 132.512 32.0372 132.543C31.9906 132.56 31.9325 132.581 31.8671 132.592C31.7643 132.61 31.703 132.592 31.6101 132.565C31.5213 132.539 31.4108 132.507 31.2581 132.51C30.9568 132.514 30.7338 132.649 30.6602 132.694C30.2728 132.927 30.1391 133.298 29.9843 133.728C29.9536 133.814 29.8515 134.126 29.8277 134.527C29.8106 134.816 29.8485 134.935 29.892 135.019C29.9808 135.194 30.1168 135.274 30.4544 135.444C30.807 135.622 30.9839 135.711 31.129 135.757C31.4666 135.863 31.6785 135.93 31.9279 135.874Z" fill="#3E981E"/>
<path d="M31.9279 135.874C31.9438 135.87 31.9598 135.866 31.9758 135.862C32.3013 135.77 32.5624 135.505 32.752 135.073C32.8408 134.87 32.8618 134.657 32.9036 134.23C32.9101 134.165 32.9391 133.832 32.9035 133.392C32.8803 133.104 32.8494 132.988 32.771 132.897C32.684 132.796 32.5667 132.738 32.4429 132.709C32.4395 132.671 32.427 132.634 32.4023 132.598C32.3004 132.452 32.1298 132.512 32.0372 132.543C31.9906 132.56 31.9325 132.581 31.8671 132.592C31.7643 132.61 31.703 132.592 31.6101 132.565C31.5213 132.539 31.4108 132.507 31.2581 132.51C30.9568 132.514 30.7338 132.649 30.6602 132.694C30.2728 132.927 30.1391 133.298 29.9843 133.728C29.9536 133.814 29.8515 134.126 29.8277 134.527C29.8106 134.816 29.8485 134.935 29.892 135.019C29.9808 135.194 30.1168 135.274 30.4544 135.444C30.807 135.622 30.9839 135.711 31.129 135.757C31.4666 135.863 31.6785 135.93 31.9279 135.874Z" fill="#3E981E"/>
<path d="M214.795 142.604C214.877 142.355 215.493 142.465 215.552 142.242C215.611 142.021 215.02 141.835 214.566 141.209C214.484 141.097 213.969 140.386 214.167 140.088C214.541 139.521 217.149 140.932 217.775 140.14C217.912 139.967 217.969 139.668 218.378 139.113C218.541 138.893 218.645 138.786 218.77 138.789C218.947 138.794 219.011 139.015 219.289 139.416C219.706 140.018 219.857 139.943 220.132 140.436C220.336 140.802 220.36 141.036 220.507 141.049C220.716 141.069 220.802 140.613 221.056 140.595C221.316 140.577 221.576 141.028 221.705 141.38C221.946 142.04 221.797 142.544 221.763 143.047C221.727 143.594 221.812 144.394 222.406 145.421L228.007 154.344C226.804 152.525 223.389 147.565 222.014 145.745C221.617 145.22 221.19 144.692 220.533 144.593C219.901 144.497 219.131 144.81 218.057 144.792C217.932 144.79 217.583 144.78 217.498 144.595C217.427 144.442 217.602 144.309 217.538 144.165C217.453 143.972 217.071 144.055 216.549 143.927C216.181 143.836 215.932 143.687 215.717 143.559C215.652 143.52 214.687 142.936 214.795 142.604Z" fill="#3E981E"/>
<path d="M214.795 142.604C214.877 142.355 215.493 142.465 215.552 142.242C215.611 142.021 215.02 141.835 214.566 141.209C214.484 141.097 213.969 140.386 214.167 140.088C214.541 139.521 217.149 140.932 217.775 140.14C217.912 139.967 217.969 139.668 218.378 139.113C218.541 138.893 218.645 138.786 218.77 138.789C218.947 138.794 219.011 139.015 219.289 139.416C219.706 140.018 219.857 139.943 220.132 140.436C220.336 140.802 220.36 141.036 220.507 141.049C220.716 141.069 220.802 140.613 221.056 140.595C221.316 140.577 221.576 141.028 221.705 141.38C221.946 142.04 221.797 142.544 221.763 143.047C221.727 143.594 221.812 144.394 222.406 145.421L228.007 154.344C226.804 152.525 223.389 147.565 222.014 145.745C221.617 145.22 221.19 144.692 220.533 144.593C219.901 144.497 219.131 144.81 218.057 144.792C217.932 144.79 217.583 144.78 217.498 144.595C217.427 144.442 217.602 144.309 217.538 144.165C217.453 143.972 217.071 144.055 216.549 143.927C216.181 143.836 215.932 143.687 215.717 143.559C215.652 143.52 214.687 142.936 214.795 142.604Z" fill="#3E981E"/>
<path d="M214.795 142.604C214.877 142.355 215.493 142.465 215.552 142.242C215.611 142.021 215.02 141.835 214.566 141.209C214.484 141.097 213.969 140.386 214.167 140.088C214.541 139.521 217.149 140.932 217.775 140.14C217.912 139.967 217.969 139.668 218.378 139.113C218.541 138.893 218.645 138.786 218.77 138.789C218.947 138.794 219.011 139.015 219.289 139.416C219.706 140.018 219.857 139.943 220.132 140.436C220.336 140.802 220.36 141.036 220.507 141.049C220.716 141.069 220.802 140.613 221.056 140.595C221.316 140.577 221.576 141.028 221.705 141.38C221.946 142.04 221.797 142.544 221.763 143.047C221.727 143.594 221.812 144.394 222.406 145.421L228.007 154.344C226.804 152.525 223.389 147.565 222.014 145.745C221.617 145.22 221.19 144.692 220.533 144.593C219.901 144.497 219.131 144.81 218.057 144.792C217.932 144.79 217.583 144.78 217.498 144.595C217.427 144.442 217.602 144.309 217.538 144.165C217.453 143.972 217.071 144.055 216.549 143.927C216.181 143.836 215.932 143.687 215.717 143.559C215.652 143.52 214.687 142.936 214.795 142.604Z" fill="#3E981E"/>
<path d="M229.466 144.691C229.612 144.659 229.736 144.993 229.862 144.958C229.988 144.923 229.909 144.579 230.085 144.176C230.116 144.104 230.316 143.646 230.52 143.656C230.906 143.677 230.966 145.364 231.535 145.443C231.66 145.46 231.823 145.402 232.213 145.442C232.369 145.459 232.451 145.479 232.485 145.541C232.534 145.629 232.444 145.724 232.327 145.977C232.152 146.355 232.233 146.407 232.07 146.685C231.949 146.89 231.842 146.97 231.877 147.046C231.928 147.154 232.176 147.065 232.258 147.184C232.342 147.307 232.196 147.564 232.061 147.729C231.806 148.038 231.516 148.11 231.259 148.239C230.981 148.379 230.612 148.651 230.28 149.239L227.516 154.563C228.062 153.448 229.511 150.34 230.007 149.14C230.151 148.794 230.286 148.432 230.146 148.081C230.01 147.743 229.634 147.456 229.333 146.923C229.298 146.861 229.203 146.687 229.269 146.592C229.324 146.513 229.439 146.56 229.492 146.488C229.562 146.39 229.411 146.226 229.323 145.933C229.261 145.727 229.263 145.561 229.264 145.419C229.264 145.376 229.272 144.734 229.466 144.691Z" fill="#3E981E"/>
<path d="M229.466 144.691C229.612 144.659 229.736 144.993 229.862 144.958C229.988 144.923 229.909 144.579 230.085 144.176C230.116 144.104 230.316 143.646 230.52 143.656C230.906 143.677 230.966 145.364 231.535 145.443C231.66 145.46 231.823 145.402 232.213 145.442C232.369 145.459 232.451 145.479 232.485 145.541C232.534 145.629 232.444 145.724 232.327 145.977C232.152 146.355 232.233 146.407 232.07 146.685C231.949 146.89 231.842 146.97 231.877 147.046C231.928 147.154 232.176 147.065 232.258 147.184C232.342 147.307 232.196 147.564 232.061 147.729C231.806 148.038 231.516 148.11 231.259 148.239C230.981 148.379 230.612 148.651 230.28 149.239L227.516 154.563C228.062 153.448 229.511 150.34 230.007 149.14C230.151 148.794 230.286 148.432 230.146 148.081C230.01 147.743 229.634 147.456 229.333 146.923C229.298 146.861 229.203 146.687 229.269 146.592C229.324 146.513 229.439 146.56 229.492 146.488C229.562 146.39 229.411 146.226 229.323 145.933C229.261 145.727 229.263 145.561 229.264 145.419C229.264 145.376 229.272 144.734 229.466 144.691Z" fill="#3E981E"/>
<path d="M229.466 144.691C229.612 144.659 229.736 144.993 229.862 144.958C229.988 144.923 229.909 144.579 230.085 144.176C230.116 144.104 230.316 143.646 230.52 143.656C230.906 143.677 230.966 145.364 231.535 145.443C231.66 145.46 231.823 145.402 232.213 145.442C232.369 145.459 232.451 145.479 232.485 145.541C232.534 145.629 232.444 145.724 232.327 145.977C232.152 146.355 232.233 146.407 232.07 146.685C231.949 146.89 231.842 146.97 231.877 147.046C231.928 147.154 232.176 147.065 232.258 147.184C232.342 147.307 232.196 147.564 232.061 147.729C231.806 148.038 231.516 148.11 231.259 148.239C230.981 148.379 230.612 148.651 230.28 149.239L227.516 154.563C228.062 153.448 229.511 150.34 230.007 149.14C230.151 148.794 230.286 148.432 230.146 148.081C230.01 147.743 229.634 147.456 229.333 146.923C229.298 146.861 229.203 146.687 229.269 146.592C229.324 146.513 229.439 146.56 229.492 146.488C229.562 146.39 229.411 146.226 229.323 145.933C229.261 145.727 229.263 145.561 229.264 145.419C229.264 145.376 229.272 144.734 229.466 144.691Z" fill="#3E981E"/>
<path d="M226.709 145.986L226.622 145.184L226.569 145.134C226.322 144.901 226.168 144.654 226.11 144.4C226.101 144.36 226.094 144.319 226.087 144.277C226.058 144.112 226.022 143.907 225.863 143.694C225.775 143.576 225.54 143.308 225.298 143.401C225.233 143.426 225.188 143.468 225.158 143.513C225.15 143.505 225.142 143.497 225.134 143.489C225.029 143.387 224.956 143.35 224.886 143.314C224.831 143.287 224.776 143.258 224.681 143.183C224.639 143.149 224.606 143.12 224.578 143.094C224.493 143.019 224.385 142.93 224.236 142.965C224.078 143.008 224.024 143.159 223.988 143.258C223.924 143.436 223.904 143.558 223.891 143.639C223.886 143.669 223.881 143.702 223.877 143.713C223.842 143.8 223.409 143.822 223.246 143.832C222.879 143.852 222.562 143.869 222.486 144.12C222.431 144.3 222.545 144.496 222.834 144.718C222.925 144.787 223.015 144.835 223.093 144.87C223.045 144.916 223.007 144.978 223.004 145.063C222.999 145.263 223.204 145.417 223.615 145.52C223.717 145.546 223.854 145.581 224.033 145.572C224.118 145.568 224.192 145.555 224.255 145.543C224.265 145.579 224.282 145.616 224.313 145.652C224.404 145.756 224.552 145.783 224.752 145.724C224.973 145.662 225.148 145.578 225.302 145.505C225.437 145.441 225.553 145.386 225.65 145.371C225.831 145.346 226 145.457 226.202 145.606L226.709 145.986Z" fill="#3E981E"/>
<path d="M226.709 145.986L226.622 145.184L226.569 145.134C226.322 144.901 226.168 144.654 226.11 144.4C226.101 144.36 226.094 144.319 226.087 144.277C226.058 144.112 226.022 143.907 225.863 143.694C225.775 143.576 225.54 143.308 225.298 143.401C225.233 143.426 225.188 143.468 225.158 143.513C225.15 143.505 225.142 143.497 225.134 143.489C225.029 143.387 224.956 143.35 224.886 143.314C224.831 143.287 224.776 143.258 224.681 143.183C224.639 143.149 224.606 143.12 224.578 143.094C224.493 143.019 224.385 142.93 224.236 142.965C224.078 143.008 224.024 143.159 223.988 143.258C223.924 143.436 223.904 143.558 223.891 143.639C223.886 143.669 223.881 143.702 223.877 143.713C223.842 143.8 223.409 143.822 223.246 143.832C222.879 143.852 222.562 143.869 222.486 144.12C222.431 144.3 222.545 144.496 222.834 144.718C222.925 144.787 223.015 144.835 223.093 144.87C223.045 144.916 223.007 144.978 223.004 145.063C222.999 145.263 223.204 145.417 223.615 145.52C223.717 145.546 223.854 145.581 224.033 145.572C224.118 145.568 224.192 145.555 224.255 145.543C224.265 145.579 224.282 145.616 224.313 145.652C224.404 145.756 224.552 145.783 224.752 145.724C224.973 145.662 225.148 145.578 225.302 145.505C225.437 145.441 225.553 145.386 225.65 145.371C225.831 145.346 226 145.457 226.202 145.606L226.709 145.986Z" fill="#3E981E"/>
<path d="M226.709 145.986L226.622 145.184L226.569 145.134C226.322 144.901 226.168 144.654 226.11 144.4C226.101 144.36 226.094 144.319 226.087 144.277C226.058 144.112 226.022 143.907 225.863 143.694C225.775 143.576 225.54 143.308 225.298 143.401C225.233 143.426 225.188 143.468 225.158 143.513C225.15 143.505 225.142 143.497 225.134 143.489C225.029 143.387 224.956 143.35 224.886 143.314C224.831 143.287 224.776 143.258 224.681 143.183C224.639 143.149 224.606 143.12 224.578 143.094C224.493 143.019 224.385 142.93 224.236 142.965C224.078 143.008 224.024 143.159 223.988 143.258C223.924 143.436 223.904 143.558 223.891 143.639C223.886 143.669 223.881 143.702 223.877 143.713C223.842 143.8 223.409 143.822 223.246 143.832C222.879 143.852 222.562 143.869 222.486 144.12C222.431 144.3 222.545 144.496 222.834 144.718C222.925 144.787 223.015 144.835 223.093 144.87C223.045 144.916 223.007 144.978 223.004 145.063C222.999 145.263 223.204 145.417 223.615 145.52C223.717 145.546 223.854 145.581 224.033 145.572C224.118 145.568 224.192 145.555 224.255 145.543C224.265 145.579 224.282 145.616 224.313 145.652C224.404 145.756 224.552 145.783 224.752 145.724C224.973 145.662 225.148 145.578 225.302 145.505C225.437 145.441 225.553 145.386 225.65 145.371C225.831 145.346 226 145.457 226.202 145.606L226.709 145.986Z" fill="#3E981E"/>
<path d="M225.264 141.419L226.062 141.539L226.124 141.5C226.412 141.321 226.69 141.234 226.95 141.242C226.991 141.244 227.033 141.247 227.075 141.251C227.242 141.265 227.449 141.282 227.695 141.183C227.832 141.127 228.151 140.968 228.122 140.71C228.115 140.641 228.085 140.587 228.05 140.546C228.059 140.541 228.069 140.535 228.079 140.529C228.204 140.454 228.258 140.392 228.311 140.333C228.351 140.288 228.393 140.241 228.49 140.169C228.533 140.137 228.57 140.112 228.601 140.092C228.696 140.029 228.81 139.946 228.813 139.793C228.812 139.63 228.68 139.539 228.593 139.479C228.437 139.372 228.324 139.322 228.249 139.289C228.221 139.277 228.19 139.263 228.181 139.256C228.106 139.201 228.194 138.776 228.226 138.616C228.3 138.256 228.364 137.945 228.14 137.807C227.98 137.709 227.762 137.769 227.473 137.993C227.384 138.063 227.315 138.138 227.26 138.205C227.228 138.147 227.178 138.094 227.097 138.07C226.904 138.014 226.704 138.174 226.499 138.544C226.448 138.636 226.38 138.76 226.343 138.936C226.326 139.019 226.319 139.094 226.315 139.158C226.278 139.158 226.237 139.165 226.195 139.186C226.071 139.248 226.008 139.384 226.014 139.593C226.017 139.822 226.054 140.013 226.086 140.18C226.114 140.327 226.138 140.453 226.128 140.551C226.106 140.733 225.955 140.868 225.76 141.026L225.264 141.419Z" fill="#3E981E"/>
<path d="M225.264 141.419L226.062 141.539L226.124 141.5C226.412 141.321 226.69 141.234 226.95 141.242C226.991 141.244 227.033 141.247 227.075 141.251C227.242 141.265 227.449 141.282 227.695 141.183C227.832 141.127 228.151 140.968 228.122 140.71C228.115 140.641 228.085 140.587 228.05 140.546C228.059 140.541 228.069 140.535 228.079 140.529C228.204 140.454 228.258 140.392 228.311 140.333C228.351 140.288 228.393 140.241 228.49 140.169C228.533 140.137 228.57 140.112 228.601 140.092C228.696 140.029 228.81 139.946 228.813 139.793C228.812 139.63 228.68 139.539 228.593 139.479C228.437 139.372 228.324 139.322 228.249 139.289C228.221 139.277 228.19 139.263 228.181 139.256C228.106 139.201 228.194 138.776 228.226 138.616C228.3 138.256 228.364 137.945 228.14 137.807C227.98 137.709 227.762 137.769 227.473 137.993C227.384 138.063 227.315 138.138 227.26 138.205C227.228 138.147 227.178 138.094 227.097 138.07C226.904 138.014 226.704 138.174 226.499 138.544C226.448 138.636 226.38 138.76 226.343 138.936C226.326 139.019 226.319 139.094 226.315 139.158C226.278 139.158 226.237 139.165 226.195 139.186C226.071 139.248 226.008 139.384 226.014 139.593C226.017 139.822 226.054 140.013 226.086 140.18C226.114 140.327 226.138 140.453 226.128 140.551C226.106 140.733 225.955 140.868 225.76 141.026L225.264 141.419Z" fill="#3E981E"/>
<path d="M225.264 141.419L226.062 141.539L226.124 141.5C226.412 141.321 226.69 141.234 226.95 141.242C226.991 141.244 227.033 141.247 227.075 141.251C227.242 141.265 227.449 141.282 227.695 141.183C227.832 141.127 228.151 140.968 228.122 140.71C228.115 140.641 228.085 140.587 228.05 140.546C228.059 140.541 228.069 140.535 228.079 140.529C228.204 140.454 228.258 140.392 228.311 140.333C228.351 140.288 228.393 140.241 228.49 140.169C228.533 140.137 228.57 140.112 228.601 140.092C228.696 140.029 228.81 139.946 228.813 139.793C228.812 139.63 228.68 139.539 228.593 139.479C228.437 139.372 228.324 139.322 228.249 139.289C228.221 139.277 228.19 139.263 228.181 139.256C228.106 139.201 228.194 138.776 228.226 138.616C228.3 138.256 228.364 137.945 228.14 137.807C227.98 137.709 227.762 137.769 227.473 137.993C227.384 138.063 227.315 138.138 227.26 138.205C227.228 138.147 227.178 138.094 227.097 138.07C226.904 138.014 226.704 138.174 226.499 138.544C226.448 138.636 226.38 138.76 226.343 138.936C226.326 139.019 226.319 139.094 226.315 139.158C226.278 139.158 226.237 139.165 226.195 139.186C226.071 139.248 226.008 139.384 226.014 139.593C226.017 139.822 226.054 140.013 226.086 140.18C226.114 140.327 226.138 140.453 226.128 140.551C226.106 140.733 225.955 140.868 225.76 141.026L225.264 141.419Z" fill="#3E981E"/>
<path d="M225.155 139.025L225.068 138.223L225.015 138.173C224.769 137.94 224.614 137.693 224.557 137.439C224.547 137.399 224.54 137.358 224.533 137.316C224.504 137.151 224.468 136.946 224.31 136.733C224.221 136.615 223.986 136.347 223.744 136.44C223.679 136.465 223.635 136.507 223.604 136.552C223.596 136.544 223.589 136.536 223.58 136.528C223.476 136.426 223.402 136.389 223.332 136.353C223.278 136.326 223.222 136.297 223.127 136.222C223.086 136.188 223.052 136.159 223.024 136.134C222.94 136.058 222.831 135.969 222.682 136.004C222.524 136.047 222.47 136.198 222.434 136.297C222.37 136.475 222.35 136.597 222.337 136.678C222.333 136.708 222.327 136.741 222.323 136.752C222.289 136.839 221.855 136.862 221.692 136.871C221.325 136.891 221.008 136.908 220.932 137.159C220.877 137.339 220.991 137.535 221.281 137.757C221.371 137.826 221.461 137.874 221.54 137.909C221.491 137.955 221.453 138.017 221.451 138.102C221.445 138.302 221.651 138.456 222.061 138.559C222.163 138.585 222.3 138.62 222.48 138.611C222.564 138.607 222.638 138.594 222.702 138.582C222.711 138.618 222.728 138.655 222.759 138.691C222.851 138.795 222.998 138.822 223.198 138.763C223.419 138.701 223.594 138.618 223.748 138.544C223.883 138.48 223.999 138.425 224.096 138.41C224.278 138.385 224.447 138.496 224.649 138.645L225.155 139.025Z" fill="#3E981E"/>
<path d="M225.155 139.025L225.068 138.223L225.015 138.173C224.769 137.94 224.614 137.693 224.557 137.439C224.547 137.399 224.54 137.358 224.533 137.316C224.504 137.151 224.468 136.946 224.31 136.733C224.221 136.615 223.986 136.347 223.744 136.44C223.679 136.465 223.635 136.507 223.604 136.552C223.596 136.544 223.589 136.536 223.58 136.528C223.476 136.426 223.402 136.389 223.332 136.353C223.278 136.326 223.222 136.297 223.127 136.222C223.086 136.188 223.052 136.159 223.024 136.134C222.94 136.058 222.831 135.969 222.682 136.004C222.524 136.047 222.47 136.198 222.434 136.297C222.37 136.475 222.35 136.597 222.337 136.678C222.333 136.708 222.327 136.741 222.323 136.752C222.289 136.839 221.855 136.862 221.692 136.871C221.325 136.891 221.008 136.908 220.932 137.159C220.877 137.339 220.991 137.535 221.281 137.757C221.371 137.826 221.461 137.874 221.54 137.909C221.491 137.955 221.453 138.017 221.451 138.102C221.445 138.302 221.651 138.456 222.061 138.559C222.163 138.585 222.3 138.62 222.48 138.611C222.564 138.607 222.638 138.594 222.702 138.582C222.711 138.618 222.728 138.655 222.759 138.691C222.851 138.795 222.998 138.822 223.198 138.763C223.419 138.701 223.594 138.618 223.748 138.544C223.883 138.48 223.999 138.425 224.096 138.41C224.278 138.385 224.447 138.496 224.649 138.645L225.155 139.025Z" fill="#3E981E"/>
<path d="M225.155 139.025L225.068 138.223L225.015 138.173C224.769 137.94 224.614 137.693 224.557 137.439C224.547 137.399 224.54 137.358 224.533 137.316C224.504 137.151 224.468 136.946 224.31 136.733C224.221 136.615 223.986 136.347 223.744 136.44C223.679 136.465 223.635 136.507 223.604 136.552C223.596 136.544 223.589 136.536 223.58 136.528C223.476 136.426 223.402 136.389 223.332 136.353C223.278 136.326 223.222 136.297 223.127 136.222C223.086 136.188 223.052 136.159 223.024 136.134C222.94 136.058 222.831 135.969 222.682 136.004C222.524 136.047 222.47 136.198 222.434 136.297C222.37 136.475 222.35 136.597 222.337 136.678C222.333 136.708 222.327 136.741 222.323 136.752C222.289 136.839 221.855 136.862 221.692 136.871C221.325 136.891 221.008 136.908 220.932 137.159C220.877 137.339 220.991 137.535 221.281 137.757C221.371 137.826 221.461 137.874 221.54 137.909C221.491 137.955 221.453 138.017 221.451 138.102C221.445 138.302 221.651 138.456 222.061 138.559C222.163 138.585 222.3 138.62 222.48 138.611C222.564 138.607 222.638 138.594 222.702 138.582C222.711 138.618 222.728 138.655 222.759 138.691C222.851 138.795 222.998 138.822 223.198 138.763C223.419 138.701 223.594 138.618 223.748 138.544C223.883 138.48 223.999 138.425 224.096 138.41C224.278 138.385 224.447 138.496 224.649 138.645L225.155 139.025Z" fill="#3E981E"/>
<path d="M227.743 154.391L227.884 154.252L228.08 154.231C228.079 154.213 228.081 154.17 228.082 154.102C228.09 153.733 228.113 152.61 227.957 150.885C227.847 149.68 227.665 148.458 227.414 147.25C227.163 146.041 226.903 145.141 226.693 144.418C226.535 143.873 226.376 143.355 226.22 142.851C225.805 141.505 225.413 140.233 225.17 138.783C225.116 138.459 225.003 137.785 225.234 136.989C225.368 136.528 225.598 136.093 225.917 135.698L225.608 135.449C225.256 135.885 225.002 136.366 224.853 136.879C224.597 137.761 224.72 138.496 224.779 138.848C225.026 140.325 225.422 141.609 225.842 142.968C225.997 143.47 226.155 143.985 226.313 144.529C226.52 145.245 226.778 146.137 227.026 147.331C227.274 148.524 227.454 149.731 227.562 150.921C227.716 152.624 227.693 153.73 227.686 154.094C227.682 154.288 227.681 154.329 227.743 154.391Z" fill="#3E981E"/>
<path d="M227.743 154.391L227.884 154.252L228.08 154.231C228.079 154.213 228.081 154.17 228.082 154.102C228.09 153.733 228.113 152.61 227.957 150.885C227.847 149.68 227.665 148.458 227.414 147.25C227.163 146.041 226.903 145.141 226.693 144.418C226.535 143.873 226.376 143.355 226.22 142.851C225.805 141.505 225.413 140.233 225.17 138.783C225.116 138.459 225.003 137.785 225.234 136.989C225.368 136.528 225.598 136.093 225.917 135.698L225.608 135.449C225.256 135.885 225.002 136.366 224.853 136.879C224.597 137.761 224.72 138.496 224.779 138.848C225.026 140.325 225.422 141.609 225.842 142.968C225.997 143.47 226.155 143.985 226.313 144.529C226.52 145.245 226.778 146.137 227.026 147.331C227.274 148.524 227.454 149.731 227.562 150.921C227.716 152.624 227.693 153.73 227.686 154.094C227.682 154.288 227.681 154.329 227.743 154.391Z" fill="#3E981E"/>
<path d="M227.743 154.391L227.884 154.252L228.08 154.231C228.079 154.213 228.081 154.17 228.082 154.102C228.09 153.733 228.113 152.61 227.957 150.885C227.847 149.68 227.665 148.458 227.414 147.25C227.163 146.041 226.903 145.141 226.693 144.418C226.535 143.873 226.376 143.355 226.22 142.851C225.805 141.505 225.413 140.233 225.17 138.783C225.116 138.459 225.003 137.785 225.234 136.989C225.368 136.528 225.598 136.093 225.917 135.698L225.608 135.449C225.256 135.885 225.002 136.366 224.853 136.879C224.597 137.761 224.72 138.496 224.779 138.848C225.026 140.325 225.422 141.609 225.842 142.968C225.997 143.47 226.155 143.985 226.313 144.529C226.52 145.245 226.778 146.137 227.026 147.331C227.274 148.524 227.454 149.731 227.562 150.921C227.716 152.624 227.693 153.73 227.686 154.094C227.682 154.288 227.681 154.329 227.743 154.391Z" fill="#3E981E"/>
<path d="M226.762 136.155C226.778 136.152 226.794 136.148 226.81 136.143C227.135 136.052 227.396 135.786 227.586 135.355C227.675 135.152 227.696 134.938 227.738 134.512C227.744 134.446 227.773 134.113 227.737 133.673C227.714 133.385 227.683 133.269 227.605 133.178C227.518 133.077 227.401 133.019 227.277 132.99C227.273 132.952 227.261 132.915 227.236 132.879C227.134 132.733 226.964 132.793 226.871 132.824C226.825 132.841 226.766 132.862 226.701 132.873C226.598 132.891 226.537 132.873 226.444 132.846C226.355 132.82 226.245 132.788 226.092 132.791C225.791 132.795 225.568 132.931 225.494 132.975C225.107 133.208 224.973 133.579 224.818 134.009C224.788 134.095 224.686 134.407 224.662 134.808C224.645 135.098 224.682 135.216 224.726 135.301C224.815 135.475 224.951 135.556 225.288 135.725C225.641 135.903 225.818 135.992 225.963 136.038C226.301 136.144 226.513 136.211 226.762 136.155Z" fill="#3E981E"/>
<path d="M226.762 136.155C226.778 136.152 226.794 136.148 226.81 136.143C227.135 136.052 227.396 135.786 227.586 135.355C227.675 135.152 227.696 134.938 227.738 134.512C227.744 134.446 227.773 134.113 227.737 133.673C227.714 133.385 227.683 133.269 227.605 133.178C227.518 133.077 227.401 133.019 227.277 132.99C227.273 132.952 227.261 132.915 227.236 132.879C227.134 132.733 226.964 132.793 226.871 132.824C226.825 132.841 226.766 132.862 226.701 132.873C226.598 132.891 226.537 132.873 226.444 132.846C226.355 132.82 226.245 132.788 226.092 132.791C225.791 132.795 225.568 132.931 225.494 132.975C225.107 133.208 224.973 133.579 224.818 134.009C224.788 134.095 224.686 134.407 224.662 134.808C224.645 135.098 224.682 135.216 224.726 135.301C224.815 135.475 224.951 135.556 225.288 135.725C225.641 135.903 225.818 135.992 225.963 136.038C226.301 136.144 226.513 136.211 226.762 136.155Z" fill="#3E981E"/>
<path d="M226.762 136.155C226.778 136.152 226.794 136.148 226.81 136.143C227.135 136.052 227.396 135.786 227.586 135.355C227.675 135.152 227.696 134.938 227.738 134.512C227.744 134.446 227.773 134.113 227.737 133.673C227.714 133.385 227.683 133.269 227.605 133.178C227.518 133.077 227.401 133.019 227.277 132.99C227.273 132.952 227.261 132.915 227.236 132.879C227.134 132.733 226.964 132.793 226.871 132.824C226.825 132.841 226.766 132.862 226.701 132.873C226.598 132.891 226.537 132.873 226.444 132.846C226.355 132.82 226.245 132.788 226.092 132.791C225.791 132.795 225.568 132.931 225.494 132.975C225.107 133.208 224.973 133.579 224.818 134.009C224.788 134.095 224.686 134.407 224.662 134.808C224.645 135.098 224.682 135.216 224.726 135.301C224.815 135.475 224.951 135.556 225.288 135.725C225.641 135.903 225.818 135.992 225.963 136.038C226.301 136.144 226.513 136.211 226.762 136.155Z" fill="#3E981E"/>
</svg>
