<svg width="40" height="40" viewBox="0 0 40 40" fill="none" xmlns="http://www.w3.org/2000/svg">
<path d="M9.46667 0H3.86667C1.44762 0 0 1.44762 0 3.86667V9.46667C0 11.8857 1.44762 13.3333 3.86667 13.3333H9.46667C11.8857 13.3333 13.3333 11.8857 13.3333 9.46667V3.86667C13.3333 1.44762 11.8857 0 9.46667 0ZM10.419 8.68572C10.8952 9.16191 10.8952 9.94286 10.419 10.419C10.1714 10.6476 9.84762 10.7619 9.54286 10.7619C9.2381 10.7619 8.93333 10.6476 8.68572 10.419L6.64762 8.4L4.66667 10.419C4.41905 10.6476 4.11429 10.7619 3.77143 10.7619C3.46667 10.7619 3.16191 10.6476 2.91429 10.419C2.4381 9.94286 2.4381 9.16191 2.91429 8.68572L4.95238 6.66667L2.93333 4.66667C2.45714 4.19048 2.45714 3.40952 2.93333 2.93333C3.40952 2.45714 4.19048 2.45714 4.66667 2.93333L6.64762 4.95238L8.66667 2.93333C9.14286 2.45714 9.92381 2.45714 10.4 2.93333C10.8762 3.40952 10.8762 4.19048 10.4 4.66667L8.4 6.66667L10.419 8.68572Z" fill="#292D32"/>
<path d="M39.0466 28.228C39.0466 28.5137 38.9514 28.7994 38.7038 29.0471C35.9419 31.828 31.0276 36.7804 28.2085 39.6185C27.9609 39.8852 27.6371 39.9995 27.3133 39.9995C26.6847 39.9995 26.0752 39.5042 26.0752 38.7804V32.1137C26.0752 29.3328 28.4371 27.028 31.3323 27.028C33.1419 27.009 35.6562 27.009 37.8085 27.009C38.5514 27.009 39.0466 27.5994 39.0466 28.228Z" fill="#292D32"/>
<path d="M39.0466 28.228C39.0466 28.5137 38.9514 28.7994 38.7038 29.0471C35.9419 31.828 31.0276 36.7804 28.2085 39.6185C27.9609 39.8852 27.6371 39.9995 27.3133 39.9995C26.6847 39.9995 26.0752 39.5042 26.0752 38.7804V32.1137C26.0752 29.3328 28.4371 27.028 31.3323 27.028C33.1419 27.009 35.6562 27.009 37.8085 27.009C38.5514 27.009 39.0466 27.5994 39.0466 28.228Z" fill="#292D32"/>
<path d="M29.7717 1.90479H18.0955C17.0479 1.90479 16.1908 2.76193 16.1908 3.80955V10.4762C16.1908 13.6381 13.6384 16.1905 10.4765 16.1905H4.76218C3.71456 16.1905 2.85742 17.0476 2.85742 18.0953V30.7238C2.85742 35.8476 7.0098 40 12.1336 40H21.3146C22.3622 40 23.2193 39.1429 23.2193 38.0953V32.1143C23.2193 27.7334 26.8574 24.1715 31.3336 24.1715C32.3431 24.1524 34.8003 24.1524 37.1431 24.1524C38.1908 24.1524 39.0479 23.3143 39.0479 22.2476V11.181C39.0479 6.05717 34.8955 1.90479 29.7717 1.90479ZM14.705 30.4953H9.67647C8.89552 30.4953 8.2479 29.8476 8.2479 29.0667C8.2479 28.2667 8.89552 27.6191 9.67647 27.6191H14.705C15.5241 27.6191 16.1336 28.2667 16.1336 29.0667C16.1336 29.8476 15.5241 30.4953 14.705 30.4953ZM20.0193 23.4286H9.67647C8.89552 23.4286 8.2479 22.781 8.2479 22C8.2479 21.2 8.89552 20.5524 9.67647 20.5524H20.0193C20.8003 20.5524 21.4669 21.2 21.4669 22C21.4669 22.781 20.8003 23.4286 20.0193 23.4286Z" fill="#292D32"/>
</svg>
