<svg width="60" height="51" viewBox="0 0 60 51" fill="none" xmlns="http://www.w3.org/2000/svg">
<path d="M45 0H15C6 0 0 4.5 0 15V36C0 46.5 6 51 15 51H45C54 51 60 46.5 60 36V15C60 4.5 54 0 45 0ZM14.25 37.5C14.25 38.73 13.23 39.75 12 39.75C10.77 39.75 9.75 38.73 9.75 37.5V13.5C9.75 12.27 10.77 11.25 12 11.25C13.23 11.25 14.25 12.27 14.25 13.5V37.5ZM23.25 37.5C23.25 38.73 22.23 39.75 21 39.75C19.77 39.75 18.75 38.73 18.75 37.5V34.5C18.75 33.27 19.77 32.25 21 32.25C22.23 32.25 23.25 33.27 23.25 34.5V37.5ZM23.25 25.5C23.25 26.73 22.23 27.75 21 27.75C19.77 27.75 18.75 26.73 18.75 25.5V13.5C18.75 12.27 19.77 11.25 21 11.25C22.23 11.25 23.25 12.27 23.25 13.5V25.5ZM32.25 37.5C32.25 38.73 31.23 39.75 30 39.75C28.77 39.75 27.75 38.73 27.75 37.5V13.5C27.75 12.27 28.77 11.25 30 11.25C31.23 11.25 32.25 12.27 32.25 13.5V37.5ZM41.25 37.5C41.25 38.73 40.23 39.75 39 39.75C37.77 39.75 36.75 38.73 36.75 37.5V25.5C36.75 24.27 37.77 23.25 39 23.25C40.23 23.25 41.25 24.27 41.25 25.5V37.5ZM41.25 16.5C41.25 17.73 40.23 18.75 39 18.75C37.77 18.75 36.75 17.73 36.75 16.5V13.5C36.75 12.27 37.77 11.25 39 11.25C40.23 11.25 41.25 12.27 41.25 13.5V16.5ZM50.25 37.5C50.25 38.73 49.23 39.75 48 39.75C46.77 39.75 45.75 38.73 45.75 37.5V13.5C45.75 12.27 46.77 11.25 48 11.25C49.23 11.25 50.25 12.27 50.25 13.5V37.5Z" fill="#292D32"/>
</svg>
