<svg width="124" height="159" viewBox="0 0 124 159" fill="none" xmlns="http://www.w3.org/2000/svg">
<path d="M19.2652 38.714L33.0438 94.5777C33.0438 94.5777 54.3103 103.92 81.6502 63.9425C81.6502 63.9425 99.1916 41.6448 117.992 47.9614L90.134 12.0958C90.134 12.0958 74.1231 2.839 50.8905 28.2235C50.8881 28.2231 38.7444 45.1973 19.2652 38.714Z" fill="#5D76B7"/>
<path d="M18.5578 36.0122L46.08 149.384L49.7646 148.878L22.2527 35.2656L18.5578 36.0122Z" fill="#B8B8B8"/>
<path d="M50.4995 53.4326C48.0145 50.4711 48.4008 46.0558 51.3623 43.5708L65.1511 32.0006L76.7213 45.7894C79.2063 48.7509 78.82 53.1662 75.8585 55.6512L62.0697 67.2214L50.4995 53.4326Z" fill="white"/>
<path d="M55.4605 51.0469L60.7301 57.1427L62.1474 56.8041L56.9686 50.6322L59.2543 44.6928L65.5457 43.4351L69.7726 48.4725L67.5176 54.5407L64.235 55.0524L60.1224 50.1512L61.2345 47.0527L64.5698 46.4194L66.7784 49.0515L65.5756 52.2262L65.2798 52.2424L63.1473 49.701L63.6872 47.856L62.1864 48.1872L61.5704 49.9415L64.7691 53.7536L66.6418 53.4969L68.3245 48.6822L65.1639 44.9155L60.1682 45.782L58.5382 50.4752L63.717 56.6471L68.5839 55.8114L71.3949 48.1939L66.216 42.022L58.2261 43.4675L55.4605 51.0469Z" fill="#5569CD"/>
</svg>
