<svg width="31" height="31" viewBox="0 0 31 31" fill="none" xmlns="http://www.w3.org/2000/svg">
<path d="M23.885 29.3727C23.4553 29.3727 23.0256 29.2623 22.6376 29.0278L17.0797 25.7442C16.4976 25.7304 15.9155 25.6892 15.3611 25.6064C14.9869 25.5512 14.6681 25.3028 14.5295 24.9441C14.3909 24.5854 14.4602 24.1991 14.7097 23.9094C15.6244 22.8471 16.0957 21.5778 16.0957 20.2258C16.0957 16.8872 13.1435 14.1694 9.51219 14.1694C8.15392 14.1694 6.85107 14.5421 5.75614 15.2594C5.45122 15.4526 5.077 15.4802 4.74436 15.3284C4.42559 15.1767 4.18998 14.873 4.1484 14.5143C4.10682 14.128 4.0791 13.7419 4.0791 13.3418C4.0791 6.49896 10.0389 0.939209 17.3569 0.939209C24.675 0.939209 30.6347 6.49896 30.6347 13.3418C30.6347 17.0943 28.8884 20.5431 25.8115 22.9023L26.2827 26.6549C26.3936 27.593 25.9778 28.476 25.1878 28.9864C24.7997 29.2347 24.3423 29.3727 23.885 29.3727ZM17.3431 23.661C17.5371 23.6472 17.7312 23.7026 17.8975 23.8129L23.7048 27.2481C23.8572 27.3447 23.982 27.3033 24.0651 27.2481C24.1344 27.2067 24.2453 27.0964 24.2176 26.9032L23.6771 22.5436C23.6355 22.1573 23.8018 21.7849 24.1067 21.5642C26.9341 19.5914 28.5558 16.5837 28.5558 13.3141C28.5558 7.6164 23.5385 2.98098 17.3569 2.98098C11.411 2.98098 6.53229 7.28537 6.17194 12.6934C7.21143 12.2933 8.3341 12.0725 9.49833 12.0725C14.28 12.0725 18.1608 15.7146 18.1608 20.1982C18.1747 21.4123 17.8836 22.5849 17.3431 23.661Z" fill="white"/>
<path d="M5.46478 30.5865C5.10442 30.5865 4.75792 30.4899 4.43914 30.283C3.81544 29.8829 3.48282 29.1931 3.56598 28.4619L3.84316 26.3373C1.97208 24.8198 0.863281 22.571 0.863281 20.2119C0.863281 17.5217 2.27701 15.0109 4.64705 13.5071C6.07463 12.5828 7.76552 12.0862 9.52573 12.0862C14.3074 12.0862 18.1882 15.7283 18.1882 20.2119C18.1882 22.033 17.5229 23.8265 16.3033 25.2475C14.7371 27.1375 12.3947 28.2412 9.81679 28.324L6.43497 30.3244C6.13005 30.5037 5.79741 30.5865 5.46478 30.5865ZM9.51187 14.1555C8.1536 14.1555 6.85075 14.528 5.75582 15.2454C3.98175 16.3767 2.92841 18.2253 2.92841 20.2119C2.92841 22.1296 3.8709 23.8817 5.53409 25.0129C5.85287 25.2337 6.01917 25.6062 5.97759 25.9924L5.67267 28.3515L8.9852 26.3925C9.15152 26.2959 9.33169 26.2408 9.51187 26.2408C11.5493 26.2408 13.4759 25.3716 14.6955 23.8955C15.6103 22.8194 16.0954 21.5501 16.0954 20.1981C16.0954 16.8733 13.1432 14.1555 9.51187 14.1555Z" fill="white"/>
</svg>
