<svg width="200" height="135" viewBox="0 0 200 135" fill="none" xmlns="http://www.w3.org/2000/svg">
<path d="M199.999 86.3405C200.01 93.469 198.436 100.464 195.448 106.561C195.448 114.018 192.636 120.777 188.074 125.703C186.933 126.937 185.703 128.04 184.401 129.001C184.349 129.042 184.295 129.08 184.241 129.119C184.143 129.19 184.046 129.261 183.946 129.335L183.854 129.401C179.536 132.376 174.669 133.921 169.726 133.886H38.5047C29.4562 133.886 21.265 129.992 15.3303 123.698C9.3955 117.404 5.73812 108.694 5.73812 99.0873C2.41484 92.7615 0.651887 85.3773 0.664126 77.8347C0.664126 56.4808 14.4712 39.1698 31.5054 39.1698C32.1082 39.1698 32.7059 39.1957 33.3001 39.2366C43.9882 16.7067 68.0966 0.996094 96.1046 0.996094C113.323 0.996094 129.063 6.93011 141.119 16.7347C145.686 13.5435 150.844 11.87 156.09 11.8776C173.121 11.8776 186.931 29.1886 186.931 50.5425C186.929 51.8936 186.87 53.2437 186.757 54.5875C190.862 58.1798 194.208 62.9399 196.513 68.4662C198.818 73.9925 200.014 80.123 199.999 86.3405Z" fill="#CFDCE2"/>
<path d="M150.207 86.7289V71.1856C150.207 69.6358 151.468 68.375 153.018 68.375H163.186C164.736 68.375 165.996 69.6358 165.996 71.1856V86.7289C165.996 88.2787 164.736 89.5395 163.186 89.5395H153.018C151.468 89.5395 150.207 88.2787 150.207 86.7289Z" fill="#073E58"/>
<path d="M155.414 75.0938H160.789V73.75H155.414V75.0938Z" fill="#3F3D56"/>
<path d="M156.758 72.7422H159.445V68.3749H156.758V72.7422Z" fill="#3F3D56"/>
<path d="M156.758 89.54H159.445V85.1728H156.758V89.54Z" fill="#3F3D56"/>
<path d="M142.985 87.3568H127.441C125.892 87.3568 124.631 86.096 124.631 84.5462V74.378C124.631 72.8282 125.892 71.5674 127.441 71.5674H142.985C144.535 71.5674 145.795 72.8282 145.795 74.378V84.5462C145.795 86.096 144.535 87.3568 142.985 87.3568Z" fill="#073E58"/>
<path d="M138.236 73.751H132.861V75.0948H138.236V73.751Z" fill="#3F3D56"/>
<path d="M128.998 80.8057V78.1182H124.631V80.8057H128.998Z" fill="#3F3D56"/>
<path d="M145.795 80.8057V78.1182H141.428V80.8057H145.795Z" fill="#3F3D56"/>
<path d="M16.8999 116.423L14.3051 101.286C13.152 94.5604 18.1301 88.3365 24.945 87.9835L61.9364 86.0676L70.7648 71.5171C71.9352 69.5881 74.0277 68.4102 76.284 68.4102H102.863C104.953 68.4102 106.718 69.9595 106.989 72.0311L107.664 83.6737L173.929 83.8721L182.265 111.344L174.528 110.967L174.924 119.299L164.806 119.696L161.433 110.159C160.798 108.363 158.015 106.338 155.122 104.644C148.637 100.846 140.305 102.065 135.398 107.757C134.24 109.099 133.43 110.498 133.204 111.81L131.674 120.688L57.4724 119.498L47.7476 105.894C44.8745 102.768 31.3116 101.619 30.0901 105.894L22.7526 116.72L16.8999 116.423Z" fill="#E6E6E6"/>
<path d="M97.5488 77.2636L99.7319 87.5553L71.9561 88.1505L77.8224 75.5551C78.3546 74.4125 79.5228 73.7031 80.7821 73.7578L94.092 74.3365C95.7769 74.4098 97.1988 75.6138 97.5488 77.2636Z" fill="white"/>
<path d="M68.1856 87.3563L73.7407 73.0716L72.2863 71.6172L63.2256 85.3723L65.0666 88.1499L68.1856 87.3563Z" fill="white"/>
<path d="M147.745 133.782C154.976 133.782 160.839 127.92 160.839 120.688C160.839 113.456 154.976 107.594 147.745 107.594C140.513 107.594 134.65 113.456 134.65 120.688C134.65 127.92 140.513 133.782 147.745 133.782Z" fill="#3F3D56"/>
<path d="M138.717 120.688C138.717 115.711 142.766 111.661 147.744 111.661C152.722 111.661 156.771 115.711 156.771 120.688C156.771 125.666 152.722 129.715 147.744 129.715C142.766 129.715 138.717 125.666 138.717 120.688ZM138.915 120.688C138.915 125.556 142.876 129.517 147.744 129.517C152.612 129.517 156.573 125.556 156.573 120.688C156.573 115.82 152.612 111.86 147.744 111.86C142.876 111.86 138.915 115.82 138.915 120.688Z" fill="white"/>
<path d="M140.006 120.689C140.006 124.962 143.47 128.426 147.743 128.426C152.017 128.426 155.481 124.962 155.481 120.689C155.481 116.415 152.017 112.951 147.743 112.951C143.47 112.951 140.006 116.415 140.006 120.689ZM152.773 118.836L151.402 119.729L150.875 118.921L152.773 118.836ZM150.686 123.38L151.051 122.487L152.201 123.999L150.686 123.38ZM147.176 126.442L148.14 124.806V126.442H147.176ZM147.176 116.968L148.14 115.332V116.968H147.176ZM142.889 123.999L144.039 122.487L144.404 123.38L142.889 123.999ZM142.317 118.836L144.215 118.921L143.688 119.729L142.317 118.836Z" fill="#E6E6E6"/>
<path d="M37.8306 133.782C45.0624 133.782 50.925 127.92 50.925 120.688C50.925 113.456 45.0624 107.594 37.8306 107.594C30.5989 107.594 24.7363 113.456 24.7363 120.688C24.7363 127.92 30.5989 133.782 37.8306 133.782Z" fill="#3F3D56"/>
<path d="M28.8037 120.688C28.8037 115.711 32.8533 111.661 37.8309 111.661C42.8085 111.661 46.858 115.711 46.858 120.688C46.858 125.666 42.8085 129.715 37.8309 129.715C32.8533 129.715 28.8037 125.666 28.8037 120.688ZM29.0021 120.688C29.0021 125.556 32.9626 129.517 37.8309 129.517C42.6991 129.517 46.6596 125.556 46.6596 120.688C46.6596 115.82 42.6991 111.86 37.8309 111.86C32.9626 111.86 29.0021 115.82 29.0021 120.688Z" fill="white"/>
<path d="M30.0938 120.689C30.0938 124.962 33.558 128.426 37.8313 128.426C42.1046 128.426 45.5689 124.962 45.5689 120.689C45.5689 116.415 42.1046 112.951 37.8313 112.951C33.558 112.951 30.0938 116.415 30.0938 120.689ZM42.861 118.836L41.49 119.729L40.9633 118.921L42.861 118.836ZM40.7739 123.38L41.139 122.487L42.2885 123.999L40.7739 123.38ZM37.2634 126.442L38.2281 124.806V126.442H37.2634ZM37.2634 116.968L38.2281 115.332V116.968H37.2634ZM32.9773 123.999L34.1268 122.487L34.4919 123.38L32.9773 123.999ZM32.4048 118.836L34.3025 118.921L33.7758 119.729L32.4048 118.836Z" fill="#E6E6E6"/>
<path d="M92.4901 92.8135H100.029V91.2263H92.4901V92.8135Z" fill="#3F3D56"/>
<path d="M198.753 123.97C198.682 123.755 198.15 123.85 198.099 123.657C198.048 123.466 198.559 123.305 198.951 122.765C199.021 122.668 199.467 122.054 199.296 121.796C198.972 121.306 196.719 122.525 196.178 121.841C196.06 121.691 196.011 121.434 195.657 120.954C195.517 120.763 195.426 120.671 195.318 120.674C195.165 120.678 195.111 120.869 194.87 121.216C194.51 121.736 194.38 121.671 194.142 122.097C193.966 122.413 193.945 122.615 193.818 122.627C193.638 122.644 193.563 122.25 193.343 122.235C193.119 122.219 192.894 122.608 192.783 122.912C192.574 123.482 192.704 123.918 192.732 124.353C192.763 124.825 192.69 125.516 192.177 126.404L187.338 134.114C188.377 132.542 191.327 128.256 192.516 126.684C192.859 126.23 193.228 125.774 193.795 125.688C194.342 125.606 195.007 125.876 195.934 125.86C196.043 125.859 196.344 125.85 196.418 125.69C196.479 125.558 196.328 125.443 196.383 125.318C196.456 125.152 196.787 125.223 197.237 125.113C197.555 125.035 197.771 124.906 197.957 124.795C198.012 124.761 198.846 124.256 198.753 123.97Z" fill="#F2F2F2"/>
<path d="M186.077 125.77C185.952 125.743 185.844 126.031 185.735 126.001C185.626 125.971 185.695 125.673 185.543 125.325C185.516 125.262 185.343 124.867 185.167 124.876C184.833 124.894 184.781 126.351 184.29 126.419C184.182 126.434 184.041 126.384 183.704 126.419C183.57 126.433 183.499 126.451 183.469 126.505C183.426 126.581 183.505 126.663 183.605 126.881C183.757 127.208 183.687 127.253 183.828 127.493C183.932 127.67 184.025 127.739 183.994 127.805C183.951 127.898 183.736 127.821 183.665 127.924C183.592 128.03 183.719 128.252 183.836 128.395C184.055 128.662 184.307 128.724 184.528 128.835C184.769 128.956 185.087 129.192 185.375 129.7L187.762 134.299C187.291 133.336 186.038 130.651 185.61 129.614C185.486 129.315 185.369 129.002 185.49 128.699C185.608 128.407 185.932 128.159 186.192 127.699C186.222 127.645 186.305 127.494 186.248 127.412C186.2 127.344 186.101 127.385 186.055 127.322C185.995 127.238 186.125 127.097 186.201 126.844C186.254 126.665 186.253 126.522 186.252 126.399C186.252 126.362 186.245 125.807 186.077 125.77Z" fill="#F2F2F2"/>
<path d="M188.459 126.893L188.534 126.2L188.58 126.156C188.793 125.955 188.926 125.742 188.976 125.522C188.984 125.487 188.99 125.452 188.997 125.416C189.022 125.273 189.053 125.096 189.19 124.912C189.266 124.81 189.469 124.578 189.678 124.659C189.735 124.68 189.773 124.717 189.799 124.756C189.806 124.749 189.813 124.742 189.82 124.735C189.91 124.647 189.973 124.615 190.034 124.584C190.081 124.56 190.129 124.536 190.211 124.47C190.247 124.442 190.276 124.416 190.3 124.394C190.373 124.329 190.467 124.252 190.596 124.282C190.732 124.32 190.779 124.45 190.81 124.536C190.865 124.689 190.882 124.795 190.894 124.865C190.898 124.89 190.902 124.919 190.906 124.929C190.936 125.004 191.31 125.023 191.451 125.031C191.768 125.048 192.042 125.063 192.108 125.28C192.155 125.435 192.057 125.605 191.807 125.797C191.729 125.856 191.651 125.898 191.583 125.928C191.625 125.968 191.658 126.021 191.66 126.095C191.664 126.268 191.487 126.4 191.132 126.49C191.044 126.512 190.926 126.542 190.771 126.535C190.698 126.531 190.634 126.52 190.579 126.509C190.571 126.541 190.556 126.573 190.529 126.604C190.45 126.694 190.323 126.717 190.15 126.666C189.959 126.613 189.808 126.54 189.675 126.477C189.558 126.421 189.458 126.374 189.374 126.361C189.217 126.339 189.071 126.436 188.897 126.564L188.459 126.893Z" fill="#F2F2F2"/>
<path d="M189.71 122.946L189.02 123.049L188.966 123.016C188.718 122.861 188.478 122.786 188.253 122.793C188.217 122.795 188.181 122.798 188.145 122.801C188.001 122.813 187.822 122.828 187.609 122.742C187.49 122.694 187.215 122.556 187.24 122.333C187.246 122.273 187.272 122.227 187.303 122.192C187.294 122.187 187.286 122.182 187.277 122.177C187.169 122.112 187.122 122.059 187.077 122.008C187.042 121.969 187.006 121.928 186.922 121.866C186.885 121.838 186.853 121.817 186.826 121.799C186.744 121.745 186.646 121.673 186.643 121.541C186.644 121.4 186.758 121.322 186.833 121.27C186.968 121.178 187.066 121.134 187.131 121.106C187.154 121.095 187.181 121.083 187.189 121.077C187.254 121.03 187.178 120.662 187.15 120.524C187.086 120.213 187.031 119.944 187.224 119.826C187.362 119.74 187.551 119.793 187.8 119.986C187.878 120.046 187.938 120.111 187.985 120.169C188.012 120.119 188.056 120.073 188.126 120.052C188.292 120.004 188.465 120.142 188.642 120.462C188.686 120.542 188.745 120.649 188.777 120.801C188.792 120.873 188.798 120.937 188.801 120.993C188.833 120.993 188.868 120.999 188.905 121.017C189.012 121.071 189.067 121.188 189.061 121.368C189.058 121.567 189.027 121.731 188.999 121.876C188.975 122.002 188.954 122.111 188.963 122.196C188.982 122.353 189.112 122.47 189.281 122.606L189.71 122.946Z" fill="#F2F2F2"/>
<path d="M189.803 120.875L189.878 120.182L189.924 120.139C190.137 119.937 190.27 119.724 190.32 119.505C190.328 119.47 190.334 119.434 190.34 119.398C190.365 119.256 190.396 119.079 190.533 118.895C190.61 118.792 190.813 118.561 191.022 118.642C191.078 118.663 191.116 118.699 191.143 118.738C191.15 118.731 191.156 118.725 191.164 118.717C191.254 118.63 191.317 118.597 191.378 118.566C191.425 118.543 191.473 118.518 191.555 118.453C191.591 118.424 191.62 118.398 191.644 118.377C191.717 118.311 191.811 118.234 191.94 118.265C192.076 118.302 192.123 118.432 192.154 118.518C192.209 118.672 192.226 118.777 192.237 118.847C192.241 118.873 192.246 118.902 192.25 118.911C192.28 118.986 192.654 119.006 192.795 119.014C193.112 119.031 193.386 119.046 193.452 119.263C193.499 119.418 193.4 119.587 193.15 119.779C193.072 119.839 192.994 119.88 192.927 119.911C192.968 119.95 193.002 120.004 193.004 120.077C193.008 120.25 192.831 120.383 192.476 120.472C192.388 120.495 192.269 120.525 192.114 120.517C192.041 120.514 191.977 120.502 191.923 120.492C191.915 120.523 191.9 120.555 191.873 120.586C191.794 120.676 191.666 120.699 191.493 120.648C191.302 120.595 191.152 120.523 191.018 120.459C190.902 120.404 190.802 120.356 190.718 120.343C190.561 120.321 190.415 120.418 190.24 120.547L189.803 120.875Z" fill="#F2F2F2"/>
<path d="M187.567 134.153L187.445 134.033L187.276 134.015C187.277 133.999 187.276 133.961 187.275 133.903C187.268 133.585 187.248 132.614 187.383 131.124C187.477 130.083 187.635 129.027 187.851 127.983C188.068 126.939 188.294 126.161 188.474 125.536C188.611 125.065 188.749 124.618 188.883 124.183C189.242 123.019 189.581 121.921 189.79 120.667C189.837 120.387 189.935 119.805 189.735 119.118C189.619 118.719 189.421 118.344 189.146 118.002L189.412 117.787C189.716 118.164 189.936 118.58 190.064 119.022C190.286 119.784 190.179 120.419 190.128 120.724C189.915 122 189.573 123.109 189.21 124.283C189.076 124.717 188.939 125.162 188.803 125.632C188.624 126.251 188.401 127.021 188.187 128.053C187.973 129.083 187.817 130.127 187.724 131.154C187.591 132.626 187.611 133.582 187.617 133.896C187.621 134.064 187.621 134.099 187.567 134.153Z" fill="#F2F2F2"/>
<path d="M188.413 118.397C188.399 118.394 188.385 118.391 188.371 118.386C188.09 118.308 187.864 118.078 187.701 117.705C187.624 117.53 187.606 117.345 187.57 116.977C187.564 116.92 187.539 116.633 187.57 116.252C187.59 116.003 187.617 115.904 187.684 115.825C187.759 115.738 187.861 115.688 187.968 115.662C187.971 115.63 187.981 115.597 188.003 115.567C188.091 115.44 188.238 115.492 188.318 115.519C188.358 115.534 188.409 115.552 188.465 115.562C188.554 115.577 188.607 115.561 188.687 115.538C188.764 115.516 188.859 115.488 188.991 115.491C189.252 115.494 189.444 115.611 189.508 115.65C189.843 115.851 189.958 116.172 190.092 116.543C190.118 116.617 190.207 116.887 190.227 117.233C190.242 117.483 190.209 117.586 190.172 117.659C190.095 117.809 189.977 117.879 189.686 118.026C189.381 118.18 189.228 118.256 189.103 118.296C188.811 118.388 188.628 118.445 188.413 118.397Z" fill="#F2F2F2"/>
<path d="M0 133.855C0 133.986 0.183574 134.091 0.412175 134.091H197.178C197.407 134.091 197.59 133.986 197.59 133.855C197.59 133.724 197.407 133.619 197.178 133.619H0.412175C0.183574 133.619 0 133.724 0 133.855Z" fill="#CCCCCC"/>
<path d="M99.982 132.365L102.737 132.365L104.047 121.739L99.9814 121.74L99.982 132.365Z" fill="#FFB6B6"/>
<path d="M109.42 132.303C109.506 132.448 109.551 132.914 109.551 133.082C109.551 133.598 109.132 134.017 108.616 134.017L100.085 134.017C99.7328 134.017 99.4472 133.731 99.4472 133.379V133.024C99.4472 133.024 99.0252 131.956 99.894 130.641C99.894 130.641 100.974 131.671 102.588 130.057L103.063 129.195L106.508 131.714L108.417 131.949C108.835 132.001 109.205 131.941 109.42 132.303Z" fill="#2F2E41"/>
<path d="M87.605 132.365L90.3597 132.365L91.6702 121.739L87.6045 121.74L87.605 132.365Z" fill="#FFB6B6"/>
<path d="M97.043 132.303C97.1288 132.448 97.174 132.914 97.174 133.082C97.174 133.598 96.7554 134.017 96.2391 134.017L87.7081 134.017C87.3558 134.017 87.0702 133.731 87.0702 133.379V133.024C87.0702 133.024 86.6482 131.956 87.5171 130.641C87.5171 130.641 88.597 131.671 90.2106 130.057L90.6864 129.195L94.1309 131.714L96.0401 131.949C96.4578 132.001 96.8281 131.941 97.043 132.303Z" fill="#2F2E41"/>
<path d="M99.545 59.813L100.068 64.6939L93.9668 64.171L95.0127 59.6387L99.545 59.813Z" fill="#FFB6B6"/>
<path opacity="0.1" d="M99.545 59.813L100.068 64.6939L93.9668 64.171L95.0127 59.6387L99.545 59.813Z" fill="black"/>
<path d="M97.3667 60.422C99.581 60.422 101.376 58.6269 101.376 56.4126C101.376 54.1984 99.581 52.4033 97.3667 52.4033C95.1525 52.4033 93.3574 54.1984 93.3574 56.4126C93.3574 58.6269 95.1525 60.422 97.3667 60.422Z" fill="#FFB6B6"/>
<path d="M99.9812 62.6885L106.693 66.6107L104.494 77.2441L105.995 91.5382L104.949 126.576L98.4995 125.879L97.6279 96.0705L92.5727 126.925H86.3096L87.3431 93.63L90.4809 79.5102L88.5634 64.1702L94.403 62.3398L99.9812 62.6885Z" fill="#2F2E41"/>
<path d="M100.243 57.5465C100.243 57.5465 100.592 56.3263 101.376 56.4135C102.16 56.5006 102.335 55.8034 102.16 55.4547C101.986 55.1061 101.637 53.3629 101.637 53.3629C101.637 53.3629 101.812 52.1427 100.766 51.9683C99.7199 51.794 99.3713 51.6197 99.197 51.2711C99.0226 50.9224 96.4079 50.5738 95.5363 51.0968C94.6647 51.6197 93.9674 52.6231 93.3573 52.9058C92.7472 53.1886 92.2242 53.7115 92.5728 54.5831C92.9215 55.4547 93.4271 57.1594 93.4271 57.1594C93.4271 57.1594 94.316 56.8493 94.4903 57.3722C94.6647 57.8952 93.9674 57.1979 94.839 55.8034C95.7106 54.4088 95.7106 53.0143 97.1051 53.5372C98.4997 54.0602 100.069 53.8859 99.8942 54.9318C99.7199 55.9777 100.243 57.5465 100.243 57.5465Z" fill="#2F2E41"/>
<path d="M103.232 88.4115C102.393 89.2999 102.171 90.453 102.737 90.9869C103.302 91.5208 104.441 91.2333 105.28 90.3444C105.62 89.994 105.871 89.5671 106.013 89.0997L109.52 85.2905L107.698 83.6826L104.433 87.6085C103.975 87.7764 103.563 88.0517 103.232 88.4115Z" fill="#FFB6B6"/>
<path d="M106.621 66.5234L112.528 76.5869L113.403 81.181L107.715 88.4004L105.309 85.3377L108.153 81.181L103.559 73.0865L106.621 66.5234Z" fill="#2F2E41"/>
<path d="M90.0146 87.4741V75.6088C90.0146 73.8003 91.4859 72.3291 93.2943 72.3291H111.432C113.24 72.3291 114.712 73.8003 114.712 75.6088V87.4741C114.712 89.2825 113.24 90.7537 111.432 90.7537H93.2943C91.4859 90.7537 90.0146 89.2825 90.0146 87.4741Z" fill="#073E58"/>
<path d="M98.8352 79.8184H105.107V78.2503H98.8352V79.8184Z" fill="#3F3D56"/>
<path d="M104.594 90.6488V87.5127H99.4976V90.6488H104.594Z" fill="#3F3D56"/>
<path d="M104.832 75.5707V72.4346H99.7359V75.5707H104.832Z" fill="#3F3D56"/>
<path d="M91.8496 86.1449C92.6887 87.0333 92.9104 88.1864 92.3449 88.7203C91.7794 89.2542 90.641 88.9667 89.8018 88.0778C89.4617 87.7274 89.2105 87.3005 89.0691 86.8331L85.5615 83.0239L87.3841 81.416L90.6485 85.3419C91.1073 85.5098 91.5191 85.7851 91.8496 86.1449Z" fill="#FFB6B6"/>
<path d="M88.4596 64.2578L82.5528 74.3212L81.6777 78.9154L87.3658 86.1348L89.7722 83.072L86.9282 78.9154L91.5224 70.8209L88.4596 64.2578Z" fill="#2F2E41"/>
<path d="M15.012 112.243C17.9705 112.243 20.3688 110.155 20.3688 107.58C20.3688 105.005 17.9705 102.918 15.012 102.918C12.0536 102.918 9.65527 105.005 9.65527 107.58C9.65527 110.155 12.0536 112.243 15.012 112.243Z" fill="#E6E6E6"/>
</svg>
