<svg width="497" height="509" viewBox="0 0 497 509" fill="none" xmlns="http://www.w3.org/2000/svg">
<circle cx="152" cy="484" r="25" fill="black"/>
<path d="M155.25 495.421V491.684H150.25V479.228H147.75V482.965H139V473H147.75V476.737H155.25V473H164V482.965H155.25V479.228H152.75V489.193H155.25V485.456H164V495.421H155.25ZM157.75 480.474H161.5V475.491H157.75V480.474ZM157.75 492.93H161.5V487.948H157.75V492.93ZM141.5 480.474H145.25V475.491H141.5V480.474Z" fill="white"/>
<path d="M195.813 484.236V487.166H188.465V484.236H195.813ZM198.499 477.522L209.119 484.017V485.262L198.499 492V488.631L205.237 484.603L198.499 480.892V477.522ZM224.939 475.325C225.883 475.325 226.746 475.455 227.527 475.716C228.309 475.976 228.968 476.277 229.505 476.619V479.964C228.919 479.606 228.292 479.272 227.625 478.963C226.958 478.654 226.201 478.499 225.354 478.499C224.931 478.499 224.508 478.564 224.085 478.694C223.678 478.825 223.336 479.02 223.06 479.28C222.799 479.541 222.669 479.874 222.669 480.281C222.669 480.818 222.905 481.225 223.377 481.502C223.849 481.779 224.427 482.055 225.11 482.332L227.112 483.162C228.252 483.65 229.09 484.244 229.627 484.944C230.164 485.644 230.433 486.442 230.433 487.337C230.433 488.313 230.148 489.176 229.578 489.925C229.025 490.657 228.276 491.235 227.332 491.658C226.404 492.081 225.371 492.293 224.231 492.293C223.271 492.293 222.352 492.13 221.473 491.805C220.594 491.479 219.829 491.08 219.178 490.608V487.264C219.894 487.785 220.683 488.224 221.546 488.582C222.409 488.94 223.328 489.119 224.305 489.119C224.988 489.119 225.574 488.989 226.062 488.729C226.551 488.452 226.795 488.045 226.795 487.508C226.795 487.085 226.591 486.743 226.185 486.482C225.794 486.206 225.363 485.978 224.891 485.799L222.376 484.822C221.106 484.334 220.244 483.699 219.788 482.918C219.349 482.12 219.129 481.242 219.129 480.281C219.129 479.288 219.397 478.426 219.935 477.693C220.488 476.945 221.204 476.367 222.083 475.96C222.962 475.537 223.914 475.325 224.939 475.325ZM240.149 479.354C241.403 479.354 242.452 479.777 243.299 480.623C244.145 481.469 244.568 482.739 244.568 484.432V492H241.468L241.443 484.847C241.443 484.017 241.24 483.398 240.833 482.991C240.442 482.584 239.897 482.381 239.197 482.381C238.644 482.381 238.123 482.56 237.635 482.918C237.163 483.276 236.756 483.699 236.414 484.188V492H233.313V474.422H236.414V481.429C236.788 480.924 237.293 480.452 237.928 480.013C238.579 479.573 239.319 479.354 240.149 479.354ZM253.87 479.354C255.075 479.354 256.173 479.646 257.166 480.232C258.159 480.802 258.956 481.583 259.559 482.576C260.177 483.553 260.486 484.651 260.486 485.872C260.486 487.093 260.177 488.191 259.559 489.168C258.956 490.145 258.159 490.926 257.166 491.512C256.173 492.081 255.075 492.366 253.87 492.366C252.682 492.366 251.583 492.081 250.574 491.512C249.581 490.926 248.784 490.145 248.182 489.168C247.579 488.191 247.278 487.093 247.278 485.872C247.278 484.651 247.579 483.553 248.182 482.576C248.784 481.583 249.581 480.802 250.574 480.232C251.583 479.646 252.682 479.354 253.87 479.354ZM253.87 482.356C253.284 482.356 252.739 482.495 252.234 482.771C251.73 483.048 251.323 483.447 251.014 483.968C250.721 484.489 250.574 485.123 250.574 485.872C250.574 486.621 250.721 487.256 251.014 487.776C251.323 488.297 251.73 488.696 252.234 488.973C252.739 489.233 253.284 489.363 253.87 489.363C254.456 489.363 255.001 489.233 255.506 488.973C256.01 488.696 256.417 488.297 256.727 487.776C257.036 487.256 257.19 486.621 257.19 485.872C257.19 485.123 257.036 484.489 256.727 483.968C256.417 483.447 256.01 483.048 255.506 482.771C255.001 482.495 254.456 482.356 253.87 482.356ZM280.311 479.671L276.038 492H273.792L270.911 484.017L268.03 492H265.76L261.512 479.671H264.881L267.151 486.971L269.812 479.671H272.034L274.671 486.971L276.941 479.671H280.311ZM301.502 474.422V492H298.401V489.925C298.043 490.592 297.522 491.17 296.839 491.658C296.155 492.13 295.358 492.366 294.446 492.366C293.453 492.366 292.534 492.114 291.688 491.609C290.857 491.105 290.19 490.372 289.686 489.412C289.181 488.452 288.929 487.288 288.929 485.921C288.929 484.554 289.181 483.382 289.686 482.405C290.206 481.429 290.898 480.68 291.761 480.159C292.64 479.622 293.608 479.354 294.666 479.354C295.333 479.354 296.009 479.508 296.692 479.817C297.376 480.127 297.946 480.542 298.401 481.062V474.422H301.502ZM295.301 482.405C294.65 482.405 294.088 482.576 293.616 482.918C293.16 483.243 292.802 483.675 292.542 484.212C292.282 484.733 292.151 485.302 292.151 485.921C292.151 486.849 292.428 487.638 292.981 488.289C293.551 488.94 294.3 489.266 295.228 489.266C295.781 489.266 296.294 489.119 296.766 488.826C297.254 488.533 297.645 488.126 297.938 487.605C298.247 487.068 298.401 486.425 298.401 485.677V483.919C297.962 483.447 297.482 483.081 296.961 482.82C296.456 482.544 295.903 482.405 295.301 482.405ZM310.706 479.354C311.91 479.354 312.944 479.614 313.807 480.135C314.686 480.656 315.353 481.38 315.809 482.308C316.281 483.219 316.517 484.277 316.517 485.481V486.8H307.581C307.744 487.63 308.151 488.297 308.802 488.802C309.453 489.306 310.25 489.559 311.194 489.559C312.09 489.559 312.903 489.38 313.636 489.021C314.368 488.663 314.954 488.297 315.394 487.923L315.369 490.804C314.979 491.146 314.393 491.495 313.611 491.854C312.846 492.195 312 492.366 311.072 492.366C309.852 492.366 308.737 492.09 307.728 491.536C306.735 490.983 305.937 490.226 305.335 489.266C304.749 488.305 304.456 487.207 304.456 485.97C304.456 484.765 304.725 483.667 305.262 482.674C305.799 481.681 306.539 480.883 307.483 480.281C308.427 479.663 309.502 479.354 310.706 479.354ZM310.633 482.063C309.868 482.063 309.225 482.299 308.704 482.771C308.183 483.243 307.825 483.878 307.63 484.676H313.538C313.473 483.797 313.147 483.146 312.562 482.723C311.976 482.283 311.333 482.063 310.633 482.063ZM323.816 476.082V479.671H327.234V482.259H323.816V487.581C323.816 488.134 323.938 488.574 324.183 488.899C324.443 489.209 324.826 489.363 325.33 489.363C325.77 489.363 326.144 489.314 326.453 489.217C326.779 489.119 327.08 488.981 327.356 488.802V491.268C327.047 491.577 326.657 491.837 326.185 492.049C325.729 492.26 325.151 492.366 324.451 492.366C323.344 492.366 322.441 492.016 321.741 491.316C321.058 490.6 320.716 489.624 320.716 488.387V482.259H318.494V480.672C319.275 480.395 319.992 479.874 320.643 479.109C321.31 478.344 321.839 477.335 322.229 476.082H323.816ZM335.291 479.354C335.958 479.354 336.634 479.508 337.317 479.817C338.001 480.127 338.571 480.542 339.026 481.062V479.671H342.127V492H339.026V489.925C338.668 490.592 338.147 491.17 337.464 491.658C336.78 492.13 335.983 492.366 335.071 492.366C334.078 492.366 333.159 492.114 332.312 491.609C331.482 491.105 330.815 490.372 330.311 489.412C329.806 488.452 329.554 487.288 329.554 485.921C329.554 484.554 329.806 483.382 330.311 482.405C330.831 481.429 331.523 480.68 332.386 480.159C333.265 479.622 334.233 479.354 335.291 479.354ZM335.926 482.381C335.275 482.381 334.713 482.552 334.241 482.894C333.785 483.219 333.427 483.65 333.167 484.188C332.907 484.725 332.776 485.302 332.776 485.921C332.776 486.849 333.053 487.638 333.606 488.289C334.176 488.94 334.925 489.266 335.853 489.266C336.406 489.266 336.919 489.119 337.391 488.826C337.879 488.533 338.27 488.126 338.562 487.605C338.872 487.068 339.026 486.425 339.026 485.677V483.919C338.587 483.447 338.107 483.073 337.586 482.796C337.081 482.519 336.528 482.381 335.926 482.381ZM348.523 473.25C349.109 473.25 349.614 473.462 350.037 473.885C350.46 474.292 350.672 474.78 350.672 475.35C350.672 475.903 350.46 476.391 350.037 476.814C349.614 477.238 349.109 477.449 348.523 477.449C347.938 477.449 347.433 477.238 347.01 476.814C346.603 476.391 346.399 475.903 346.399 475.35C346.399 474.78 346.603 474.292 347.01 473.885C347.433 473.462 347.938 473.25 348.523 473.25ZM350.33 479.671V492H347.229V482.308H345.252V479.671H350.33ZM357.337 474.422V492H354.236V474.422H357.337ZM365.101 479.354C365.866 479.354 366.574 479.467 367.225 479.695C367.876 479.923 368.38 480.184 368.738 480.477V483.211C368.348 482.951 367.868 482.698 367.298 482.454C366.744 482.21 366.167 482.088 365.564 482.088C364.979 482.088 364.515 482.218 364.173 482.479C363.831 482.739 363.66 483.048 363.66 483.406C363.66 483.667 363.758 483.911 363.953 484.139C364.148 484.35 364.523 484.537 365.076 484.7L366.468 485.164C368.34 485.717 369.275 486.8 369.275 488.411C369.275 489.176 369.056 489.86 368.616 490.462C368.193 491.048 367.615 491.512 366.883 491.854C366.167 492.195 365.369 492.366 364.49 492.366C363.66 492.366 362.854 492.236 362.073 491.976C361.292 491.715 360.698 491.43 360.291 491.121V488.411C360.6 488.623 360.975 488.826 361.414 489.021C361.854 489.217 362.309 489.38 362.781 489.51C363.253 489.624 363.685 489.681 364.075 489.681C364.694 489.681 365.166 489.575 365.491 489.363C365.833 489.135 366.004 488.818 366.004 488.411C366.004 488.102 365.866 487.858 365.589 487.679C365.312 487.5 364.905 487.321 364.368 487.142L362.854 486.604C361.91 486.295 361.259 485.856 360.901 485.286C360.543 484.716 360.364 484.041 360.364 483.26C360.364 482.479 360.56 481.803 360.95 481.233C361.357 480.647 361.919 480.192 362.635 479.866C363.351 479.524 364.173 479.354 365.101 479.354Z" fill="black"/>
<path d="M93.5459 423.521L101.163 440H97.1836L95.9385 436.948H89.4688L88.2236 440H84.2441L91.8613 423.521H93.5459ZM92.7158 429.062L90.665 434.067H94.7666L92.7158 429.062ZM106.412 427.671V429.429C106.786 428.924 107.291 428.452 107.926 428.013C108.577 427.573 109.317 427.354 110.147 427.354C111.401 427.354 112.451 427.777 113.297 428.623C114.143 429.469 114.566 430.739 114.566 432.432V440H111.466L111.441 432.847C111.441 432.017 111.238 431.398 110.831 430.991C110.44 430.584 109.895 430.381 109.195 430.381C108.642 430.381 108.121 430.56 107.633 430.918C107.161 431.276 106.754 431.699 106.412 432.188V440H103.312V427.671H106.412ZM130.338 427.354C131.005 427.354 131.681 427.508 132.364 427.817C133.048 428.127 133.618 428.542 134.073 429.062V427.671H137.174V440H134.073V437.925C133.715 438.592 133.194 439.17 132.511 439.658C131.827 440.13 131.03 440.366 130.118 440.366C129.125 440.366 128.206 440.114 127.359 439.609C126.529 439.105 125.862 438.372 125.357 437.412C124.853 436.452 124.601 435.288 124.601 433.921C124.601 432.554 124.853 431.382 125.357 430.405C125.878 429.429 126.57 428.68 127.433 428.159C128.312 427.622 129.28 427.354 130.338 427.354ZM130.973 430.381C130.322 430.381 129.76 430.552 129.288 430.894C128.832 431.219 128.474 431.65 128.214 432.188C127.953 432.725 127.823 433.302 127.823 433.921C127.823 434.849 128.1 435.638 128.653 436.289C129.223 436.94 129.972 437.266 130.899 437.266C131.453 437.266 131.965 437.119 132.438 436.826C132.926 436.533 133.316 436.126 133.609 435.605C133.919 435.068 134.073 434.425 134.073 433.677V431.919C133.634 431.447 133.154 431.073 132.633 430.796C132.128 430.519 131.575 430.381 130.973 430.381ZM152.701 422.422V440H149.601V437.925C149.243 438.592 148.722 439.17 148.038 439.658C147.354 440.13 146.557 440.366 145.646 440.366C144.653 440.366 143.733 440.114 142.887 439.609C142.057 439.105 141.389 438.372 140.885 437.412C140.38 436.452 140.128 435.288 140.128 433.921C140.128 432.554 140.38 431.382 140.885 430.405C141.406 429.429 142.097 428.68 142.96 428.159C143.839 427.622 144.807 427.354 145.865 427.354C146.533 427.354 147.208 427.508 147.892 427.817C148.575 428.127 149.145 428.542 149.601 429.062V422.422H152.701ZM146.5 430.405C145.849 430.405 145.287 430.576 144.815 430.918C144.36 431.243 144.002 431.675 143.741 432.212C143.481 432.733 143.351 433.302 143.351 433.921C143.351 434.849 143.627 435.638 144.181 436.289C144.75 436.94 145.499 437.266 146.427 437.266C146.98 437.266 147.493 437.119 147.965 436.826C148.453 436.533 148.844 436.126 149.137 435.605C149.446 435.068 149.601 434.425 149.601 433.677V431.919C149.161 431.447 148.681 431.081 148.16 430.82C147.656 430.544 147.102 430.405 146.5 430.405ZM168.424 427.671L162.589 440H160.611L154.85 427.671H158.463L161.563 435.312L164.811 427.671H168.424ZM173.16 421.25C173.746 421.25 174.251 421.462 174.674 421.885C175.097 422.292 175.309 422.78 175.309 423.35C175.309 423.903 175.097 424.391 174.674 424.814C174.251 425.238 173.746 425.449 173.16 425.449C172.574 425.449 172.07 425.238 171.646 424.814C171.24 424.391 171.036 423.903 171.036 423.35C171.036 422.78 171.24 422.292 171.646 421.885C172.07 421.462 172.574 421.25 173.16 421.25ZM174.967 427.671V440H171.866V430.308H169.889V427.671H174.967ZM182.853 427.354C183.618 427.354 184.326 427.467 184.977 427.695C185.628 427.923 186.132 428.184 186.49 428.477V431.211C186.1 430.951 185.619 430.698 185.05 430.454C184.496 430.21 183.919 430.088 183.316 430.088C182.73 430.088 182.267 430.218 181.925 430.479C181.583 430.739 181.412 431.048 181.412 431.406C181.412 431.667 181.51 431.911 181.705 432.139C181.9 432.35 182.275 432.537 182.828 432.7L184.22 433.164C186.091 433.717 187.027 434.8 187.027 436.411C187.027 437.176 186.808 437.86 186.368 438.462C185.945 439.048 185.367 439.512 184.635 439.854C183.919 440.195 183.121 440.366 182.242 440.366C181.412 440.366 180.606 440.236 179.825 439.976C179.044 439.715 178.45 439.43 178.043 439.121V436.411C178.352 436.623 178.727 436.826 179.166 437.021C179.605 437.217 180.061 437.38 180.533 437.51C181.005 437.624 181.437 437.681 181.827 437.681C182.446 437.681 182.918 437.575 183.243 437.363C183.585 437.135 183.756 436.818 183.756 436.411C183.756 436.102 183.618 435.858 183.341 435.679C183.064 435.5 182.657 435.321 182.12 435.142L180.606 434.604C179.662 434.295 179.011 433.856 178.653 433.286C178.295 432.716 178.116 432.041 178.116 431.26C178.116 430.479 178.312 429.803 178.702 429.233C179.109 428.647 179.671 428.192 180.387 427.866C181.103 427.524 181.925 427.354 182.853 427.354ZM195.401 427.354C196.606 427.354 197.704 427.646 198.697 428.232C199.69 428.802 200.488 429.583 201.09 430.576C201.708 431.553 202.018 432.651 202.018 433.872C202.018 435.093 201.708 436.191 201.09 437.168C200.488 438.145 199.69 438.926 198.697 439.512C197.704 440.081 196.606 440.366 195.401 440.366C194.213 440.366 193.115 440.081 192.105 439.512C191.113 438.926 190.315 438.145 189.713 437.168C189.111 436.191 188.81 435.093 188.81 433.872C188.81 432.651 189.111 431.553 189.713 430.576C190.315 429.583 191.113 428.802 192.105 428.232C193.115 427.646 194.213 427.354 195.401 427.354ZM195.401 430.356C194.815 430.356 194.27 430.495 193.766 430.771C193.261 431.048 192.854 431.447 192.545 431.968C192.252 432.489 192.105 433.123 192.105 433.872C192.105 434.621 192.252 435.256 192.545 435.776C192.854 436.297 193.261 436.696 193.766 436.973C194.27 437.233 194.815 437.363 195.401 437.363C195.987 437.363 196.533 437.233 197.037 436.973C197.542 436.696 197.949 436.297 198.258 435.776C198.567 435.256 198.722 434.621 198.722 433.872C198.722 433.123 198.567 432.489 198.258 431.968C197.949 431.447 197.542 431.048 197.037 430.771C196.533 430.495 195.987 430.356 195.401 430.356ZM212.711 431.138C212.19 430.845 211.645 430.698 211.075 430.698C210.359 430.698 209.765 430.934 209.293 431.406C208.821 431.862 208.406 432.432 208.048 433.115V440H204.947V427.671H208.048V429.99C208.471 429.258 208.967 428.647 209.537 428.159C210.123 427.671 210.782 427.427 211.515 427.427C211.954 427.427 212.353 427.5 212.711 427.646V431.138ZM239.566 427.671L235.294 440H233.048L230.167 432.017L227.286 440H225.016L220.768 427.671H224.137L226.407 434.971L229.068 427.671H231.29L233.927 434.971L236.197 427.671H239.566ZM244.303 421.25C244.889 421.25 245.393 421.462 245.816 421.885C246.24 422.292 246.451 422.78 246.451 423.35C246.451 423.903 246.24 424.391 245.816 424.814C245.393 425.238 244.889 425.449 244.303 425.449C243.717 425.449 243.212 425.238 242.789 424.814C242.382 424.391 242.179 423.903 242.179 423.35C242.179 422.78 242.382 422.292 242.789 421.885C243.212 421.462 243.717 421.25 244.303 421.25ZM246.109 427.671V440H243.009V430.308H241.031V427.671H246.109ZM253.116 422.422V440H250.016V422.422H253.116ZM260.001 422.422V440H256.9V422.422H260.001ZM276.725 427.354C277.636 427.354 278.385 427.5 278.971 427.793C279.557 428.086 280.021 428.371 280.362 428.647V431.504C279.939 431.195 279.459 430.934 278.922 430.723C278.401 430.511 277.758 430.405 276.993 430.405C276.375 430.405 275.797 430.56 275.26 430.869C274.739 431.178 274.324 431.593 274.015 432.114C273.705 432.635 273.551 433.229 273.551 433.896C273.551 434.906 273.876 435.736 274.527 436.387C275.178 437.038 276 437.363 276.993 437.363C277.758 437.363 278.401 437.266 278.922 437.07C279.459 436.859 279.939 436.598 280.362 436.289V439.121C280.021 439.414 279.557 439.699 278.971 439.976C278.385 440.236 277.636 440.366 276.725 440.366C275.471 440.366 274.356 440.073 273.38 439.487C272.42 438.885 271.655 438.096 271.085 437.119C270.532 436.126 270.255 435.052 270.255 433.896C270.255 433.034 270.41 432.212 270.719 431.431C271.044 430.649 271.5 429.958 272.086 429.355C272.672 428.737 273.355 428.249 274.137 427.891C274.934 427.533 275.797 427.354 276.725 427.354ZM288.858 427.354C290.063 427.354 291.161 427.646 292.154 428.232C293.147 428.802 293.945 429.583 294.547 430.576C295.165 431.553 295.475 432.651 295.475 433.872C295.475 435.093 295.165 436.191 294.547 437.168C293.945 438.145 293.147 438.926 292.154 439.512C291.161 440.081 290.063 440.366 288.858 440.366C287.67 440.366 286.572 440.081 285.562 439.512C284.57 438.926 283.772 438.145 283.17 437.168C282.568 436.191 282.267 435.093 282.267 433.872C282.267 432.651 282.568 431.553 283.17 430.576C283.772 429.583 284.57 428.802 285.562 428.232C286.572 427.646 287.67 427.354 288.858 427.354ZM288.858 430.356C288.272 430.356 287.727 430.495 287.223 430.771C286.718 431.048 286.311 431.447 286.002 431.968C285.709 432.489 285.562 433.123 285.562 433.872C285.562 434.621 285.709 435.256 286.002 435.776C286.311 436.297 286.718 436.696 287.223 436.973C287.727 437.233 288.272 437.363 288.858 437.363C289.444 437.363 289.99 437.233 290.494 436.973C290.999 436.696 291.406 436.297 291.715 435.776C292.024 435.256 292.179 434.621 292.179 433.872C292.179 433.123 292.024 432.489 291.715 431.968C291.406 431.447 290.999 431.048 290.494 430.771C289.99 430.495 289.444 430.356 288.858 430.356ZM301.505 427.671V429.429C301.879 428.924 302.384 428.452 303.019 428.013C303.67 427.573 304.41 427.354 305.24 427.354C306.493 427.354 307.543 427.777 308.39 428.623C309.236 429.469 309.659 430.739 309.659 432.432V440H306.559L306.534 432.847C306.534 432.017 306.331 431.398 305.924 430.991C305.533 430.584 304.988 430.381 304.288 430.381C303.735 430.381 303.214 430.56 302.726 430.918C302.254 431.276 301.847 431.699 301.505 432.188V440H298.404V427.671H301.505ZM317.325 424.082V427.671H320.743V430.259H317.325V435.581C317.325 436.134 317.447 436.574 317.691 436.899C317.952 437.209 318.334 437.363 318.839 437.363C319.278 437.363 319.653 437.314 319.962 437.217C320.287 437.119 320.589 436.981 320.865 436.802V439.268C320.556 439.577 320.165 439.837 319.693 440.049C319.238 440.26 318.66 440.366 317.96 440.366C316.853 440.366 315.95 440.016 315.25 439.316C314.566 438.6 314.225 437.624 314.225 436.387V430.259H312.003V428.672C312.784 428.395 313.5 427.874 314.151 427.109C314.819 426.344 315.348 425.335 315.738 424.082H317.325ZM328.8 427.354C329.467 427.354 330.143 427.508 330.826 427.817C331.51 428.127 332.079 428.542 332.535 429.062V427.671H335.636V440H332.535V437.925C332.177 438.592 331.656 439.17 330.973 439.658C330.289 440.13 329.492 440.366 328.58 440.366C327.587 440.366 326.668 440.114 325.821 439.609C324.991 439.105 324.324 438.372 323.819 437.412C323.315 436.452 323.062 435.288 323.062 433.921C323.062 432.554 323.315 431.382 323.819 430.405C324.34 429.429 325.032 428.68 325.895 428.159C326.773 427.622 327.742 427.354 328.8 427.354ZM329.435 430.381C328.784 430.381 328.222 430.552 327.75 430.894C327.294 431.219 326.936 431.65 326.676 432.188C326.415 432.725 326.285 433.302 326.285 433.921C326.285 434.849 326.562 435.638 327.115 436.289C327.685 436.94 328.434 437.266 329.361 437.266C329.915 437.266 330.427 437.119 330.899 436.826C331.388 436.533 331.778 436.126 332.071 435.605C332.381 435.068 332.535 434.425 332.535 433.677V431.919C332.096 431.447 331.616 431.073 331.095 430.796C330.59 430.519 330.037 430.381 329.435 430.381ZM345.06 427.354C345.971 427.354 346.72 427.5 347.306 427.793C347.892 428.086 348.355 428.371 348.697 428.647V431.504C348.274 431.195 347.794 430.934 347.257 430.723C346.736 430.511 346.093 430.405 345.328 430.405C344.71 430.405 344.132 430.56 343.595 430.869C343.074 431.178 342.659 431.593 342.35 432.114C342.04 432.635 341.886 433.229 341.886 433.896C341.886 434.906 342.211 435.736 342.862 436.387C343.513 437.038 344.335 437.363 345.328 437.363C346.093 437.363 346.736 437.266 347.257 437.07C347.794 436.859 348.274 436.598 348.697 436.289V439.121C348.355 439.414 347.892 439.699 347.306 439.976C346.72 440.236 345.971 440.366 345.06 440.366C343.806 440.366 342.691 440.073 341.715 439.487C340.755 438.885 339.99 438.096 339.42 437.119C338.867 436.126 338.59 435.052 338.59 433.896C338.59 433.034 338.744 432.212 339.054 431.431C339.379 430.649 339.835 429.958 340.421 429.355C341.007 428.737 341.69 428.249 342.472 427.891C343.269 427.533 344.132 427.354 345.06 427.354ZM355.924 424.082V427.671H359.342V430.259H355.924V435.581C355.924 436.134 356.046 436.574 356.29 436.899C356.55 437.209 356.933 437.363 357.438 437.363C357.877 437.363 358.251 437.314 358.561 437.217C358.886 437.119 359.187 436.981 359.464 436.802V439.268C359.155 439.577 358.764 439.837 358.292 440.049C357.836 440.26 357.258 440.366 356.559 440.366C355.452 440.366 354.549 440.016 353.849 439.316C353.165 438.6 352.823 437.624 352.823 436.387V430.259H350.602V428.672C351.383 428.395 352.099 427.874 352.75 427.109C353.417 426.344 353.946 425.335 354.337 424.082H355.924ZM371.915 427.671L375.431 435.532L378.849 427.671H382.389L373.429 445.859H369.913L373.624 439.097L368.302 427.671H371.915ZM390.03 427.354C391.235 427.354 392.333 427.646 393.326 428.232C394.319 428.802 395.117 429.583 395.719 430.576C396.337 431.553 396.646 432.651 396.646 433.872C396.646 435.093 396.337 436.191 395.719 437.168C395.117 438.145 394.319 438.926 393.326 439.512C392.333 440.081 391.235 440.366 390.03 440.366C388.842 440.366 387.743 440.081 386.734 439.512C385.742 438.926 384.944 438.145 384.342 437.168C383.74 436.191 383.438 435.093 383.438 433.872C383.438 432.651 383.74 431.553 384.342 430.576C384.944 429.583 385.742 428.802 386.734 428.232C387.743 427.646 388.842 427.354 390.03 427.354ZM390.03 430.356C389.444 430.356 388.899 430.495 388.395 430.771C387.89 431.048 387.483 431.447 387.174 431.968C386.881 432.489 386.734 433.123 386.734 433.872C386.734 434.621 386.881 435.256 387.174 435.776C387.483 436.297 387.89 436.696 388.395 436.973C388.899 437.233 389.444 437.363 390.03 437.363C390.616 437.363 391.161 437.233 391.666 436.973C392.171 436.696 392.577 436.297 392.887 435.776C393.196 435.256 393.351 434.621 393.351 433.872C393.351 433.123 393.196 432.489 392.887 431.968C392.577 431.447 392.171 431.048 391.666 430.771C391.161 430.495 390.616 430.356 390.03 430.356ZM410.465 427.671V435.02C410.465 436.11 410.221 437.054 409.732 437.852C409.244 438.633 408.577 439.235 407.73 439.658C406.9 440.081 405.956 440.293 404.898 440.293C403.824 440.293 402.864 440.081 402.018 439.658C401.188 439.235 400.528 438.633 400.04 437.852C399.568 437.054 399.332 436.11 399.332 435.02V427.671H402.457L402.481 434.458C402.481 435.418 402.701 436.134 403.141 436.606C403.58 437.078 404.166 437.314 404.898 437.314C405.615 437.314 406.192 437.078 406.632 436.606C407.088 436.134 407.315 435.418 407.315 434.458V427.671H410.465Z" fill="black"/>
<path d="M18.9453 371.553C21.1589 371.553 23.2747 371.943 25.293 372.725C27.3438 373.473 29.1667 374.58 30.7617 376.045C32.3568 377.51 33.61 379.3 34.5215 381.416C35.4655 383.532 35.9375 385.941 35.9375 388.643C35.9375 391.344 35.4655 393.753 34.5215 395.869C33.61 397.985 32.3568 399.775 30.7617 401.24C29.1667 402.705 27.3438 403.828 25.293 404.609C23.2747 405.358 21.1589 405.732 18.9453 405.732C16.7318 405.732 14.5996 405.358 12.5488 404.609C10.5306 403.828 8.72396 402.705 7.12891 401.24C5.53385 399.775 4.26432 397.985 3.32031 395.869C2.40885 393.753 1.95312 391.344 1.95312 388.643C1.95312 385.941 2.40885 383.532 3.32031 381.416C4.26432 379.3 5.53385 377.51 7.12891 376.045C8.72396 374.58 10.5306 373.473 12.5488 372.725C14.5996 371.943 16.7318 371.553 18.9453 371.553ZM18.9453 380.098C17.4805 380.098 16.1784 380.472 15.0391 381.221C13.8997 381.969 12.9883 382.995 12.3047 384.297C11.6536 385.566 11.3281 387.015 11.3281 388.643C11.3281 390.27 11.6536 391.735 12.3047 393.037C12.9883 394.307 13.8997 395.316 15.0391 396.064C16.1784 396.813 17.4805 397.188 18.9453 397.188C20.4102 397.188 21.7122 396.813 22.8516 396.064C24.0234 395.316 24.9349 394.307 25.5859 393.037C26.237 391.735 26.5625 390.27 26.5625 388.643C26.5625 387.015 26.237 385.566 25.5859 384.297C24.9349 382.995 24.0234 381.969 22.8516 381.221C21.7122 380.472 20.4102 380.098 18.9453 380.098ZM56.2988 372.285C57.959 372.285 59.5703 372.513 61.1328 372.969C62.7279 373.424 64.1602 374.124 65.4297 375.068C66.6992 376.012 67.7083 377.201 68.457 378.633C69.2383 380.065 69.6289 381.742 69.6289 383.662C69.6289 386.104 68.929 388.122 67.5293 389.717C66.1621 391.312 64.4043 392.402 62.2559 392.988L71.2891 405H60.1562L51.416 392.012V405H42.2852V372.285H56.2988ZM51.416 380.83V386.934C51.9694 387.129 52.5553 387.292 53.1738 387.422C53.8249 387.552 54.5085 387.617 55.2246 387.617C56.6569 387.617 57.8451 387.34 58.7891 386.787C59.7656 386.201 60.2539 385.322 60.2539 384.15C60.2539 382.816 59.7656 381.937 58.7891 381.514C57.8451 381.058 56.6569 380.83 55.2246 380.83H51.416ZM89.7461 371.504C93.0013 371.504 95.9473 372.155 98.584 373.457C101.221 374.759 103.32 376.647 104.883 379.121C106.445 381.595 107.227 384.59 107.227 388.105C107.227 390.514 106.82 392.793 106.006 394.941C105.225 397.057 104.102 398.929 102.637 400.557C101.172 402.184 99.4141 403.454 97.3633 404.365C95.3125 405.277 93.0176 405.732 90.4785 405.732C88.9811 405.732 87.3861 405.667 85.6934 405.537C84.0332 405.439 82.4056 405.277 80.8105 405.049C79.2155 404.854 77.7507 404.626 76.416 404.365V372.871C78.4993 372.513 80.6966 372.204 83.0078 371.943C85.3516 371.65 87.5977 371.504 89.7461 371.504ZM90.0391 380.049C89.2904 380.049 88.5091 380.114 87.6953 380.244C86.9141 380.342 86.1979 380.472 85.5469 380.635V396.602C86.2956 396.829 87.0605 396.992 87.8418 397.09C88.623 397.155 89.3555 397.188 90.0391 397.188C91.6992 397.188 93.099 396.813 94.2383 396.064C95.4102 395.283 96.3053 394.242 96.9238 392.939C97.5423 391.637 97.8516 390.189 97.8516 388.594C97.8516 386.055 97.168 384.004 95.8008 382.441C94.4661 380.846 92.5456 380.049 90.0391 380.049ZM135.693 385.029V391.865H122.705V397.188H137.402V405H113.574V372.285H137.402V379.854H122.705V385.029H135.693ZM159.717 372.285C161.377 372.285 162.988 372.513 164.551 372.969C166.146 373.424 167.578 374.124 168.848 375.068C170.117 376.012 171.126 377.201 171.875 378.633C172.656 380.065 173.047 381.742 173.047 383.662C173.047 386.104 172.347 388.122 170.947 389.717C169.58 391.312 167.822 392.402 165.674 392.988L174.707 405H163.574L154.834 392.012V405H145.703V372.285H159.717ZM154.834 380.83V386.934C155.387 387.129 155.973 387.292 156.592 387.422C157.243 387.552 157.926 387.617 158.643 387.617C160.075 387.617 161.263 387.34 162.207 386.787C163.184 386.201 163.672 385.322 163.672 384.15C163.672 382.816 163.184 381.937 162.207 381.514C161.263 381.058 160.075 380.83 158.643 380.83H154.834ZM208.008 372.285C209.668 372.285 211.279 372.562 212.842 373.115C214.437 373.669 215.869 374.482 217.139 375.557C218.408 376.631 219.417 377.933 220.166 379.463C220.947 380.993 221.338 382.718 221.338 384.639C221.338 387.145 220.752 389.31 219.58 391.133C218.408 392.923 216.878 394.29 214.99 395.234C213.102 396.178 211.1 396.65 208.984 396.65C207.747 396.65 206.641 396.536 205.664 396.309C204.688 396.048 203.841 395.723 203.125 395.332V405H193.994V372.285H208.008ZM203.125 380.83V388.398C203.678 388.594 204.264 388.757 204.883 388.887C205.534 389.017 206.217 389.082 206.934 389.082C208.366 389.082 209.554 388.643 210.498 387.764C211.475 386.852 211.963 385.811 211.963 384.639C211.963 383.304 211.475 382.344 210.498 381.758C209.554 381.139 208.366 380.83 206.934 380.83H203.125ZM241.211 372.285C242.871 372.285 244.482 372.513 246.045 372.969C247.64 373.424 249.072 374.124 250.342 375.068C251.611 376.012 252.62 377.201 253.369 378.633C254.15 380.065 254.541 381.742 254.541 383.662C254.541 386.104 253.841 388.122 252.441 389.717C251.074 391.312 249.316 392.402 247.168 392.988L256.201 405H245.068L236.328 392.012V405H227.197V372.285H241.211ZM236.328 380.83V386.934C236.882 387.129 237.467 387.292 238.086 387.422C238.737 387.552 239.421 387.617 240.137 387.617C241.569 387.617 242.757 387.34 243.701 386.787C244.678 386.201 245.166 385.322 245.166 384.15C245.166 382.816 244.678 381.937 243.701 381.514C242.757 381.058 241.569 380.83 240.137 380.83H236.328ZM273.926 371.553C276.139 371.553 278.255 371.943 280.273 372.725C282.324 373.473 284.147 374.58 285.742 376.045C287.337 377.51 288.59 379.3 289.502 381.416C290.446 383.532 290.918 385.941 290.918 388.643C290.918 391.344 290.446 393.753 289.502 395.869C288.59 397.985 287.337 399.775 285.742 401.24C284.147 402.705 282.324 403.828 280.273 404.609C278.255 405.358 276.139 405.732 273.926 405.732C271.712 405.732 269.58 405.358 267.529 404.609C265.511 403.828 263.704 402.705 262.109 401.24C260.514 399.775 259.245 397.985 258.301 395.869C257.389 393.753 256.934 391.344 256.934 388.643C256.934 385.941 257.389 383.532 258.301 381.416C259.245 379.3 260.514 377.51 262.109 376.045C263.704 374.58 265.511 373.473 267.529 372.725C269.58 371.943 271.712 371.553 273.926 371.553ZM273.926 380.098C272.461 380.098 271.159 380.472 270.02 381.221C268.88 381.969 267.969 382.995 267.285 384.297C266.634 385.566 266.309 387.015 266.309 388.643C266.309 390.27 266.634 391.735 267.285 393.037C267.969 394.307 268.88 395.316 270.02 396.064C271.159 396.813 272.461 397.188 273.926 397.188C275.391 397.188 276.693 396.813 277.832 396.064C279.004 395.316 279.915 394.307 280.566 393.037C281.217 391.735 281.543 390.27 281.543 388.643C281.543 387.015 281.217 385.566 280.566 384.297C279.915 382.995 279.004 381.969 277.832 381.221C276.693 380.472 275.391 380.098 273.926 380.098ZM312.158 371.553C313.883 371.553 315.479 371.797 316.943 372.285C318.408 372.773 319.694 373.49 320.801 374.434V383.271C319.499 382.23 318.262 381.449 317.09 380.928C315.918 380.374 314.388 380.098 312.5 380.098C311.035 380.098 309.668 380.472 308.398 381.221C307.161 381.969 306.152 382.995 305.371 384.297C304.59 385.566 304.199 387.015 304.199 388.643C304.199 390.27 304.59 391.735 305.371 393.037C306.152 394.307 307.161 395.316 308.398 396.064C309.668 396.813 311.035 397.188 312.5 397.188C314.388 397.188 315.918 396.927 317.09 396.406C318.262 395.853 319.499 395.055 320.801 394.014V402.852C319.694 403.796 318.408 404.512 316.943 405C315.479 405.488 313.883 405.732 312.158 405.732C309.945 405.732 307.796 405.358 305.713 404.609C303.662 403.828 301.807 402.705 300.146 401.24C298.519 399.775 297.217 397.985 296.24 395.869C295.296 393.753 294.824 391.344 294.824 388.643C294.824 385.941 295.296 383.532 296.24 381.416C297.217 379.3 298.519 377.51 300.146 376.045C301.807 374.58 303.662 373.473 305.713 372.725C307.796 371.943 309.945 371.553 312.158 371.553ZM349.268 385.029V391.865H336.279V397.188H350.977V405H327.148V372.285H350.977V379.854H336.279V385.029H349.268ZM369.189 371.553C371.11 371.553 372.998 371.797 374.854 372.285C376.742 372.741 378.255 373.359 379.395 374.141V382.979C377.995 382.165 376.611 381.465 375.244 380.879C373.877 380.26 372.266 379.951 370.41 379.951C369.336 379.951 368.408 380.114 367.627 380.439C366.846 380.765 366.455 381.302 366.455 382.051C366.455 382.865 366.927 383.483 367.871 383.906C368.815 384.297 369.971 384.753 371.338 385.273L374.854 386.592C377.23 387.503 378.906 388.74 379.883 390.303C380.892 391.865 381.396 393.428 381.396 394.99C381.396 397.074 380.794 398.929 379.59 400.557C378.385 402.152 376.758 403.421 374.707 404.365C372.656 405.277 370.361 405.732 367.822 405.732C365.869 405.732 363.932 405.391 362.012 404.707C360.091 404.023 358.415 403.177 356.982 402.168V393.33C358.545 394.502 360.221 395.462 362.012 396.211C363.835 396.96 365.658 397.334 367.48 397.334C368.62 397.334 369.531 397.204 370.215 396.943C370.931 396.65 371.289 396.162 371.289 395.479C371.289 394.99 371.029 394.567 370.508 394.209C369.987 393.851 369.287 393.542 368.408 393.281L363.77 391.816C361.947 391.23 360.531 390.433 359.521 389.424C358.512 388.415 357.812 387.292 357.422 386.055C357.031 384.785 356.836 383.499 356.836 382.197C356.836 379.886 357.422 377.949 358.594 376.387C359.766 374.792 361.296 373.587 363.184 372.773C365.072 371.96 367.074 371.553 369.189 371.553ZM397.168 371.553C399.089 371.553 400.977 371.797 402.832 372.285C404.72 372.741 406.234 373.359 407.373 374.141V382.979C405.973 382.165 404.59 381.465 403.223 380.879C401.855 380.26 400.244 379.951 398.389 379.951C397.314 379.951 396.387 380.114 395.605 380.439C394.824 380.765 394.434 381.302 394.434 382.051C394.434 382.865 394.906 383.483 395.85 383.906C396.794 384.297 397.949 384.753 399.316 385.273L402.832 386.592C405.208 387.503 406.885 388.74 407.861 390.303C408.87 391.865 409.375 393.428 409.375 394.99C409.375 397.074 408.773 398.929 407.568 400.557C406.364 402.152 404.736 403.421 402.686 404.365C400.635 405.277 398.34 405.732 395.801 405.732C393.848 405.732 391.911 405.391 389.99 404.707C388.07 404.023 386.393 403.177 384.961 402.168V393.33C386.523 394.502 388.2 395.462 389.99 396.211C391.813 396.96 393.636 397.334 395.459 397.334C396.598 397.334 397.51 397.204 398.193 396.943C398.91 396.65 399.268 396.162 399.268 395.479C399.268 394.99 399.007 394.567 398.486 394.209C397.965 393.851 397.266 393.542 396.387 393.281L391.748 391.816C389.925 391.23 388.509 390.433 387.5 389.424C386.491 388.415 385.791 387.292 385.4 386.055C385.01 384.785 384.814 383.499 384.814 382.197C384.814 379.886 385.4 377.949 386.572 376.387C387.744 374.792 389.274 373.587 391.162 372.773C393.05 371.96 395.052 371.553 397.168 371.553ZM437.354 385.029V391.865H424.365V397.188H439.062V405H415.234V372.285H439.062V379.854H424.365V385.029H437.354ZM460.693 371.504C463.949 371.504 466.895 372.155 469.531 373.457C472.168 374.759 474.268 376.647 475.83 379.121C477.393 381.595 478.174 384.59 478.174 388.105C478.174 390.514 477.767 392.793 476.953 394.941C476.172 397.057 475.049 398.929 473.584 400.557C472.119 402.184 470.361 403.454 468.311 404.365C466.26 405.277 463.965 405.732 461.426 405.732C459.928 405.732 458.333 405.667 456.641 405.537C454.98 405.439 453.353 405.277 451.758 405.049C450.163 404.854 448.698 404.626 447.363 404.365V372.871C449.447 372.513 451.644 372.204 453.955 371.943C456.299 371.65 458.545 371.504 460.693 371.504ZM460.986 380.049C460.238 380.049 459.456 380.114 458.643 380.244C457.861 380.342 457.145 380.472 456.494 380.635V396.602C457.243 396.829 458.008 396.992 458.789 397.09C459.57 397.155 460.303 397.188 460.986 397.188C462.646 397.188 464.046 396.813 465.186 396.064C466.357 395.283 467.253 394.242 467.871 392.939C468.49 391.637 468.799 390.189 468.799 388.594C468.799 386.055 468.115 384.004 466.748 382.441C465.413 380.846 463.493 380.049 460.986 380.049ZM491.895 372.285V393.281H484.961V372.285H491.895ZM488.428 397.139C489.632 397.139 490.658 397.562 491.504 398.408C492.383 399.255 492.822 400.296 492.822 401.533C492.822 402.738 492.383 403.779 491.504 404.658C490.658 405.505 489.632 405.928 488.428 405.928C487.223 405.928 486.182 405.505 485.303 404.658C484.456 403.779 484.033 402.738 484.033 401.533C484.033 400.296 484.456 399.255 485.303 398.408C486.182 397.562 487.223 397.139 488.428 397.139Z" fill="#6A9251"/>
<g filter="url(#filter0_i_120_1691)">
<rect x="74" width="350" height="334.715" rx="167.357" fill="#7EAC73"/>
<path d="M190.68 137.139C184.77 147.377 181.66 158.991 181.662 170.813C181.662 188.673 188.756 205.801 201.385 218.43C214.014 231.058 231.142 238.153 249.002 238.153C266.862 238.153 283.99 231.058 296.619 218.43C309.247 205.801 316.342 188.673 316.342 170.813C316.342 169.334 316.93 167.915 317.976 166.87C319.021 165.824 320.44 165.236 321.919 165.236C323.398 165.236 324.816 165.824 325.862 166.87C326.908 167.915 327.495 169.334 327.495 170.813C327.493 188.091 321.789 204.886 311.269 218.593C300.749 232.3 286 242.153 269.31 246.623C252.62 251.093 234.921 249.932 218.958 243.318C202.995 236.705 189.661 225.009 181.022 210.045C172.384 195.081 168.925 177.684 171.181 160.553C173.437 143.423 181.283 127.515 193.501 115.298C205.719 103.08 221.627 95.2359 238.758 92.9809C255.888 90.726 273.284 94.1861 288.247 102.825C289.517 103.569 290.44 104.786 290.817 106.209C291.193 107.633 290.991 109.148 290.255 110.423C289.518 111.698 288.308 112.63 286.886 113.016C285.466 113.402 283.951 113.21 282.671 112.483C272.433 106.573 260.82 103.462 248.999 103.462C237.178 103.462 225.565 106.575 215.327 112.487C205.09 118.398 196.589 126.901 190.68 137.139Z" fill="white" stroke="white"/>
<path d="M241.85 186.88L242.203 187.234L242.557 186.88L323.324 106.1C323.843 105.582 324.459 105.171 325.136 104.89C325.814 104.609 326.54 104.465 327.273 104.465C328.006 104.465 328.732 104.609 329.41 104.89C330.087 105.171 330.703 105.582 331.221 106.1C331.74 106.619 332.151 107.235 332.432 107.912C332.713 108.59 332.857 109.316 332.857 110.049C332.857 110.782 332.713 111.508 332.432 112.186C332.151 112.863 331.74 113.479 331.221 113.998L246.152 199.067L246.152 199.067C245.634 199.587 245.018 199.999 244.341 200.28C243.663 200.561 242.937 200.706 242.204 200.706C241.47 200.706 240.744 200.561 240.066 200.28L239.875 200.742L240.066 200.28C239.389 199.999 238.773 199.587 238.255 199.067L238.255 199.067L201.797 162.609C201.278 162.09 200.867 161.475 200.586 160.797C200.306 160.12 200.161 159.393 200.161 158.66C200.161 157.927 200.306 157.201 200.586 156.523C200.867 155.846 201.278 155.23 201.797 154.712C202.315 154.193 202.931 153.782 203.608 153.501C204.286 153.221 205.012 153.076 205.745 153.076C206.479 153.076 207.205 153.221 207.882 153.501C208.56 153.782 209.175 154.193 209.694 154.712L241.85 186.88Z" fill="white" stroke="white"/>
</g>
<defs>
<filter id="filter0_i_120_1691" x="74" y="0" width="354" height="338.715" filterUnits="userSpaceOnUse" color-interpolation-filters="sRGB">
<feFlood flood-opacity="0" result="BackgroundImageFix"/>
<feBlend mode="normal" in="SourceGraphic" in2="BackgroundImageFix" result="shape"/>
<feColorMatrix in="SourceAlpha" type="matrix" values="0 0 0 0 0 0 0 0 0 0 0 0 0 0 0 0 0 0 127 0" result="hardAlpha"/>
<feOffset dx="4" dy="4"/>
<feGaussianBlur stdDeviation="10"/>
<feComposite in2="hardAlpha" operator="arithmetic" k2="-1" k3="1"/>
<feColorMatrix type="matrix" values="0 0 0 0 0 0 0 0 0 0 0 0 0 0 0 0 0 0 0.25 0"/>
<feBlend mode="normal" in2="shape" result="effect1_innerShadow_120_1691"/>
</filter>
</defs>
</svg>
