<svg width="60" height="52" viewBox="0 0 60 52" fill="none" xmlns="http://www.w3.org/2000/svg">
<path opacity="0.4" d="M57.6923 51.4306H2.30769C1.04615 51.4306 0 50.5879 0 49.5718C0 48.5556 1.04615 47.7129 2.30769 47.7129H57.6923C58.9538 47.7129 60 48.5556 60 49.5718C60 50.5879 58.9538 51.4306 57.6923 51.4306Z" fill="#292D32"/>
<path d="M10.3066 15.8145H5.38356C3.69126 15.8145 2.30664 16.9298 2.30664 18.2929V39.6575C2.30664 41.0207 3.69126 42.136 5.38356 42.136H10.3066C11.9989 42.136 13.3835 41.0207 13.3835 39.6575V18.2929C13.3835 16.905 11.9989 15.8145 10.3066 15.8145Z" fill="#292D32"/>
<path d="M32.459 7.9043H27.5359C25.8436 7.9043 24.459 9.01962 24.459 10.3828V39.6536C24.459 41.0168 25.8436 42.1321 27.5359 42.1321H32.459C34.1513 42.1321 35.5359 41.0168 35.5359 39.6536V10.3828C35.5359 9.01962 34.1513 7.9043 32.459 7.9043Z" fill="#292D32"/>
<path d="M54.6172 0H49.6941C48.0018 0 46.6172 1.11532 46.6172 2.47849V39.6558C46.6172 41.0189 48.0018 42.1343 49.6941 42.1343H54.6172C56.3095 42.1343 57.6941 41.0189 57.6941 39.6558V2.47849C57.6941 1.11532 56.3095 0 54.6172 0Z" fill="#292D32"/>
</svg>
