<svg width="200" height="134" viewBox="0 0 200 134" fill="none" xmlns="http://www.w3.org/2000/svg">
<path d="M200 85.9619C200.011 93.1142 198.431 100.133 195.433 106.25C195.433 113.732 192.612 120.513 188.035 125.456C186.889 126.693 185.656 127.801 184.35 128.764C184.297 128.805 184.243 128.844 184.189 128.883C184.091 128.955 183.993 129.026 183.893 129.099L183.801 129.166C179.468 132.151 174.585 133.701 169.626 133.666H37.9668C28.8881 133.666 20.6696 129.759 14.7151 123.444C8.76054 117.129 5.09097 108.39 5.09097 98.7512C1.75661 92.4043 -0.0122159 84.9955 6.35019e-05 77.4277C6.35019e-05 56.0027 13.8532 38.634 30.9441 38.634C31.549 38.634 32.1486 38.6599 32.7448 38.701C43.4686 16.096 67.6573 0.333008 95.7587 0.333008C113.035 0.333008 128.827 6.28681 140.923 16.1241C145.505 12.9222 150.68 11.2432 155.944 11.2508C173.031 11.2508 186.888 28.6195 186.888 50.0446C186.885 51.4002 186.827 52.7548 186.713 54.1031C190.832 57.7074 194.189 62.4833 196.502 68.028C198.814 73.5728 200.014 79.7237 200 85.9619Z" fill="#CFDCE2"/>
<path d="M176.783 35.7436C176.848 35.6482 178.461 37.2723 179.929 36.9381C181.757 36.5217 183.094 33.1264 182.103 31.6741C181.447 30.713 179.815 30.6678 179.849 30.4875C179.885 30.2946 181.641 30.9412 182.597 30.1689C183.757 29.2308 183.515 26.3776 182.095 24.881C181.811 24.5816 181.339 24.0843 180.661 24.0449C179.33 23.9675 178.286 25.7196 177.826 26.4898C176.366 28.9382 176.247 31.5071 176.066 31.483C175.9 31.4608 176.342 29.3111 175.541 28.8709C175.365 28.7745 175.157 28.7759 174.949 28.8238C175.002 28.6881 175.04 28.5485 175.059 28.4049C175.179 27.4996 174.46 26.5371 173.61 25.7303C174.495 26.2547 175.495 26.6183 176.381 26.3582C178.358 25.7772 179.674 22.1106 178.634 19.8598C177.908 18.2878 176.057 17.4572 176.118 17.3672C176.183 17.2718 177.796 18.896 179.263 18.5617C181.091 18.1454 182.429 14.75 181.437 13.2977C180.781 12.3366 179.15 12.2914 179.184 12.1111C179.22 11.9183 180.976 12.5648 181.931 11.7926C183.092 10.8544 182.849 8.00121 181.429 6.50467C181.145 6.20523 180.674 5.70788 179.996 5.6685C178.665 5.59112 177.62 7.34325 177.161 8.11338C175.701 10.5619 175.581 13.1307 175.401 13.1066C175.234 13.0844 175.677 10.9347 174.875 10.4945C174.374 10.2189 173.602 10.7331 173.362 10.8928C170.727 12.6487 171.457 16.4668 169.022 20.5289C168.238 21.8368 167.457 22.6178 166.798 23.2085C166.497 19.5716 167.606 16.7797 165.926 14.6649C165.747 14.4394 165.17 13.7133 164.608 13.8217C163.71 13.9948 163.472 16.1765 163.306 16.1466C163.128 16.1142 163.802 13.6326 163.163 10.8542C162.962 9.98031 162.505 7.99211 161.215 7.65746C160.558 7.48706 159.956 7.81569 159.594 8.01353C157.784 9.00235 156.678 11.6436 157.494 12.8925C158.166 13.9206 160.036 13.8439 160.011 14.0386C159.988 14.2206 158.422 13.763 157.502 14.4765C156.113 15.5546 156.344 19.1966 157.957 20.1537C159.251 20.922 161.285 19.8711 161.317 19.9818C161.348 20.0862 159.33 20.3087 158.157 21.5822C157.67 22.1108 157.336 22.8138 157.147 23.5734C155.549 23.6935 154.182 24.8384 154.13 24.7502C154.073 24.6505 156.236 23.901 156.571 22.4338C156.989 20.606 154.509 17.9285 152.771 18.1919C151.62 18.3663 150.872 19.8169 150.724 19.7081C150.566 19.5917 151.91 18.2899 151.628 17.0943C151.286 15.6418 148.61 14.6229 146.646 15.2532C146.253 15.3793 145.6 15.5887 145.271 16.1822C144.624 17.3479 145.75 19.0492 146.244 19.7971C147.817 22.1746 150.08 23.3965 149.98 23.5483C149.888 23.6887 148.143 22.3581 147.399 22.8892C146.933 23.2217 147.062 24.14 147.101 24.4252C147.541 27.5617 151.298 28.5594 153.902 32.515C156.023 35.7361 155.118 37.4843 156.914 38.3573C157.686 38.7321 158.668 38.8046 159.672 38.6241C158.895 43.8261 158.675 52.7225 158.675 52.7225C158.456 61.6214 157.312 68.9499 156.811 68.9358C156.533 68.9274 156.636 66.6858 155.793 63.0812C155.202 60.5539 154.923 60.6704 153.388 56.1611C150.952 49.0081 149.734 45.4327 149.732 45.4131C149.719 45.2577 149.697 44.9438 149.608 44.6263C151.411 44.1218 153.162 42.8294 153.77 41.0156C154.257 39.5646 154.129 37.4092 152.945 36.6327C152.182 36.1317 151.003 36.3624 149.907 36.7784C150.763 36.2082 151.525 35.4643 151.675 34.5539C152.009 32.5201 149.275 29.7444 146.796 29.705C145.065 29.6775 143.514 30.9856 143.459 30.8916C143.401 30.7918 145.564 30.0424 145.9 28.5752C146.317 26.7474 143.838 24.0699 142.099 24.3333C140.949 24.5076 140.2 25.9582 140.053 25.8495C139.895 25.7331 141.239 24.4313 140.957 23.2357C140.615 21.7832 137.939 20.7643 135.975 21.3945C135.582 21.5206 134.929 21.7301 134.6 22.3235C133.953 23.4892 135.078 25.1906 135.573 25.9384C137.146 28.316 139.409 29.5378 139.309 29.6897C139.217 29.8301 137.472 28.4994 136.728 29.0305C136.262 29.3631 136.39 30.2814 136.43 30.5666C136.869 33.703 140.626 34.7008 143.231 38.6563C145.351 41.8774 144.446 43.6256 146.243 44.4987C146.554 44.6498 146.9 44.7504 147.267 44.8067L147.267 44.8084C147.425 47.2678 151.855 53.8772 154.321 63.2744C155.55 67.9561 156.222 70.5102 155.738 74.0669C155.26 77.5928 153.933 79.9726 153.957 81.5439C153.959 81.6908 153.972 81.8264 153.999 81.9575L161.282 81.0017C161.331 80.8605 161.369 80.7158 161.399 80.5671C161.954 77.8919 159.931 73.826 160.959 67.2686C161.722 62.4028 163.814 58.4005 164.79 56.5359C165.988 54.2428 167.404 52.0859 168.933 48.7365C169.915 49.2771 171.028 49.5641 172.133 49.4253C173.651 49.2344 175.538 48.1845 175.724 46.7813C175.844 45.8759 175.125 44.9135 174.275 44.1067C175.16 44.6311 176.161 44.9947 177.046 44.7346C179.024 44.1536 180.339 40.487 179.3 38.2362C178.574 36.6642 176.722 35.8336 176.783 35.7436ZM147.155 38.1412C147.15 38.1307 147.226 38.0976 147.358 38.0438C147.234 38.1139 147.161 38.1518 147.155 38.1412ZM171.364 23.9826C171.247 23.9005 171.181 23.8511 171.188 23.8417C171.195 23.8324 171.258 23.8865 171.364 23.9826ZM163.812 27.7365C163.942 27.6776 164.019 27.6453 164.022 27.6564C164.026 27.6676 163.949 27.6944 163.812 27.7365ZM157.827 31.9999C157.821 31.9893 157.897 31.9562 158.03 31.9025C157.905 31.9725 157.832 32.0104 157.827 31.9999ZM159.922 50.8124C159.747 50.773 161.874 42.1707 162.222 37.6037C163.232 36.942 164.061 36.0102 164.442 34.8743C164.448 34.8545 164.454 34.8342 164.461 34.8142C164.662 34.7862 164.863 34.7482 165.062 34.7013C164.351 36.5009 163.953 37.8077 163.953 37.8077C162.105 43.8963 160.081 50.8488 159.922 50.8124ZM167.859 48.004C167.275 48.899 166.592 49.9993 165.65 51.6823C163.234 55.9941 162.027 58.1485 161.71 59.6848C161.626 60.0949 161.187 62.3134 160.178 65.1255C159.663 66.5604 159.406 67.2779 159.21 67.2487C158.655 67.1644 158.645 61.5042 160.181 55.6437C160.445 54.646 160.655 54.0022 161.054 52.7846C161.701 50.7984 165.31 39.758 168.148 33.0603L168.149 33.0594C168.673 32.5569 169.065 31.9822 169.258 31.3771C169.319 31.184 169.354 31.0053 169.367 30.8352C170.046 31.0511 170.758 31.138 171.467 31.0489C171.863 30.9991 172.285 30.8902 172.695 30.7323C171.561 32.7411 171.579 35.7492 169.688 38.9052C167.705 42.213 165.737 42.1558 165.73 44.1534C165.725 45.48 166.588 46.9474 167.86 48.0027L167.859 48.004ZM171.854 42.2181C171.861 42.2087 171.924 42.2629 172.03 42.3589C171.912 42.2769 171.847 42.2275 171.854 42.2181Z" fill="#F2F2F2"/>
<path d="M95.6983 33.6168C96.8102 33.4316 98.0202 34.7895 98.5256 35.3567C99.8749 36.871 100.157 38.6326 100.265 39.3802C101.985 51.1798 102.844 57.0796 99.2868 59.8237C95.9059 62.4316 89.7259 61.7322 88.5213 59.3887C88.0521 58.4758 88.4444 57.5208 89.065 55.6915C90.212 52.3106 90.8881 48.787 91.8923 45.361C94.1853 37.5382 93.9928 33.901 95.6983 33.6168Z" fill="#2F2E41"/>
<path d="M65.3585 77.6572L59.9477 87.8698C58.5664 90.4767 52.0305 130.635 54.9371 131.141L67.5272 131.559L72.7509 131.833L78.1203 131.911L91.4295 132.352L83.9534 80.0496L65.3585 77.6572Z" fill="#2F2E41"/>
<path d="M78.6794 47.6992L89.4449 48.1342L90.3148 51.7227L92.9073 53.8376C93.8605 54.6152 94.3281 55.8412 94.1349 57.0561L92.9247 64.663C92.9247 64.663 95.2082 70.1001 89.4449 73.5799L83.6816 82.9317L63.673 80.8656C63.673 80.8656 61.8244 80.6481 63.1293 79.3432C64.4342 78.0383 66.0653 71.6225 66.0653 71.6225C66.0653 71.6225 65.8479 68.7952 66.6091 68.034C67.3702 67.2728 66.8402 65.3155 66.8402 65.3155L69.9364 53.8705C70.5397 51.6404 72.5632 50.0915 74.8735 50.0915H78.307L78.6794 47.6992Z" fill="#073E58"/>
<path d="M161.496 120.878L67.477 95.7507C65.4683 95.2138 64.0686 93.5978 63.824 91.533C63.5795 89.4683 64.5629 87.5699 66.3906 86.5786L104.599 65.8565C105.565 65.3327 106.694 65.1424 107.778 65.3215L170.932 75.7326C172.28 75.9549 173.448 76.6978 174.221 77.8244C174.995 78.9509 175.268 80.3082 174.991 81.6462L167.647 117.084C167.366 118.437 166.564 119.581 165.389 120.307C164.592 120.798 163.7 121.05 162.792 121.05C162.36 121.05 161.925 120.993 161.496 120.878Z" fill="white"/>
<path d="M161.496 120.878L67.477 95.7507C65.4683 95.2138 64.0686 93.5978 63.824 91.533C63.5795 89.4683 64.5629 87.5699 66.3906 86.5786L104.599 65.8565C105.565 65.3327 106.694 65.1424 107.778 65.3215L170.932 75.7326C172.28 75.9549 173.448 76.6978 174.221 77.8244C174.995 78.9509 175.268 80.3082 174.991 81.6462L167.647 117.084C167.366 118.437 166.564 119.581 165.389 120.307C164.592 120.798 163.7 121.05 162.792 121.05C162.36 121.05 161.925 120.993 161.496 120.878ZM170.847 76.2447L107.693 65.8334C106.723 65.6731 105.712 65.8434 104.847 66.3126L66.638 87.0346C65.0011 87.9223 64.1202 89.6226 64.3392 91.4719C64.5583 93.3211 65.8119 94.7686 67.6109 95.2494L161.63 120.377C162.825 120.696 164.063 120.514 165.116 119.865C166.169 119.215 166.888 118.19 167.139 116.979L174.483 81.5408C174.731 80.3426 174.486 79.1269 173.794 78.1179C173.101 77.1089 172.055 76.4436 170.847 76.2447Z" fill="#CCCCCC"/>
<path d="M157.188 86.0006L148.803 107.158C147.99 109.209 145.708 110.259 143.622 109.541L81.9937 88.3364C78.5908 87.1656 78.2106 82.5048 81.3788 80.798L101.212 70.113C102.075 69.6482 103.075 69.5055 104.033 69.7104L154.213 80.4425C156.71 80.9766 158.128 83.6267 157.188 86.0006Z" fill="#F2F2F2"/>
<path d="M141.042 89.51C142.964 89.51 144.522 88.7311 144.522 87.7701C144.522 86.8092 142.964 86.0303 141.042 86.0303C139.12 86.0303 137.562 86.8092 137.562 87.7701C137.562 88.7311 139.12 89.51 141.042 89.51Z" fill="#FF6884"/>
<path d="M137.781 94.8391C139.702 94.8391 141.26 94.0602 141.26 93.0993C141.26 92.1383 139.702 91.3594 137.781 91.3594C135.859 91.3594 134.301 92.1383 134.301 93.0993C134.301 94.0602 135.859 94.8391 137.781 94.8391Z" fill="#3F3D56"/>
<path d="M119.078 90.652C124.303 90.652 128.538 88.5342 128.538 85.9217C128.538 83.3092 124.303 81.1914 119.078 81.1914C113.853 81.1914 109.617 83.3092 109.617 85.9217C109.617 88.5342 113.853 90.652 119.078 90.652Z" fill="#073E58"/>
<path d="M102.657 85.7048C102.792 85.7048 102.918 85.6212 102.965 85.4874C103.025 85.3176 102.936 85.1311 102.766 85.0709L95.863 82.6242C95.6936 82.5642 95.5068 82.6529 95.4465 82.8228C95.3864 82.9926 95.4753 83.1791 95.6451 83.2393L102.549 85.686C102.585 85.6987 102.621 85.7048 102.657 85.7048Z" fill="#3F3D56"/>
<path d="M104.18 84.5075C104.314 84.5075 104.44 84.424 104.487 84.2902C104.548 84.1204 104.459 83.9339 104.289 83.8737L97.3855 81.427C97.2161 81.367 97.0293 81.4556 96.969 81.6255C96.9089 81.7953 96.9978 81.9818 97.1676 82.042L104.071 84.4887C104.107 84.5015 104.144 84.5075 104.18 84.5075Z" fill="#3F3D56"/>
<path d="M105.702 83.3122C105.837 83.3122 105.962 83.2286 106.01 83.0948C106.07 82.925 105.981 82.7385 105.811 82.6783L98.9079 80.2316C98.7385 80.1717 98.5517 80.2603 98.4914 80.4302C98.4313 80.6 98.5202 80.7865 98.69 80.8467L105.593 83.2934C105.629 83.3061 105.666 83.3122 105.702 83.3122Z" fill="#3F3D56"/>
<path d="M107.225 82.1159C107.359 82.1159 107.485 82.0324 107.532 81.8986C107.593 81.7287 107.504 81.5423 107.334 81.4821L100.43 79.0354C100.261 78.9754 100.074 79.064 100.014 79.2339C99.9538 79.4037 100.043 79.5902 100.212 79.6504L107.116 82.0971C107.152 82.1099 107.189 82.1159 107.225 82.1159Z" fill="#3F3D56"/>
<path d="M108.747 80.9196C108.882 80.9196 109.007 80.8361 109.055 80.7023C109.115 80.5325 109.026 80.346 108.856 80.2858L101.953 77.8391C101.783 77.7791 101.597 77.8677 101.536 78.0376C101.476 78.2075 101.565 78.3939 101.735 78.4541L108.638 80.9008C108.674 80.9136 108.711 80.9196 108.747 80.9196Z" fill="#3F3D56"/>
<path d="M110.269 79.7233C110.403 79.7233 110.529 79.6397 110.576 79.5059C110.636 79.3361 110.548 79.1497 110.378 79.0894L103.474 76.6427C103.305 76.5828 103.118 76.6714 103.058 76.8413C102.998 77.0111 103.087 77.1976 103.256 77.2578L110.16 79.7045C110.196 79.7173 110.233 79.7233 110.269 79.7233Z" fill="#3F3D56"/>
<path d="M111.792 78.5271C111.926 78.5271 112.052 78.4435 112.1 78.3097C112.16 78.1399 112.071 77.9534 111.901 77.8932L104.998 75.4465C104.828 75.3865 104.642 75.4752 104.581 75.6451C104.521 75.8149 104.61 76.0014 104.78 76.0616L111.683 78.5083C111.719 78.521 111.756 78.5271 111.792 78.5271Z" fill="#3F3D56"/>
<path d="M88.5204 51.2331C93.445 51.2331 97.4372 47.2409 97.4372 42.3163C97.4372 37.3916 93.445 33.3994 88.5204 33.3994C83.5957 33.3994 79.6035 37.3916 79.6035 42.3163C79.6035 47.2409 83.5957 51.2331 88.5204 51.2331Z" fill="#A0616A"/>
<path d="M90.3696 29.0493C87.859 28.6401 86.5109 28.4203 85.15 28.7231C82.4237 29.3296 80.8423 31.7669 79.7129 33.5078C77.0119 37.6707 78.233 39.4203 75.5807 45.2519C73.678 49.4353 72.7187 49.2624 72.5359 51.4502C72.1521 56.0426 76.0588 60.6366 80.2566 62.4332C80.5369 62.5532 84.8994 64.3787 86.1287 62.8681C87.0298 61.7608 85.4379 59.8548 83.5188 54.7125C80.1444 45.6705 81.7389 42.6486 82.2139 41.8809C82.5141 41.3959 83.3701 40.1904 83.8451 40.3585C84.2747 40.5106 83.9028 41.6139 84.28 42.5334C85.2907 44.9967 91.4338 45.5437 96.2417 43.6208C97.6595 43.0537 98.5295 42.7057 99.1777 41.7722C101.377 38.6045 98.7515 31.9662 94.6105 30.028C93.6685 29.5871 92.5689 29.4078 90.3696 29.0493Z" fill="#2F2E41"/>
<path d="M83.9943 82.1768C86.163 83.2768 87.3533 85.2874 86.653 86.6675C85.9528 88.0475 83.6274 88.2743 81.4581 87.1736C80.5855 86.7458 79.828 86.1153 79.2491 85.3347L70.1191 80.5579L72.4521 76.3213L81.2049 81.4802C82.177 81.4863 83.1335 81.7252 83.9943 82.1768Z" fill="#A0616A"/>
<path d="M126.694 76.0304C128.978 76.8636 130.4 78.7178 129.87 80.1715C129.339 81.6253 127.057 82.128 124.772 81.2942C123.855 80.9736 123.028 80.438 122.36 79.7322L112.725 76.0796L114.535 71.5947L123.841 75.6717C124.807 75.5617 125.785 75.6847 126.694 76.0304Z" fill="#A0616A"/>
<path d="M73.6231 52.32C73.6231 52.32 71.7745 48.514 67.5336 51.45C63.2926 54.3861 53.1796 66.5652 53.1796 66.5652C53.1796 66.5652 47.96 71.1324 50.896 72.7635C53.832 74.3946 74.928 83.8552 74.928 83.8552L80.2564 80.158L61.3353 70.4799L72.2039 62.3242L73.6231 52.32Z" fill="#073E58"/>
<path d="M92.1096 54.6038C92.1096 54.6038 93.4034 52.7552 95.6926 54.6038C97.9817 56.4525 104.57 67.0968 104.57 67.0968L120.818 73.7425L118.425 78.6359L98.9604 71.6764L90.4785 60.1497L92.1096 54.6038Z" fill="#073E58"/>
<path d="M91.0766 51.2875C88.6105 52.5467 89.7452 54.4801 89.6629 54.876C88.8615 58.731 91.7912 62.724 92.9252 62.488C93.5904 62.3495 93.9401 60.6925 93.7951 59.4432C93.6071 57.8235 95.1648 55.2599 94.9913 54.1148C94.5657 51.3057 97.1335 51.253 96.6224 50.2001C96.3229 49.583 92.5462 50.5371 91.0766 51.2875Z" fill="#2F2E41"/>
<path d="M119.662 90.9024C119.672 90.9024 119.683 90.9019 119.693 90.9006C119.835 90.8838 119.937 90.7548 119.92 90.6124L119.335 85.6741C119.327 85.6057 119.292 85.5433 119.238 85.5008C119.184 85.4582 119.115 85.4391 119.047 85.4471L109.758 86.5641C109.616 86.5812 109.514 86.7104 109.531 86.8526C109.548 86.995 109.678 87.0972 109.82 87.0793L118.851 85.9933L119.405 90.6736C119.421 90.8055 119.533 90.9024 119.662 90.9024Z" fill="white"/>
<path d="M71.8289 95.6715C74.5034 95.6715 76.6715 93.5034 76.6715 90.8289C76.6715 88.1544 74.5034 85.9863 71.8289 85.9863C69.1544 85.9863 66.9863 88.1544 66.9863 90.8289C66.9863 93.5034 69.1544 95.6715 71.8289 95.6715Z" fill="#073E58"/>
<path d="M69.6288 90.073L71.1853 92.8103C71.2779 92.9732 71.5439 92.985 71.6333 92.8103C72.2412 91.6232 73.0998 90.5722 74.1581 89.7578C74.2699 89.6718 74.3267 89.5357 74.2511 89.4029C74.1886 89.2929 74.007 89.2246 73.8962 89.3098C72.7658 90.1797 71.8362 91.2773 71.1853 92.5484H71.6333L70.0768 89.8112C69.9118 89.5209 69.4634 89.782 69.6288 90.073Z" fill="white"/>
</svg>
