<svg width="200" height="133" viewBox="0 0 200 133" fill="none" xmlns="http://www.w3.org/2000/svg">
<path d="M200 84.3434C200.011 91.3326 198.467 98.191 195.538 104.169C195.538 111.48 192.781 118.107 188.308 122.937C187.189 124.146 185.983 125.228 184.707 126.17C184.655 126.21 184.602 126.248 184.55 126.286C184.454 126.356 184.358 126.426 184.261 126.497L184.17 126.563C179.937 129.479 175.165 130.994 170.319 130.96H41.6617C32.79 130.96 24.7589 127.141 18.9401 120.971C13.1213 114.8 9.53543 106.26 9.53543 96.8411C6.2771 90.639 4.54861 83.3991 4.56061 76.0039C4.56061 55.0673 18.0979 38.0947 34.7991 38.0947C35.3902 38.0947 35.9762 38.12 36.5587 38.1601C47.038 16.0706 70.6752 0.666992 98.1358 0.666992C115.018 0.666992 130.45 6.48504 142.27 16.098C146.748 12.9691 151.805 11.3284 156.949 11.3359C173.647 11.3359 187.187 28.3085 187.187 49.2451C187.185 50.5698 187.128 51.8935 187.016 53.211C191.041 56.7331 194.322 61.4002 196.582 66.8185C198.842 72.2368 200.014 78.2475 200 84.3434Z" fill="#CFDCE2"/>
<path d="M135.545 57.5464H131.83C131.711 57.5468 131.596 57.5026 131.508 57.4226C131.419 57.3425 131.364 57.2323 131.353 57.1136L130.609 49.4922H136.766L136.022 57.1135C136.011 57.2322 135.956 57.3424 135.867 57.4225C135.779 57.5026 135.664 57.5468 135.545 57.5464Z" fill="#E6E6E6"/>
<path d="M136.757 50.4512H130.62C130.493 50.4511 130.371 50.4005 130.281 50.3107C130.191 50.2208 130.141 50.0989 130.141 49.9718V48.8212C130.141 48.6941 130.191 48.5723 130.281 48.4824C130.371 48.3925 130.493 48.3419 130.62 48.3418H136.757C136.884 48.3419 137.006 48.3925 137.095 48.4824C137.185 48.5723 137.236 48.6941 137.236 48.8212V49.9718C137.236 50.0989 137.185 50.2208 137.095 50.3106C137.006 50.4005 136.884 50.4511 136.757 50.4512Z" fill="#CCCCCC"/>
<path d="M92.0826 49.3592H77.3662V44.8918C82.0165 41.6555 86.1368 41.9368 91.557 45.1546L92.0826 49.3592Z" fill="#073E58"/>
<path d="M73.9584 128.71L70.7366 128.71L70.2549 116.283L73.9589 116.283L73.9584 128.71Z" fill="#FFB8B8"/>
<path d="M74.7799 131.833L64.3916 131.833V131.702C64.3916 131.171 64.4962 130.645 64.6994 130.154C64.9026 129.664 65.2004 129.218 65.5759 128.842C65.9514 128.467 66.3971 128.169 66.8877 127.966C67.3783 127.763 67.9041 127.658 68.4351 127.658L74.7801 127.658L74.7799 131.833Z" fill="#2F2E41"/>
<path d="M92.105 128.71L95.3269 128.71L95.8086 116.283L92.1045 116.283L92.105 128.71Z" fill="#FFB8B8"/>
<path d="M91.2832 127.658L97.628 127.658C98.159 127.658 98.6851 127.763 99.1756 127.966C99.6662 128.169 100.112 128.467 100.487 128.842C100.863 129.218 101.161 129.664 101.364 130.154C101.567 130.645 101.672 131.171 101.672 131.702V131.833L91.2834 131.833L91.2832 127.658Z" fill="#2F2E41"/>
<path d="M92.1896 127.118C91.9208 127.117 91.6602 127.025 91.4505 126.857C91.2407 126.689 91.0942 126.455 91.0349 126.193L83.0496 91.3622C83.032 91.2737 82.9838 91.1943 82.9134 91.1378C82.8431 91.0814 82.755 91.0516 82.6648 91.0538H82.6628C82.5723 91.0521 82.484 91.0825 82.4138 91.1397C82.3436 91.1969 82.2958 91.2771 82.2791 91.3661L74.946 125.962C74.8888 126.226 74.7429 126.463 74.5325 126.634C74.3221 126.804 74.0598 126.898 73.7891 126.899H70.2959C70.1347 126.899 69.9752 126.866 69.8272 126.802C69.6792 126.738 69.5459 126.645 69.4353 126.527C69.3248 126.41 69.2394 126.271 69.1843 126.12C69.1293 125.968 69.1058 125.807 69.1153 125.646L71.7172 81.798L72.7642 81.4883L72.7839 81.4885L93.3495 81.6684L97.7296 125.469C97.7449 125.625 97.7289 125.782 97.6826 125.932C97.6363 126.082 97.5606 126.222 97.4599 126.342C97.3592 126.463 97.2355 126.562 97.0961 126.634C96.9566 126.706 96.8043 126.749 96.6478 126.762L92.2844 127.114C92.2526 127.117 92.221 127.118 92.1896 127.118Z" fill="#2F2E41"/>
<path d="M83.6966 41.3523C87.2613 41.3523 90.1511 38.4625 90.1511 34.8978C90.1511 31.3331 87.2613 28.4434 83.6966 28.4434C80.1319 28.4434 77.2422 31.3331 77.2422 34.8978C77.2422 38.4625 80.1319 41.3523 83.6966 41.3523Z" fill="#FFB8B8"/>
<path d="M79.7428 86.6059C78.6104 86.62 77.4826 86.4612 76.3981 86.1353C75.4335 85.8444 74.5387 85.3592 73.7687 84.7095C72.9986 84.0598 72.3697 83.2595 71.9206 82.3576C71.7783 82.0863 71.7467 81.7703 71.8326 81.4761C72.5444 79.0466 75.9843 66.4179 73.7895 56.3786C73.4797 54.984 73.454 53.5413 73.7138 52.1365C73.9737 50.7317 74.5138 49.3936 75.3019 48.202C76.0717 47.0198 77.0718 46.0048 78.2424 45.2175C79.413 44.4301 80.7301 43.8866 82.1153 43.6193L82.1154 43.6191C82.4794 43.548 82.8455 43.4897 83.2031 43.4456C84.7344 43.2571 86.2883 43.4094 87.7538 43.8916C89.2193 44.3738 90.5601 45.1739 91.6803 46.2347C92.8337 47.3163 93.7337 48.6396 94.316 50.1098C94.8982 51.58 95.1482 53.1607 95.0481 54.7387L93.3613 81.8074C93.3496 82.0103 93.2854 82.2067 93.1749 82.3774C93.0645 82.548 92.9115 82.6869 92.7311 82.7806C90.7884 83.7986 84.9526 86.6059 79.7428 86.6059Z" fill="#3F3D56"/>
<path d="M90.989 30.1462C90.3186 28.4612 89.0904 27.0571 87.5097 26.1684C85.9289 25.2796 84.0911 24.9599 82.303 25.2626L84.3381 26.9071C81.8096 26.9922 79.1481 26.8112 77.3427 28.5835C77.9175 28.5676 78.6708 29.7969 79.2455 29.781C78.171 29.8022 77.1966 30.5572 76.722 31.5215C76.2824 32.5121 76.1796 33.6196 76.4292 34.6742C76.6415 35.7278 78.2604 38.1961 78.6962 39.1785C78.6212 36.611 83.6759 30.4868 86.1442 31.1259C84.8901 31.5912 83.8019 32.4174 83.0168 33.5004C84.696 32.6529 86.5952 32.3422 88.4569 32.6103C88.8819 32.7077 89.3205 32.7323 89.7538 32.6829C90.0193 32.6303 90.267 32.5106 90.4731 32.3351C90.6792 32.1596 90.8368 31.9341 90.931 31.6803C91.0252 31.4265 91.0527 31.1528 91.0109 30.8853C90.9691 30.6179 90.8595 30.3656 90.6925 30.1526L90.989 30.1462Z" fill="#2F2E41"/>
<path d="M79.2978 84.98C79.1348 84.9797 78.9736 84.9457 78.8243 84.8801L66.578 79.5348C66.3179 79.4232 66.1068 79.2215 65.9835 78.9668C65.8602 78.712 65.8331 78.4213 65.9071 78.1481L74.0142 47.5225C74.1649 46.9526 74.4278 46.4185 74.7874 45.9515C75.1471 45.4845 75.5962 45.0939 76.1087 44.8026C76.6211 44.5113 77.1866 44.3252 77.7718 44.2551C78.3571 44.185 78.9505 44.2323 79.5172 44.3944L82.7589 45.3195L80.4768 83.8661C80.4651 84.0563 80.4077 84.2408 80.3096 84.4041C80.2114 84.5674 80.0753 84.7047 79.9129 84.8042C79.7281 84.9186 79.5152 84.9795 79.2978 84.98Z" fill="#073E58"/>
<path d="M101.964 78.1476L101.425 76.1162L100.644 73.1624L100.269 71.746L99.4881 68.8001L93.8564 47.5218C93.7062 46.9517 93.4436 46.4173 93.084 45.9501C92.7245 45.4828 92.2753 45.0921 91.7627 44.8008C91.2501 44.5095 90.6845 44.3235 90.0991 44.2538C89.5137 44.184 88.9202 44.2319 88.3535 44.3945L85.1133 45.3196L86.7189 72.4319L86.8846 75.2622L86.9897 77.0465V77.0491L87.1578 79.8637L87.3944 83.866C87.4137 84.1665 87.5461 84.4485 87.7651 84.6553C87.984 84.862 88.2731 84.9781 88.5742 84.9802C88.7371 84.9793 88.898 84.9453 89.0473 84.8804L101.293 79.5352C101.554 79.4236 101.765 79.2218 101.888 78.9668C102.011 78.7118 102.038 78.4208 101.964 78.1476Z" fill="#073E58"/>
<path d="M100.268 71.7457L86.8846 75.2619L86.7188 72.4316L99.4881 68.7998L100.268 71.7457Z" fill="#CCCCCC"/>
<path d="M101.425 76.1159L87.1582 79.8633L86.9902 77.0488V77.0462L100.645 73.1621L101.425 76.1159Z" fill="#CCCCCC"/>
<path d="M80.9874 73.0411L80.8215 75.8188L67.6953 71.9084L68.465 69.002L80.9874 73.0411Z" fill="#CCCCCC"/>
<path d="M80.7143 77.6491L67.3198 73.3262L66.5498 76.2405L80.5514 80.4111L80.7143 77.6491Z" fill="#CCCCCC"/>
<path d="M67.5534 80.5536C67.9528 80.4494 68.3244 80.2589 68.6421 79.9955C68.9599 79.7321 69.216 79.4022 69.3925 79.0291C69.569 78.6561 69.6615 78.2488 69.6636 77.8361C69.6656 77.4234 69.5772 77.0152 69.4044 76.6404L75.7014 56.8717L71.2362 55.9365L65.463 75.3183C64.8525 75.6502 64.385 76.1946 64.1491 76.8481C63.9132 77.5017 63.9252 78.2191 64.1828 78.8645C64.4405 79.5098 64.926 80.0382 65.5472 80.3495C66.1684 80.6608 66.8822 80.7334 67.5534 80.5536Z" fill="#FFB8B8"/>
<path d="M75.8756 47.1531C77.1578 47.2839 77.879 48.7256 77.5602 50.5206L76.0304 59.1345C75.9158 59.7802 75.3844 60.2915 74.9427 60.1811L69.7682 58.8876C69.37 58.7881 69.2233 58.2224 69.449 57.6564L72.5554 49.8636C73.23 48.1713 74.6325 47.0263 75.8756 47.1531Z" fill="#3F3D56"/>
<path d="M83.673 22.8164C85.8575 22.8166 87.9561 23.6671 89.5245 25.1877C91.0929 26.7082 92.0079 28.7795 92.0757 30.963H93.6591C93.7985 30.963 93.9322 31.0184 94.0308 31.1169C94.1294 31.2155 94.1847 31.3492 94.1847 31.4886V33.5909C94.1847 33.7303 94.1294 33.864 94.0308 33.9625C93.9322 34.0611 93.7985 34.1165 93.6591 34.1165H75.7893C75.6499 34.1165 75.5162 34.0611 75.4176 33.9625C75.3191 33.864 75.2637 33.7303 75.2637 33.5909V31.2258C75.2637 30.1214 75.4812 29.0279 75.9038 28.0076C76.3264 26.9874 76.9458 26.0603 77.7267 25.2794C78.5076 24.4986 79.4346 23.8791 80.4549 23.4565C81.4752 23.0339 82.5687 22.8164 83.673 22.8164Z" fill="#073E58"/>
<path d="M84.6777 74.7984H80.9629C80.8437 74.7988 80.7287 74.7546 80.6404 74.6745C80.5521 74.5944 80.497 74.4843 80.4858 74.3656L79.7422 66.7441H85.8984L85.1549 74.3655C85.1437 74.4842 85.0885 74.5944 85.0002 74.6745C84.9119 74.7546 84.7969 74.7988 84.6777 74.7984Z" fill="#E6E6E6"/>
<path d="M85.8894 67.7032H79.7529C79.6258 67.703 79.5039 67.6525 79.414 67.5626C79.3241 67.4727 79.2736 67.3509 79.2734 67.2238V66.0732C79.2736 65.9461 79.3241 65.8242 79.414 65.7343C79.5039 65.6445 79.6258 65.5939 79.7529 65.5938H85.8894C86.0165 65.5939 86.1384 65.6445 86.2282 65.7343C86.3181 65.8242 86.3687 65.9461 86.3688 66.0732V67.2238C86.3687 67.3509 86.3181 67.4727 86.2282 67.5626C86.1384 67.6525 86.0165 67.703 85.8894 67.7032Z" fill="#CCCCCC"/>
<path d="M82.9004 70.7107C83.0449 70.7274 83.1878 70.7554 83.3279 70.7946L93.221 62.3106L92.6427 59.1977L97.2265 57.7109L98.7858 63.1222C98.9117 63.5593 98.8925 64.0256 98.7309 64.4508C98.5694 64.8761 98.2742 65.2375 97.8898 65.4808L85.3605 73.4094C85.3694 73.9695 85.2076 74.519 84.8965 74.9849C84.5854 75.4508 84.1399 75.8109 83.6192 76.0174C83.0984 76.2239 82.5272 76.267 81.9814 76.1409C81.4356 76.0148 80.9411 75.7255 80.5637 75.3115C80.1863 74.8975 79.9439 74.3785 79.8687 73.8234C79.7935 73.2682 79.8891 72.7034 80.1428 72.2039C80.3965 71.7045 80.7962 71.2941 81.2888 71.0274C81.7814 70.7606 82.3435 70.6502 82.9004 70.7107Z" fill="#FFB8B8"/>
<path d="M93.2465 47.8652C94.6161 47.4818 95.9846 48.5243 96.4431 50.3002L98.6436 58.8226C98.8086 59.4615 98.4882 60.1404 97.9878 60.2124L92.1258 61.0556C91.6747 61.1204 91.2773 60.6578 91.2607 60.0487L91.0331 51.6621C90.9837 49.8408 91.9187 48.2369 93.2465 47.8652Z" fill="#3F3D56"/>
<path d="M172.04 102.303C169.341 98.7133 167.207 94.7313 165.713 90.4956C165.627 90.2423 165.633 89.9664 165.73 89.7172C165.828 89.4679 166.011 89.2615 166.247 89.1345L175.483 84.1857C175.632 84.1051 175.798 84.0596 175.968 84.0527C176.138 84.0458 176.306 84.0777 176.462 84.146C176.62 84.2148 176.761 84.3188 176.873 84.4502C176.985 84.5815 177.066 84.7367 177.109 84.9039C178.184 88.9855 180.204 92.7567 183.007 95.9125C183.123 96.0409 183.207 96.194 183.255 96.3601C183.302 96.5261 183.311 96.7008 183.28 96.8707C183.251 97.038 183.184 97.1964 183.084 97.3338C182.984 97.4713 182.855 97.5842 182.705 97.6639L173.469 102.613C173.233 102.739 172.959 102.777 172.698 102.72C172.436 102.663 172.203 102.516 172.04 102.303Z" fill="#CCCCCC"/>
<path d="M172.671 101.831C172.721 101.893 172.791 101.935 172.868 101.951C172.946 101.967 173.027 101.956 173.097 101.919L182.333 96.9696C182.378 96.9463 182.417 96.9128 182.447 96.8719C182.477 96.831 182.496 96.7838 182.505 96.7339C182.515 96.6813 182.512 96.6271 182.497 96.5757C182.482 96.5242 182.456 96.4769 182.42 96.4375C179.534 93.1888 177.454 89.3064 176.347 85.1046C176.334 85.0527 176.31 85.0044 176.275 84.9636C176.241 84.9228 176.197 84.8905 176.148 84.8694C176.102 84.8487 176.051 84.839 176.001 84.8411C175.95 84.8432 175.901 84.857 175.856 84.8814L166.62 89.8302C166.55 89.868 166.496 89.9291 166.466 90.0028C166.436 90.0766 166.433 90.1584 166.458 90.2342C167.925 94.394 170.02 98.3047 172.671 101.831Z" fill="white"/>
<path d="M176.089 91.2482L171.059 93.4687C170.868 93.5529 170.651 93.5578 170.456 93.4823C170.261 93.4067 170.104 93.257 170.019 93.0658L169.895 92.784C169.811 92.5927 169.806 92.3758 169.881 92.1809C169.957 91.986 170.107 91.829 170.298 91.7444L175.328 89.5239C175.519 89.4397 175.736 89.4348 175.931 89.5104C176.126 89.5859 176.283 89.7356 176.368 89.9268L176.492 90.2086C176.576 90.3999 176.581 90.6168 176.506 90.8117C176.43 91.0066 176.28 91.1636 176.089 91.2482Z" fill="#CCCCCC"/>
<path d="M177.929 94.6642L172.899 96.8847C172.708 96.9689 172.491 96.9738 172.296 96.8983C172.101 96.8227 171.944 96.673 171.859 96.4819L171.735 96.2C171.651 96.0087 171.646 95.7918 171.721 95.5969C171.797 95.402 171.947 95.245 172.138 95.1604L177.168 92.9399C177.359 92.8557 177.576 92.8508 177.771 92.9264C177.966 93.0019 178.123 93.1516 178.208 93.3428L178.332 93.6246C178.416 93.8159 178.421 94.0328 178.346 94.2277C178.27 94.4226 178.12 94.5796 177.929 94.6642Z" fill="#CCCCCC"/>
<path d="M166.132 91.8187C165.785 91.5954 165.491 91.2988 165.271 90.9496C165.051 90.6004 164.91 90.2073 164.858 89.7978C164.807 89.3883 164.846 88.9725 164.972 88.5796C165.098 88.1868 165.309 87.8264 165.59 87.5239L163.469 57.4189L169.579 58.0116L169.747 87.4934C170.224 87.9987 170.499 88.6615 170.52 89.356C170.541 90.0506 170.307 90.7287 169.861 91.2618C169.415 91.795 168.79 92.1462 168.102 92.2488C167.415 92.3514 166.714 92.1984 166.132 91.8187Z" fill="#A0616A"/>
<path d="M164.851 67.5341C164.708 67.4312 164.59 67.2975 164.505 67.1428C164.421 66.9882 164.372 66.8165 164.363 66.6405L163.915 58.5265C163.871 57.7226 164.126 56.9308 164.631 56.3037C165.136 55.6766 165.855 55.2586 166.65 55.1304C167.444 55.0022 168.259 55.1729 168.935 55.6094C169.612 56.0459 170.102 56.7175 170.313 57.4945L172.28 64.7489C172.362 65.0516 172.32 65.3743 172.164 65.6463C172.008 65.9183 171.751 66.1173 171.448 66.1997L165.853 67.7167C165.683 67.7631 165.505 67.7708 165.331 67.7392C165.158 67.7076 164.994 67.6376 164.851 67.5341Z" fill="#3F3D56"/>
<path d="M154.436 128.829H151.214L149.682 116.402H154.437L154.436 128.829Z" fill="#A0616A"/>
<path d="M148.914 127.908H155.128V131.82H145.002C145.002 131.307 145.103 130.798 145.3 130.323C145.496 129.849 145.785 129.417 146.148 129.054C146.511 128.691 146.942 128.403 147.417 128.206C147.892 128.009 148.4 127.908 148.914 127.908Z" fill="#2F2E41"/>
<path d="M166.526 128.829H163.304L161.771 116.402H166.526L166.526 128.829Z" fill="#A0616A"/>
<path d="M161.002 127.908H167.215V131.82H157.09C157.09 131.307 157.191 130.798 157.388 130.323C157.584 129.849 157.872 129.417 158.236 129.054C158.599 128.691 159.03 128.403 159.505 128.206C159.98 128.009 160.488 127.908 161.002 127.908Z" fill="#2F2E41"/>
<path d="M154.285 122.568L150.738 122.399C150.436 122.385 150.151 122.255 149.941 122.037C149.732 121.819 149.614 121.529 149.612 121.226C148.677 106.794 147.382 91.3187 149.364 85.3404C149.363 85.17 149.399 85.0014 149.469 84.8461C149.539 84.6908 149.641 84.5525 149.77 84.4406C149.898 84.3286 150.049 84.2458 150.213 84.1976C150.376 84.1495 150.548 84.1372 150.717 84.1616L164.906 86.2214C165.186 86.2606 165.443 86.3997 165.629 86.6131C165.815 86.8265 165.918 87.0998 165.918 87.3829C167.73 94.4616 167.812 107.298 167.743 120.635C167.745 120.791 167.715 120.946 167.656 121.09C167.597 121.235 167.51 121.366 167.4 121.477C167.29 121.588 167.159 121.676 167.015 121.736C166.871 121.796 166.717 121.827 166.561 121.827H162.737C162.455 121.828 162.182 121.728 161.968 121.544C161.753 121.361 161.612 121.107 161.569 120.828L159.21 105.831C159.175 105.612 159.063 105.412 158.893 105.269C158.722 105.126 158.506 105.05 158.284 105.054C158.062 105.058 157.849 105.143 157.684 105.292C157.52 105.44 157.414 105.644 157.388 105.865L155.515 121.528C155.48 121.815 155.341 122.079 155.125 122.271C154.909 122.463 154.63 122.569 154.341 122.57C154.322 122.57 154.304 122.569 154.285 122.568Z" fill="#2F2E41"/>
<path d="M156.781 87.3851C153.654 85.6477 151.211 85.1911 150.033 85.0736C149.876 85.0585 149.724 85.0117 149.587 84.9361C149.449 84.8606 149.327 84.7578 149.23 84.634C149.131 84.5093 149.058 84.3658 149.016 84.2121C148.974 84.0585 148.964 83.8979 148.986 83.7401L152.386 58.4987C152.581 57.022 153.152 55.6199 154.042 54.4259C154.933 53.232 156.114 52.2858 157.474 51.6774C158.79 51.0723 160.239 50.8141 161.684 50.9273C163.128 51.0405 164.519 51.5214 165.725 52.3241C165.841 52.4016 165.956 52.4807 166.068 52.5615C167.456 53.5789 168.513 54.9846 169.104 56.6015C169.695 58.2183 169.794 59.974 169.388 61.6471C167.304 70.176 166.587 84.1584 166.465 86.8749C166.455 87.1064 166.377 87.3299 166.241 87.5172C166.105 87.7045 165.916 87.8472 165.698 87.9273C164.415 88.3935 163.062 88.6345 161.697 88.6397C159.978 88.6502 158.285 88.2181 156.781 87.3851Z" fill="#3F3D56"/>
<path d="M159.626 48.2497C163.191 48.2497 166.081 45.36 166.081 41.7953C166.081 38.2306 163.191 35.3408 159.626 35.3408C156.062 35.3408 153.172 38.2306 153.172 41.7953C153.172 45.36 156.062 48.2497 159.626 48.2497Z" fill="#A0616A"/>
<path d="M164.193 46.9026C162.989 48.1853 160.753 47.4967 160.596 45.7445C160.584 45.6084 160.585 45.4715 160.599 45.3356C160.68 44.5595 161.128 43.8548 161.021 43.0352C160.997 42.8313 160.921 42.6369 160.8 42.4705C159.841 41.1856 157.588 43.0452 156.683 41.8821C156.127 41.1688 156.78 40.0459 156.354 39.2487C155.792 38.1966 154.126 38.7156 153.081 38.1395C151.919 37.4984 151.989 35.7151 152.754 34.6305C153.687 33.3077 155.323 32.6018 156.938 32.5001C158.554 32.3984 160.158 32.8351 161.666 33.4229C163.38 34.0907 165.079 35.0137 166.134 36.5206C167.416 38.3531 167.54 40.8167 166.899 42.9594C166.508 44.2629 165.177 45.8552 164.193 46.9026Z" fill="#2F2E41"/>
<path d="M169.304 53.1777C169.191 52.6469 168.221 51.9216 166.834 51.3303C164.603 50.4269 162.191 50.0632 159.794 50.2687C157.396 50.4742 155.081 51.2431 153.037 52.5128C152.895 52.5205 152.758 52.5748 152.65 52.6674C152.541 52.76 152.466 52.8857 152.435 53.0253L147.768 73.6676L147.161 76.356L146.759 78.1351L146.152 80.8156L145.829 82.2478C145.808 82.3394 145.807 82.4343 145.826 82.5262C145.845 82.6181 145.883 82.705 145.939 82.7808C145.994 82.8567 146.065 82.9199 146.146 82.9662C146.228 83.0126 146.319 83.0409 146.412 83.0493L166.566 84.789C166.584 84.789 166.605 84.7916 166.623 84.7916C166.79 84.7906 166.949 84.7266 167.07 84.6125C167.191 84.4984 167.264 84.3427 167.275 84.1767L167.467 81.2571L167.672 78.1351L167.761 76.7817L167.964 73.6676L169.307 53.2119V53.1935L169.304 53.1777Z" fill="#073E58"/>
<path d="M136.236 54.4757C136.269 54.6175 136.29 54.7617 136.299 54.9068L147.588 61.4193L150.332 59.8397L153.257 63.6691L147.387 67.8529L134.508 57.6927C133.983 57.887 133.411 57.9169 132.868 57.7783C132.326 57.6396 131.838 57.3391 131.471 56.9166C131.103 56.4941 130.873 55.9697 130.81 55.413C130.748 54.8564 130.856 54.294 131.121 53.8006C131.386 53.3072 131.795 52.9062 132.294 52.6509C132.792 52.3956 133.357 52.2981 133.912 52.3714C134.467 52.4447 134.987 52.6853 135.402 53.0612C135.818 53.4371 136.109 53.9305 136.236 54.4757Z" fill="#A0616A"/>
<path d="M147.991 60.8665C147.972 60.6912 147.993 60.514 148.052 60.3478C148.111 60.1817 148.206 60.0308 148.331 59.9064L154.076 54.1595C154.646 53.5902 155.406 53.2518 156.21 53.2096C157.014 53.1673 157.805 53.4243 158.431 53.9308C159.056 54.4374 159.472 55.1577 159.599 55.9528C159.725 56.748 159.552 57.5617 159.114 58.2371L155.022 64.5421C154.851 64.8049 154.583 64.9891 154.276 65.0544C153.97 65.1197 153.649 65.0607 153.386 64.8903L148.523 61.7345C148.375 61.6389 148.251 61.5112 148.159 61.361C148.067 61.2108 148.009 61.0418 147.991 60.8665Z" fill="#3F3D56"/>
<path d="M167.963 73.667L167.76 76.7811L147.16 76.3554L147.767 73.667H167.963Z" fill="#CCCCCC"/>
<path d="M167.673 78.1348L167.467 81.2567L146.152 80.8152L146.76 78.1348H167.673Z" fill="#CCCCCC"/>
<path d="M159.752 29.2549C157.567 29.2551 155.469 30.1056 153.9 31.6261C152.332 33.1467 151.417 35.218 151.349 37.4015H149.766C149.626 37.4015 149.493 37.4568 149.394 37.5554C149.296 37.654 149.24 37.7876 149.24 37.927V40.0294C149.24 40.1688 149.296 40.3024 149.394 40.401C149.493 40.4996 149.626 40.555 149.766 40.555H167.636C167.775 40.555 167.909 40.4996 168.007 40.401C168.106 40.3024 168.161 40.1688 168.161 40.0294V37.6642C168.161 36.5599 167.944 35.4664 167.521 34.4461C167.099 33.4258 166.479 32.4988 165.698 31.7179C164.917 30.937 163.99 30.3176 162.97 29.895C161.95 29.4724 160.856 29.2549 159.752 29.2549Z" fill="#073E58"/>
<path d="M28.4116 112.969C26.7484 113.554 24.9627 113.7 23.2265 113.394C21.4903 113.088 19.8621 112.341 18.4988 111.223C15.0268 108.309 13.9382 103.508 13.0525 99.0621L10.4326 85.9131L15.9175 89.6898C19.8619 92.4058 23.8952 95.2088 26.6263 99.1427C29.3574 103.077 30.5496 108.447 28.3552 112.704" fill="#E6E6E6"/>
<path d="M27.9422 128.889C28.4974 124.846 29.0682 120.75 28.6788 116.663C28.333 113.033 27.2256 109.488 24.9711 106.581C23.7744 105.041 22.3183 103.722 20.6682 102.682C20.2379 102.41 19.8419 103.092 20.2703 103.363C23.1255 105.167 25.3338 107.832 26.577 110.972C27.9501 114.465 28.1706 118.271 27.9339 121.981C27.7909 124.225 27.4876 126.454 27.182 128.68C27.1579 128.78 27.1729 128.886 27.2241 128.976C27.2752 129.066 27.3585 129.134 27.4573 129.165C27.5581 129.192 27.6656 129.178 27.7563 129.127C27.8471 129.075 27.9139 128.99 27.9422 128.889Z" fill="#F2F2F2"/>
<path d="M22.5957 121.733C21.8824 122.817 20.9019 123.7 19.7487 124.295C18.5955 124.89 17.3085 125.178 16.0115 125.131C12.6785 124.973 9.89982 122.647 7.39848 120.439L0 113.906L4.89656 113.672C8.41788 113.503 12.03 113.346 15.384 114.432C18.7379 115.518 21.8311 118.131 22.4444 121.603" fill="#E6E6E6"/>
<path d="M29.5117 131.213C26.8397 126.485 23.7404 121.231 18.2025 119.551C16.6627 119.086 15.0481 118.919 13.4457 119.06C12.9406 119.104 13.0667 119.882 13.5709 119.839C16.2569 119.616 18.9377 120.325 21.162 121.847C23.3024 123.304 24.969 125.33 26.3795 127.478C27.2435 128.793 28.0175 130.165 28.7915 131.534C29.0389 131.972 29.762 131.656 29.5117 131.213Z" fill="#F2F2F2"/>
<path d="M195.177 132.27H8.06846C7.99876 132.27 7.93192 132.242 7.88264 132.193C7.83335 132.143 7.80566 132.077 7.80566 132.007C7.80566 131.937 7.83335 131.87 7.88264 131.821C7.93192 131.772 7.99876 131.744 8.06846 131.744H195.177C195.246 131.744 195.313 131.772 195.363 131.821C195.412 131.87 195.44 131.937 195.44 132.007C195.44 132.077 195.412 132.143 195.363 132.193C195.313 132.242 195.246 132.27 195.177 132.27Z" fill="#CCCCCC"/>
</svg>
