<svg width="53" height="40" viewBox="0 0 53 40" fill="none" xmlns="http://www.w3.org/2000/svg">
<path d="M35.5877 2.89138L39.1366 9.98911C39.6148 10.9707 40.8984 11.902 41.9807 12.1033L48.3989 13.1604C52.5015 13.84 53.4579 16.8101 50.5131 19.7801L45.5044 24.7887C44.6738 25.6193 44.1956 27.2553 44.4725 28.4383L45.9071 34.6299C47.0397 39.5127 44.4221 41.4256 40.1182 38.8583L34.1028 35.2843C33.0205 34.6299 31.2083 34.6299 30.126 35.2843L24.1106 38.8583C19.8065 41.4004 17.1889 39.5127 18.3215 34.6299L19.7562 28.4383C19.9827 27.2302 19.5045 25.5942 18.6739 24.7636L13.6652 19.7549C10.7204 16.8101 11.6768 13.84 15.7794 13.1353L22.1977 12.0782C23.28 11.902 24.5636 10.9455 25.0418 9.96394L28.5907 2.86621C30.5287 -0.959508 33.6497 -0.959508 35.5877 2.89138Z" fill="#292D32"/>
<path d="M16.9892 4.24737H1.88769C0.855754 4.24737 0 3.39162 0 2.35968C0 1.32774 0.855754 0.471985 1.88769 0.471985H16.9892C18.0212 0.471985 18.8769 1.32774 18.8769 2.35968C18.8769 3.39162 18.0212 4.24737 16.9892 4.24737Z" fill="#292D32"/>
<path d="M9.43846 39.4844H1.88769C0.855754 39.4844 0 38.6286 0 37.5967C0 36.5647 0.855754 35.709 1.88769 35.709H9.43846C10.4704 35.709 11.3262 36.5647 11.3262 37.5967C11.3262 38.6286 10.4704 39.4844 9.43846 39.4844Z" fill="#292D32"/>
<path d="M4.40462 21.866H1.88769C0.855754 21.866 0 21.0102 0 19.9783C0 18.9463 0.855754 18.0906 1.88769 18.0906H4.40462C5.43655 18.0906 6.29231 18.9463 6.29231 19.9783C6.29231 21.0102 5.43655 21.866 4.40462 21.866Z" fill="#292D32"/>
</svg>
