<svg width="200" height="134" viewBox="0 0 200 134" fill="none" xmlns="http://www.w3.org/2000/svg">
<path d="M200 85.6288C200.011 92.7811 198.431 99.7995 195.433 105.917C195.433 113.399 192.612 120.18 188.035 125.123C186.889 126.36 185.656 127.468 184.35 128.431C184.297 128.472 184.243 128.511 184.189 128.55C184.091 128.622 183.993 128.693 183.893 128.766L183.801 128.833C179.468 131.818 174.585 133.368 169.626 133.333H37.9668C28.8882 133.333 20.6696 129.425 14.7151 123.111C8.76055 116.796 5.09097 108.057 5.09097 98.4182C1.75661 92.0713 -0.0122159 84.6625 6.35019e-05 77.0947C6.35019e-05 55.6697 13.8532 38.301 30.9441 38.301C31.549 38.301 32.1486 38.3269 32.7448 38.368C43.4686 15.763 67.6573 0 95.7587 0C113.035 0 128.827 5.9538 140.923 15.7911C145.505 12.5892 150.68 10.9102 155.944 10.9178C173.031 10.9178 186.888 28.2865 186.888 49.7115C186.885 51.0672 186.827 52.4218 186.713 53.7701C190.832 57.3743 194.189 62.1503 196.502 67.695C198.814 73.2398 200.014 79.3907 200 85.6288Z" fill="#CFDCE2"/>
<path d="M172.723 130.997V114.835C172.723 114.835 179.021 126.293 172.723 130.997Z" fill="#F1F1F1"/>
<path d="M173.113 130.994L161.207 120.064C161.207 120.064 173.907 123.173 173.113 130.994Z" fill="#F1F1F1"/>
<path d="M115.032 55.6288L75.1984 78.9103C75.059 78.9916 74.893 79.0143 74.7369 78.9733C74.5808 78.9324 74.4473 78.8312 74.3657 78.692L48.7499 34.8641C48.6686 34.7247 48.646 34.5587 48.6869 34.4026C48.7279 34.2465 48.8291 34.113 48.9683 34.0314L88.8023 10.7499C88.9417 10.6686 89.1076 10.646 89.2637 10.6869C89.4198 10.7279 89.5533 10.8291 89.6349 10.9683L115.251 54.7962C115.332 54.9356 115.355 55.1015 115.314 55.2576C115.273 55.4137 115.172 55.5472 115.032 55.6288Z" fill="white"/>
<path d="M115.032 55.6288L75.1984 78.9103C75.059 78.9916 74.893 79.0143 74.7369 78.9733C74.5808 78.9324 74.4473 78.8312 74.3657 78.692L48.7499 34.8641C48.6686 34.7247 48.646 34.5587 48.6869 34.4026C48.7279 34.2465 48.8291 34.113 48.9683 34.0314L88.8023 10.7499C88.9417 10.6686 89.1076 10.646 89.2637 10.6869C89.4198 10.7279 89.5533 10.8291 89.6349 10.9683L115.251 54.7962C115.332 54.9356 115.355 55.1015 115.314 55.2576C115.273 55.4137 115.172 55.5472 115.032 55.6288ZM49.0911 34.2416C49.0076 34.2906 48.9469 34.3707 48.9223 34.4643C48.8978 34.558 48.9114 34.6576 48.9601 34.7412L74.576 78.5691C74.6249 78.6527 74.705 78.7134 74.7987 78.7379C74.8923 78.7625 74.9919 78.7489 75.0755 78.7001L114.91 55.4186C114.993 55.3696 115.054 55.2896 115.078 55.1959C115.103 55.1022 115.089 55.0027 115.041 54.919L89.4247 11.0911C89.3758 11.0076 89.2957 10.9469 89.202 10.9223C89.1083 10.8977 89.0088 10.9113 88.9251 10.9601L49.0911 34.2416Z" fill="#3F3D56"/>
<path d="M74.6965 38.6064L64.8168 44.3807C64.6774 44.462 64.5115 44.4846 64.3554 44.4437C64.1993 44.4027 64.0658 44.3016 63.9842 44.1623L58.2099 34.2827C58.1286 34.1432 58.106 33.9773 58.1469 33.8212C58.1878 33.6651 58.289 33.5316 58.4282 33.45L68.3079 27.6757C68.4473 27.5944 68.6133 27.5718 68.7694 27.6127C68.9255 27.6536 69.059 27.7548 69.1406 27.8941L74.9149 37.7737C74.9961 37.9131 75.0188 38.0791 74.9779 38.2352C74.9369 38.3913 74.8357 38.5248 74.6965 38.6064ZM58.5511 33.6602C58.4676 33.7092 58.4068 33.7893 58.3823 33.8829C58.3577 33.9766 58.3713 34.0762 58.4201 34.1598L64.1944 44.0395C64.2433 44.123 64.3234 44.1837 64.4171 44.2083C64.5108 44.2329 64.6103 44.2193 64.694 44.1705L74.5737 38.3962C74.6572 38.3472 74.7179 38.2671 74.7425 38.1735C74.767 38.0798 74.7534 37.9802 74.7047 37.8966L68.9304 28.0169C68.8814 27.9334 68.8013 27.8727 68.7077 27.8481C68.614 27.8235 68.5144 27.8371 68.4308 27.8859L58.5511 33.6602Z" fill="#F2F2F2"/>
<path d="M72.5649 41.4735L62.6852 47.2478C62.5598 47.3209 62.4104 47.3413 62.2699 47.3045C62.1294 47.2676 62.0093 47.1766 61.9359 47.0512L56.1615 37.1716C56.0884 37.0461 56.068 36.8967 56.1049 36.7562C56.1417 36.6158 56.2328 36.4956 56.3581 36.4222L66.2377 30.6479C66.3632 30.5747 66.5126 30.5543 66.6531 30.5912C66.7936 30.628 66.9137 30.7191 66.9871 30.8444L72.7614 40.7241C72.8346 40.8495 72.855 40.9989 72.8181 41.1394C72.7813 41.2799 72.6902 41.4 72.5649 41.4735Z" fill="#073E58"/>
<path d="M96.412 34.0227L65.5118 52.0828C65.3863 52.1561 65.2369 52.1766 65.0963 52.1398C64.9558 52.1029 64.8357 52.0117 64.7624 51.8863C64.689 51.7609 64.6686 51.6114 64.7054 51.4709C64.7423 51.3303 64.8335 51.2102 64.9589 51.1369L95.8591 33.0768C95.9212 33.0405 95.9899 33.0168 96.0612 33.007C96.1324 32.9973 96.2049 33.0016 96.2745 33.0199C96.3441 33.0381 96.4094 33.0699 96.4667 33.1134C96.524 33.1569 96.5722 33.2112 96.6085 33.2733C96.6448 33.3355 96.6685 33.4041 96.6783 33.4754C96.6881 33.5467 96.6837 33.6192 96.6654 33.6887C96.6472 33.7583 96.6154 33.8236 96.5719 33.8809C96.5284 33.9383 96.4741 33.9864 96.412 34.0227Z" fill="#CCCCCC"/>
<path d="M90.854 41.6428L67.416 55.3415C67.3539 55.3778 67.2853 55.4015 67.214 55.4113C67.1427 55.421 67.0702 55.4167 67.0007 55.3984C66.8601 55.3616 66.74 55.2704 66.6667 55.145C66.5933 55.0195 66.5729 54.8701 66.6097 54.7296C66.6466 54.589 66.7378 54.4689 66.8632 54.3956L90.3011 40.6969C90.3632 40.6606 90.4319 40.6369 90.5032 40.6271C90.5744 40.6174 90.6469 40.6217 90.7165 40.64C90.7861 40.6582 90.8514 40.69 90.9087 40.7335C90.966 40.777 91.0142 40.8313 91.0505 40.8935C91.0868 40.9556 91.1105 41.0242 91.1203 41.0955C91.1301 41.1668 91.1257 41.2393 91.1074 41.3089C91.0892 41.3784 91.0574 41.4438 91.0139 41.5011C90.9704 41.5584 90.9161 41.6065 90.854 41.6428Z" fill="#CCCCCC"/>
<path d="M89.304 22.1018L75.6407 30.0876C75.5152 30.1609 75.3658 30.1814 75.2253 30.1445C75.0847 30.1077 74.9646 30.0165 74.8913 29.8911C74.818 29.7656 74.7975 29.6162 74.8343 29.4757C74.8712 29.3351 74.9624 29.215 75.0878 29.1417L88.7512 21.1559C88.8766 21.0826 89.026 21.0621 89.1666 21.099C89.2361 21.1172 89.3015 21.149 89.3588 21.1925C89.4161 21.236 89.4643 21.2903 89.5006 21.3524C89.5369 21.4146 89.5606 21.4832 89.5703 21.5545C89.5801 21.6258 89.5757 21.6983 89.5575 21.7678C89.5392 21.8374 89.5075 21.9027 89.464 21.9601C89.4205 22.0174 89.3661 22.0655 89.304 22.1018Z" fill="#CCCCCC"/>
<path d="M87.7984 27.3538L77.545 33.3466C77.4828 33.3829 77.4142 33.4066 77.3429 33.4164C77.2716 33.4261 77.1991 33.4218 77.1296 33.4035C77.06 33.3853 76.9947 33.3535 76.9373 33.31C76.88 33.2665 76.8319 33.2121 76.7956 33.15C76.7593 33.0879 76.7355 33.0193 76.7258 32.948C76.716 32.8767 76.7204 32.8042 76.7386 32.7346C76.7569 32.665 76.7887 32.5997 76.8321 32.5424C76.8756 32.4851 76.93 32.4369 76.9921 32.4006L87.2455 26.4079C87.371 26.3346 87.5204 26.3141 87.6609 26.3509C87.8015 26.3878 87.9216 26.479 87.9949 26.6044C88.0682 26.7298 88.0887 26.8793 88.0519 27.0198C88.015 27.1603 87.9238 27.2805 87.7984 27.3538Z" fill="#CCCCCC"/>
<path d="M100.221 40.5393L69.3203 58.5994C69.1949 58.6727 69.0455 58.6932 68.9049 58.6564C68.7644 58.6195 68.6443 58.5283 68.571 58.4029C68.4976 58.2775 68.4772 58.128 68.514 57.9875C68.5509 57.8469 68.642 57.7268 68.7675 57.6535L99.6677 39.5934C99.7932 39.5201 99.9426 39.4996 100.083 39.5365C100.224 39.5733 100.344 39.6645 100.417 39.7899C100.49 39.9154 100.511 40.0648 100.474 40.2053C100.437 40.3459 100.346 40.466 100.221 40.5393Z" fill="#CCCCCC"/>
<path d="M94.6626 48.1585L71.2246 61.8571C71.1625 61.8934 71.0939 61.9171 71.0226 61.9269C70.9513 61.9367 70.8788 61.9323 70.8092 61.914C70.7397 61.8958 70.6743 61.864 70.617 61.8205C70.5597 61.777 70.5115 61.7227 70.4752 61.6606C70.4389 61.5985 70.4152 61.5298 70.4055 61.4585C70.3957 61.3873 70.4001 61.3148 70.4183 61.2452C70.4366 61.1756 70.4683 61.1103 70.5118 61.053C70.5553 60.9957 70.6097 60.9475 70.6718 60.9112L94.1097 47.2126C94.1718 47.1763 94.2405 47.1525 94.3117 47.1428C94.383 47.133 94.4555 47.1374 94.5251 47.1556C94.5947 47.1739 94.66 47.2056 94.7173 47.2491C94.7746 47.2926 94.8228 47.347 94.8591 47.4091C94.8954 47.4712 94.9191 47.5398 94.9289 47.6111C94.9387 47.6824 94.9343 47.7549 94.916 47.8245C94.8978 47.8941 94.866 47.9594 94.8225 48.0167C94.779 48.074 94.7247 48.1222 94.6626 48.1585Z" fill="#CCCCCC"/>
<path d="M104.029 47.0559L73.1289 65.116C73.0668 65.1523 72.9982 65.176 72.9269 65.1858C72.8556 65.1956 72.7831 65.1912 72.7135 65.173C72.644 65.1547 72.5786 65.1229 72.5213 65.0794C72.464 65.036 72.4158 64.9816 72.3795 64.9195C72.3432 64.8574 72.3195 64.7887 72.3098 64.7175C72.3 64.6462 72.3044 64.5737 72.3226 64.5041C72.3409 64.4345 72.3726 64.3692 72.4161 64.3119C72.4596 64.2546 72.514 64.2064 72.5761 64.1701L103.476 46.11C103.538 46.0737 103.607 46.05 103.678 46.0402C103.75 46.0305 103.822 46.0348 103.892 46.0531C103.961 46.0713 104.027 46.1031 104.084 46.1466C104.141 46.1901 104.189 46.2444 104.226 46.3065C104.262 46.3687 104.286 46.4373 104.295 46.5086C104.305 46.5799 104.301 46.6524 104.283 46.7219C104.264 46.7915 104.233 46.8568 104.189 46.9142C104.146 46.9715 104.091 47.0196 104.029 47.0559Z" fill="#CCCCCC"/>
<path d="M105.933 50.3138L75.0332 68.3738C74.9711 68.4101 74.9025 68.4338 74.8312 68.4436C74.7599 68.4534 74.6874 68.449 74.6178 68.4308C74.5482 68.4125 74.4829 68.3807 74.4256 68.3373C74.3683 68.2938 74.3201 68.2394 74.2838 68.1773C74.2475 68.1152 74.2238 68.0465 74.2141 67.9753C74.2043 67.904 74.2087 67.8315 74.2269 67.7619C74.2452 67.6923 74.2769 67.627 74.3204 67.5697C74.3639 67.5124 74.4183 67.4642 74.4804 67.4279L105.381 49.3678C105.443 49.3315 105.511 49.3078 105.583 49.298C105.654 49.2883 105.726 49.2926 105.796 49.3109C105.866 49.3291 105.931 49.3609 105.988 49.4044C106.046 49.4479 106.094 49.5022 106.13 49.5644C106.166 49.6265 106.19 49.6951 106.2 49.7664C106.21 49.8377 106.205 49.9102 106.187 49.9798C106.169 50.0493 106.137 50.1147 106.093 50.172C106.05 50.2293 105.996 50.2775 105.933 50.3138Z" fill="#CCCCCC"/>
<path d="M95.9406 62.9968C96.3699 62.4913 96.7564 61.9508 97.0959 61.3811C97.4004 60.8671 97.6991 60.3175 97.7662 59.7147C97.8006 59.458 97.7738 59.1969 97.6882 58.9525C97.6025 58.708 97.4604 58.4873 97.2734 58.3082C97.0926 58.1415 96.8635 58.0367 96.6193 58.009C96.375 57.9812 96.1282 58.0319 95.9146 58.1537C95.6985 58.2777 95.52 58.4579 95.3979 58.6751C95.2758 58.8924 95.2147 59.1385 95.2212 59.3876C95.2387 59.6619 95.3179 59.9287 95.453 60.168C95.588 60.4074 95.7753 60.6132 96.001 60.7701C96.9143 61.4318 98.3407 61.3972 99.3142 60.8936C100.411 60.3264 100.977 58.8425 100.116 57.8267C99.9365 57.6154 99.6384 57.8515 99.6833 58.0794C99.7402 58.3873 99.9125 58.6618 100.165 58.8468C100.418 59.0319 100.731 59.1136 101.042 59.0752C101.353 59.0368 101.637 58.8812 101.837 58.6402C102.037 58.3993 102.137 58.0911 102.117 57.7786L101.73 58.0049C102.205 58.2152 102.727 58.2968 103.243 58.2414C103.759 58.186 104.252 57.9956 104.671 57.6894C104.879 57.5387 105.064 57.3597 105.221 57.1575C105.411 56.9102 105.729 56.7504 105.987 56.5723L107.845 55.2884C108.119 55.0996 107.859 54.6496 107.583 54.84L105.9 56.0027C105.62 56.1964 105.338 56.3878 105.059 56.584C104.86 56.7243 104.737 56.9508 104.556 57.1173C104.213 57.4261 103.789 57.6309 103.334 57.7079C102.878 57.7849 102.411 57.7309 101.985 57.5522C101.945 57.5309 101.901 57.5201 101.856 57.5209C101.811 57.5217 101.767 57.5341 101.728 57.5568C101.689 57.5795 101.657 57.6119 101.634 57.6507C101.611 57.6895 101.599 57.7336 101.598 57.7786C101.618 57.965 101.564 58.152 101.448 58.2988C101.331 58.4457 101.161 58.5404 100.975 58.5625C100.788 58.5846 100.601 58.5321 100.453 58.4166C100.305 58.3012 100.209 58.1319 100.185 57.9459L99.753 58.1986C100.309 58.8539 99.9386 59.859 99.2984 60.2987C98.5824 60.7905 97.5245 60.8758 96.7174 60.5701C96.5195 60.502 96.3377 60.3938 96.1834 60.2523C96.0291 60.1107 95.9057 59.9389 95.8208 59.7475C95.7422 59.5746 95.7197 59.3814 95.7567 59.1951C95.7936 59.0087 95.8881 58.8387 96.0268 58.7089C96.147 58.5902 96.3086 58.5228 96.4775 58.521C96.6464 58.5192 96.8094 58.5831 96.9321 58.6993C97.0657 58.8357 97.1638 59.0029 97.2176 59.1861C97.2714 59.3693 97.2794 59.563 97.2407 59.75C97.1575 60.2704 96.8698 60.7503 96.6021 61.1948C96.2965 61.7013 95.9509 62.1826 95.5686 62.6341C95.3543 62.8876 95.7241 63.2531 95.9406 62.9968Z" fill="#073E58"/>
<path d="M108.154 72.5863C108.225 72.6593 108.29 72.7378 108.349 72.8211L117.475 72.5978L118.54 70.6523L121.686 71.8754L120.136 75.5026C120.011 75.7956 119.794 76.0401 119.518 76.1994C119.242 76.3587 118.921 76.4241 118.605 76.3859L108.294 75.1403C108.051 75.4482 107.72 75.6748 107.345 75.7899C106.97 75.905 106.568 75.9031 106.194 75.7846C105.82 75.666 105.491 75.4364 105.251 75.1263C105.01 74.8162 104.87 74.4402 104.849 74.0484C104.827 73.6566 104.925 73.2676 105.13 72.933C105.335 72.5984 105.637 72.3342 105.996 72.1755C106.355 72.0168 106.754 71.9711 107.139 72.0445C107.525 72.1178 107.879 72.3068 108.154 72.5863Z" fill="#FFB7B7"/>
<path d="M137.903 128.011H134.902L133.475 116.437L137.903 116.437L137.903 128.011Z" fill="#FFB7B7"/>
<path d="M138.67 130.919L128.994 130.919V130.796C128.994 129.797 129.391 128.84 130.097 128.133C130.804 127.427 131.761 127.03 132.76 127.03H132.76L138.67 127.031L138.67 130.919Z" fill="#2F2E41"/>
<path d="M110.656 127.944L107.896 126.765L111.13 115.561L115.203 117.3L110.656 127.944Z" fill="#FFB7B7"/>
<path d="M110.217 130.919L101.319 127.118L101.367 127.005C101.76 126.087 102.501 125.362 103.428 124.99C104.355 124.618 105.392 124.629 106.31 125.021L106.31 125.022L111.745 127.343L110.217 130.919Z" fill="#2F2E41"/>
<path d="M123.319 75.0942L123.102 78.6106L129.445 79.2893L136.081 79.9995L134.128 74.6602L123.319 75.0942Z" fill="#FFB7B7"/>
<path d="M122.902 78.6552L120.438 61.4774L124.708 60.0777L125.963 58.3574L132.067 58.7186L132.963 60.7261L136.218 62.2642L135.718 71.5541L136.083 79.3254L122.902 78.6552Z" fill="#2F2E41"/>
<path d="M121.35 74.0525L117.006 72.3144L117.024 72.2371C117.043 72.1592 118.892 64.4327 119.137 63.1911C119.393 61.8975 120.328 61.5399 120.367 61.5253L120.396 61.5146L122.115 62.0379L122.871 67.9706L121.35 74.0525Z" fill="#2F2E41"/>
<path d="M112.89 125.91L107.107 124.723L116.35 99.2199L119.513 90.521C119.513 90.521 121.52 83.5463 122.426 80.8472L122.973 77.2256L135.922 78.6589C135.922 78.6589 139.539 83.9705 138.44 92.628L138.937 125.168L133.155 125.465L128.311 92.6463L119.81 110.637C119.81 110.637 117.13 118.315 115.213 119.979L112.89 125.91Z" fill="#2F2E41"/>
<path d="M130.731 79.8671C130.833 79.8646 130.934 79.8702 131.035 79.8838L137.077 73.0399L136.374 70.9364L139.41 69.4609L141.016 73.0638C141.145 73.3548 141.177 73.6801 141.106 73.9908C141.036 74.3015 140.866 74.5808 140.623 74.7868L132.699 81.5009C132.759 81.8886 132.7 82.2855 132.53 82.6388C132.359 82.9921 132.085 83.2851 131.744 83.4788C131.402 83.6725 131.01 83.7577 130.619 83.7231C130.228 83.6885 129.857 83.5358 129.555 83.2851C129.254 83.0345 129.035 82.6979 128.929 82.3201C128.823 81.9423 128.835 81.5412 128.962 81.1701C129.09 80.799 129.328 80.4756 129.643 80.2429C129.959 80.0101 130.339 79.879 130.731 79.8671Z" fill="#FFB7B7"/>
<path d="M136.594 73.7056L134.074 67.7778L135.057 63.6488L136.116 62.3108C136.194 62.2777 136.277 62.261 136.362 62.2617C136.446 62.2625 136.529 62.2808 136.606 62.3154C136.997 62.4726 137.329 62.9544 137.595 63.7474L139.957 70.4746L136.594 73.7056Z" fill="#2F2E41"/>
<path d="M123.52 56.1615V51.6926C123.52 50.1043 124.15 48.5811 125.274 47.4581C126.397 46.335 127.92 45.7041 129.508 45.7041C131.096 45.7041 132.619 46.335 133.742 47.4581C134.866 48.5811 135.496 50.1043 135.496 51.6926V56.1615C135.496 56.3748 135.411 56.5793 135.261 56.7301C135.11 56.8809 134.905 56.9657 134.692 56.966H124.324C124.111 56.9657 123.906 56.8809 123.755 56.7301C123.605 56.5793 123.52 56.3748 123.52 56.1615Z" fill="#2F2E41"/>
<path d="M128.277 56.8621C130.702 56.8621 132.668 54.8964 132.668 52.4716C132.668 50.0468 130.702 48.0811 128.277 48.0811C125.852 48.0811 123.887 50.0468 123.887 52.4716C123.887 54.8964 125.852 56.8621 128.277 56.8621Z" fill="#FFB7B7"/>
<path d="M122.102 52.0496C122.103 50.7937 122.603 49.5896 123.491 48.7015C124.379 47.8135 125.583 47.3139 126.839 47.3125H127.733C128.988 47.3139 130.193 47.8135 131.081 48.7015C131.969 49.5896 132.468 50.7937 132.47 52.0496V52.139H130.581L129.936 50.335L129.808 52.139H128.831L128.506 51.2288L128.441 52.139H122.102L122.102 52.0496Z" fill="#2F2E41"/>
<path d="M127.844 57.4682C127.756 57.3481 127.703 57.2054 127.692 57.0566C127.681 56.9077 127.712 56.7587 127.781 56.6268C128.729 54.8252 130.055 51.4964 128.295 49.4434L128.168 49.2959H133.278V56.9682L128.636 57.7873C128.589 57.7956 128.541 57.7999 128.494 57.7999C128.367 57.7999 128.242 57.7698 128.129 57.7122C128.016 57.6545 127.919 57.5709 127.844 57.4682Z" fill="#2F2E41"/>
<path d="M68.2324 125.482L70.9442 126.452L75.973 116.453L71.9706 115.022L68.2324 125.482Z" fill="#9F616A"/>
<path d="M66.6006 127.864L67.8565 124.35L73.1972 126.258C74.0992 126.582 74.836 127.25 75.2461 128.116C75.6561 128.982 75.7059 129.976 75.3844 130.878L75.3449 130.989L66.6006 127.864Z" fill="#2F2E41"/>
<path d="M85.8667 128.165L88.7465 128.165L90.1167 117.057L85.8662 117.057L85.8667 128.165Z" fill="#9F616A"/>
<path d="M85.1318 127.225L90.8033 127.225H90.8035C91.2782 127.225 91.7481 127.318 92.1867 127.5C92.6252 127.681 93.0236 127.948 93.3592 128.283C93.6949 128.619 93.9611 129.017 94.1427 129.456C94.3244 129.894 94.4179 130.364 94.4179 130.839V130.956L85.132 130.957L85.1318 127.225Z" fill="#2F2E41"/>
<path d="M79.3037 57.1984L80.5562 54.7236C80.5562 54.7236 85.2219 55.8926 85.6461 58.5968L79.3037 57.1984Z" fill="#F1F1F1"/>
<path d="M74.1359 85.4962L77.5418 104.503L68.498 120.497L73.9009 122.611L83.0622 107.107L84.2367 102.879L84.9413 124.96L89.814 124.812L92.0479 104.194L88.4648 85.0264L74.1359 85.4962Z" fill="#2F2E41"/>
<path d="M80.6014 89.9887C75.5977 89.9887 72.4208 89.0316 72.3496 89.0165L72.2344 88.9919L74.8406 76.9084L74.958 65.7625C74.958 61.0392 78.0666 57.5569 78.498 57.2355C78.5706 56.9488 78.705 56.6814 78.8917 56.452C79.0783 56.2226 79.3128 56.0367 79.5788 55.9073C80.6157 55.4368 81.8828 56.0014 81.9362 56.0257L85.7394 57.4516L85.7573 57.5044C85.8031 57.6395 90.8125 74.0848 90.8125 74.0848C90.8125 74.0848 90.5093 88.4536 90.4036 88.9244C90.4036 88.9244 83.3815 89.9887 80.6014 89.9887Z" fill="#3F3D56"/>
<path d="M84.446 53.9438C87.285 53.9438 89.5864 51.6424 89.5864 48.8034C89.5864 45.9645 87.285 43.6631 84.446 43.6631C81.6071 43.6631 79.3057 45.9645 79.3057 48.8034C79.3057 51.6424 81.6071 53.9438 84.446 53.9438Z" fill="#9F616A"/>
<path opacity="0.2" d="M78.7148 66.6738L87.7079 79.2212L89.0359 73.3617L78.7148 66.6738Z" fill="black"/>
<path d="M106.909 75.2113C106.656 75.4114 106.362 75.5536 106.049 75.6278C105.735 75.7021 105.409 75.7067 105.093 75.6412C104.777 75.5757 104.479 75.4418 104.221 75.2489C103.963 75.056 103.75 74.8088 103.597 74.5247L95.8564 75.7636L97.5334 72.0512L104.627 71.4438C105.121 71.2192 105.681 71.1837 106.199 71.3441C106.718 71.5044 107.16 71.8495 107.441 72.3139C107.723 72.7783 107.824 73.3297 107.726 73.8637C107.628 74.3977 107.337 74.8772 106.909 75.2113Z" fill="#9F616A"/>
<path d="M97.9326 71.8402L100.714 71.5674L101.485 75.4472L97.9849 75.5091L97.9326 71.8402Z" fill="#F1F1F1"/>
<path d="M100.212 76.7989L86.5904 75.586L79.7124 64.6475L79.6913 64.5508C79.4961 63.6573 79.6327 62.7232 80.0758 61.9231C80.5188 61.1229 81.238 60.5113 82.0989 60.2025C82.9598 59.8938 83.9037 59.9089 84.7543 60.245C85.6049 60.5812 86.3041 61.2154 86.7213 62.0294L90.7589 69.9049L98.9074 71.1366L100.212 76.7989Z" fill="#3F3D56"/>
<path d="M80.0674 53.2664L84.3339 53.4195C84.594 53.4288 85.2998 50.6221 85.3922 50.0399C85.4652 49.6608 85.6737 49.3213 85.9788 49.0848C86.2838 48.8482 86.6646 48.7307 87.0499 48.7544C87.3692 48.7845 88.1746 48.1879 89.0056 47.4813C90.5834 46.14 90.5013 43.6207 88.7681 42.4873C88.7208 42.4563 88.6743 42.428 88.6287 42.4024C87.5353 41.7905 86.2563 41.585 85.0034 41.5693C83.8676 41.5551 82.6996 41.698 81.6991 42.2356C79.9052 43.1994 78.9505 45.3055 78.8667 47.3401C78.7828 49.3748 79.4351 51.3643 80.1752 53.2613" fill="#2F2E41"/>
<path d="M187.021 131.158H20.8904C20.8312 131.158 20.7743 131.134 20.7324 131.092C20.6905 131.05 20.667 130.994 20.667 130.934C20.667 130.875 20.6905 130.818 20.7324 130.776C20.7743 130.734 20.8312 130.711 20.8904 130.711H187.11C187.169 130.711 187.226 130.734 187.268 130.776C187.31 130.818 187.334 130.875 187.334 130.934C187.334 131.058 187.145 131.158 187.021 131.158Z" fill="#CBCBCB"/>
</svg>
