<svg width="30" height="37" viewBox="0 0 30 37" fill="none" xmlns="http://www.w3.org/2000/svg">
<path d="M25.1733 11.7087L10.8273 3.36801C1.19068 -2.2444 -2.76452 2.35465 2.06217 13.56L3.52023 16.9509C3.93921 17.9447 3.93921 19.0945 3.52023 20.0884L2.06217 23.4597C-2.76452 34.665 1.17392 39.2641 10.8273 33.6517L25.1733 25.311C31.6089 21.5694 31.6089 15.4503 25.1733 11.7087ZM19.76 19.9714H10.71C10.0229 19.9714 9.45304 19.3089 9.45304 18.5099C9.45304 17.7109 10.0229 17.0483 10.71 17.0483H19.76C20.4472 17.0483 21.017 17.7109 21.017 18.5099C21.017 19.3089 20.4472 19.9714 19.76 19.9714Z" fill="#292D32"/>
</svg>
