<svg width="28" height="25" viewBox="0 0 28 25" fill="none" xmlns="http://www.w3.org/2000/svg">
<path d="M26.95 8.81269C23.716 3.79266 18.984 0.902344 14 0.902344C11.508 0.902344 9.086 1.62147 6.874 2.96291C4.662 4.31817 2.674 6.29576 1.05 8.81269C-0.35 10.9839 -0.35 14.5104 1.05 16.6816C4.284 21.7154 9.016 24.5919 14 24.5919C16.492 24.5919 18.914 23.8728 21.126 22.5313C23.338 21.1761 25.326 19.1985 26.95 16.6816C28.35 14.5242 28.35 10.9839 26.95 8.81269ZM14 18.3411C10.864 18.3411 8.344 15.838 8.344 12.754C8.344 9.6701 10.864 7.167 14 7.167C17.136 7.167 19.656 9.6701 19.656 12.754C19.656 15.838 17.136 18.3411 14 18.3411Z" fill="black"/>
<path d="M13.9978 8.7998C11.7998 8.7998 10.0078 10.5699 10.0078 12.7549C10.0078 14.9261 11.7998 16.6963 13.9978 16.6963C16.1958 16.6963 18.0018 14.9261 18.0018 12.7549C18.0018 10.5838 16.1958 8.7998 13.9978 8.7998Z" fill="black"/>
</svg>
