<svg width="700" height="360" viewBox="0 0 700 360" fill="none" xmlns="http://www.w3.org/2000/svg">
<g clip-path="url(#clip0_7_11)">
<path d="M509.082 222.447C508.641 222.467 508.204 222.352 507.831 222.115C507.458 221.879 507.167 221.534 506.997 221.127C506.826 220.719 506.785 220.27 506.879 219.838C506.973 219.407 507.197 219.015 507.522 218.715L507.669 218.128C507.65 218.081 507.63 218.034 507.61 217.988C507.166 216.938 506.422 216.043 505.47 215.416C504.519 214.788 503.404 214.455 502.264 214.46C501.125 214.464 500.012 214.805 499.065 215.439C498.119 216.074 497.381 216.975 496.944 218.027C495.2 222.229 492.979 226.438 492.432 230.88C492.191 232.844 492.292 234.834 492.732 236.763C488.635 227.825 486.507 218.111 486.493 208.279C486.492 205.811 486.63 203.346 486.904 200.894C487.131 198.884 487.445 196.888 487.848 194.906C490.044 184.155 494.759 174.078 501.606 165.502C504.92 163.694 507.6 160.914 509.285 157.536C509.895 156.321 510.327 155.025 510.566 153.687C510.192 153.736 509.156 148.043 509.438 147.693C508.917 146.903 507.985 146.51 507.416 145.738C504.586 141.902 500.687 142.572 498.652 147.785C494.304 149.98 494.262 153.619 496.93 157.119C498.627 159.346 498.86 162.359 500.35 164.742C500.196 164.939 500.037 165.129 499.884 165.325C497.083 168.926 494.642 172.793 492.596 176.871C493.093 172.303 492.5 167.682 490.863 163.388C489.204 159.387 486.095 156.017 483.357 152.557C480.069 148.402 473.325 150.215 472.745 155.483C472.74 155.534 472.734 155.585 472.729 155.636C473.136 155.865 473.534 156.109 473.923 156.366C474.413 156.693 474.792 157.16 475.011 157.706C475.23 158.252 475.28 158.852 475.152 159.427C475.025 160.001 474.727 160.524 474.298 160.926C473.868 161.328 473.327 161.592 472.746 161.681L472.686 161.691C472.831 163.156 473.087 164.609 473.452 166.036C469.94 179.619 477.523 184.566 488.35 184.789C488.589 184.911 488.822 185.034 489.061 185.15C487.005 190.976 485.716 197.045 485.225 203.204C484.947 206.838 484.963 210.488 485.274 214.119L485.255 213.99C484.471 209.953 482.317 206.31 479.158 203.676C474.465 199.821 467.835 198.402 462.773 195.303C462.235 194.958 461.609 194.774 460.97 194.772C460.331 194.771 459.704 194.952 459.165 195.295C458.625 195.637 458.194 196.127 457.924 196.707C457.654 197.286 457.555 197.931 457.639 198.565C457.645 198.61 457.652 198.655 457.659 198.7C458.414 199.007 459.149 199.361 459.859 199.76C460.266 199.99 460.664 200.233 461.054 200.491C461.543 200.818 461.922 201.285 462.141 201.831C462.361 202.377 462.41 202.976 462.283 203.551C462.155 204.125 461.857 204.648 461.428 205.05C460.999 205.453 460.458 205.716 459.876 205.806L459.816 205.815C459.774 205.821 459.737 205.827 459.694 205.833C460.983 208.912 462.793 211.746 465.044 214.211C467.24 226.069 476.673 227.194 486.763 223.74H486.769C487.876 228.551 489.48 233.234 491.555 237.713H508.654C508.715 237.523 508.77 237.327 508.825 237.137C507.243 237.237 505.654 237.142 504.094 236.855C505.363 235.299 506.631 233.73 507.9 232.173C507.928 232.144 507.955 232.113 507.98 232.081C508.623 231.285 509.273 230.494 509.916 229.697L509.916 229.696C509.951 227.254 509.67 224.818 509.082 222.447Z" fill="#F2F2F2"/>
<path d="M560.289 266.753H427.027C417.95 266.753 409.244 270.359 402.825 276.778C396.406 283.197 392.8 291.903 392.8 300.981V358.024H403.538V326.548C403.538 317.47 407.144 308.764 413.563 302.345C419.981 295.926 428.687 292.32 437.765 292.32H549.551C558.628 292.32 567.334 295.926 573.753 302.345C580.172 308.764 583.778 317.47 583.778 326.548V358.024H594.516V300.981C594.516 291.903 590.91 283.197 584.491 276.778C578.072 270.359 569.366 266.753 560.289 266.753Z" fill="#F2F2F2"/>
<path d="M494.425 281.326C513.698 281.326 529.322 279.094 529.322 276.341C529.322 273.587 513.698 271.355 494.425 271.355C475.151 271.355 459.527 273.587 459.527 276.341C459.527 279.094 475.151 281.326 494.425 281.326Z" fill="#E6E6E6"/>
<path d="M520.806 277.591H474.324C462.85 266.594 454.645 255.996 461.214 247.198C461.214 244.67 462.218 242.244 464.006 240.456C465.795 238.668 468.22 237.664 470.749 237.664H524.382C526.911 237.664 529.336 238.668 531.124 240.456C532.912 242.244 533.917 244.67 533.917 247.198C536.418 257.222 531.95 267.355 520.806 277.591Z" fill="#F2F2F2"/>
<path d="M366.69 113.306C311.231 81.8447 332.451 0.829047 271.529 26.6377C192.421 7.79876 237.387 86.4878 167.165 113.306C163.95 113.306 160.765 113.94 157.794 115.171C154.823 116.401 152.123 118.205 149.849 120.479C147.575 122.753 145.772 125.453 144.541 128.424C143.31 131.395 142.677 134.579 142.677 137.795C142.677 141.083 143.339 144.338 144.624 147.365C145.909 150.392 147.791 153.129 150.156 155.413C152.522 157.697 155.324 159.481 158.394 160.659C161.464 161.837 164.74 162.384 168.026 162.269L177.191 161.946V239.091H356.664V161.946L365.829 162.269C369.115 162.384 372.391 161.837 375.461 160.659C378.532 159.481 381.333 157.697 383.699 155.413C386.065 153.129 387.946 150.392 389.231 147.365C390.516 144.338 391.178 141.083 391.178 137.795C391.178 134.579 390.545 131.395 389.314 128.424C388.084 125.453 386.28 122.753 384.006 120.479C381.732 118.205 379.032 116.401 376.061 115.171C373.09 113.94 369.906 113.306 366.69 113.306Z" fill="#E6E6E6"/>
<path d="M349.568 275.139H181.986C180.104 275.139 178.299 275.887 176.968 277.218C175.638 278.549 174.89 280.353 174.89 282.235V292.587C174.89 294.469 175.638 296.274 176.968 297.604C178.299 298.935 180.104 299.683 181.986 299.683H194.831V359.507H204.035V299.683H323.684V359.507H332.888V299.683H349.568C351.45 299.683 353.255 298.935 354.586 297.604C355.917 296.273 356.664 294.469 356.664 292.587V282.235C356.664 280.353 355.917 278.549 354.586 277.218C353.255 275.887 351.45 275.139 349.568 275.139Z" fill="#E6E6E6"/>
<path d="M384.082 258.266H378.945C380.43 255.702 381.211 252.792 381.208 249.829V151.655C381.208 147.18 379.43 142.888 376.265 139.724C373.101 136.56 368.809 134.782 364.334 134.782C359.859 134.782 355.567 136.56 352.403 139.724C349.238 142.888 347.461 147.18 347.461 151.655V232.798C221.143 215.056 303.463 215.235 189.463 233.362V151.655C189.463 147.18 187.685 142.888 184.52 139.724C181.356 136.56 177.064 134.782 172.589 134.782C168.114 134.782 163.822 136.56 160.658 139.724C157.493 142.888 155.715 147.18 155.715 151.655V249.829C155.712 252.792 156.493 255.702 157.978 258.266H147.472C145.59 258.266 143.785 259.013 142.454 260.344C141.123 261.675 140.376 263.48 140.376 265.362V275.713C140.376 277.595 141.123 279.4 142.454 280.731C143.785 282.061 145.59 282.809 147.472 282.809H384.082C385.964 282.809 387.769 282.061 389.1 280.731C390.431 279.4 391.178 277.595 391.178 275.713V265.362C391.178 263.48 390.431 261.675 389.1 260.344C387.769 259.013 385.964 258.266 384.082 258.266Z" fill="#F2F2F2"/>
<path d="M145.782 158.002C148.762 158.274 151.732 157.372 154.057 155.488C156.383 153.605 157.882 150.887 158.235 147.915C158.298 147.31 158.31 146.701 158.271 146.093L228.535 111.33L211.466 90.933L145.537 135.889C143.032 136.242 140.714 137.416 138.945 139.225C137.176 141.035 136.056 143.379 135.759 145.893C135.447 148.784 136.295 151.681 138.119 153.947C139.942 156.213 142.59 157.661 145.482 157.974C145.582 157.985 145.682 157.994 145.782 158.002Z" fill="#FFB6B6"/>
<path d="M300.179 94.9151C300.179 94.9151 307.003 81.3762 285.697 76.4634C264.391 71.5507 225.056 88.0936 223.055 89.9832C221.053 91.8728 223.653 89.3062 217.323 88.3221C214.284 87.8495 208.217 82.7072 206.971 87.0343C205.725 91.3614 206.069 96.558 202.424 92.3515C198.778 88.1449 213.144 128.318 213.144 128.318C213.144 128.318 214.998 128.02 221.569 124.536C225.26 122.579 225.299 114.453 227.769 116.726C230.238 118.999 252.193 118.613 253.427 118.314C254.661 118.014 260.193 107.829 260.193 107.829L300.179 94.9151Z" fill="#2F2E41"/>
<path d="M186.001 346.86L174.304 344.421L178.141 298.142L195.406 301.741L186.001 346.86Z" fill="#FFB6B6"/>
<path d="M183.87 359.149L147.898 351.651L147.993 351.197C148.767 347.483 150.985 344.23 154.157 342.151C157.33 340.073 161.199 339.34 164.912 340.113L164.913 340.113L172.522 336.498L183.743 344.038L186.883 344.692L183.87 359.149Z" fill="#2F2E41"/>
<path d="M387.406 293.22L399.048 290.531L394.216 244.345L377.034 248.313L387.406 293.22Z" fill="#FFB6B6"/>
<path d="M389.801 305.46L425.603 297.191L425.498 296.739C424.644 293.043 422.358 289.838 419.141 287.828C415.924 285.818 412.041 285.168 408.345 286.021L408.344 286.022L400.659 282.57L389.603 290.35L386.478 291.072L389.801 305.46Z" fill="#2F2E41"/>
<path d="M250.054 186.937L248.046 209.652C248.046 209.652 182.839 188.71 182.046 237.971C181.793 253.664 174.89 314.255 174.89 314.255L194.831 317.323C194.831 317.323 205.569 301.217 205.569 295.848C205.569 290.479 216.307 251.363 216.307 251.363L272.271 245.859C331.354 242.159 349.761 240.625 362.8 198.441C362.8 198.441 370.749 254.881 375.212 259.258C379.674 263.635 382.977 259.283 377.49 264.91C372.004 270.537 368.169 268.236 372.004 270.537C375.839 272.838 398.848 269.003 398.848 269.003C403.987 269.58 397.397 187.34 380.176 163.07C364.809 141.412 311.788 209.469 311.788 209.469L250.054 186.937Z" fill="#2F2E41"/>
<path d="M319.147 90.3109C319.147 90.3109 339.079 88.0485 343.324 97.6006C347.569 107.153 358.268 127.042 358.268 127.042C358.268 127.042 352.782 129.38 358.385 123.308C360.896 120.586 356.262 122.246 359.446 121.185C362.63 120.124 363.691 121.185 363.691 121.185L374.305 139.228C374.305 139.228 373.451 143.339 367.937 143.473C362.423 143.607 371.121 138.166 363.691 145.596C359.855 149.432 345.927 154.723 345.927 154.723L310.322 122.003L319.147 90.3109Z" fill="#2F2E41"/>
<path d="M256.294 80.6191L276.439 75.399L285.842 62.4294L308.174 65.1748L312.928 82.8654L328.827 92.0939C328.827 92.0939 320.039 185.037 322.13 190.141C324.22 195.244 319.148 199.514 312.747 206.092C306.346 212.671 318.065 205.33 319.55 212.493C321.036 219.655 331.863 227.235 319.55 227.16C307.238 227.084 239.514 230.503 241.637 222.012C243.76 213.522 237.156 211.198 240.357 205.874C243.558 200.551 245.712 203.526 244.635 195.67C243.558 187.815 244.619 182.508 244.619 178.263C244.619 174.017 248.175 135.439 248.175 135.439L256.294 80.6191Z" fill="#6C63FF"/>
<path d="M328.667 227.319C332.509 234.175 310.868 236.192 287.423 235.269C286.97 233.532 286.219 231.888 285.205 230.408C282.615 226.65 285.746 201.231 281.968 198.663C283.677 202.802 276.767 230.312 275.324 234.547C254.118 232.849 234.791 228.996 235.025 224.411C235.088 223.074 239.514 197.602 241.658 195.67C243.792 193.738 241.637 157.271 241.658 149.448C241.669 141.616 253.312 84.0378 253.312 81.9152C253.312 79.7925 280.907 69.179 280.907 69.179L292.581 136.044L310.327 73.1697C312.062 75.5289 314.068 77.6768 316.302 79.5696C319.858 82.5307 333.974 94.6513 333.974 94.6513L321.885 184.101C321.885 184.101 327.606 197.602 327.309 202.961C327.193 207.214 326.357 211.417 324.836 215.39C323.116 220.431 323.297 217.725 328.667 227.319Z" fill="#2F2E41"/>
<path d="M347.655 42.4896C349.867 44.5064 351.204 47.3067 351.383 50.2944C351.561 53.2822 350.567 56.2216 348.611 58.4874C348.206 58.9417 347.765 59.3617 347.291 59.7431L369.032 135.061L342.46 136.222L331.167 57.2279C329.738 55.1396 329.04 52.637 329.183 50.1104C329.325 47.5838 330.3 45.1755 331.955 43.2612C332.908 42.1811 334.063 41.299 335.356 40.6655C336.65 40.0319 338.055 39.6593 339.492 39.5689C340.929 39.4785 342.37 39.672 343.733 40.1384C345.095 40.6049 346.352 41.3351 347.432 42.2874C347.508 42.3538 347.582 42.4212 347.655 42.4896Z" fill="#FFB6B6"/>
<path d="M338.275 129.795C339.124 129.119 365.567 120.534 365.567 120.534C365.567 120.534 376.798 137.243 370.011 142.65C363.224 148.056 348.399 149.466 348.399 149.466C348.399 149.466 342.17 145.961 342.316 141.831C342.463 137.7 338.275 129.795 338.275 129.795Z" fill="#2F2E41"/>
<path d="M321.913 52.3762L324.787 31.2074C325.186 28.272 327.191 26.3445 329.257 26.9108L334.396 28.3192C336.462 28.8855 337.819 31.7345 337.42 34.6698L334.546 55.8387C334.147 58.774 332.142 60.7015 330.076 60.1352L324.937 58.7269C322.871 58.1606 321.514 55.3116 321.913 52.3762Z" fill="#3F3D56"/>
<path d="M323.337 51.1468L326.267 31.7825C326.673 29.0974 328.135 27.3932 329.525 27.9836L332.984 29.4519C334.374 30.0424 335.175 32.7073 334.769 35.3925L331.839 54.7567C331.433 57.4418 329.971 59.1461 328.581 58.5557L325.122 57.0873C323.732 56.4969 322.931 53.8319 323.337 51.1468Z" fill="#6C63FF"/>
<path d="M268.68 31.0334C270.678 47.153 281.848 60.4438 298.091 60.4438C301.953 60.4438 305.777 59.6831 309.346 58.2051C312.914 56.7271 316.156 54.5607 318.887 51.8297C321.618 49.0987 323.784 45.8565 325.262 42.2883C326.74 38.7201 327.501 34.8957 327.501 31.0334C327.501 14.7905 314.264 3.12477 298.091 1.62304C280.93 0.0296097 266.115 10.3379 268.68 31.0334Z" fill="#2F2E41"/>
<path d="M301.342 62.1902C315.745 62.1902 327.422 50.5139 327.422 36.1103C327.422 21.7068 315.745 10.0305 301.342 10.0305C286.938 10.0305 275.262 21.7068 275.262 36.1103C275.262 50.5139 286.938 62.1902 301.342 62.1902Z" fill="#FFB6B6"/>
<path d="M274.336 38.9516C275.162 44.6188 279.992 52.5256 278.861 52.5256C277.73 52.5256 269.687 29.1632 277.73 27.6399C283.563 26.535 284.867 27.5042 290.319 25.14L289.55 25.864C293.159 28.4883 298.181 26.8707 302.299 25.1626C306.427 23.4659 311.438 21.8483 315.058 24.4613C317.332 26.1015 318.293 28.952 319.707 31.3728C321.121 33.8048 323.734 36.101 326.426 35.3545C328.587 34.7549 329.831 32.3342 329.82 30.0945C329.809 27.8548 326.892 25.7242 327.874 23.7147C330.785 17.7598 328.167 13.7008 321.823 10.8986C319.515 10.548 317.207 10.1898 314.9 9.82401C316.109 8.14915 317.575 6.67559 319.244 5.45771C318.384 3.70435 317.4 1.93972 315.737 0.966928C313.893 -0.130268 311.608 -0.0511391 309.47 0.0620135C304.697 0.310837 299.927 0.559679 295.161 0.808548C291.632 0.989556 287.978 1.2045 284.822 2.82206C280.886 4.84683 278.307 8.7946 276.429 12.8103C272.221 21.837 272.888 29.0992 274.336 38.9516Z" fill="#2F2E41"/>
<path d="M4.03988e-06 358.932C-0.000353431 359.052 0.0230157 359.171 0.0687603 359.281C0.114505 359.392 0.181726 359.493 0.266556 359.578C0.351386 359.663 0.452142 359.73 0.563045 359.776C0.673947 359.821 0.792808 359.845 0.912771 359.844H699.087C699.329 359.844 699.561 359.748 699.733 359.577C699.904 359.406 700 359.174 700 358.932C700 358.69 699.904 358.457 699.733 358.286C699.561 358.115 699.329 358.019 699.087 358.019H0.912771C0.792809 358.019 0.673957 358.042 0.563056 358.088C0.452155 358.133 0.351385 358.201 0.266556 358.286C0.181727 358.37 0.114506 358.471 0.0687603 358.582C0.0230147 358.693 -0.000350377 358.812 4.03988e-06 358.932Z" fill="#CCCCCC"/>
</g>
<defs>
<clipPath id="clip0_7_11">
<rect width="700" height="359.844" fill="white"/>
</clipPath>
</defs>
</svg>
