<svg width="603" height="1117" viewBox="0 0 603 1117" fill="none" xmlns="http://www.w3.org/2000/svg">
<path d="M276.58 188.084C276.014 72.9354 183.474 0 183.474 0H601.778V1120L3.33383 1117C3.33383 1117 216.534 949.424 194.494 869.388C172.454 789.352 126.31 816.13 100.488 728.325C74.235 639.054 192.553 691.534 206.189 589.263C221.44 474.875 120.637 450.081 131.299 333.149C143.66 197.581 277.26 326.404 276.58 188.084Z" fill="#8880E4" stroke="#8880E4"/>
<path d="M280.548 186.5C279.988 71.4029 179.621 -1.5 179.621 -1.5H602V1118H2C2 1118 221.192 947.5 199.406 867.5C177.621 787.5 132.008 814.266 106.483 726.5C80.5323 637.269 197.488 689.725 210.966 587.5C226.042 473.163 126.399 448.38 136.939 331.5C149.158 195.992 281.22 324.758 280.548 186.5Z" fill="url(#paint0_linear_7_66)" stroke="#130C60"/>
<defs>
<linearGradient id="paint0_linear_7_66" x1="302" y1="-1.5" x2="302" y2="1118" gradientUnits="userSpaceOnUse">
<stop stop-color="#07004F"/>
<stop offset="1" stop-color="#130C60" stop-opacity="0.47"/>
</linearGradient>
</defs>
</svg>
