<svg width="429" height="931" viewBox="0 0 429 931" fill="none" xmlns="http://www.w3.org/2000/svg">
<path d="M253.5 51C235.5 38.5 2.44432 0 2.44432 0L429 -1V930H70.0117C30.157 931.93 1 930 1 930H70.0117C134.858 926.861 228.024 913.505 270 865C315 813 339 770.5 297.5 705C256 639.5 55.5676 536.928 46.2553 422C35.9045 294.254 249.613 158.171 249.613 158.171C249.613 158.171 289.542 131.263 291.5 113C293.826 91.3058 271.5 63.5 253.5 51Z" fill="#8880E4"/>
<path d="M227.5 52C185 31.7951 0 -1 0 -1H429V930H79.5C79.5 930 225.298 917.644 264.5 864C274 851 331.504 789.5 290.5 717C249.496 644.5 70.6712 537.428 61 422.5C50.2502 294.754 242.697 158.171 242.697 158.171C242.697 158.171 282.012 128.615 279.5 105C277 81.5 270 72.2049 227.5 52Z" fill="url(#paint0_linear_9_84)"/>
<defs>
<linearGradient id="paint0_linear_9_84" x1="214.5" y1="-1" x2="214.5" y2="930" gradientUnits="userSpaceOnUse">
<stop stop-color="#07004F"/>
<stop offset="0.854167" stop-color="#110A5D" stop-opacity="0.67"/>
<stop offset="0.9999" stop-color="#130C5F" stop-opacity="0.41"/>
<stop offset="1" stop-color="#130C60" stop-opacity="0"/>
</linearGradient>
</defs>
</svg>
