<svg width="1002" height="1117" viewBox="0 0 1002 1117" fill="none" xmlns="http://www.w3.org/2000/svg">
<path d="M458.634 188.084C457.691 72.9354 303.457 0 303.457 0H1000.63V1120L3.22305 1117C3.22305 1117 358.556 949.424 321.823 869.388C285.091 789.352 208.184 816.13 165.147 728.325C121.392 639.054 318.588 691.534 341.314 589.263C366.733 474.875 198.728 450.081 216.498 333.149C237.1 197.581 459.767 326.404 458.634 188.084Z" fill="#8880E4" stroke="#8880E4"/>
<path d="M465.246 186.5C464.314 71.4029 297.036 -1.5 297.036 -1.5H1001V1118H1C1 1118 366.32 947.5 330.011 867.5C293.701 787.5 217.68 814.266 175.139 726.5C131.887 637.269 326.813 689.725 349.277 587.5C374.403 473.163 208.332 448.38 225.898 331.5C246.263 195.992 466.366 324.758 465.246 186.5Z" fill="url(#paint0_linear_7_66)" stroke="#130C60"/>
<defs>
<linearGradient id="paint0_linear_7_66" x1="501" y1="-1.5" x2="501" y2="1118" gradientUnits="userSpaceOnUse">
<stop stop-color="#07004F"/>
<stop offset="1" stop-color="#130C60" stop-opacity="0.47"/>
</linearGradient>
</defs>
</svg>
