<svg width="599" height="931" viewBox="0 0 599 931" fill="none" xmlns="http://www.w3.org/2000/svg">
<path d="M354.545 51C329.371 38.5 3.41859 0 3.41859 0L600 -1V930H97.9184C42.1776 931.93 1.39856 930 1.39856 930H97.9184C188.612 926.861 318.915 913.505 377.622 865C440.559 813 474.126 770.5 416.084 705C358.042 639.5 77.7169 536.928 64.6927 422C50.2161 294.254 349.109 158.171 349.109 158.171C349.109 158.171 404.953 131.263 407.692 113C410.946 91.3058 379.72 63.5 354.545 51Z" fill="#8880E4"/>
<path d="M318.182 52C258.741 31.7951 0 -1 0 -1H600V930H111.189C111.189 930 315.103 917.644 369.93 864C383.217 851 463.642 789.5 406.294 717C348.945 644.5 98.8409 537.428 85.3147 422.5C70.2799 294.754 339.437 158.171 339.437 158.171C339.437 158.171 394.423 128.615 390.909 105C387.413 81.5 377.622 72.2049 318.182 52Z" fill="url(#paint0_linear_9_84)"/>
<defs>
<linearGradient id="paint0_linear_9_84" x1="300" y1="-1" x2="300" y2="930" gradientUnits="userSpaceOnUse">
<stop stop-color="#07004F"/>
<stop offset="0.854167" stop-color="#110A5D" stop-opacity="0.67"/>
<stop offset="0.9999" stop-color="#130C5F" stop-opacity="0.41"/>
<stop offset="1" stop-color="#130C60" stop-opacity="0"/>
</linearGradient>
</defs>
</svg>
