<svg width="1350" height="1117" viewBox="0 0 1350 1117" fill="none" xmlns="http://www.w3.org/2000/svg">
<path d="M618.577 188.084C617.304 72.9354 409.166 0 409.166 0H1350V1120L4 1117C4 1117 483.522 949.424 433.951 869.388C384.38 789.352 280.595 816.13 222.516 728.325C163.469 639.054 429.585 691.534 460.254 589.263C494.557 474.875 267.833 450.081 291.814 333.149C319.617 197.581 620.106 326.404 618.577 188.084Z" fill="#8880E4" stroke="#8880E4"/>
<path d="M627.5 186.5C626.242 71.4029 400.5 -1.5 400.5 -1.5H1350.5V1118H1C1 1118 494 947.5 445 867.5C396 787.5 293.409 814.266 236 726.5C177.632 637.269 440.684 689.725 471 587.5C504.908 473.163 280.795 448.38 304.5 331.5C331.983 195.992 629.012 324.758 627.5 186.5Z" fill="url(#paint0_linear_7_66)" stroke="#130C60"/>
<defs>
<linearGradient id="paint0_linear_7_66" x1="675.75" y1="-1.5" x2="675.75" y2="1118" gradientUnits="userSpaceOnUse">
<stop stop-color="#07004F"/>
<stop offset="1" stop-color="#130C60" stop-opacity="0.47"/>
</linearGradient>
</defs>
</svg>
