<svg width="400" height="800" viewBox="0 0 400 800" fill="none" xmlns="http://www.w3.org/2000/svg">
<path d="M332.545 743.617C307.371 758.373 -18.5814 803.82 -18.5814 803.82L578 805V-293.988H75.9187C20.1777 -296.265 -20.6014 -293.988 -20.6014 -293.988H75.9187C166.613 -290.282 296.915 -274.516 355.622 -217.259C418.559 -155.877 452.126 -105.708 394.084 -28.3892C336.042 48.9295 55.7168 170.009 42.6927 305.675C28.2161 456.471 327.109 617.109 327.109 617.109C327.109 617.109 382.953 648.872 385.692 670.43C388.946 696.039 357.72 728.862 332.545 743.617Z" fill="#8880E4"/>
<path d="M296.182 742.437C236.741 766.287 -22 805 -22 805H578V-293.988H89.1888C89.1888 -293.988 293.102 -279.403 347.93 -216.079C361.217 -200.733 441.642 -128.136 384.294 -42.5545C326.945 43.0273 76.8409 169.419 63.3147 305.085C48.2799 455.881 317.437 617.109 317.437 617.109C317.437 617.109 372.423 651.998 368.909 679.874C365.413 707.614 355.622 718.586 296.182 742.437Z" fill="url(#paint0_linear_9_87)"/>
<defs>
<linearGradient id="paint0_linear_9_87" x1="278" y1="805" x2="278" y2="-293.988" gradientUnits="userSpaceOnUse">
<stop stop-color="#07004F"/>
<stop offset="0.854167" stop-color="#110A5D" stop-opacity="0.67"/>
<stop offset="0.9999" stop-color="#130C5F" stop-opacity="0.41"/>
<stop offset="1" stop-color="#130C60" stop-opacity="0"/>
</linearGradient>
</defs>
</svg>
