<svg width="753" height="1117" viewBox="0 0 753 1117" fill="none" xmlns="http://www.w3.org/2000/svg">
<path d="M345.226 188.084C344.518 72.9354 228.843 0 228.843 0H751.722V1120L3.66728 1117C3.66728 1117 270.167 949.424 242.618 869.388C215.068 789.352 157.388 816.13 125.11 728.325C92.2938 639.054 240.191 691.534 257.236 589.263C276.3 474.875 150.296 450.081 163.623 333.149C179.075 197.581 346.075 326.404 345.226 188.084Z" fill="#8880E4" stroke="#8880E4"/>
<path d="M350.185 186.5C349.485 71.4029 224.027 -1.5 224.027 -1.5H752V1118H2C2 1118 275.99 947.5 248.758 867.5C221.526 787.5 164.51 814.266 132.604 726.5C100.165 637.269 246.359 689.725 263.208 587.5C282.053 473.163 157.499 448.38 170.674 331.5C185.947 195.992 351.025 324.758 350.185 186.5Z" fill="url(#paint0_linear_7_66)" stroke="#130C60"/>
<defs>
<linearGradient id="paint0_linear_7_66" x1="377" y1="-1.5" x2="377" y2="1118" gradientUnits="userSpaceOnUse">
<stop stop-color="#07004F"/>
<stop offset="1" stop-color="#130C60" stop-opacity="0.47"/>
</linearGradient>
</defs>
</svg>
