<svg width="20" height="23" viewBox="0 0 20 23" fill="none" xmlns="http://www.w3.org/2000/svg">
<path d="M19.2908 4.07877C17.6408 3.9148 15.9908 3.79182 14.3306 3.69959V3.68934L14.1052 2.35708C13.9515 1.41425 13.726 0 11.3279 0H8.64291C6.25505 0 6.02959 1.35276 5.86562 2.34683L5.65041 3.6586C4.69733 3.72009 3.74425 3.78158 2.79117 3.87381L0.70054 4.07877C0.270117 4.11977 -0.0373284 4.49895 0.00366425 4.91912C0.0446569 5.3393 0.413591 5.64674 0.844014 5.60575L2.93464 5.40079C8.30472 4.86788 13.7158 5.07285 19.1473 5.616H19.2293C19.6187 5.616 19.9569 5.3188 19.9979 4.91912C20.0286 4.49895 19.7212 4.11977 19.2908 4.07877Z" fill="white"/>
<path d="M17.4056 7.06101C17.1597 6.80481 16.8215 6.66133 16.4731 6.66133H3.51941C3.17098 6.66133 2.82254 6.80481 2.58683 7.06101C2.35112 7.31721 2.2179 7.66565 2.23839 8.02434L2.87378 18.539C2.98651 20.0967 3.12998 22.0438 6.7066 22.0438H13.2859C16.8625 22.0438 17.0061 20.1069 17.1187 18.539L17.7541 8.03459C17.7746 7.66565 17.6413 7.31721 17.4056 7.06101ZM11.6974 16.9095H8.28476C7.86464 16.9095 7.5162 16.5611 7.5162 16.1409C7.5162 15.7207 7.86464 15.3723 8.28476 15.3723H11.6974C12.1176 15.3723 12.466 15.7207 12.466 16.1409C12.466 16.5611 12.1176 16.9095 11.6974 16.9095ZM12.5583 12.8102H7.43422C7.01404 12.8102 6.6656 12.4618 6.6656 12.0416C6.6656 11.6214 7.01404 11.273 7.43422 11.273H12.5583C12.9784 11.273 13.3269 11.6214 13.3269 12.0416C13.3269 12.4618 12.9784 12.8102 12.5583 12.8102Z" fill="white"/>
</svg>
