<svg width="90" height="64" viewBox="0 0 90 64" fill="none" xmlns="http://www.w3.org/2000/svg">
<path d="M66 6.76V31.69C66 34.75 63.51 37.24 60.45 37.24H33C31.35 37.24 30 35.89 30 34.24V15.07C30 8.95 34.95 4 41.07 4H63.21C64.77 4 66 5.23 66 6.76Z" fill="#292D32"/>
<path d="M88.5 44.5C89.34 44.5 90 45.16 90 46V49C90 53.98 85.98 58 81 58C81 53.05 76.95 49 72 49C67.05 49 63 53.05 63 58H57C57 53.05 52.95 49 48 49C43.05 49 39 53.05 39 58C34.02 58 30 53.98 30 49V43C30 41.35 31.35 40 33 40H61.5C65.64 40 69 36.64 69 32.5V16C69 14.35 70.35 13 72 13H74.52C76.68 13 78.66 14.17 79.74 16.03L81.66 19.39C81.93 19.87 81.57 20.5 81 20.5C76.86 20.5 73.5 23.86 73.5 28V37C73.5 41.14 76.86 44.5 81 44.5H88.5Z" fill="#292D32"/>
<path d="M48 64C51.3137 64 54 61.3138 54 58C54 54.6862 51.3137 52 48 52C44.6863 52 42 54.6862 42 58C42 61.3138 44.6863 64 48 64Z" fill="#292D32"/>
<path d="M72 64C75.3138 64 78 61.3138 78 58C78 54.6862 75.3138 52 72 52C68.6862 52 66 54.6862 66 58C66 61.3138 68.6862 64 72 64Z" fill="#292D32"/>
<path d="M90 35.59V40H81C79.35 40 78 38.65 78 37V28C78 26.35 79.35 25 81 25H84.87L89.22 32.62C89.73 33.52 90 34.54 90 35.59Z" fill="#292D32"/>
<path d="M2.04643 17.4319L4.10248 15.3731C4.59121 14.9512 4.8777 14.3269 4.89456 13.635C4.92826 12.8756 4.62491 12.1163 4.06877 11.5594L2.04643 9.53438C0.293737 7.77938 -0.363523 6.09188 0.192619 4.75875C0.731911 3.4425 2.40034 2.71687 4.86085 2.71687L22.4721 2.71687V1.26563C22.4721 0.57375 23.0451 0 23.736 0C24.427 0 25 0.57375 25 1.26562L25 32.4844C25 33.1763 24.427 33.75 23.736 33.75C23.0451 33.75 22.4721 33.1763 22.4721 32.4844L22.4721 24.2494L4.86085 24.2494C2.43404 24.2494 0.79932 23.5069 0.243177 22.1737C-0.312967 20.8406 0.327444 19.17 2.04643 17.4319Z" fill="#292D32"/>
</svg>
