<svg width="254" height="155" viewBox="0 0 254 155" fill="none" xmlns="http://www.w3.org/2000/svg">
<path d="M4.00017 98.8597C3.98666 107.117 5.96124 115.22 9.70819 122.283C9.70819 130.921 13.2353 138.75 18.9564 144.456C20.3883 145.885 21.9301 147.163 23.5631 148.276C23.6286 148.323 23.6964 148.368 23.7641 148.413C23.8865 148.495 24.0089 148.578 24.1335 148.663L24.2493 148.74C29.6647 152.186 35.7682 153.975 41.9678 153.935L206.541 153.935C217.89 153.935 228.163 149.424 235.606 142.133C243.049 134.843 247.636 124.753 247.636 113.625C251.804 106.298 254.015 97.744 254 89.0069C254 64.2714 236.684 44.219 215.32 44.219C214.564 44.219 213.814 44.249 213.069 44.2964C199.664 18.1986 169.428 0 134.302 0C112.706 0 92.9664 6.87375 77.8463 18.231C72.1186 14.5344 65.6495 12.5959 59.07 12.6048C37.7108 12.6048 20.39 32.6572 20.39 57.3927C20.3932 58.9578 20.4661 60.5217 20.6085 62.0783C15.4598 66.2395 11.2632 71.7534 8.3727 78.1549C5.48216 84.5563 3.98248 91.6576 4.00017 98.8597Z" fill="#CFDCE2"/>
<path d="M52.4773 153.465C41.1618 153.465 31.9888 144.292 31.9888 132.977C31.9888 121.661 41.1618 112.488 52.4773 112.488C63.7928 112.488 72.9658 121.661 72.9658 132.977C72.9658 144.292 63.7928 153.465 52.4773 153.465Z" fill="white"/>
<path d="M52.5253 152.309C41.8754 152.309 33.242 143.676 33.242 133.026C33.242 122.376 41.8754 113.742 52.5253 113.742C63.1752 113.742 71.8086 122.376 71.8086 133.026C71.8086 143.676 63.1752 152.309 52.5253 152.309Z" fill="black"/>
<path d="M65.832 133.013C65.832 125.682 59.8685 119.719 52.5382 119.719C45.208 119.719 39.2444 125.682 39.2444 133.013C39.2444 140.343 45.208 146.306 52.5382 146.306C59.8685 146.306 65.832 140.343 65.832 133.013ZM65.5399 133.013C65.5399 140.182 59.7074 146.014 52.5382 146.014C45.3691 146.014 39.5366 140.182 39.5366 133.013C39.5366 125.844 45.3691 120.011 52.5382 120.011C59.7074 120.011 65.5399 125.844 65.5399 133.013Z" fill="white"/>
<path d="M63.8057 132.949C63.8057 139.243 58.7041 144.344 52.411 144.344C46.1179 144.344 41.0163 139.243 41.0163 132.949C41.0163 126.656 46.1179 121.555 52.411 121.555C58.7041 121.555 63.8057 126.656 63.8057 132.949ZM45.0041 130.221L47.023 131.537L47.7986 130.346L45.0041 130.221ZM48.0776 136.913L47.54 135.598L45.8471 137.825L48.0776 136.913ZM53.2472 141.422L51.8266 139.013V141.422H53.2472ZM53.2472 127.471L51.8266 125.061V127.471H53.2472ZM59.5592 137.825L57.8663 135.598L57.3287 136.913L59.5592 137.825ZM60.4023 130.221L57.6077 130.346L58.3833 131.537L60.4023 130.221Z" fill="#E6E6E6"/>
<path d="M202.683 153.465C191.368 153.465 182.195 144.292 182.195 132.977C182.195 121.661 191.368 112.488 202.683 112.488C213.999 112.488 223.172 121.661 223.172 132.977C223.172 144.292 213.999 153.465 202.683 153.465Z" fill="white"/>
<path d="M202.731 152.309C192.081 152.309 183.448 143.676 183.448 133.026C183.448 122.376 192.081 113.742 202.731 113.742C213.381 113.742 222.015 122.376 222.015 133.026C222.015 143.676 213.381 152.309 202.731 152.309Z" fill="black"/>
<path d="M216.038 133.013C216.038 125.682 210.075 119.719 202.744 119.719C195.414 119.719 189.45 125.682 189.45 133.013C189.45 140.343 195.414 146.306 202.744 146.306C210.075 146.306 216.038 140.343 216.038 133.013ZM215.746 133.013C215.746 140.182 209.913 146.014 202.744 146.014C195.575 146.014 189.743 140.182 189.743 133.013C189.743 125.844 195.575 120.011 202.744 120.011C209.913 120.011 215.746 125.844 215.746 133.013Z" fill="white"/>
<path d="M214.012 132.949C214.012 139.243 208.91 144.344 202.617 144.344C196.324 144.344 191.222 139.243 191.222 132.949C191.222 126.656 196.324 121.555 202.617 121.555C208.91 121.555 214.012 126.656 214.012 132.949ZM195.21 130.221L197.229 131.537L198.005 130.346L195.21 130.221ZM198.284 136.913L197.746 135.598L196.053 137.825L198.284 136.913ZM203.453 141.422L202.033 139.013V141.422H203.453ZM203.453 127.471L202.033 125.061V127.471H203.453ZM209.765 137.825L208.072 135.598L207.535 136.913L209.765 137.825ZM210.608 130.221L207.814 130.346L208.589 131.537L210.608 130.221Z" fill="#E6E6E6"/>
<path d="M75.7901 130.93L75.7901 130.93L75.7901 130.93L75.7889 130.942L75.7889 130.955L75.7888 131.831C75.7233 131.831 75.6532 131.831 75.5899 131.831C75.4943 131.831 75.3827 131.831 75.2948 131.831L75.1859 131.831L75.1544 131.831L75.1459 131.831L75.1438 131.831L75.1432 131.831L75.1431 131.831L75.1431 131.831L75.1425 131.831L74.4744 131.831L73.4778 131.831L73.4368 131.831L73.4106 131.84C73.4495 129.763 72.8449 127.169 71.7786 124.67C70.6906 122.121 69.1111 119.647 67.2093 117.906C63.4341 114.452 58.4976 112.185 53.345 112.112C48.1998 112.039 42.9878 114.008 39.1238 117.359C35.261 120.71 32.793 125.132 32.1886 130.196L32.1883 130.198C32.1755 130.315 32.1762 130.508 32.1788 130.702C32.1797 130.768 32.1808 130.836 32.182 130.903C32.1843 131.041 32.1867 131.179 32.1868 131.305C32.1782 131.428 32.1786 131.641 32.1806 131.814C32.1809 131.842 32.1813 131.87 32.1817 131.896L31.6045 131.896L30.2599 131.896L29.6776 131.896L29.6776 130.745L29.7406 129.737L29.7417 129.728L29.7475 129.682L29.7682 129.517L29.8317 129.01C29.8751 128.663 29.92 128.304 29.9302 128.22C31.0708 123.289 33.5087 119.421 37.6588 115.816C41.7982 112.221 47.8174 110.169 53.3384 110.241C58.8454 110.313 65.3269 113.058 69.3942 116.762C72.9163 120.731 74.5125 124.286 75.23 126.84C75.5892 128.118 75.7286 129.147 75.7785 129.853C75.8035 130.206 75.806 130.479 75.8025 130.661C75.8008 130.752 75.7975 130.821 75.7948 130.866C75.7934 130.889 75.7922 130.906 75.7913 130.916L75.7903 130.928L75.7901 130.93Z" fill="#5A5858" stroke="black" stroke-width="0.5"/>
<path d="M180.595 44.8775V106.983C180.595 106.983 192.824 106.942 193.4 106.981C193.4 106.981 201.232 106.75 209.343 107.749C218.178 108.838 225.093 117.868 225.093 117.868L245.326 118.252C245.326 118.252 248.174 95.7986 245.326 81.8848C243.772 74.2931 242.281 70.126 239.243 62.997C235.952 55.2734 230.676 45.7532 224.453 44.8775C218.23 44.0018 180.595 44.8775 180.595 44.8775Z" fill="#D9D9D9" stroke="black" stroke-width="0.5"/>
<path d="M192.184 106.662V52.4316C192.184 52.4316 192.647 51.0203 193.336 50.4468C194.208 49.7212 196.153 49.7425 196.153 49.7425C196.153 49.7425 221.572 49.4869 224.197 49.7425C226.822 49.9981 229.639 54.0963 229.639 54.0963" stroke="#F4F4F4" stroke-opacity="0.75"/>
<path d="M238.859 117.673C238.859 117.673 238.987 84.3795 238.859 79.5775C238.731 74.7755 234.697 63.0586 234.697 63.0586" stroke="#F4F4F4" stroke-opacity="0.75"/>
<path d="M194.937 72.0257C194.617 70.4275 194.937 61.1774 194.937 54.2263C194.937 54.2263 195.003 53.0088 195.449 52.4336C196.019 51.6995 197.626 51.4732 197.626 51.4732C197.626 51.4732 219.78 51.2787 222.405 51.4732C225.03 51.6677 224.518 51.7713 225.67 52.4336C226.958 53.1736 228.039 55.3148 228.359 55.1227C228.679 54.9306 229.384 54.2263 229.384 54.2263H231.048C231.048 54.2263 230.933 53.6228 231.048 53.2659C231.174 52.8757 231.368 52.5616 231.688 52.4336C232.009 52.3055 233.609 52.4336 233.609 52.4336L234.634 54.2263V68.9524L236.106 74.5228C236.106 74.5228 236.49 77.4015 235.914 78.1082C235.338 78.815 233.097 79.0686 233.097 79.0686C233.097 79.0686 197.242 75.0325 196.346 74.3307C195.449 73.6288 195.257 73.624 194.937 72.0257Z" fill="#F4F4F4"/>
<path d="M233.673 53.6484V73.6247C233.673 73.6247 232.885 74.8614 232.072 75.1614C231.369 75.4211 230.152 75.1614 230.152 75.1614C230.152 75.1614 229.155 74.6067 228.807 74.0089C228.201 72.9679 228.285 71.8546 229.063 70.9356C229.449 70.4805 230.344 70.1033 230.344 70.1033L232.072 69.9752V68.1184C232.072 68.1184 230.839 68.4189 230.152 68.1184C229.421 67.7991 228.807 66.5818 228.807 66.5818V57.362C228.807 57.362 228.997 56.0352 229.575 55.5052C230.306 54.8362 232.072 55.057 232.072 55.057V53.6484H233.673Z" fill="#5A5858"/>
<path d="M1 105.764V14.3984C1 14.3984 164.14 13.5019 171.695 14.3984C174.93 14.7824 177.906 13.8863 177.906 19.9688C177.906 26.0513 177.137 105.764 177.137 105.764H1Z" fill="#ECECEC" stroke="black"/>
<path d="M16.5586 127.024V109.033L185.269 108.648C185.269 108.648 180.595 117.292 180.019 119.341C179.442 121.39 180.915 121.134 180.915 121.134H185.269C185.269 121.134 183.284 125.423 182.772 125.423H178.034V113.45H80.137V117.612H174.064V123.375H80.137V125.423H76.6155C76.6155 125.423 73.602 118.232 70.0848 114.923C67.4016 112.399 64.6426 111.53 60.1607 110.313C54.7071 108.833 50.6708 108.984 45.1785 110.313C40.655 111.408 40.4061 111.992 36.791 114.923C32.8782 118.095 29.2999 125.423 29.2999 125.423H19.3758V127.024H16.5586Z" fill="#5A5858" stroke="black" stroke-width="0.5"/>
<path d="M194.04 113.264C190.47 114.926 186.357 119.795 186.357 119.795H181.491C181.491 119.795 185.589 109.744 186.357 109.422C187.126 109.1 191.543 108.654 193.72 108.462L193.748 108.46C195.93 108.267 199.837 107.922 207.998 109.038C216.194 110.159 223.813 119.411 223.813 119.411C223.813 119.411 248.399 118.89 249.872 120.171C251.344 121.451 251.408 130.031 249.872 131.64C248.335 133.248 223.813 131.64 223.813 131.64C223.813 131.64 222.572 123.371 219.395 119.411C215.909 115.065 212.549 113.342 207.102 112.176C202.097 111.104 198.681 111.104 194.04 113.264Z" fill="#5A5858" stroke="black" stroke-width="0.5"/>
<rect x="245.197" y="121.453" width="4.0977" height="8.06735" rx="2.04885" fill="#D4D4D4"/>
<rect x="195.385" y="83.1641" width="8.32346" height="3.07328" rx="1.53664" fill="#5A5858"/>
<path d="M23.9615 142.323C24.0428 142.074 24.6593 142.184 24.7184 141.961C24.7774 141.739 24.1859 141.553 23.7323 140.928C23.6504 140.815 23.1349 140.105 23.3326 139.806C23.7074 139.24 26.3151 140.651 26.941 139.859C27.0784 139.685 27.1349 139.387 27.5441 138.832C27.7069 138.611 27.8113 138.505 27.9361 138.508C28.1132 138.512 28.1766 138.734 28.4549 139.135C28.8722 139.737 29.0229 139.661 29.2978 140.154C29.5019 140.52 29.5261 140.754 29.6733 140.768C29.8816 140.788 29.9676 140.332 30.2221 140.314C30.4819 140.296 30.7417 140.747 30.8706 141.098C31.1123 141.759 30.9626 142.263 30.9294 142.766C30.8934 143.313 30.9781 144.113 31.5719 145.139L37.1729 154.063C35.97 152.244 32.5555 147.283 31.1798 145.464C30.7827 144.938 30.3559 144.411 29.6991 144.312C29.0666 144.216 28.2972 144.529 27.2231 144.511C27.0977 144.509 26.7486 144.498 26.6637 144.313C26.5935 144.16 26.7678 144.027 26.7044 143.884C26.6193 143.691 26.2367 143.773 25.7152 143.645C25.3475 143.555 25.0977 143.406 24.8828 143.277C24.8181 143.239 23.8532 142.654 23.9615 142.323Z" fill="#3E981E"/>
<path d="M23.9615 142.323C24.0428 142.074 24.6593 142.184 24.7184 141.961C24.7774 141.739 24.1859 141.553 23.7323 140.928C23.6504 140.815 23.1349 140.105 23.3326 139.806C23.7074 139.24 26.3151 140.651 26.941 139.859C27.0784 139.685 27.1349 139.387 27.5441 138.832C27.7069 138.611 27.8113 138.505 27.9361 138.508C28.1132 138.512 28.1766 138.734 28.4549 139.135C28.8722 139.737 29.0229 139.661 29.2978 140.154C29.5019 140.52 29.5261 140.754 29.6733 140.768C29.8816 140.788 29.9676 140.332 30.2221 140.314C30.4819 140.296 30.7417 140.747 30.8706 141.098C31.1123 141.759 30.9626 142.263 30.9294 142.766C30.8934 143.313 30.9781 144.113 31.5719 145.139L37.1729 154.063C35.97 152.244 32.5555 147.283 31.1798 145.464C30.7827 144.938 30.3559 144.411 29.6991 144.312C29.0666 144.216 28.2972 144.529 27.2231 144.511C27.0977 144.509 26.7486 144.498 26.6637 144.313C26.5935 144.16 26.7678 144.027 26.7044 143.884C26.6193 143.691 26.2367 143.773 25.7152 143.645C25.3475 143.555 25.0977 143.406 24.8828 143.277C24.8181 143.239 23.8532 142.654 23.9615 142.323Z" fill="#3E981E"/>
<path d="M23.9615 142.323C24.0428 142.074 24.6593 142.184 24.7184 141.961C24.7774 141.739 24.1859 141.553 23.7323 140.928C23.6504 140.815 23.1349 140.105 23.3326 139.806C23.7074 139.24 26.3151 140.651 26.941 139.859C27.0784 139.685 27.1349 139.387 27.5441 138.832C27.7069 138.611 27.8113 138.505 27.9361 138.508C28.1132 138.512 28.1766 138.734 28.4549 139.135C28.8722 139.737 29.0229 139.661 29.2978 140.154C29.5019 140.52 29.5261 140.754 29.6733 140.768C29.8816 140.788 29.9676 140.332 30.2221 140.314C30.4819 140.296 30.7417 140.747 30.8706 141.098C31.1123 141.759 30.9626 142.263 30.9294 142.766C30.8934 143.313 30.9781 144.113 31.5719 145.139L37.1729 154.063C35.97 152.244 32.5555 147.283 31.1798 145.464C30.7827 144.938 30.3559 144.411 29.6991 144.312C29.0666 144.216 28.2972 144.529 27.2231 144.511C27.0977 144.509 26.7486 144.498 26.6637 144.313C26.5935 144.16 26.7678 144.027 26.7044 143.884C26.6193 143.691 26.2367 143.773 25.7152 143.645C25.3475 143.555 25.0977 143.406 24.8828 143.277C24.8181 143.239 23.8532 142.654 23.9615 142.323Z" fill="#3E981E"/>
<path d="M38.6322 144.41C38.7778 144.378 38.9019 144.712 39.0282 144.677C39.1541 144.642 39.0747 144.298 39.2506 143.895C39.2823 143.822 39.4822 143.364 39.6859 143.375C40.072 143.396 40.1321 145.083 40.7012 145.161C40.8261 145.179 40.9888 145.12 41.3792 145.161C41.5346 145.177 41.617 145.198 41.6515 145.26C41.7004 145.348 41.6099 145.443 41.4933 145.696C41.3184 146.074 41.3989 146.126 41.2362 146.403C41.1155 146.609 41.0077 146.689 41.0434 146.765C41.0939 146.873 41.3424 146.783 41.4245 146.903C41.5083 147.025 41.3623 147.283 41.2268 147.448C40.9725 147.757 40.6816 147.829 40.4252 147.958C40.1466 148.098 39.7783 148.37 39.4457 148.958L36.6819 154.282C37.2277 153.166 38.6773 150.059 39.1735 148.859C39.3167 148.513 39.4524 148.151 39.3116 147.8C39.176 147.462 38.8004 147.174 38.4995 146.642C38.4643 146.58 38.3687 146.406 38.435 146.31C38.4898 146.232 38.6054 146.279 38.6577 146.206C38.7278 146.109 38.5768 145.945 38.4892 145.652C38.4274 145.446 38.4286 145.28 38.4296 145.138C38.4299 145.095 38.4384 144.452 38.6322 144.41Z" fill="#3E981E"/>
<path d="M38.6322 144.41C38.7778 144.378 38.9019 144.712 39.0282 144.677C39.1541 144.642 39.0747 144.298 39.2506 143.895C39.2823 143.822 39.4822 143.364 39.6859 143.375C40.072 143.396 40.1321 145.083 40.7012 145.161C40.8261 145.179 40.9888 145.12 41.3792 145.161C41.5346 145.177 41.617 145.198 41.6515 145.26C41.7004 145.348 41.6099 145.443 41.4933 145.696C41.3184 146.074 41.3989 146.126 41.2362 146.403C41.1155 146.609 41.0077 146.689 41.0434 146.765C41.0939 146.873 41.3424 146.783 41.4245 146.903C41.5083 147.025 41.3623 147.283 41.2268 147.448C40.9725 147.757 40.6816 147.829 40.4252 147.958C40.1466 148.098 39.7783 148.37 39.4457 148.958L36.6819 154.282C37.2277 153.166 38.6773 150.059 39.1735 148.859C39.3167 148.513 39.4524 148.151 39.3116 147.8C39.176 147.462 38.8004 147.174 38.4995 146.642C38.4643 146.58 38.3687 146.406 38.435 146.31C38.4898 146.232 38.6054 146.279 38.6577 146.206C38.7278 146.109 38.5768 145.945 38.4892 145.652C38.4274 145.446 38.4286 145.28 38.4296 145.138C38.4299 145.095 38.4384 144.452 38.6322 144.41Z" fill="#3E981E"/>
<path d="M38.6322 144.41C38.7778 144.378 38.9019 144.712 39.0282 144.677C39.1541 144.642 39.0747 144.298 39.2506 143.895C39.2823 143.822 39.4822 143.364 39.6859 143.375C40.072 143.396 40.1321 145.083 40.7012 145.161C40.8261 145.179 40.9888 145.12 41.3792 145.161C41.5346 145.177 41.617 145.198 41.6515 145.26C41.7004 145.348 41.6099 145.443 41.4933 145.696C41.3184 146.074 41.3989 146.126 41.2362 146.403C41.1155 146.609 41.0077 146.689 41.0434 146.765C41.0939 146.873 41.3424 146.783 41.4245 146.903C41.5083 147.025 41.3623 147.283 41.2268 147.448C40.9725 147.757 40.6816 147.829 40.4252 147.958C40.1466 148.098 39.7783 148.37 39.4457 148.958L36.6819 154.282C37.2277 153.166 38.6773 150.059 39.1735 148.859C39.3167 148.513 39.4524 148.151 39.3116 147.8C39.176 147.462 38.8004 147.174 38.4995 146.642C38.4643 146.58 38.3687 146.406 38.435 146.31C38.4898 146.232 38.6054 146.279 38.6577 146.206C38.7278 146.109 38.5768 145.945 38.4892 145.652C38.4274 145.446 38.4286 145.28 38.4296 145.138C38.4299 145.095 38.4384 144.452 38.6322 144.41Z" fill="#3E981E"/>
<path d="M35.875 145.705L35.7881 144.903L35.7348 144.853C35.4883 144.62 35.3341 144.373 35.2763 144.119C35.2671 144.078 35.2599 144.037 35.2526 143.996C35.2238 143.831 35.188 143.626 35.0294 143.413C34.9407 143.294 34.706 143.026 34.4639 143.12C34.3986 143.144 34.3544 143.187 34.3238 143.232C34.3161 143.224 34.3082 143.216 34.2998 143.208C34.1952 143.106 34.1221 143.069 34.0516 143.033C33.9975 143.005 33.9416 142.977 33.847 142.901C33.8054 142.868 33.7722 142.838 33.7442 142.813C33.6593 142.737 33.5506 142.649 33.4018 142.684C33.244 142.727 33.1899 142.877 33.154 142.977C33.09 143.155 33.0702 143.277 33.0571 143.358C33.0524 143.388 33.047 143.421 33.0429 143.432C33.0083 143.519 32.5749 143.541 32.4118 143.551C32.0452 143.571 31.7279 143.588 31.6516 143.839C31.5969 144.018 31.711 144.214 32.0005 144.436C32.0907 144.506 32.1809 144.553 32.2594 144.589C32.2111 144.635 32.1726 144.697 32.1702 144.781C32.1649 144.982 32.3704 145.135 32.7808 145.239C32.8828 145.265 33.02 145.299 33.1995 145.291C33.284 145.287 33.3581 145.274 33.4212 145.262C33.4307 145.297 33.4479 145.335 33.479 145.37C33.5704 145.475 33.7179 145.502 33.9182 145.443C34.1392 145.381 34.3139 145.297 34.468 145.224C34.6027 145.159 34.7187 145.105 34.8161 145.09C34.9973 145.064 35.1662 145.176 35.3684 145.325L35.875 145.705Z" fill="#3E981E"/>
<path d="M35.875 145.705L35.7881 144.903L35.7348 144.853C35.4883 144.62 35.3341 144.373 35.2763 144.119C35.2671 144.078 35.2599 144.037 35.2526 143.996C35.2238 143.831 35.188 143.626 35.0294 143.413C34.9407 143.294 34.706 143.026 34.4639 143.12C34.3986 143.144 34.3544 143.187 34.3238 143.232C34.3161 143.224 34.3082 143.216 34.2998 143.208C34.1952 143.106 34.1221 143.069 34.0516 143.033C33.9975 143.005 33.9416 142.977 33.847 142.901C33.8054 142.868 33.7722 142.838 33.7442 142.813C33.6593 142.737 33.5506 142.649 33.4018 142.684C33.244 142.727 33.1899 142.877 33.154 142.977C33.09 143.155 33.0702 143.277 33.0571 143.358C33.0524 143.388 33.047 143.421 33.0429 143.432C33.0083 143.519 32.5749 143.541 32.4118 143.551C32.0452 143.571 31.7279 143.588 31.6516 143.839C31.5969 144.018 31.711 144.214 32.0005 144.436C32.0907 144.506 32.1809 144.553 32.2594 144.589C32.2111 144.635 32.1726 144.697 32.1702 144.781C32.1649 144.982 32.3704 145.135 32.7808 145.239C32.8828 145.265 33.02 145.299 33.1995 145.291C33.284 145.287 33.3581 145.274 33.4212 145.262C33.4307 145.297 33.4479 145.335 33.479 145.37C33.5704 145.475 33.7179 145.502 33.9182 145.443C34.1392 145.381 34.3139 145.297 34.468 145.224C34.6027 145.159 34.7187 145.105 34.8161 145.09C34.9973 145.064 35.1662 145.176 35.3684 145.325L35.875 145.705Z" fill="#3E981E"/>
<path d="M35.875 145.705L35.7881 144.903L35.7348 144.853C35.4883 144.62 35.3341 144.373 35.2763 144.119C35.2671 144.078 35.2599 144.037 35.2526 143.996C35.2238 143.831 35.188 143.626 35.0294 143.413C34.9407 143.294 34.706 143.026 34.4639 143.12C34.3986 143.144 34.3544 143.187 34.3238 143.232C34.3161 143.224 34.3082 143.216 34.2998 143.208C34.1952 143.106 34.1221 143.069 34.0516 143.033C33.9975 143.005 33.9416 142.977 33.847 142.901C33.8054 142.868 33.7722 142.838 33.7442 142.813C33.6593 142.737 33.5506 142.649 33.4018 142.684C33.244 142.727 33.1899 142.877 33.154 142.977C33.09 143.155 33.0702 143.277 33.0571 143.358C33.0524 143.388 33.047 143.421 33.0429 143.432C33.0083 143.519 32.5749 143.541 32.4118 143.551C32.0452 143.571 31.7279 143.588 31.6516 143.839C31.5969 144.018 31.711 144.214 32.0005 144.436C32.0907 144.506 32.1809 144.553 32.2594 144.589C32.2111 144.635 32.1726 144.697 32.1702 144.781C32.1649 144.982 32.3704 145.135 32.7808 145.239C32.8828 145.265 33.02 145.299 33.1995 145.291C33.284 145.287 33.3581 145.274 33.4212 145.262C33.4307 145.297 33.4479 145.335 33.479 145.37C33.5704 145.475 33.7179 145.502 33.9182 145.443C34.1392 145.381 34.3139 145.297 34.468 145.224C34.6027 145.159 34.7187 145.105 34.8161 145.09C34.9973 145.064 35.1662 145.176 35.3684 145.325L35.875 145.705Z" fill="#3E981E"/>
<path d="M34.4297 141.138L35.2276 141.257L35.2898 141.219C35.5777 141.039 35.8556 140.953 36.116 140.961C36.1574 140.963 36.1987 140.966 36.2408 140.969C36.4076 140.983 36.615 141.001 36.8612 140.901C36.9984 140.846 37.3173 140.687 37.2881 140.429C37.281 140.359 37.2512 140.306 37.2156 140.265C37.2251 140.259 37.2346 140.254 37.2449 140.248C37.3697 140.172 37.4243 140.111 37.4768 140.052C37.5172 140.007 37.5589 139.96 37.6561 139.887C37.6987 139.856 37.736 139.831 37.7674 139.81C37.8623 139.747 37.9758 139.665 37.9795 139.512C37.9778 139.348 37.8459 139.258 37.7587 139.198C37.603 139.091 37.4898 139.041 37.4147 139.008C37.3873 138.996 37.3564 138.982 37.347 138.975C37.2716 138.92 37.3597 138.495 37.392 138.334C37.4658 137.975 37.5296 137.664 37.3061 137.526C37.1463 137.428 36.9279 137.488 36.6395 137.712C36.5498 137.782 36.4807 137.857 36.4263 137.924C36.3944 137.865 36.3441 137.812 36.2628 137.789C36.0704 137.733 35.8697 137.892 35.6653 138.263C35.6143 138.355 35.5462 138.479 35.509 138.655C35.4916 138.738 35.4854 138.813 35.4811 138.877C35.4439 138.877 35.4033 138.884 35.3611 138.905C35.2368 138.967 35.1736 139.103 35.1799 139.312C35.1834 139.541 35.2201 139.731 35.2523 139.899C35.2801 140.046 35.3037 140.172 35.2935 140.27C35.2721 140.452 35.121 140.587 34.9258 140.744L34.4297 141.138Z" fill="#3E981E"/>
<path d="M34.4297 141.138L35.2276 141.257L35.2898 141.219C35.5777 141.039 35.8556 140.953 36.116 140.961C36.1574 140.963 36.1987 140.966 36.2408 140.969C36.4076 140.983 36.615 141.001 36.8612 140.901C36.9984 140.846 37.3173 140.687 37.2881 140.429C37.281 140.359 37.2512 140.306 37.2156 140.265C37.2251 140.259 37.2346 140.254 37.2449 140.248C37.3697 140.172 37.4243 140.111 37.4768 140.052C37.5172 140.007 37.5589 139.96 37.6561 139.887C37.6987 139.856 37.736 139.831 37.7674 139.81C37.8623 139.747 37.9758 139.665 37.9795 139.512C37.9778 139.348 37.8459 139.258 37.7587 139.198C37.603 139.091 37.4898 139.041 37.4147 139.008C37.3873 138.996 37.3564 138.982 37.347 138.975C37.2716 138.92 37.3597 138.495 37.392 138.334C37.4658 137.975 37.5296 137.664 37.3061 137.526C37.1463 137.428 36.9279 137.488 36.6395 137.712C36.5498 137.782 36.4807 137.857 36.4263 137.924C36.3944 137.865 36.3441 137.812 36.2628 137.789C36.0704 137.733 35.8697 137.892 35.6653 138.263C35.6143 138.355 35.5462 138.479 35.509 138.655C35.4916 138.738 35.4854 138.813 35.4811 138.877C35.4439 138.877 35.4033 138.884 35.3611 138.905C35.2368 138.967 35.1736 139.103 35.1799 139.312C35.1834 139.541 35.2201 139.731 35.2523 139.899C35.2801 140.046 35.3037 140.172 35.2935 140.27C35.2721 140.452 35.121 140.587 34.9258 140.744L34.4297 141.138Z" fill="#3E981E"/>
<path d="M34.4297 141.138L35.2276 141.257L35.2898 141.219C35.5777 141.039 35.8556 140.953 36.116 140.961C36.1574 140.963 36.1987 140.966 36.2408 140.969C36.4076 140.983 36.615 141.001 36.8612 140.901C36.9984 140.846 37.3173 140.687 37.2881 140.429C37.281 140.359 37.2512 140.306 37.2156 140.265C37.2251 140.259 37.2346 140.254 37.2449 140.248C37.3697 140.172 37.4243 140.111 37.4768 140.052C37.5172 140.007 37.5589 139.96 37.6561 139.887C37.6987 139.856 37.736 139.831 37.7674 139.81C37.8623 139.747 37.9758 139.665 37.9795 139.512C37.9778 139.348 37.8459 139.258 37.7587 139.198C37.603 139.091 37.4898 139.041 37.4147 139.008C37.3873 138.996 37.3564 138.982 37.347 138.975C37.2716 138.92 37.3597 138.495 37.392 138.334C37.4658 137.975 37.5296 137.664 37.3061 137.526C37.1463 137.428 36.9279 137.488 36.6395 137.712C36.5498 137.782 36.4807 137.857 36.4263 137.924C36.3944 137.865 36.3441 137.812 36.2628 137.789C36.0704 137.733 35.8697 137.892 35.6653 138.263C35.6143 138.355 35.5462 138.479 35.509 138.655C35.4916 138.738 35.4854 138.813 35.4811 138.877C35.4439 138.877 35.4033 138.884 35.3611 138.905C35.2368 138.967 35.1736 139.103 35.1799 139.312C35.1834 139.541 35.2201 139.731 35.2523 139.899C35.2801 140.046 35.3037 140.172 35.2935 140.27C35.2721 140.452 35.121 140.587 34.9258 140.744L34.4297 141.138Z" fill="#3E981E"/>
<path d="M34.3213 138.744L34.2344 137.942L34.1811 137.892C33.9346 137.659 33.7804 137.412 33.7226 137.158C33.7133 137.117 33.7062 137.077 33.6989 137.035C33.6701 136.87 33.6343 136.665 33.4757 136.452C33.387 136.333 33.1523 136.065 32.9102 136.159C32.8448 136.183 32.8007 136.226 32.7701 136.271C32.7624 136.263 32.7545 136.255 32.7461 136.247C32.6415 136.145 32.5684 136.108 32.4979 136.072C32.4438 136.044 32.3879 136.016 32.2932 135.94C32.2517 135.907 32.2185 135.877 32.1905 135.852C32.1055 135.776 31.9969 135.688 31.8481 135.723C31.6903 135.766 31.6362 135.916 31.6003 136.016C31.5362 136.194 31.5165 136.316 31.5034 136.397C31.4987 136.427 31.4933 136.46 31.4892 136.471C31.4546 136.558 31.0212 136.58 30.8581 136.59C30.4914 136.61 30.1742 136.627 30.0979 136.878C30.0432 137.057 30.1573 137.253 30.4468 137.476C30.537 137.545 30.6271 137.592 30.7057 137.628C30.6574 137.674 30.6189 137.736 30.6165 137.82C30.6112 138.021 30.8167 138.174 31.2271 138.278C31.3291 138.304 31.4663 138.338 31.6458 138.33C31.7303 138.326 31.8044 138.313 31.8675 138.301C31.8769 138.337 31.8942 138.374 31.9253 138.409C32.0167 138.514 32.1642 138.541 32.3644 138.482C32.5855 138.42 32.7602 138.336 32.9143 138.263C33.0489 138.198 33.165 138.144 33.2624 138.129C33.4436 138.103 33.6125 138.215 33.8147 138.364L34.3213 138.744Z" fill="#3E981E"/>
<path d="M34.3213 138.744L34.2344 137.942L34.1811 137.892C33.9346 137.659 33.7804 137.412 33.7226 137.158C33.7133 137.117 33.7062 137.077 33.6989 137.035C33.6701 136.87 33.6343 136.665 33.4757 136.452C33.387 136.333 33.1523 136.065 32.9102 136.159C32.8448 136.183 32.8007 136.226 32.7701 136.271C32.7624 136.263 32.7545 136.255 32.7461 136.247C32.6415 136.145 32.5684 136.108 32.4979 136.072C32.4438 136.044 32.3879 136.016 32.2932 135.94C32.2517 135.907 32.2185 135.877 32.1905 135.852C32.1055 135.776 31.9969 135.688 31.8481 135.723C31.6903 135.766 31.6362 135.916 31.6003 136.016C31.5362 136.194 31.5165 136.316 31.5034 136.397C31.4987 136.427 31.4933 136.46 31.4892 136.471C31.4546 136.558 31.0212 136.58 30.8581 136.59C30.4914 136.61 30.1742 136.627 30.0979 136.878C30.0432 137.057 30.1573 137.253 30.4468 137.476C30.537 137.545 30.6271 137.592 30.7057 137.628C30.6574 137.674 30.6189 137.736 30.6165 137.82C30.6112 138.021 30.8167 138.174 31.2271 138.278C31.3291 138.304 31.4663 138.338 31.6458 138.33C31.7303 138.326 31.8044 138.313 31.8675 138.301C31.8769 138.337 31.8942 138.374 31.9253 138.409C32.0167 138.514 32.1642 138.541 32.3644 138.482C32.5855 138.42 32.7602 138.336 32.9143 138.263C33.0489 138.198 33.165 138.144 33.2624 138.129C33.4436 138.103 33.6125 138.215 33.8147 138.364L34.3213 138.744Z" fill="#3E981E"/>
<path d="M34.3213 138.744L34.2344 137.942L34.1811 137.892C33.9346 137.659 33.7804 137.412 33.7226 137.158C33.7133 137.117 33.7062 137.077 33.6989 137.035C33.6701 136.87 33.6343 136.665 33.4757 136.452C33.387 136.333 33.1523 136.065 32.9102 136.159C32.8448 136.183 32.8007 136.226 32.7701 136.271C32.7624 136.263 32.7545 136.255 32.7461 136.247C32.6415 136.145 32.5684 136.108 32.4979 136.072C32.4438 136.044 32.3879 136.016 32.2932 135.94C32.2517 135.907 32.2185 135.877 32.1905 135.852C32.1055 135.776 31.9969 135.688 31.8481 135.723C31.6903 135.766 31.6362 135.916 31.6003 136.016C31.5362 136.194 31.5165 136.316 31.5034 136.397C31.4987 136.427 31.4933 136.46 31.4892 136.471C31.4546 136.558 31.0212 136.58 30.8581 136.59C30.4914 136.61 30.1742 136.627 30.0979 136.878C30.0432 137.057 30.1573 137.253 30.4468 137.476C30.537 137.545 30.6271 137.592 30.7057 137.628C30.6574 137.674 30.6189 137.736 30.6165 137.82C30.6112 138.021 30.8167 138.174 31.2271 138.278C31.3291 138.304 31.4663 138.338 31.6458 138.33C31.7303 138.326 31.8044 138.313 31.8675 138.301C31.8769 138.337 31.8942 138.374 31.9253 138.409C32.0167 138.514 32.1642 138.541 32.3644 138.482C32.5855 138.42 32.7602 138.336 32.9143 138.263C33.0489 138.198 33.165 138.144 33.2624 138.129C33.4436 138.103 33.6125 138.215 33.8147 138.364L34.3213 138.744Z" fill="#3E981E"/>
<path d="M36.9092 154.11L37.0502 153.971L37.2463 153.95C37.2454 153.931 37.2467 153.888 37.2481 153.821C37.2557 153.452 37.2791 152.329 37.1227 150.604C37.0135 149.399 36.8311 148.177 36.5804 146.969C36.3293 145.76 36.0688 144.86 35.8595 144.137C35.7015 143.592 35.5421 143.074 35.3865 142.57C34.9712 141.224 34.579 139.952 34.3362 138.501C34.2818 138.178 34.1689 137.503 34.4 136.708C34.5341 136.246 34.7636 135.812 35.0825 135.417L34.7739 135.168C34.422 135.604 34.1681 136.085 34.0192 136.598C33.763 137.48 33.886 138.214 33.9451 138.567C34.1922 140.043 34.5883 141.328 35.0077 142.687C35.1625 143.189 35.3214 143.704 35.4787 144.247C35.6861 144.964 35.9443 145.856 36.1921 147.049C36.44 148.242 36.6201 149.45 36.7281 150.639C36.8824 152.343 36.8592 153.449 36.8516 153.813C36.8477 154.007 36.8468 154.047 36.9092 154.11Z" fill="#3E981E"/>
<path d="M36.9092 154.11L37.0502 153.971L37.2463 153.95C37.2454 153.931 37.2467 153.888 37.2481 153.821C37.2557 153.452 37.2791 152.329 37.1227 150.604C37.0135 149.399 36.8311 148.177 36.5804 146.969C36.3293 145.76 36.0688 144.86 35.8595 144.137C35.7015 143.592 35.5421 143.074 35.3865 142.57C34.9712 141.224 34.579 139.952 34.3362 138.501C34.2818 138.178 34.1689 137.503 34.4 136.708C34.5341 136.246 34.7636 135.812 35.0825 135.417L34.7739 135.168C34.422 135.604 34.1681 136.085 34.0192 136.598C33.763 137.48 33.886 138.214 33.9451 138.567C34.1922 140.043 34.5883 141.328 35.0077 142.687C35.1625 143.189 35.3214 143.704 35.4787 144.247C35.6861 144.964 35.9443 145.856 36.1921 147.049C36.44 148.242 36.6201 149.45 36.7281 150.639C36.8824 152.343 36.8592 153.449 36.8516 153.813C36.8477 154.007 36.8468 154.047 36.9092 154.11Z" fill="#3E981E"/>
<path d="M36.9092 154.11L37.0502 153.971L37.2463 153.95C37.2454 153.931 37.2467 153.888 37.2481 153.821C37.2557 153.452 37.2791 152.329 37.1227 150.604C37.0135 149.399 36.8311 148.177 36.5804 146.969C36.3293 145.76 36.0688 144.86 35.8595 144.137C35.7015 143.592 35.5421 143.074 35.3865 142.57C34.9712 141.224 34.579 139.952 34.3362 138.501C34.2818 138.178 34.1689 137.503 34.4 136.708C34.5341 136.246 34.7636 135.812 35.0825 135.417L34.7739 135.168C34.422 135.604 34.1681 136.085 34.0192 136.598C33.763 137.48 33.886 138.214 33.9451 138.567C34.1922 140.043 34.5883 141.328 35.0077 142.687C35.1625 143.189 35.3214 143.704 35.4787 144.247C35.6861 144.964 35.9443 145.856 36.1921 147.049C36.44 148.242 36.6201 149.45 36.7281 150.639C36.8824 152.343 36.8592 153.449 36.8516 153.813C36.8477 154.007 36.8468 154.047 36.9092 154.11Z" fill="#3E981E"/>
<path d="M35.9279 135.874C35.9438 135.87 35.9598 135.866 35.9758 135.862C36.3013 135.77 36.5624 135.505 36.752 135.073C36.8408 134.87 36.8618 134.657 36.9036 134.23C36.9101 134.165 36.9391 133.832 36.9035 133.392C36.8803 133.104 36.8494 132.988 36.771 132.897C36.684 132.796 36.5667 132.738 36.4429 132.709C36.4395 132.671 36.427 132.634 36.4023 132.598C36.3004 132.452 36.1298 132.512 36.0372 132.543C35.9906 132.56 35.9325 132.581 35.8671 132.592C35.7643 132.61 35.703 132.592 35.6101 132.565C35.5213 132.539 35.4108 132.507 35.2581 132.51C34.9568 132.514 34.7338 132.649 34.6602 132.694C34.2728 132.927 34.1391 133.298 33.9843 133.728C33.9536 133.814 33.8515 134.126 33.8277 134.527C33.8106 134.816 33.8485 134.935 33.892 135.019C33.9808 135.194 34.1168 135.274 34.4544 135.444C34.807 135.622 34.9839 135.711 35.129 135.757C35.4666 135.863 35.6785 135.93 35.9279 135.874Z" fill="#3E981E"/>
<path d="M35.9279 135.874C35.9438 135.87 35.9598 135.866 35.9758 135.862C36.3013 135.77 36.5624 135.505 36.752 135.073C36.8408 134.87 36.8618 134.657 36.9036 134.23C36.9101 134.165 36.9391 133.832 36.9035 133.392C36.8803 133.104 36.8494 132.988 36.771 132.897C36.684 132.796 36.5667 132.738 36.4429 132.709C36.4395 132.671 36.427 132.634 36.4023 132.598C36.3004 132.452 36.1298 132.512 36.0372 132.543C35.9906 132.56 35.9325 132.581 35.8671 132.592C35.7643 132.61 35.703 132.592 35.6101 132.565C35.5213 132.539 35.4108 132.507 35.2581 132.51C34.9568 132.514 34.7338 132.649 34.6602 132.694C34.2728 132.927 34.1391 133.298 33.9843 133.728C33.9536 133.814 33.8515 134.126 33.8277 134.527C33.8106 134.816 33.8485 134.935 33.892 135.019C33.9808 135.194 34.1168 135.274 34.4544 135.444C34.807 135.622 34.9839 135.711 35.129 135.757C35.4666 135.863 35.6785 135.93 35.9279 135.874Z" fill="#3E981E"/>
<path d="M35.9279 135.874C35.9438 135.87 35.9598 135.866 35.9758 135.862C36.3013 135.77 36.5624 135.505 36.752 135.073C36.8408 134.87 36.8618 134.657 36.9036 134.23C36.9101 134.165 36.9391 133.832 36.9035 133.392C36.8803 133.104 36.8494 132.988 36.771 132.897C36.684 132.796 36.5667 132.738 36.4429 132.709C36.4395 132.671 36.427 132.634 36.4023 132.598C36.3004 132.452 36.1298 132.512 36.0372 132.543C35.9906 132.56 35.9325 132.581 35.8671 132.592C35.7643 132.61 35.703 132.592 35.6101 132.565C35.5213 132.539 35.4108 132.507 35.2581 132.51C34.9568 132.514 34.7338 132.649 34.6602 132.694C34.2728 132.927 34.1391 133.298 33.9843 133.728C33.9536 133.814 33.8515 134.126 33.8277 134.527C33.8106 134.816 33.8485 134.935 33.892 135.019C33.9808 135.194 34.1168 135.274 34.4544 135.444C34.807 135.622 34.9839 135.711 35.129 135.757C35.4666 135.863 35.6785 135.93 35.9279 135.874Z" fill="#3E981E"/>
<path d="M218.795 142.604C218.877 142.355 219.493 142.465 219.552 142.242C219.611 142.021 219.02 141.835 218.566 141.209C218.484 141.097 217.969 140.386 218.167 140.088C218.541 139.521 221.149 140.932 221.775 140.14C221.912 139.967 221.969 139.668 222.378 139.113C222.541 138.893 222.645 138.786 222.77 138.789C222.947 138.794 223.011 139.015 223.289 139.416C223.706 140.018 223.857 139.943 224.132 140.436C224.336 140.802 224.36 141.036 224.507 141.049C224.716 141.069 224.802 140.613 225.056 140.595C225.316 140.577 225.576 141.028 225.705 141.38C225.946 142.04 225.797 142.544 225.763 143.047C225.727 143.594 225.812 144.394 226.406 145.421L232.007 154.344C230.804 152.525 227.389 147.565 226.014 145.745C225.617 145.22 225.19 144.692 224.533 144.593C223.901 144.497 223.131 144.81 222.057 144.792C221.932 144.79 221.583 144.78 221.498 144.595C221.427 144.442 221.602 144.309 221.538 144.165C221.453 143.972 221.071 144.055 220.549 143.927C220.181 143.836 219.932 143.687 219.717 143.559C219.652 143.52 218.687 142.936 218.795 142.604Z" fill="#3E981E"/>
<path d="M218.795 142.604C218.877 142.355 219.493 142.465 219.552 142.242C219.611 142.021 219.02 141.835 218.566 141.209C218.484 141.097 217.969 140.386 218.167 140.088C218.541 139.521 221.149 140.932 221.775 140.14C221.912 139.967 221.969 139.668 222.378 139.113C222.541 138.893 222.645 138.786 222.77 138.789C222.947 138.794 223.011 139.015 223.289 139.416C223.706 140.018 223.857 139.943 224.132 140.436C224.336 140.802 224.36 141.036 224.507 141.049C224.716 141.069 224.802 140.613 225.056 140.595C225.316 140.577 225.576 141.028 225.705 141.38C225.946 142.04 225.797 142.544 225.763 143.047C225.727 143.594 225.812 144.394 226.406 145.421L232.007 154.344C230.804 152.525 227.389 147.565 226.014 145.745C225.617 145.22 225.19 144.692 224.533 144.593C223.901 144.497 223.131 144.81 222.057 144.792C221.932 144.79 221.583 144.78 221.498 144.595C221.427 144.442 221.602 144.309 221.538 144.165C221.453 143.972 221.071 144.055 220.549 143.927C220.181 143.836 219.932 143.687 219.717 143.559C219.652 143.52 218.687 142.936 218.795 142.604Z" fill="#3E981E"/>
<path d="M218.795 142.604C218.877 142.355 219.493 142.465 219.552 142.242C219.611 142.021 219.02 141.835 218.566 141.209C218.484 141.097 217.969 140.386 218.167 140.088C218.541 139.521 221.149 140.932 221.775 140.14C221.912 139.967 221.969 139.668 222.378 139.113C222.541 138.893 222.645 138.786 222.77 138.789C222.947 138.794 223.011 139.015 223.289 139.416C223.706 140.018 223.857 139.943 224.132 140.436C224.336 140.802 224.36 141.036 224.507 141.049C224.716 141.069 224.802 140.613 225.056 140.595C225.316 140.577 225.576 141.028 225.705 141.38C225.946 142.04 225.797 142.544 225.763 143.047C225.727 143.594 225.812 144.394 226.406 145.421L232.007 154.344C230.804 152.525 227.389 147.565 226.014 145.745C225.617 145.22 225.19 144.692 224.533 144.593C223.901 144.497 223.131 144.81 222.057 144.792C221.932 144.79 221.583 144.78 221.498 144.595C221.427 144.442 221.602 144.309 221.538 144.165C221.453 143.972 221.071 144.055 220.549 143.927C220.181 143.836 219.932 143.687 219.717 143.559C219.652 143.52 218.687 142.936 218.795 142.604Z" fill="#3E981E"/>
<path d="M233.466 144.691C233.612 144.659 233.736 144.993 233.862 144.958C233.988 144.923 233.909 144.579 234.085 144.176C234.116 144.104 234.316 143.646 234.52 143.656C234.906 143.677 234.966 145.364 235.535 145.443C235.66 145.46 235.823 145.402 236.213 145.442C236.369 145.459 236.451 145.479 236.485 145.541C236.534 145.629 236.444 145.724 236.327 145.977C236.152 146.355 236.233 146.407 236.07 146.685C235.949 146.89 235.842 146.97 235.877 147.046C235.928 147.154 236.176 147.065 236.258 147.184C236.342 147.307 236.196 147.564 236.061 147.729C235.806 148.038 235.516 148.11 235.259 148.239C234.981 148.379 234.612 148.651 234.28 149.239L231.516 154.563C232.062 153.448 233.511 150.34 234.007 149.14C234.151 148.794 234.286 148.432 234.146 148.081C234.01 147.743 233.634 147.456 233.333 146.923C233.298 146.861 233.203 146.687 233.269 146.592C233.324 146.513 233.439 146.56 233.492 146.488C233.562 146.39 233.411 146.226 233.323 145.933C233.261 145.727 233.263 145.561 233.264 145.419C233.264 145.376 233.272 144.734 233.466 144.691Z" fill="#3E981E"/>
<path d="M233.466 144.691C233.612 144.659 233.736 144.993 233.862 144.958C233.988 144.923 233.909 144.579 234.085 144.176C234.116 144.104 234.316 143.646 234.52 143.656C234.906 143.677 234.966 145.364 235.535 145.443C235.66 145.46 235.823 145.402 236.213 145.442C236.369 145.459 236.451 145.479 236.485 145.541C236.534 145.629 236.444 145.724 236.327 145.977C236.152 146.355 236.233 146.407 236.07 146.685C235.949 146.89 235.842 146.97 235.877 147.046C235.928 147.154 236.176 147.065 236.258 147.184C236.342 147.307 236.196 147.564 236.061 147.729C235.806 148.038 235.516 148.11 235.259 148.239C234.981 148.379 234.612 148.651 234.28 149.239L231.516 154.563C232.062 153.448 233.511 150.34 234.007 149.14C234.151 148.794 234.286 148.432 234.146 148.081C234.01 147.743 233.634 147.456 233.333 146.923C233.298 146.861 233.203 146.687 233.269 146.592C233.324 146.513 233.439 146.56 233.492 146.488C233.562 146.39 233.411 146.226 233.323 145.933C233.261 145.727 233.263 145.561 233.264 145.419C233.264 145.376 233.272 144.734 233.466 144.691Z" fill="#3E981E"/>
<path d="M233.466 144.691C233.612 144.659 233.736 144.993 233.862 144.958C233.988 144.923 233.909 144.579 234.085 144.176C234.116 144.104 234.316 143.646 234.52 143.656C234.906 143.677 234.966 145.364 235.535 145.443C235.66 145.46 235.823 145.402 236.213 145.442C236.369 145.459 236.451 145.479 236.485 145.541C236.534 145.629 236.444 145.724 236.327 145.977C236.152 146.355 236.233 146.407 236.07 146.685C235.949 146.89 235.842 146.97 235.877 147.046C235.928 147.154 236.176 147.065 236.258 147.184C236.342 147.307 236.196 147.564 236.061 147.729C235.806 148.038 235.516 148.11 235.259 148.239C234.981 148.379 234.612 148.651 234.28 149.239L231.516 154.563C232.062 153.448 233.511 150.34 234.007 149.14C234.151 148.794 234.286 148.432 234.146 148.081C234.01 147.743 233.634 147.456 233.333 146.923C233.298 146.861 233.203 146.687 233.269 146.592C233.324 146.513 233.439 146.56 233.492 146.488C233.562 146.39 233.411 146.226 233.323 145.933C233.261 145.727 233.263 145.561 233.264 145.419C233.264 145.376 233.272 144.734 233.466 144.691Z" fill="#3E981E"/>
<path d="M230.709 145.986L230.622 145.184L230.569 145.134C230.322 144.901 230.168 144.654 230.11 144.4C230.101 144.36 230.094 144.319 230.087 144.277C230.058 144.112 230.022 143.907 229.863 143.694C229.775 143.576 229.54 143.308 229.298 143.401C229.233 143.426 229.188 143.468 229.158 143.513C229.15 143.505 229.142 143.497 229.134 143.489C229.029 143.387 228.956 143.35 228.886 143.314C228.831 143.287 228.776 143.258 228.681 143.183C228.639 143.149 228.606 143.12 228.578 143.094C228.493 143.019 228.385 142.93 228.236 142.965C228.078 143.008 228.024 143.159 227.988 143.258C227.924 143.436 227.904 143.558 227.891 143.639C227.886 143.669 227.881 143.702 227.877 143.713C227.842 143.8 227.409 143.822 227.246 143.832C226.879 143.852 226.562 143.869 226.486 144.12C226.431 144.3 226.545 144.496 226.834 144.718C226.925 144.787 227.015 144.835 227.093 144.87C227.045 144.916 227.007 144.978 227.004 145.063C226.999 145.263 227.204 145.417 227.615 145.52C227.717 145.546 227.854 145.581 228.033 145.572C228.118 145.568 228.192 145.555 228.255 145.543C228.265 145.579 228.282 145.616 228.313 145.652C228.404 145.756 228.552 145.783 228.752 145.724C228.973 145.662 229.148 145.578 229.302 145.505C229.437 145.441 229.553 145.386 229.65 145.371C229.831 145.346 230 145.457 230.202 145.606L230.709 145.986Z" fill="#3E981E"/>
<path d="M230.709 145.986L230.622 145.184L230.569 145.134C230.322 144.901 230.168 144.654 230.11 144.4C230.101 144.36 230.094 144.319 230.087 144.277C230.058 144.112 230.022 143.907 229.863 143.694C229.775 143.576 229.54 143.308 229.298 143.401C229.233 143.426 229.188 143.468 229.158 143.513C229.15 143.505 229.142 143.497 229.134 143.489C229.029 143.387 228.956 143.35 228.886 143.314C228.831 143.287 228.776 143.258 228.681 143.183C228.639 143.149 228.606 143.12 228.578 143.094C228.493 143.019 228.385 142.93 228.236 142.965C228.078 143.008 228.024 143.159 227.988 143.258C227.924 143.436 227.904 143.558 227.891 143.639C227.886 143.669 227.881 143.702 227.877 143.713C227.842 143.8 227.409 143.822 227.246 143.832C226.879 143.852 226.562 143.869 226.486 144.12C226.431 144.3 226.545 144.496 226.834 144.718C226.925 144.787 227.015 144.835 227.093 144.87C227.045 144.916 227.007 144.978 227.004 145.063C226.999 145.263 227.204 145.417 227.615 145.52C227.717 145.546 227.854 145.581 228.033 145.572C228.118 145.568 228.192 145.555 228.255 145.543C228.265 145.579 228.282 145.616 228.313 145.652C228.404 145.756 228.552 145.783 228.752 145.724C228.973 145.662 229.148 145.578 229.302 145.505C229.437 145.441 229.553 145.386 229.65 145.371C229.831 145.346 230 145.457 230.202 145.606L230.709 145.986Z" fill="#3E981E"/>
<path d="M230.709 145.986L230.622 145.184L230.569 145.134C230.322 144.901 230.168 144.654 230.11 144.4C230.101 144.36 230.094 144.319 230.087 144.277C230.058 144.112 230.022 143.907 229.863 143.694C229.775 143.576 229.54 143.308 229.298 143.401C229.233 143.426 229.188 143.468 229.158 143.513C229.15 143.505 229.142 143.497 229.134 143.489C229.029 143.387 228.956 143.35 228.886 143.314C228.831 143.287 228.776 143.258 228.681 143.183C228.639 143.149 228.606 143.12 228.578 143.094C228.493 143.019 228.385 142.93 228.236 142.965C228.078 143.008 228.024 143.159 227.988 143.258C227.924 143.436 227.904 143.558 227.891 143.639C227.886 143.669 227.881 143.702 227.877 143.713C227.842 143.8 227.409 143.822 227.246 143.832C226.879 143.852 226.562 143.869 226.486 144.12C226.431 144.3 226.545 144.496 226.834 144.718C226.925 144.787 227.015 144.835 227.093 144.87C227.045 144.916 227.007 144.978 227.004 145.063C226.999 145.263 227.204 145.417 227.615 145.52C227.717 145.546 227.854 145.581 228.033 145.572C228.118 145.568 228.192 145.555 228.255 145.543C228.265 145.579 228.282 145.616 228.313 145.652C228.404 145.756 228.552 145.783 228.752 145.724C228.973 145.662 229.148 145.578 229.302 145.505C229.437 145.441 229.553 145.386 229.65 145.371C229.831 145.346 230 145.457 230.202 145.606L230.709 145.986Z" fill="#3E981E"/>
<path d="M229.264 141.419L230.062 141.539L230.124 141.5C230.412 141.321 230.69 141.234 230.95 141.242C230.991 141.244 231.033 141.247 231.075 141.251C231.242 141.265 231.449 141.282 231.695 141.183C231.832 141.127 232.151 140.968 232.122 140.71C232.115 140.641 232.085 140.587 232.05 140.546C232.059 140.541 232.069 140.535 232.079 140.529C232.204 140.454 232.258 140.392 232.311 140.333C232.351 140.288 232.393 140.241 232.49 140.169C232.533 140.137 232.57 140.112 232.601 140.092C232.696 140.029 232.81 139.946 232.813 139.793C232.812 139.63 232.68 139.539 232.593 139.479C232.437 139.372 232.324 139.322 232.249 139.289C232.221 139.277 232.19 139.263 232.181 139.256C232.106 139.201 232.194 138.776 232.226 138.616C232.3 138.256 232.364 137.945 232.14 137.807C231.98 137.709 231.762 137.769 231.473 137.993C231.384 138.063 231.315 138.138 231.26 138.205C231.228 138.147 231.178 138.094 231.097 138.07C230.904 138.014 230.704 138.174 230.499 138.544C230.448 138.636 230.38 138.76 230.343 138.936C230.326 139.019 230.319 139.094 230.315 139.158C230.278 139.158 230.237 139.165 230.195 139.186C230.071 139.248 230.008 139.384 230.014 139.593C230.017 139.822 230.054 140.013 230.086 140.18C230.114 140.327 230.138 140.453 230.128 140.551C230.106 140.733 229.955 140.868 229.76 141.026L229.264 141.419Z" fill="#3E981E"/>
<path d="M229.264 141.419L230.062 141.539L230.124 141.5C230.412 141.321 230.69 141.234 230.95 141.242C230.991 141.244 231.033 141.247 231.075 141.251C231.242 141.265 231.449 141.282 231.695 141.183C231.832 141.127 232.151 140.968 232.122 140.71C232.115 140.641 232.085 140.587 232.05 140.546C232.059 140.541 232.069 140.535 232.079 140.529C232.204 140.454 232.258 140.392 232.311 140.333C232.351 140.288 232.393 140.241 232.49 140.169C232.533 140.137 232.57 140.112 232.601 140.092C232.696 140.029 232.81 139.946 232.813 139.793C232.812 139.63 232.68 139.539 232.593 139.479C232.437 139.372 232.324 139.322 232.249 139.289C232.221 139.277 232.19 139.263 232.181 139.256C232.106 139.201 232.194 138.776 232.226 138.616C232.3 138.256 232.364 137.945 232.14 137.807C231.98 137.709 231.762 137.769 231.473 137.993C231.384 138.063 231.315 138.138 231.26 138.205C231.228 138.147 231.178 138.094 231.097 138.07C230.904 138.014 230.704 138.174 230.499 138.544C230.448 138.636 230.38 138.76 230.343 138.936C230.326 139.019 230.319 139.094 230.315 139.158C230.278 139.158 230.237 139.165 230.195 139.186C230.071 139.248 230.008 139.384 230.014 139.593C230.017 139.822 230.054 140.013 230.086 140.18C230.114 140.327 230.138 140.453 230.128 140.551C230.106 140.733 229.955 140.868 229.76 141.026L229.264 141.419Z" fill="#3E981E"/>
<path d="M229.264 141.419L230.062 141.539L230.124 141.5C230.412 141.321 230.69 141.234 230.95 141.242C230.991 141.244 231.033 141.247 231.075 141.251C231.242 141.265 231.449 141.282 231.695 141.183C231.832 141.127 232.151 140.968 232.122 140.71C232.115 140.641 232.085 140.587 232.05 140.546C232.059 140.541 232.069 140.535 232.079 140.529C232.204 140.454 232.258 140.392 232.311 140.333C232.351 140.288 232.393 140.241 232.49 140.169C232.533 140.137 232.57 140.112 232.601 140.092C232.696 140.029 232.81 139.946 232.813 139.793C232.812 139.63 232.68 139.539 232.593 139.479C232.437 139.372 232.324 139.322 232.249 139.289C232.221 139.277 232.19 139.263 232.181 139.256C232.106 139.201 232.194 138.776 232.226 138.616C232.3 138.256 232.364 137.945 232.14 137.807C231.98 137.709 231.762 137.769 231.473 137.993C231.384 138.063 231.315 138.138 231.26 138.205C231.228 138.147 231.178 138.094 231.097 138.07C230.904 138.014 230.704 138.174 230.499 138.544C230.448 138.636 230.38 138.76 230.343 138.936C230.326 139.019 230.319 139.094 230.315 139.158C230.278 139.158 230.237 139.165 230.195 139.186C230.071 139.248 230.008 139.384 230.014 139.593C230.017 139.822 230.054 140.013 230.086 140.18C230.114 140.327 230.138 140.453 230.128 140.551C230.106 140.733 229.955 140.868 229.76 141.026L229.264 141.419Z" fill="#3E981E"/>
<path d="M229.155 139.025L229.068 138.223L229.015 138.173C228.769 137.94 228.614 137.693 228.557 137.439C228.547 137.399 228.54 137.358 228.533 137.316C228.504 137.151 228.468 136.946 228.31 136.733C228.221 136.615 227.986 136.347 227.744 136.44C227.679 136.465 227.635 136.507 227.604 136.552C227.596 136.544 227.589 136.536 227.58 136.528C227.476 136.426 227.402 136.389 227.332 136.353C227.278 136.326 227.222 136.297 227.127 136.222C227.086 136.188 227.052 136.159 227.024 136.134C226.94 136.058 226.831 135.969 226.682 136.004C226.524 136.047 226.47 136.198 226.434 136.297C226.37 136.475 226.35 136.597 226.337 136.678C226.333 136.708 226.327 136.741 226.323 136.752C226.289 136.839 225.855 136.862 225.692 136.871C225.325 136.891 225.008 136.908 224.932 137.159C224.877 137.339 224.991 137.535 225.281 137.757C225.371 137.826 225.461 137.874 225.54 137.909C225.491 137.955 225.453 138.017 225.451 138.102C225.445 138.302 225.651 138.456 226.061 138.559C226.163 138.585 226.3 138.62 226.48 138.611C226.564 138.607 226.638 138.594 226.702 138.582C226.711 138.618 226.728 138.655 226.759 138.691C226.851 138.795 226.998 138.822 227.198 138.763C227.419 138.701 227.594 138.618 227.748 138.544C227.883 138.48 227.999 138.425 228.096 138.41C228.278 138.385 228.447 138.496 228.649 138.645L229.155 139.025Z" fill="#3E981E"/>
<path d="M229.155 139.025L229.068 138.223L229.015 138.173C228.769 137.94 228.614 137.693 228.557 137.439C228.547 137.399 228.54 137.358 228.533 137.316C228.504 137.151 228.468 136.946 228.31 136.733C228.221 136.615 227.986 136.347 227.744 136.44C227.679 136.465 227.635 136.507 227.604 136.552C227.596 136.544 227.589 136.536 227.58 136.528C227.476 136.426 227.402 136.389 227.332 136.353C227.278 136.326 227.222 136.297 227.127 136.222C227.086 136.188 227.052 136.159 227.024 136.134C226.94 136.058 226.831 135.969 226.682 136.004C226.524 136.047 226.47 136.198 226.434 136.297C226.37 136.475 226.35 136.597 226.337 136.678C226.333 136.708 226.327 136.741 226.323 136.752C226.289 136.839 225.855 136.862 225.692 136.871C225.325 136.891 225.008 136.908 224.932 137.159C224.877 137.339 224.991 137.535 225.281 137.757C225.371 137.826 225.461 137.874 225.54 137.909C225.491 137.955 225.453 138.017 225.451 138.102C225.445 138.302 225.651 138.456 226.061 138.559C226.163 138.585 226.3 138.62 226.48 138.611C226.564 138.607 226.638 138.594 226.702 138.582C226.711 138.618 226.728 138.655 226.759 138.691C226.851 138.795 226.998 138.822 227.198 138.763C227.419 138.701 227.594 138.618 227.748 138.544C227.883 138.48 227.999 138.425 228.096 138.41C228.278 138.385 228.447 138.496 228.649 138.645L229.155 139.025Z" fill="#3E981E"/>
<path d="M229.155 139.025L229.068 138.223L229.015 138.173C228.769 137.94 228.614 137.693 228.557 137.439C228.547 137.399 228.54 137.358 228.533 137.316C228.504 137.151 228.468 136.946 228.31 136.733C228.221 136.615 227.986 136.347 227.744 136.44C227.679 136.465 227.635 136.507 227.604 136.552C227.596 136.544 227.589 136.536 227.58 136.528C227.476 136.426 227.402 136.389 227.332 136.353C227.278 136.326 227.222 136.297 227.127 136.222C227.086 136.188 227.052 136.159 227.024 136.134C226.94 136.058 226.831 135.969 226.682 136.004C226.524 136.047 226.47 136.198 226.434 136.297C226.37 136.475 226.35 136.597 226.337 136.678C226.333 136.708 226.327 136.741 226.323 136.752C226.289 136.839 225.855 136.862 225.692 136.871C225.325 136.891 225.008 136.908 224.932 137.159C224.877 137.339 224.991 137.535 225.281 137.757C225.371 137.826 225.461 137.874 225.54 137.909C225.491 137.955 225.453 138.017 225.451 138.102C225.445 138.302 225.651 138.456 226.061 138.559C226.163 138.585 226.3 138.62 226.48 138.611C226.564 138.607 226.638 138.594 226.702 138.582C226.711 138.618 226.728 138.655 226.759 138.691C226.851 138.795 226.998 138.822 227.198 138.763C227.419 138.701 227.594 138.618 227.748 138.544C227.883 138.48 227.999 138.425 228.096 138.41C228.278 138.385 228.447 138.496 228.649 138.645L229.155 139.025Z" fill="#3E981E"/>
<path d="M231.743 154.391L231.884 154.252L232.08 154.231C232.079 154.213 232.081 154.17 232.082 154.102C232.09 153.733 232.113 152.61 231.957 150.885C231.847 149.68 231.665 148.458 231.414 147.25C231.163 146.041 230.903 145.141 230.693 144.418C230.535 143.873 230.376 143.355 230.22 142.851C229.805 141.505 229.413 140.233 229.17 138.783C229.116 138.459 229.003 137.785 229.234 136.989C229.368 136.528 229.598 136.093 229.917 135.698L229.608 135.449C229.256 135.885 229.002 136.366 228.853 136.879C228.597 137.761 228.72 138.496 228.779 138.848C229.026 140.325 229.422 141.609 229.842 142.968C229.997 143.47 230.155 143.985 230.313 144.529C230.52 145.245 230.778 146.137 231.026 147.331C231.274 148.524 231.454 149.731 231.562 150.921C231.716 152.624 231.693 153.73 231.686 154.094C231.682 154.288 231.681 154.329 231.743 154.391Z" fill="#3E981E"/>
<path d="M231.743 154.391L231.884 154.252L232.08 154.231C232.079 154.213 232.081 154.17 232.082 154.102C232.09 153.733 232.113 152.61 231.957 150.885C231.847 149.68 231.665 148.458 231.414 147.25C231.163 146.041 230.903 145.141 230.693 144.418C230.535 143.873 230.376 143.355 230.22 142.851C229.805 141.505 229.413 140.233 229.17 138.783C229.116 138.459 229.003 137.785 229.234 136.989C229.368 136.528 229.598 136.093 229.917 135.698L229.608 135.449C229.256 135.885 229.002 136.366 228.853 136.879C228.597 137.761 228.72 138.496 228.779 138.848C229.026 140.325 229.422 141.609 229.842 142.968C229.997 143.47 230.155 143.985 230.313 144.529C230.52 145.245 230.778 146.137 231.026 147.331C231.274 148.524 231.454 149.731 231.562 150.921C231.716 152.624 231.693 153.73 231.686 154.094C231.682 154.288 231.681 154.329 231.743 154.391Z" fill="#3E981E"/>
<path d="M231.743 154.391L231.884 154.252L232.08 154.231C232.079 154.213 232.081 154.17 232.082 154.102C232.09 153.733 232.113 152.61 231.957 150.885C231.847 149.68 231.665 148.458 231.414 147.25C231.163 146.041 230.903 145.141 230.693 144.418C230.535 143.873 230.376 143.355 230.22 142.851C229.805 141.505 229.413 140.233 229.17 138.783C229.116 138.459 229.003 137.785 229.234 136.989C229.368 136.528 229.598 136.093 229.917 135.698L229.608 135.449C229.256 135.885 229.002 136.366 228.853 136.879C228.597 137.761 228.72 138.496 228.779 138.848C229.026 140.325 229.422 141.609 229.842 142.968C229.997 143.47 230.155 143.985 230.313 144.529C230.52 145.245 230.778 146.137 231.026 147.331C231.274 148.524 231.454 149.731 231.562 150.921C231.716 152.624 231.693 153.73 231.686 154.094C231.682 154.288 231.681 154.329 231.743 154.391Z" fill="#3E981E"/>
<path d="M230.762 136.155C230.778 136.152 230.794 136.148 230.81 136.143C231.135 136.052 231.396 135.786 231.586 135.355C231.675 135.152 231.696 134.938 231.738 134.512C231.744 134.446 231.773 134.113 231.737 133.673C231.714 133.385 231.683 133.269 231.605 133.178C231.518 133.077 231.401 133.019 231.277 132.99C231.273 132.952 231.261 132.915 231.236 132.879C231.134 132.733 230.964 132.793 230.871 132.824C230.825 132.841 230.766 132.862 230.701 132.873C230.598 132.891 230.537 132.873 230.444 132.846C230.355 132.82 230.245 132.788 230.092 132.791C229.791 132.795 229.568 132.931 229.494 132.975C229.107 133.208 228.973 133.579 228.818 134.009C228.788 134.095 228.686 134.407 228.662 134.808C228.645 135.098 228.682 135.216 228.726 135.301C228.815 135.475 228.951 135.556 229.288 135.725C229.641 135.903 229.818 135.992 229.963 136.038C230.301 136.144 230.513 136.211 230.762 136.155Z" fill="#3E981E"/>
<path d="M230.762 136.155C230.778 136.152 230.794 136.148 230.81 136.143C231.135 136.052 231.396 135.786 231.586 135.355C231.675 135.152 231.696 134.938 231.738 134.512C231.744 134.446 231.773 134.113 231.737 133.673C231.714 133.385 231.683 133.269 231.605 133.178C231.518 133.077 231.401 133.019 231.277 132.99C231.273 132.952 231.261 132.915 231.236 132.879C231.134 132.733 230.964 132.793 230.871 132.824C230.825 132.841 230.766 132.862 230.701 132.873C230.598 132.891 230.537 132.873 230.444 132.846C230.355 132.82 230.245 132.788 230.092 132.791C229.791 132.795 229.568 132.931 229.494 132.975C229.107 133.208 228.973 133.579 228.818 134.009C228.788 134.095 228.686 134.407 228.662 134.808C228.645 135.098 228.682 135.216 228.726 135.301C228.815 135.475 228.951 135.556 229.288 135.725C229.641 135.903 229.818 135.992 229.963 136.038C230.301 136.144 230.513 136.211 230.762 136.155Z" fill="#3E981E"/>
<path d="M230.762 136.155C230.778 136.152 230.794 136.148 230.81 136.143C231.135 136.052 231.396 135.786 231.586 135.355C231.675 135.152 231.696 134.938 231.738 134.512C231.744 134.446 231.773 134.113 231.737 133.673C231.714 133.385 231.683 133.269 231.605 133.178C231.518 133.077 231.401 133.019 231.277 132.99C231.273 132.952 231.261 132.915 231.236 132.879C231.134 132.733 230.964 132.793 230.871 132.824C230.825 132.841 230.766 132.862 230.701 132.873C230.598 132.891 230.537 132.873 230.444 132.846C230.355 132.82 230.245 132.788 230.092 132.791C229.791 132.795 229.568 132.931 229.494 132.975C229.107 133.208 228.973 133.579 228.818 134.009C228.788 134.095 228.686 134.407 228.662 134.808C228.645 135.098 228.682 135.216 228.726 135.301C228.815 135.475 228.951 135.556 229.288 135.725C229.641 135.903 229.818 135.992 229.963 136.038C230.301 136.144 230.513 136.211 230.762 136.155Z" fill="#3E981E"/>
</svg>
